<?xml version="1.0" encoding="utf-8"?>
<!-- Generator: Adobe Illustrator 18.1.1, SVG Export Plug-In . SVG Version: 6.00 Build 0)  -->
<svg version="1.1" id="Layer_1" xmlns="http://www.w3.org/2000/svg" xmlns:xlink="http://www.w3.org/1999/xlink" x="0px" y="0px"
	 viewBox="0 0 200 200" style="enable-background:new 0 0 200 200;" xml:space="preserve">
<style type="text/css">
	.st0{fill:none;stroke:#C0392B;stroke-width:6;stroke-miterlimit:10;}
	.st1{fill:none;stroke:#C0392B;stroke-width:5;stroke-linecap:round;stroke-linejoin:round;}
	.st2{fill:none;stroke:#C0392B;stroke-width:5;stroke-linecap:round;stroke-linejoin:round;stroke-dasharray:0.9858,7.8862;}
	.st3{fill:none;stroke:#0E2850;stroke-width:5;stroke-miterlimit:10;}
	.st4{fill:#FFFFFF;}
	.st5{clip-path:url(#SVGID_2_);}
	.st6{clip-path:url(#SVGID_4_);}
	.st7{clip-path:url(#SVGID_6_);}
	.st8{fill:none;}
	.st9{clip-path:url(#SVGID_8_);}
	.st10{clip-path:url(#SVGID_10_);}
	.st11{fill:#E74C3C;}
	.st12{clip-path:url(#SVGID_12_);fill:#E74C3C;}
	.st13{fill:#C0392B;}
	.st14{clip-path:url(#SVGID_14_);}
	.st15{clip-path:url(#SVGID_16_);fill:#E74C3C;}
	.st16{clip-path:url(#SVGID_18_);}
	.st17{clip-path:url(#SVGID_20_);fill:#C0392B;}
	.st18{clip-path:url(#SVGID_22_);}
	.st19{fill:#E67E22;}
	.st20{clip-path:url(#SVGID_24_);fill:#E67E22;}
	.st21{fill:#D35400;}
	.st22{clip-path:url(#SVGID_26_);}
	.st23{clip-path:url(#SVGID_28_);fill:#D35400;}
	.st24{clip-path:url(#SVGID_30_);}
	.st25{fill:#3498DB;}
	.st26{clip-path:url(#SVGID_32_);fill:#3498DB;}
	.st27{fill:#2980B9;}
	.st28{clip-path:url(#SVGID_34_);}
	.st29{clip-path:url(#SVGID_36_);fill:#2980B9;}
	.st30{clip-path:url(#SVGID_38_);}
	.st31{fill:#0E2850;}
	.st32{fill:#A1C9E6;}
	
		.st33{fill:none;stroke:#0E2850;stroke-width:5;stroke-linecap:round;stroke-linejoin:round;stroke-miterlimit:10;stroke-dasharray:1,8;}
	.st34{fill:#A2C9E6;}
	.st35{fill:#ED1C24;}
	.st36{fill:#FF00FF;}
</style>
<line class="st33" x1="104.2" y1="48" x2="130" y2="112.5"/>
<line class="st33" x1="134.1" y1="109.6" x2="53.8" y2="99"/>
<line class="st33" x1="57" y1="101.5" x2="96.9" y2="45.3"/>
<g>
	<path class="st34" d="M155,127.2l-19.4,11.1c-0.9,0.5-2.1,0.5-3,0l-19.4-11.1c-0.9-0.5-1.5-1.5-1.5-2.6v-22.1
		c0-1.1,0.6-2.1,1.5-2.6l19.4-11.1c0.9-0.5,2.1-0.5,3,0L155,99.9c0.9,0.5,1.5,1.5,1.5,2.6v22.1C156.5,125.7,156,126.7,155,127.2z"/>
</g>
<g>
	<path class="st34" d="M41.4,114.3l-7.2-22.8c-0.4-1.2,0-2.5,1.1-3.3l18.6-13.9c1.1-0.8,2.5-0.8,3.6,0l18.6,14.1
		c1,0.8,1.4,2.1,1,3.3l-7.1,22.6c-0.4,1.2-1.6,2.1-2.9,2.1H44.3C43,116.4,41.8,115.5,41.4,114.3z"/>
</g>
<g>
	<path class="st34" d="M79.6,48.4l17.8-30.9c1.2-2,4-2,5.2,0l17.8,30.9c1.2,2-0.3,4.5-2.6,4.5H82.2C79.9,52.9,78.5,50.4,79.6,48.4z"
		/>
</g>
</svg>
