<?xml version="1.0" encoding="utf-8"?>
<!-- Generator: Adobe Illustrator 18.1.1, SVG Export Plug-In . SVG Version: 6.00 Build 0)  -->
<svg version="1.1" id="Layer_1" xmlns="http://www.w3.org/2000/svg" xmlns:xlink="http://www.w3.org/1999/xlink" x="0px" y="0px"
	 viewBox="0 0 200 200" style="enable-background:new 0 0 200 200;" xml:space="preserve">
<style type="text/css">
	.st0{fill:none;stroke:#C0392B;stroke-width:6;stroke-miterlimit:10;}
	.st1{fill:none;stroke:#C0392B;stroke-width:5;stroke-linecap:round;stroke-linejoin:round;}
	.st2{fill:none;stroke:#C0392B;stroke-width:5;stroke-linecap:round;stroke-linejoin:round;stroke-dasharray:0.9858,7.8862;}
	.st3{fill:none;stroke:#0E2850;stroke-width:5;stroke-miterlimit:10;}
	.st4{fill:#FFFFFF;}
	.st5{clip-path:url(#SVGID_2_);}
	.st6{clip-path:url(#SVGID_4_);}
	.st7{clip-path:url(#SVGID_6_);}
	.st8{fill:none;}
	.st9{clip-path:url(#SVGID_8_);}
	.st10{clip-path:url(#SVGID_10_);}
	.st11{fill:#E74C3C;}
	.st12{clip-path:url(#SVGID_12_);fill:#E74C3C;}
	.st13{fill:#C0392B;}
	.st14{clip-path:url(#SVGID_14_);}
	.st15{clip-path:url(#SVGID_16_);fill:#E74C3C;}
	.st16{clip-path:url(#SVGID_18_);}
	.st17{clip-path:url(#SVGID_20_);fill:#C0392B;}
	.st18{clip-path:url(#SVGID_22_);}
	.st19{fill:#E67E22;}
	.st20{clip-path:url(#SVGID_24_);fill:#E67E22;}
	.st21{fill:#D35400;}
	.st22{clip-path:url(#SVGID_26_);}
	.st23{clip-path:url(#SVGID_28_);fill:#D35400;}
	.st24{clip-path:url(#SVGID_30_);}
	.st25{fill:#3498DB;}
	.st26{clip-path:url(#SVGID_32_);fill:#3498DB;}
	.st27{fill:#2980B9;}
	.st28{clip-path:url(#SVGID_34_);}
	.st29{clip-path:url(#SVGID_36_);fill:#2980B9;}
	.st30{clip-path:url(#SVGID_38_);}
	.st31{fill:#0E2850;}
	.st32{fill:#A1C9E6;}
	
		.st33{fill:none;stroke:#0E2850;stroke-width:5;stroke-linecap:round;stroke-linejoin:round;stroke-miterlimit:10;stroke-dasharray:1,8;}
	.st34{fill:#A2C9E6;}
	.st35{fill:#ED1C24;}
	.st36{fill:#FF00FF;}
</style>
<path class="st31" d="M128.5,94.9c-11.7,21.2-32.4,27.9-48.4,19s-21.7-29.4-9.7-51.1c9.8-17.8,46.9-38.8,59.9-45.7
	c2.2-1.2,4.8,0.3,4.9,2.7C136.2,34.6,138.1,77.5,128.5,94.9z"/>
<path class="st34" d="M65.9,138.7c-0.6-0.3-0.8-1.1-0.5-1.7c0.4-0.8,1-2,1.7-3.5c0.7-1.5,1.6-3.2,2.6-5.2c1.1-2,2.2-4.3,3.5-6.7
	c1.3-2.5,2.7-5.1,4.3-7.9c0.8-1.4,1.5-2.8,2.4-4.3c0.8-1.5,1.6-3,2.5-4.5c1.7-3,3.5-6.2,5.3-9.3c1.8-3.2,3.7-6.4,5.5-9.6
	c1.9-3.2,3.7-6.4,5.6-9.6c1.9-3.2,3.7-6.3,5.4-9.3c3.6-6,6.9-11.6,9.7-16.4c2.8-4.8,5.2-8.8,6.9-11.6c0.4-0.7,0.8-1.3,1.1-1.9
	c0.3-0.5,0.7-1,0.9-1.3c0.6-0.7,0.8-1.1,0.9-1c0.1,0.1-0.1,0.5-0.4,1.3c-0.1,0.4-0.3,0.9-0.6,1.5c-0.3,0.6-0.6,1.2-1,1.9
	c-1.5,2.9-3.6,7-6.1,12c-2.5,5-5.5,10.8-8.7,17c-1.6,3.1-3.3,6.3-4.9,9.5c-1.7,3.2-3.4,6.5-5.2,9.8c-1.7,3.3-3.5,6.6-5.2,9.8
	c-1.7,3.2-3.4,6.4-5.1,9.5c-0.8,1.5-1.7,3-2.5,4.5c-0.8,1.5-1.6,2.9-2.4,4.3c-1.5,2.8-3.1,5.4-4.4,7.8c-1.4,2.4-2.7,4.6-3.8,6.6
	c-1.2,1.9-2.2,3.6-3,5c-0.9,1.5-1.6,2.6-2,3.3c-0.4,0.6-1.1,0.8-1.7,0.4L65.9,138.7z"/>
</svg>
