<?xml version="1.0" encoding="utf-8"?>
<!-- Generator: Adobe Illustrator 18.0.0, SVG Export Plug-In . SVG Version: 6.00 Build 0)  -->
<!DOCTYPE svg PUBLIC "-//W3C//DTD SVG 1.1//EN" "http://www.w3.org/Graphics/SVG/1.1/DTD/svg11.dtd">
<svg version="1.1" id="Layer_1" xmlns="http://www.w3.org/2000/svg" xmlns:xlink="http://www.w3.org/1999/xlink" x="0px" y="0px"
	 viewBox="0 0 220 220" enable-background="new 0 0 220 220" xml:space="preserve">
<g>
	<path fill="#FFFFFF" d="M45,128.6c1.8-0.3,3.9-0.5,6.3-0.5c4.2,0,7.3,1,9.3,2.9c2.1,1.9,3.3,4.5,3.3,8.2c0,3.7-1.2,6.8-3.3,8.9
		c-2.2,2.1-5.7,3.3-10.2,3.3c-2.1,0-3.9-0.1-5.4-0.3V128.6z M48,148.8c0.7,0.1,1.8,0.1,3,0.1c6.4,0,9.8-3.5,9.8-9.7
		c0-5.4-3-8.8-9.3-8.8c-1.5,0-2.7,0.1-3.5,0.3V148.8z"/>
	<path fill="#FFFFFF" d="M70.6,128.2v22.9h-3v-22.9H70.6z"/>
	<path fill="#FFFFFF" d="M75.4,147.5c1.3,0.8,3.2,1.5,5.3,1.5c3,0,4.8-1.6,4.8-3.9c0-2.1-1.2-3.4-4.3-4.5c-3.7-1.4-6.1-3.3-6.1-6.5
		c0-3.6,3-6.2,7.4-6.2c2.3,0,4,0.5,5,1.1l-0.8,2.4c-0.7-0.4-2.2-1.1-4.3-1.1c-3.1,0-4.3,1.9-4.3,3.4c0,2.1,1.4,3.2,4.6,4.4
		c3.9,1.5,5.8,3.4,5.8,6.7c0,3.5-2.6,6.6-8,6.6c-2.2,0-4.6-0.7-5.8-1.5L75.4,147.5z"/>
	<path fill="#FFFFFF" d="M104.4,140.4h-8.9v8.3h9.9v2.5H92.5v-22.9h12.4v2.5h-9.4v7.2h8.9V140.4z"/>
	<path fill="#FFFFFF" d="M113,143.9l-2.4,7.2h-3.1l7.8-22.9h3.5l7.8,22.9h-3.2l-2.4-7.2H113z M120.6,141.6l-2.3-6.6
		c-0.5-1.5-0.9-2.9-1.2-4.2H117c-0.3,1.3-0.7,2.8-1.2,4.1l-2.2,6.6H120.6z"/>
	<path fill="#FFFFFF" d="M129.7,147.5c1.3,0.8,3.2,1.5,5.3,1.5c3,0,4.8-1.6,4.8-3.9c0-2.1-1.2-3.4-4.3-4.5c-3.7-1.4-6.1-3.3-6.1-6.5
		c0-3.6,3-6.2,7.4-6.2c2.3,0,4,0.5,5,1.1l-0.8,2.4c-0.7-0.4-2.2-1.1-4.3-1.1c-3.1,0-4.3,1.9-4.3,3.4c0,2.1,1.4,3.2,4.6,4.4
		c3.9,1.5,5.8,3.4,5.8,6.7c0,3.5-2.6,6.6-8,6.6c-2.2,0-4.6-0.7-5.8-1.5L129.7,147.5z"/>
	<path fill="#FFFFFF" d="M158.7,140.4h-8.9v8.3h9.9v2.5h-12.9v-22.9h12.4v2.5h-9.4v7.2h8.9V140.4z"/>
	<path fill="#FFFFFF" d="M163.2,147.5c1.3,0.8,3.2,1.5,5.3,1.5c3,0,4.8-1.6,4.8-3.9c0-2.1-1.2-3.4-4.3-4.5c-3.7-1.4-6.1-3.3-6.1-6.5
		c0-3.6,3-6.2,7.4-6.2c2.3,0,4,0.5,5,1.1l-0.8,2.4c-0.7-0.4-2.2-1.1-4.3-1.1c-3.1,0-4.3,1.9-4.3,3.4c0,2.1,1.4,3.2,4.6,4.4
		c3.9,1.5,5.8,3.4,5.8,6.7c0,3.5-2.6,6.6-8,6.6c-2.2,0-4.6-0.7-5.8-1.5L163.2,147.5z"/>
</g>
<g>
	<path fill="#FFFFFF" d="M111.3,61.9l-0.1-3.6c0-4.9,0-9.9,0.1-14.8c0-2.7,0-5.3,0-8c0-0.2,0-0.4,0.2-0.6c0.4-0.3,0.8-0.5,1.2-0.9
		c1.8-2,1.5-4.9-0.6-6.5c-1.7-1.2-3.9-1.1-5.4,0.3c-2.2,2-1.8,5.5,1,7c0.2,0.1,0.3,0.2,0.3,0.5c0,1.1,0,2.1,0,3.2
		c0,2.8,0,5.5,0.1,8.3c0,3.9,0,7.7,0.1,11.6c0,0.2,0,0.5,0,0.7l0,2.8h3.3"/>
	<path fill="#FFFFFF" d="M143.1,37.3c0.1,0,0.2,0,0.3,0c-0.4,1.4-1.1,2.5-2.4,3.3c-1.3,0.7-2.6,0.6-4,0.4c-0.1,0.4-0.1,0.8-0.2,1.2
		c-0.3,1-1.1,1.6-2.1,1.7c-0.8,0.1-1.7,0.1-2.5,0.1c-0.3,0-0.4,0-0.5,0.3c-0.9,2.9-3.7,3.9-6.1,3c-0.6-0.2-1.2-0.6-1.7-0.9
		c-0.3-0.2-0.4-0.2-0.6,0.1c-0.8,1.5-2.1,2.4-3.7,2.8c-1.8,0.5-3.5,0.4-5.3,0.1c-1-0.1-2-0.4-3-0.5c-0.3-0.1-0.4-0.2-0.4-0.5
		c0-3,0-6,0-9c0-0.4,0-0.8,0.1-1.3c0.2,0,0.3,0,0.5,0c1.1,0,1.8-0.5,2.2-1.5c0.1-0.3,0.3-0.6,0.4-1c0.2-0.6,0.7-0.9,1.3-1.1
		c1.6-0.4,3.2-0.1,4.7,0.5c1.5,0.6,3,1.1,4.5,1.3c3.2,0.6,6.5,0.7,9.8,0.8C137.2,37.2,140.1,37.2,143.1,37.3z"/>
	<path fill="#FFFFFF" d="M108.3,48.2c0,0.4-0.1,0.6-0.5,0.6c-2.4,0.6-4.9,0.9-7.3,0.6c-2-0.3-3.7-1.2-4.7-3.1
		c-0.2-0.4-0.4-0.2-0.6,0c-0.7,0.6-1.5,0.9-2.4,1.1c-1.9,0.3-3.5-0.1-4.7-1.7c-0.3-0.5-0.5-1.1-0.8-1.6c-0.1-0.1-0.2-0.2-0.3-0.2
		c-0.6,0-1.3,0.1-1.9,0c-1.7-0.1-3-0.9-3-2.9c0,0,0-0.1,0-0.2c-1.7,0.3-3.4,0.3-4.8-1c-0.8-0.7-1.3-1.6-1.5-2.7c0.2,0,0.4,0,0.5,0
		c3-0.1,6.1-0.1,9.1-0.2c2.8-0.1,5.6-0.3,8.4-0.6c2.2-0.2,4.3-1,6.3-1.8c1.3-0.5,2.7-0.5,4-0.1c0.5,0.1,0.9,0.5,1.1,1.1
		c0.2,0.7,0.5,1.3,1,1.9c0.4,0.4,1,0.6,1.6,0.5c0.4,0,0.5,0.1,0.5,0.5c0,1.9,0,3.7,0,5.6C108.2,45.4,108.3,46.8,108.3,48.2z"/>
	<path fill="#FFFFFF" d="M108.7,114.6l2.6,0.2c-0.2,2.1-0.3,4.2-0.5,6.3c0,0.4-0.4,0.9-0.8,0.9c-0.4,0-0.8-0.6-0.8-1.1
		c-0.1-1.2-0.2-2.4-0.3-3.5C108.8,116.5,108.7,115.5,108.7,114.6z"/>
	<path fill="#FFFFFF" d="M108.7,114.4l1-2.3c1.4,1.6,2.8,3.1,4.2,4.7c0.3,0.3,0.4,1,0.1,1.2c-0.3,0.3-0.9,0.1-1.3-0.2
		c-0.9-0.7-1.9-1.5-2.8-2.2C109.1,115,109.4,115,108.7,114.4z"/>
	<g>
		<g>
			<path fill="#FFFFFF" d="M115.2,59l3.2,0.7c0-0.2-0.2-1-0.1-1.1c0.1-0.1,0.2-0.1,0.3-0.2c0.6-0.1,1.1,0,1.6,0.5c1,1,2.1,1,3.3,0.5
				c0.7-0.2,0.7-0.8,0.6-1.6c-0.2-0.9-0.5-1.6-1.2-2.1c-0.6-0.5-1.3-0.6-2-0.6c-1.1,0-2.1,0.1-3.2,0.4c-0.9,0.3-1.7,0.8-2.2,1.7
				C115.4,58,115.2,58.4,115.2,59z"/>
			<path fill="#FFFFFF" d="M118,58.8c1.8,3.7,1.9,7.5,0.4,11.4c-1.4,3.6-3.6,6.7-6,9.8c-2.1,2.7-4.2,5.3-6.1,8
				c-1.2,1.8-2.2,3.8-3,5.8c-1.2,3-1,6.1,0.4,9c1,2.1,2.4,4.1,3.6,6.1c0.3,0.6,0.8,1.1,1.3,1.8c-0.6,0.7-1.3,1.5-1.8,2.1
				c-0.3-0.1-0.3-0.3-0.4-0.4c-2.1-2.7-4.1-5.4-5.4-8.6c-1.8-4.4-1.7-8.7,0.3-13.1c1.7-3.6,4.2-6.6,6.6-9.8c2.1-2.8,4.3-5.6,6.2-8.5
				c2.4-3.8,3-7.9,1.4-12.2c-0.2-0.4-0.4-0.8-0.4-1.3C115.1,58.5,117,58.4,118,58.8z"/>
		</g>
		<path fill="#FFFFFF" d="M103.9,58.9c-0.1,0.4-3.2,0.8-3.2,0.8c0-0.2,0.2-1,0.1-1.1c-0.1-0.1-0.2-0.1-0.3-0.2
			c-0.6-0.1-1.1,0-1.6,0.5c-1,1-2.1,1-3.3,0.5c-0.7-0.2-0.7-0.8-0.6-1.6c0.2-0.9,0.5-1.6,1.2-2.1c0.6-0.5,1.3-0.6,2-0.6
			c1.1,0,2.1,0.1,3.2,0.4c0.9,0.3,1.7,0.8,2.2,1.7C103.8,58,104,58.5,103.9,58.9z"/>
		<path fill="#FFFFFF" d="M115,63.4c0,1,0,1.8,0,2.8c-4,0.2-8.1,0-12.3,0.1c0.5,1.5,0.9,2.8,1.3,4.2c3.2,0.2,6.3,0,9.8,0.1
			c-0.6,1.1-1.1,1.9-1.6,2.8c-2,0-4,0-6.2,0c0.6,1.9,1.9,3,2.8,4.6c-0.5,0.7-1.1,1.3-1.7,2.1c-0.8-1-1.4-1.7-1.9-2.5
			c-2-2.7-3.8-5.6-4.7-8.9c-0.9-3.4-0.6-6.7,0.7-9.9c1-0.6,2.7-1.2,2.9-0.1c-0.4,1.5-0.8,2.9-1.2,4.6
			C106.9,63.4,110.9,63.4,115,63.4z"/>
	</g>
	<path fill="#FFFFFF" d="M112.2,113c0.3-0.4,0.6-0.7,0.9-1.1c2-2.5,3.8-5.2,5-8.2c1.1-2.6,1.6-5.2,1.2-8c-0.6-3.7-2.3-6.8-4.4-9.8
		c-0.8-1.1-1.6-2.2-2.6-3.5c-0.7,0.9-1.2,1.5-1.8,2.2c1,1.4,1.9,2.7,2.8,4c-0.1,0.1-0.1,0.2-0.2,0.4c-1.9,0-3.9,0-5.9,0
		c-0.5,0.9-1,1.7-1.4,2.5c0.1,0.1,0.1,0.3,0.2,0.4c3,0.1,6,0,9.3,0.1c0.4,1.4,0.8,2.7,1.2,4.2c-4.3,0.1-8.3,0-12.4,0.1
		c0,1,0,1.8,0,2.7c0.7,0,1.3,0.1,1.8,0.1c2.9,0,5.8,0,8.7,0c0.5,0,1.1,0.1,1.7,0.1c-0.3,1.6-0.4,3-1.4,4.1c-3,0.2-6-0.1-9.4,0.3
		c0.7,1.1,1.1,1.9,1.7,2.7c2.1,0,4.1,0,6.3,0c-0.4,0.7-0.7,1.1-1,1.5c-0.8,1-1.6,2-2.4,3.1L112.2,113c-1.4,1.5-3.1,3.3-4.6,4.8
		c-0.3,0.3-0.9,0.5-1.2,0.2c-0.3-0.3-0.2-0.9,0-1.3c0.7-1,1.3-2,2-2.9c0.5-0.8,1.2-2.1,1.7-2.8L112.2,113z"/>
</g>
</svg>
