<?xml version="1.0" encoding="utf-8"?>
<!-- Generator: Adobe Illustrator 18.0.0, SVG Export Plug-In . SVG Version: 6.00 Build 0)  -->
<!DOCTYPE svg PUBLIC "-//W3C//DTD SVG 1.1//EN" "http://www.w3.org/Graphics/SVG/1.1/DTD/svg11.dtd">
<svg version="1.1" id="Layer_1" xmlns="http://www.w3.org/2000/svg" xmlns:xlink="http://www.w3.org/1999/xlink" x="0px" y="0px"
	 viewBox="0 0 492 689" enable-background="new 0 0 492 689" xml:space="preserve">
<g>
	<path fill="#FFFFFF" d="M257.9,255.1l0-25c0.2-34.3,0.5-68.6,0.8-102.9c0.1-18.6,0.2-37.1,0.3-55.7c0-1.5-0.1-2.8,1.7-3.8
		c2.9-1.8,6-3.7,8.2-6.2c12.8-14.3,10.5-33.9-4.4-45c-11.6-8.7-26.9-7.7-38,2.3c-15.3,13.8-12.9,38.6,7.2,48.7
		c1.7,0.8,2.2,1.7,2.2,3.4c0,7.4,0.2,14.9,0.3,22.3c0.2,19.3,0.3,38.5,0.4,57.8c0.2,27,0.3,54,0.5,81.1c0,1.4,0,2.6,0,4l0.1,18.9
		H258"/>
	<path fill="#FFFFFF" d="M480.6,84.2c0.6,0,1.2,0.1,2.3,0.3c-3,9.9-7.9,17.7-16.8,22.7c-8.8,5-18.3,3.9-27.6,2.7
		c-0.5,2.9-0.7,5.7-1.5,8.3c-2.2,7.2-7.9,10.9-14.8,12c-5.7,0.9-11.6,0.5-17.3,0.4c-1.8,0-2.6,0.2-3.2,2.2
		c-6,20.2-25.5,26.9-42.5,20.9c-4.2-1.5-8.1-4.2-12-6.5c-1.9-1.1-3-1.7-4.5,0.9c-5.6,10.4-14.5,16.7-25.8,19.9
		c-12.3,3.5-24.6,2.6-37,0.8c-7-1-14-2.5-21-3.7c-2.2-0.4-3-1.5-2.9-3.7c0.2-21,0.2-42,0.3-63c0-2.8,0.2-5.7,0.4-9
		c1.1,0,2.2,0,3.3,0c7.5,0,12.4-3.3,15.3-10.3c0.9-2.3,1.9-4.5,2.8-6.8c1.6-4,4.7-6.4,8.7-7.3c11.5-2.7,22.5-0.9,33.1,3.7
		c10.1,4.4,20.6,7.4,31.5,9.2c22.6,3.9,45.4,4.6,68.2,5.3C439.8,83.6,460.2,83.8,480.6,84.2z"/>
	<path fill="#FFFFFF" d="M238,160.7c0.1,2.5-0.6,3.9-3.2,4.5c-16.9,3.9-33.9,6.5-51.2,4.1c-14.1-2-25.7-8.7-32.6-21.9
		c-1.4-2.8-3.1-1.1-4.4,0c-4.9,3.9-10.4,6.6-16.4,7.6c-12.9,2.2-24.4-0.6-32.6-11.7c-2.4-3.3-3.7-7.4-5.6-11.1
		c-0.4-0.7-1.5-1.5-2.3-1.5c-4.4,0-8.8,0.4-13.1,0.2c-11.6-0.7-20.8-6.5-20.8-19.9c0-0.3-0.2-0.6-0.3-1.2c-12,2.1-23.8,2.4-33.5-6.7
		c-5.3-5-9.1-11.1-10.8-18.8c1.6,0,2.6,0,3.6,0c21.1-0.4,42.2-0.4,63.3-1.3c19.6-0.8,39.3-2.2,58.8-4.1c15.3-1.5,29.6-6.9,43.8-12.5
		c9.2-3.6,18.6-3.4,27.9-1c3.6,0.9,6.3,3.6,7.6,7.4c1.6,4.7,3.4,9.4,7.1,13c3.1,3,6.9,3.9,11,3.6c2.7-0.2,3.6,0.5,3.5,3.3
		c-0.1,12.9-0.1,25.9-0.1,38.9C237.8,141.1,237.8,150.9,238,160.7z"/>
	<path fill="#FFFFFF" d="M240.8,623.5l18.5,1.3c-1.1,14.6-2.2,29.2-3.4,43.8c-0.2,3-2.9,6.5-5.8,6.5c-2.8-0.1-5.4-4-5.7-7.4
		c-0.8-8.2-1.7-16.4-2.3-24.6C241.5,636.5,241.2,630,240.8,623.5z"/>
	<path fill="#FFFFFF" d="M240.8,621.7l7.3-16.2c9.7,11,19.4,22,29,33c2,2.3,2.6,6.7,0.6,8.7c-2,2-6.6,1-9.3-1.1
		c-6.5-5.1-12.9-10.2-19.3-15.5C244,626.4,245.7,626,240.8,621.7z"/>
	<g>
		<g>
			<path fill="#FFFFFF" d="M286.1,235.6l22.3,5.1c0-1.2-1.1-6.8-0.6-7.3c0.5-0.6,1.4-1,2.2-1.1c4.2-0.5,7.9,0.2,11.3,3.7
				c6.8,7,14.9,6.8,23.2,3.8c4.6-1.7,5.2-5.9,4.3-10.8c-1.1-6.1-3.8-11.1-8.4-14.7c-4.1-3.3-8.8-4.3-13.7-4.2
				c-7.4,0.2-14.9,0.4-22.1,3c-6.1,2.2-11.7,5.5-15.1,11.9C287.5,228.5,286.3,231.7,286.1,235.6z"/>
			<path fill="#FFFFFF" d="M305.7,234.6c12.5,25.9,12.9,52.4,2.9,79.4c-9.4,25.4-25.3,46.8-41.6,68c-14.3,18.5-29.3,36.6-42.5,56
				c-8.4,12.4-15.3,26.1-20.8,40.1c-8.2,21.1-6.9,42.8,3,63.1c7.3,14.8,16.6,28.6,25.2,42.7c2.4,4,5.4,7.6,9,12.6
				c-4.3,5.2-8.8,10.6-12.3,14.8c-1.9-0.8-2.3-2.1-2.9-2.9c-14.8-18.7-28.8-37.9-37.9-60.2c-12.6-30.7-12.1-60.9,2.2-91.1
				c11.8-25.1,29.2-46.2,45.7-68.1c14.8-19.5,30.1-38.7,43.2-59.4c16.6-26.2,21-54.9,9.8-84.9c-1.1-2.9-2.6-5.6-2.9-9.2
				C285.9,232,298.9,231.6,305.7,234.6z"/>
		</g>
		<path fill="#FFFFFF" d="M207.7,234.8c-0.5,2.7-22,5.9-22,5.9c0-1.2,1.1-6.8,0.6-7.3c-0.5-0.6-1.4-1-2.2-1.1
			c-4.2-0.5-7.9,0.2-11.3,3.7c-6.8,7-14.9,6.8-23.2,3.8c-4.6-1.7-5.2-5.9-4.3-10.8c1.1-6.1,3.8-11.1,8.4-14.7
			c4.1-3.3,8.8-4.3,13.7-4.2c7.4,0.2,14.9,0.4,22.1,3c6.1,2.2,11.7,5.5,15.1,11.9C206.5,228.5,208.2,232,207.7,234.8z"/>
		<path fill="#FFFFFF" d="M284.9,266.8c0,7,0,12.4,0,19.4c-28.2,1.4-56.1-0.1-86.1,0.9c3.2,10.5,6,19.5,8.9,29.1
			c22.6,1.1,44-0.2,68.2,1c-4.5,7.9-7.6,13.2-11.2,19.4c-14.3,0-28.2,0-43.4,0c3.9,13.1,13.5,20.9,19.4,32.1
			c-3.7,4.6-7.4,9.1-12.1,14.8c-5.3-6.8-9.6-12-13.6-17.4c-13.9-19-26.3-38.9-32.6-61.8c-6.5-23.8-4-46.9,5.1-69
			c7.2-3.8,18.9-8.1,20.1-0.4c-2.8,10.4-5.5,20.2-8.7,32C228.5,266.8,256,266.8,284.9,266.8z"/>
	</g>
	<path fill="#FFFFFF" d="M265.3,612.6c2-2.6,4-5.1,6-7.7c13.7-17.7,26.6-36,35.2-56.9c7.4-17.9,11.2-36.3,8.2-56
		c-4-25.7-16-47.6-30.6-68.5c-5.5-7.8-11.4-15.4-18.2-24.4c-4.9,6-8.6,10.6-12.5,15.3c6.9,10,13.2,19,19.5,28.1
		c-0.4,0.8-0.8,1.7-1.2,2.5c-13.6,0-27.1,0-41.5,0c-3.5,6.2-6.7,11.8-9.9,17.5c0.5,0.9,1,1.9,1.5,2.9c21,0.6,42.1-0.1,64.7,0.5
		c2.8,9.5,5.4,18.6,8.6,29.4c-30,0.6-57.9-0.2-86.2,0.5c0,7.2,0,12.6,0,18.9c5.1,0.3,8.9,0.8,12.8,0.8c20.2,0.1,40.4,0,60.6,0.1
		c3.7,0,7.4,0.6,11.8,0.9c-2.1,11-2.7,20.7-9.9,28.5c-21.1,1.5-42.1-1-65.4,1.8c4.7,7.6,7.9,13,11.5,18.9c14.5,0,28.3,0,43.9,0
		c-3,4.6-4.7,7.7-6.8,10.4c-5.5,7.1-10.9,14.3-16.4,21.4L265.3,612.6c-10.1,10.6-21.8,22.8-32,33.3c-2.1,2.2-6.4,3.2-8.6,1.3
		c-2.2-1.8-1.6-6.5,0.3-9.4c4.6-6.9,9.1-13.8,13.8-20.6c3.7-5.3,8.4-14.5,12.2-19.7L265.3,612.6z"/>
</g>
</svg>
