<?xml version="1.0" encoding="utf-8"?>
<!-- Generator: Adobe Illustrator 18.0.0, SVG Export Plug-In . SVG Version: 6.00 Build 0)  -->
<!DOCTYPE svg PUBLIC "-//W3C//DTD SVG 1.1//EN" "http://www.w3.org/Graphics/SVG/1.1/DTD/svg11.dtd">
<svg version="1.1" id="Layer_1" xmlns="http://www.w3.org/2000/svg" xmlns:xlink="http://www.w3.org/1999/xlink" x="0px" y="0px"
	 viewBox="0 0 220 220" enable-background="new 0 0 220 220" xml:space="preserve">
<g>
	<path fill="#FFFFFF" d="M48.2,127.9h3v20.4H61v2.5H48.2V127.9z"/>
	<path fill="#FFFFFF" d="M67.2,127.9v22.9h-3v-22.9H67.2z"/>
	<path fill="#FFFFFF" d="M89.9,149.8c-1.3,0.5-4,1.3-7.1,1.3c-3.5,0-6.3-0.9-8.6-3c-2-1.9-3.2-5-3.2-8.5c0-6.8,4.7-11.8,12.4-11.8
		c2.7,0,4.8,0.6,5.7,1.1l-0.7,2.4c-1.2-0.6-2.8-1-5.1-1c-5.6,0-9.2,3.5-9.2,9.2c0,5.8,3.5,9.2,8.8,9.2c1.9,0,3.3-0.3,3.9-0.6v-6.8
		h-4.6v-2.4h7.5V149.8z"/>
	<path fill="#FFFFFF" d="M98.1,143.6l-2.4,7.2h-3.1l7.8-22.9h3.5l7.8,22.9h-3.2l-2.4-7.2H98.1z M105.6,141.3l-2.3-6.6
		c-0.5-1.5-0.9-2.9-1.2-4.2h-0.1c-0.3,1.3-0.7,2.8-1.2,4.1l-2.2,6.6H105.6z"/>
	<path fill="#FFFFFF" d="M115.2,150.8v-22.9h3.3l7.3,11.6c1.7,2.7,3,5.1,4.1,7.4l0.1,0c-0.3-3.1-0.3-5.8-0.3-9.4v-9.6h2.8v22.9h-3
		l-7.3-11.6c-1.6-2.5-3.1-5.2-4.3-7.6l-0.1,0c0.2,2.9,0.2,5.6,0.2,9.5v9.8H115.2z"/>
	<path fill="#FFFFFF" d="M137.5,128.3c1.8-0.3,3.9-0.5,6.3-0.5c4.3,0,7.3,1,9.3,2.9c2.1,1.9,3.3,4.5,3.3,8.2c0,3.7-1.2,6.8-3.3,8.9
		c-2.2,2.1-5.7,3.3-10.2,3.3c-2.1,0-3.9-0.1-5.4-0.3V128.3z M140.5,148.5c0.7,0.1,1.8,0.1,3,0.1c6.4,0,9.8-3.5,9.8-9.7
		c0-5.4-3-8.8-9.3-8.8c-1.5,0-2.7,0.1-3.5,0.3V148.5z"/>
	<path fill="#FFFFFF" d="M159.8,147.2c1.3,0.8,3.2,1.5,5.3,1.5c3,0,4.8-1.6,4.8-3.9c0-2.1-1.2-3.4-4.3-4.5c-3.7-1.4-6.1-3.3-6.1-6.5
		c0-3.6,3-6.2,7.4-6.2c2.3,0,4,0.5,5,1.1l-0.8,2.4c-0.7-0.4-2.2-1.1-4.3-1.1c-3.1,0-4.3,1.9-4.3,3.4c0,2.1,1.4,3.2,4.6,4.4
		c3.9,1.5,5.8,3.4,5.8,6.7c0,3.5-2.6,6.6-8,6.6c-2.2,0-4.6-0.7-5.8-1.5L159.8,147.2z"/>
</g>
<g>
	<g id="XMLID_2_">
		<path fill="#FFFFFF" d="M147.2,79.3c-0.3-1.1-0.1-2,0.4-2.8c-0.7-0.3-1.3-0.6-1.9-0.9c-0.1,0.1-0.1,0.2-0.2,0.3
			c-0.2,0.3-0.5,0.6-0.8,0.8c-0.3,0.2-0.7,0.4-1,0.6c-0.3,0.2-0.4,0.4-0.2,0.6c0.5,0.4,0.7,1,1,1.7
			C145.3,79.2,146.2,79.1,147.2,79.3z M129.9,90.2c0,0.1,0.1,0.2,0.1,0.3c1.1-0.7,2.3-0.8,3.6-0.3c0-0.4,0-0.7,0.1-1.1
			c0.1-0.8,0.5-1.5,1.2-2c0.2-0.1,0.4-0.2,0.3-0.5c-1.4-0.6-2-1.7-2.1-3.3c-1.3,0.9-2.5,0.9-3.8,0.2c0.1,1.5-0.4,2.5-1.6,3.4
			c0.2,0.1,0.3,0.3,0.4,0.3C129.1,87.9,129.7,88.9,129.9,90.2z M103.4,73.6c0,1.5-0.8,2.5-2.1,3.2c1,0.8,1.6,1.7,1.6,3
			c1.3-0.7,2.5-0.5,3.7,0.2c0.1-1.5,0.7-2.6,2-3.2c-0.4-0.5-0.8-0.9-1-1.4c-0.2-0.5-0.3-1.1-0.5-1.6c-0.6,0.2-1.2,0.4-1.8,0.3
			C104.6,74,104,73.8,103.4,73.6z M84,89.2c-0.8,0.8-1.8,1.1-3,0.9c-0.2,0-0.5-0.2-0.7-0.2c-0.4-0.2-0.7,0-0.7,0.5
			c0,0.8-0.2,1.5-0.6,2.1c-0.1,0.2-0.1,0.5-0.1,0.7c-0.1,1.5-1,2.6-2.3,3c-0.7,0.2-1.5,0.2-2.2-0.1c-0.1,0-0.1-0.1-0.2-0.1
			c0,0,0,0-0.1,0c0,1.2-0.3,2.3-1.3,3c-1,0.7-2.1,0.7-3.3,0.3c-0.3,0.3-0.6,0.5-0.9,0.8c-1,0.7-2.2,0.8-3.3,0.3
			c-1.1-0.5-1.8-1.5-1.9-2.7c0-0.6,0-1.1,0.2-1.6c0.1-0.2,0.1-0.4,0.1-0.5c-0.2-2.9,2.6-4.3,4.6-3.4c0.1,0,0.2,0,0.3,0.1
			c-0.2-3.1,2.6-4.7,4.9-3.6c0.3-0.2,0.5-0.5,0.8-0.7c1-0.8,2.1-0.9,3.3-0.5c0.6,0.2,0.9,0.1,0.9-0.6c0-0.9,0.3-1.6,0.8-2.3
			c0.1-0.1,0.2-0.3,0.2-0.4c0.1-2.2,2.4-3.9,4.7-2.9c0.1,0,0.1,0,0.2,0.1c0-0.1,0-0.3,0-0.4c-0.1-2.3,2-3.9,4.1-3.3
			c0.1,0,0.2,0,0.3,0.1c0.3,0.2,0.5,0.1,0.8-0.2c1.1-0.9,2.6-1.1,3.8-0.3c0.8,0.5,1.2,1.2,1.4,2c0.3,0.1,0.6,0.3,0.9,0.4
			c0.3,0.1,0.6,0,0.7-0.3c0.1-1.3,0.8-2.2,2-2.8c0,0,0-0.1,0.1-0.1c-0.2-0.2-0.4-0.3-0.5-0.5c-0.6-0.6-1-1.4-1-2.3
			c0-0.1,0-0.2,0-0.3c0-0.3-0.2-0.4-0.5-0.3c-0.5,0.2-1.1,0.4-1.7,0.3c-1.4-0.1-2.6-1-3-2.4c-0.4-1.3,0.1-2.8,1.1-3.6
			c1.1-0.9,2.7-0.9,3.8-0.1c0.9,0.6,1.4,1.5,1.5,2.5c0,0.1,0,0.3,0,0.4c0,0.3,0.2,0.4,0.5,0.3c0.1,0,0.1-0.1,0.1-0.1
			c1-0.4,2-0.4,3,0.1c0.2,0.1,0.4,0.2,0.5,0.2c0.5-2.3,1.7-3.5,3.5-3.4c1.6,0.1,3.1,1.3,3.2,3.4c1-0.4,2-0.5,3,0
			c0.7,0.3,1.2,0.9,1.5,1.6c0.4,0.8,0.4,1.7,0.1,2.6c-0.3,0.9-1,1.5-1.8,1.9c1.1,0.9,1.6,2,1.4,3.5c0.2,0,0.4,0.1,0.5,0
			c1.1-0.4,2.2-0.3,3.2,0.4c0.3,0.2,0.4,0.1,0.4-0.2c0.1-0.8,0.5-1.5,1.2-2c1.8-1.5,4.6-0.5,5,1.8c0.2,0.9,0.2,0.8,0.9,0.5
			c0.7-0.4,1.5-0.4,2.3-0.2c0.2,0.1,0.5,0.2,0.8,0.3c0-2.1,1-3.6,3.2-3.7c2.2-0.1,3.3,1.3,3.6,3.4c1.3-0.8,2.5-0.8,3.8-0.2
			c0-0.2,0.1-0.3,0.1-0.5c0.1-1.3,0.7-2.3,1.9-2.8c0.5-0.2,0.6-0.4,0.1-0.9c-1.4-1.6-1.2-3.9,0.5-5.1c1.1-0.8,2.7-0.7,3.8,0.1
			c0.1,0.1,0.3,0.2,0.4,0.3c0.7-1.4,1.8-2,3.2-2c0.1-0.1,0.1-0.2,0.2-0.3c0.2-0.3,0.2-0.5,0-0.8c-0.5-1-0.5-2,0-3
			c0.8-1.6,2.8-2.3,4.4-1.5c1.2,0.6,2,1.9,1.8,3.3c-0.1,1.4-1.1,2.5-2.4,2.9c-0.2,0.1-0.4,0.1-0.7,0.1c-0.6,0.1-0.8,0.6-0.6,1.1
			c0.6,1.1,0.5,2.2-0.1,3.3c-0.1,0.1-0.1,0.2-0.2,0.4c1,0.3,1.8,0.8,2.2,1.7c0.3,0.6,0.4,1.3,0.3,2.1c-0.2,0.9-0.7,1.6-1.4,2
			c-0.7,0.5-1.6,0.6-2.5,0.4c0.3,1.2,0.1,2.3-0.6,3.2c-0.5,0.6-1.1,1-1.9,1.1c-1.8,0.4-3.2-0.5-4-2.7c-1,0.5-2.1,0.5-3.2,0
			c0,0.2,0,0.3,0,0.4c0,1.1-0.4,2-1.3,2.7c-0.4,0.3-0.4,0.4,0.1,0.6c1.7,1,2.3,3.1,1.2,4.7c-0.7,1.2-2.3,1.8-3.7,1.4
			c-0.2-0.1-0.4-0.1-0.6-0.2c0,0.1,0,0.2,0,0.3c0,1.2-0.4,2.1-1.3,2.8c-0.4,0.4-0.4,0.8,0.1,1.1c0.7,0.4,1.3,1,1.6,1.8
			c0,0.1,0.1,0.2,0.2,0.4c1-0.8,2-1.2,3.3-0.9c0.9,0.2,1.6,0.7,2.1,1.5c0.9,1.6,0.5,3.6-1.1,4.6c-1,0.6-2.1,0.7-3.1,0.3
			c-1.1-0.4-1.7-1.3-2-2.3c-0.5,0.3-0.9,0.5-1.4,0.7c-0.1,0.1-0.2,0.1-0.2,0.2c-0.3,0.5-0.6,0.9-0.8,1.4c-0.9,1.6-2.9,2.2-4.5,1.4
			c-1.6-0.9-2.3-2.9-1.4-4.5c0.3-0.6,0.6-1.1,1-1.6c0.4-0.5,0.9-0.8,1.5-1c0.3-0.1,0.4-0.3,0.6-0.5c0.2-0.4,0.5-0.7,0.8-1
			c0.3-0.3,0.5-0.5,0.3-1c-1.3-0.6-2.1-1.7-2.1-3.3c-0.2,0.1-0.4,0.2-0.5,0.2c-1.4,0.8-3,0.4-3.9-0.5c-1.1-1.2-1.3-2.8-0.5-4.1
			c0.2-0.4,0.6-0.6,0.9-0.9c0.2-0.2,0.2-0.4-0.1-0.5c-1.3-0.6-1.9-1.6-2-3c0-0.1,0-0.1-0.1-0.2c-0.1,0-0.3,0-0.4,0.1
			c-1.1,0.6-2.2,0.5-3.3-0.1c-0.1-0.1-0.2-0.1-0.2-0.1c-0.3,0.6-0.5,1.3-0.8,1.8c-0.3,0.6-0.9,0.9-1.5,1.2c0.7,1,1,2,0.6,3.1
			c-0.3,0.8-0.8,1.4-1.6,1.8c-1.6,0.8-3.3,0.2-4.2-1.3c-0.9-1.5-0.2-3.3,1.5-4.4c-0.1-0.1-0.2-0.3-0.3-0.4c-0.4-0.6-0.7-1.3-0.6-2.1
			c0-0.1,0-0.3,0-0.4c-0.1-0.3-0.3-0.2-0.5-0.1c-0.8,0.3-1.6,0.3-2.4,0c-0.3-0.1-0.5-0.2-0.8-0.4c-0.3,2.3-1.6,3.6-4,3.3
			c-1.3-0.1-2.6-1.2-2.8-3.3c-0.1,0-0.2,0.1-0.3,0.1c-1,0.3-1.9,0.3-2.8-0.2c-0.1-0.1-0.3-0.2-0.4-0.2c-0.2-0.1-0.5,0-0.6,0.3
			c-0.1,0.2-0.1,0.4-0.1,0.5c-0.5,1.9-2.5,2.7-4.1,2.1c-0.3-0.1-0.5-0.1-0.8,0c-0.8,0.4-1.7,0.5-2.6,0.2c-0.2-0.1-0.3-0.1-0.6-0.2
			c0,0.3,0,0.4,0,0.6c0,2.1-1.8,3.5-3.8,3.1C84.5,88.9,84.3,89,84,89.2z"/>
	</g>
</g>
</svg>
