<?xml version="1.0" encoding="utf-8"?>
<!-- Generator: Adobe Illustrator 18.0.0, SVG Export Plug-In . SVG Version: 6.00 Build 0)  -->
<!DOCTYPE svg PUBLIC "-//W3C//DTD SVG 1.1//EN" "http://www.w3.org/Graphics/SVG/1.1/DTD/svg11.dtd">
<svg version="1.1" id="Layer_1" xmlns="http://www.w3.org/2000/svg" xmlns:xlink="http://www.w3.org/1999/xlink" x="0px" y="0px"
	 viewBox="0 0 460.9 386.1" enable-background="new 0 0 460.9 386.1" xml:space="preserve">
<g>
	<g id="XMLID_1_">
		<path fill="#FFFFFF" d="M370,120.4c-6.6-4.6-10.4-10.7-11.4-17.9c-5.3,1.5-10.1,2.8-15.3,4.3c0.1,0.7,0.4,1.9,0.4,3.1
			c0,2.9,0.3,5.8-0.2,8.6c-0.5,2.8-1.8,5.4-2.8,8.1c-0.9,2.4-0.1,4.4,2.2,4.5c4.9,0.1,9,2,13.6,4.6C359,128.7,363.5,123.9,370,120.4
			z M297.6,259.6c1.6,0,2.7,0.2,3.8,0c9.7-2.6,17.9-0.1,25.1,6.7c0.5,0.5,1.4,0.7,2.4,1.2c2.9-9.6,8.8-16,18.6-19.1
			c-1.8-2.3-3.6-4.1-4.9-6.2c-3.3-5.2-4.4-10.9-3.4-17.1c0.2-1.5,1.2-3.3-1-4.6c-10.7,3.7-19.7,0.2-28.1-7.9
			c-2.9,11-9.8,17.2-20.3,20C297.6,240.4,299.9,249.1,297.6,259.6z M146.4,324c-7.3-8.9-8.5-18.1-4.5-27.6
			c-4.3-0.9-8.6-1.1-12.3-2.7c-3.8-1.5-7.1-4.3-10.8-6.6c-1.9,4.1-4.4,8.3-8.6,10.6c-4.1,2.3-8.6,3.9-13.3,5.9
			c7.1,8.4,7.8,17.9,4,28.3c9.4-0.6,17.4,1.5,23.6,9.1C128.4,330.9,135.9,325.8,146.4,324z M96.5,378.8c-8.7-2.9-9.3-5.6-10.8-7.7
			c-5.6-7.9-6.3-16.3-2.6-25.1c0.1-0.2,0-0.5,0-0.9c-1.7,0-3.5,0.1-5.2,0c-6.6-0.5-12.3-2.9-16.9-7.6c-0.6-0.6-1.1-1.3-1.7-1.8
			c-1.9-1.7-2.9-1.5-4.1,0.8c-1.9,3.9-4.2,7.4-7.7,10.1c-8.3,6.5-19.2,7.1-28.3,1.5c-8.7-5.3-13.3-15.8-11.2-25.7
			c2.1-10.4,10.4-18.2,20.9-19.7c8.1-1.1,14.9,1.4,20.7,7c0.7,0.7,1.3,1.4,2,2.1c1.8,1.7,3,1.5,4.2-0.7c0.2-0.4,0.3-0.8,0.5-1.1
			c3.5-7.3,9.4-11.7,17.2-13.8c1.4-0.4,2.7-0.9,4.2-1.4c-8.9-15.4-7.8-28.1,2.9-36.4c9.3-7.3,23.9-8.2,34.9,3.5
			c3.7-7.3,9-12.7,17.1-14.9c5.6-1.5,10.9-0.9,16.1,1.3c6.4,2.8,10.7,7.6,13.2,14.1c2.6,6.6,1.6,13-0.9,19.6
			c10.8-0.4,19.2,3.4,25.2,12.9c1.2-1,2.5-1.7,3-2.7c4.3-7.9,10.9-12.2,19.7-13.5c2.3-0.4,2.7-1.1,1.3-3.4c-3.2-5.3-4.5-10.9-3.4-17
			c2.9-17.2,23.5-25.3,37.2-14.5c5.2,4.1,5.3,3.7,7.5-1.8c2.3-5.7,6.4-9.9,12.1-12.4c1.7-0.8,3.5-1.5,5.7-2.4
			c-10.3-12.2-12.2-25.2-0.5-36.6c11.8-11.4,24.7-9,36.8,1.8c3.2-10.6,9.8-16.9,20.4-19.8c-0.9-1.4-1.4-2.3-2-3.1
			c-6-7.8-7.1-16.2-3-25.2c1.8-4.1,1.1-5.2-3.6-5.7c-15.7-1.6-26-16.2-21.9-31.2c2.7-9.9,11.3-17.1,21.8-18.2
			c1.2-0.1,2.4-0.2,3.9-0.4c-3-10.9,0.1-19.8,8.1-27.3c-0.1-0.8-0.3-1.6-0.4-2.4c-0.1-2.6-1.5-3.8-3.8-4.7
			c-7.8-2.9-12.6-8.7-14.8-16.6c-3.5-12.9,4.4-26.6,17.3-30c10-2.7,20.5,1,26.4,9.3c6.3,8.8,6.5,19.4,0.6,28.3
			c-0.9,1.4-2.1,2.5-3.2,3.7c-2.8,3.1-1.9,7.3,2,8.9c8.6,3.4,13.8,9.7,15.6,18.8c0.2,0.9,0.5,1.8,0.9,3.1c6.9-3.3,13.8-4.4,20.9-1.4
			c5,2,8.9,5.4,11.6,10.1c3.4,5.8,3.9,12,2.1,18.4c-1.8,6.4-6.1,10.9-12.1,14.5c7.6,5.2,12,12,12.4,20.8c0.3,5.6-1.4,10.9-4.8,15.5
			c-8.3,11.1-20.6,12.8-35.8,4.7c-3.3,7.9-9.3,13-17.9,15.4c0.8,1.1,1.3,1.9,1.9,2.6c5.5,6.2,7.7,13.3,6.2,21.4
			c-0.7,3.7-0.4,3.9,3.6,3.2c14.7-2.9,27.7,6,30.1,20.6c1.7,10.4-4.2,21.4-13.9,25.8c-1.4,0.6-2.8,1.1-4.5,1.8
			c0.6,0.8,1.1,1.5,1.6,2c5.9,6.3,7.9,13.7,6.5,22.1c-0.7,4.2,1.5,6.3,5.7,5.5c6.2-1.2,12.1-0.7,17.6,2.5c0.8,0.5,1.7,0.8,2.9,1.4
			c1.5-9.2,5.4-16.7,13.8-21c6.1-3.2,12.6-3.8,19.2-1.7c13,4.2,20.5,18,16.5,30.9c-2.5,8.3-8,14.1-16.3,16.9
			c-8.1,2.7-15.7,1-22.7-3.2c-1.4,3.8-2.8,7.3-4,10.7c-0.3,0.7-0.4,1.6-0.2,2.4c0.6,3.9,1.3,7.9,2.1,11.8
			c2.9,13.2-5.5,26.7-18.6,29.8c-13.4,3.2-27.1-4.9-30.3-18.3c-1.1-4.5-1.7-9.2-2.1-13.9c-0.5-4.7,0.9-9.1,3.2-13.1
			c1.1-1.8,1-3.4,0.7-5.4c-0.5-3.2-0.6-6.6-0.3-9.8c0.3-3,0.2-5.5-3.1-7.2c-10.5,3.2-20,0.4-28.3-8.2c-0.8,1.7-1.5,2.8-1.9,4
			c-4,11.3-15,17-24.4,16.3c-12.1-0.9-21.1-9-23.1-20.7c-0.5-3.1,0-6.3,0.2-9.5c0.1-2.3-0.6-3.3-2.8-2.6
			c-10.2,3.2-18.7,0.4-26.1-6.9c-0.3-0.3-0.7-0.5-1.4-0.9c-0.7,0.8-1.8,1.5-2.2,2.5c-3.4,9-10.1,13.8-19.2,15.8
			c-0.7,0.2-1.4,0.5-1.8,0.7c1.7,4.9,3.6,9.4,4.7,14.2c1.1,4.8-0.3,9.6-2.4,14.4c8.7,1.9,15.3,6.4,18.8,14.6
			c2.5,5.8,2.5,11.7,0,17.7c-5.1,12.1-17.5,17.6-30.1,13.1c-12.2-4.3-17.5-17.3-13-32c-1.1-0.4-2.3-0.8-3.4-1.1
			c-5.6-1.3-10.2-4.1-13.7-8.6c-0.6-0.8-1.1-1.7-2-2.1c-2-1.1-3,0.2-3.8,1.9c-2.8,5.8-7.5,9.4-13.4,11.6c-1.9,0.7-3.9,1.2-6.3,1.8
			c9.3,14.4,8.9,27.7-5.8,38.1c-8.1,5.7-20.4,6.1-31.6-4.6c-0.5,0.8-1,1.5-1.5,2.3c-3.8,6.7-9.2,11.3-16.9,12.9
			c-1.1,0.2-2.2,0.4-3.2,0.7C105.7,381.8,105.2,381.7,96.5,378.8z"/>
	</g>
</g>
</svg>
