<?xml version="1.0" encoding="utf-8"?>
<!-- Generator: Adobe Illustrator 18.0.0, SVG Export Plug-In . SVG Version: 6.00 Build 0)  -->
<!DOCTYPE svg PUBLIC "-//W3C//DTD SVG 1.1//EN" "http://www.w3.org/Graphics/SVG/1.1/DTD/svg11.dtd">
<svg version="1.1" id="Layer_1" xmlns="http://www.w3.org/2000/svg" xmlns:xlink="http://www.w3.org/1999/xlink" x="0px" y="0px"
	 viewBox="0 0 220 220" enable-background="new 0 0 220 220" xml:space="preserve">
<g>
	<path fill="#FFFFFF" d="M53.8,130.4h-7v-2.5h17v2.5h-7v20.4h-3V130.4z"/>
	<path fill="#FFFFFF" d="M67.5,143.6l-2.4,7.2h-3.1l7.8-22.9h3.5l7.8,22.9h-3.2l-2.4-7.2H67.5z M75.1,141.3l-2.3-6.6
		c-0.5-1.5-0.8-2.9-1.2-4.2h-0.1c-0.3,1.3-0.7,2.8-1.2,4.1l-2.2,6.6H75.1z"/>
	<path fill="#FFFFFF" d="M84.6,128.2c1.5-0.3,3.7-0.5,5.7-0.5c3.2,0,5.2,0.6,6.6,1.9c1.1,1,1.8,2.6,1.8,4.4c0,3-1.9,5-4.3,5.8v0.1
		c1.7,0.6,2.8,2.2,3.3,4.6c0.7,3.2,1.3,5.4,1.8,6.3h-3.1c-0.4-0.7-0.9-2.6-1.5-5.5c-0.7-3.2-1.9-4.4-4.6-4.5h-2.8v9.9h-3V128.2z
		 M87.6,138.7h3c3.2,0,5.2-1.7,5.2-4.4c0-3-2.1-4.2-5.3-4.2c-1.4,0-2.4,0.1-2.9,0.2V138.7z"/>
	<path fill="#FFFFFF" d="M120.5,149.8c-1.3,0.5-4,1.3-7.1,1.3c-3.5,0-6.3-0.9-8.6-3c-2-1.9-3.2-5-3.2-8.5c0-6.8,4.7-11.8,12.4-11.8
		c2.7,0,4.8,0.6,5.7,1.1l-0.7,2.4c-1.2-0.6-2.8-1-5.1-1c-5.6,0-9.2,3.5-9.2,9.2c0,5.8,3.5,9.2,8.8,9.2c1.9,0,3.3-0.3,3.9-0.6v-6.8
		h-4.6v-2.4h7.5V149.8z"/>
	<path fill="#FFFFFF" d="M136.8,140.1h-8.9v8.3h9.9v2.5h-12.9v-22.9h12.4v2.5h-9.4v7.2h8.9V140.1z"/>
	<path fill="#FFFFFF" d="M146.6,130.4h-7v-2.5h17v2.5h-7v20.4h-3V130.4z"/>
	<path fill="#FFFFFF" d="M158.6,147.2c1.3,0.8,3.2,1.5,5.3,1.5c3,0,4.8-1.6,4.8-3.9c0-2.1-1.2-3.4-4.3-4.5c-3.7-1.4-6.1-3.3-6.1-6.5
		c0-3.6,3-6.2,7.4-6.2c2.3,0,4,0.5,5,1.1l-0.8,2.4c-0.7-0.4-2.2-1.1-4.3-1.1c-3.1,0-4.3,1.9-4.3,3.4c0,2.1,1.4,3.2,4.6,4.4
		c3.9,1.5,5.8,3.4,5.8,6.7c0,3.5-2.6,6.6-8,6.6c-2.2,0-4.6-0.7-5.8-1.5L158.6,147.2z"/>
</g>
<g>
	<g>
		<g id="XMLID_4_">
			<path fill="#FFFFFF" d="M74.5,87.4c-3.4-1-5.5-3.5-6.9-6.7c-1.3-3-1.9-6-2.3-9.2c-0.5-4,1.7-8.2,6.2-9.8c1.4-0.5,2.6-0.7,3.9,0
				c4.6,2.3,9.3,4.6,13.9,6.8c1,0.5,2,0.9,3.3,1.5c0.8-1,1.4-1.8,2.1-2.7c7.8,0.5,23.1,2.8,23.1,2.8l4.6,0.6c0,0,6.7,1.2,10.3,2.2
				c0.4,0,0.9,0,1.3,0.1c1.8,0.4,3.4,0.6,5,1.2c0-0.1,0-0.1,0-0.2c0.4,0.2,0.8,0.4,1.2,0.7c0,0,0.1,0,0.1,0c0.1,0,0.1,0.1,0.2,0.1
				c0.8,0.5,1.6,1,2.5,1.5c0.5,0.2,1,0.4,1.4,0.6c0.2,0.1,0.5,0.2,0.7,0.3c0.5-0.9,1.1-1.7,1.7-2.5c1.5-2.1,2.9-3.9,3.7-6.4
				c0.3-1.1,0.6-2.2,0.8-3.3l-5.4-1.4c0,0-4.2-1.2-6.3-1.8c-0.6-0.2-1-0.3-1.3-0.6c-0.6,0-1.1-0.1-1.7-0.5c-1-0.5-2.4-0.6-3.5-1
				c-0.6-0.2-1.3-0.6-1.9-0.8c-0.2-0.1-0.5-0.1-0.7-0.2c0,0-0.1,0.1-0.1,0.1c-0.6,0-1.2,0-1.8-0.1c-1.2-0.2-2-0.4-2.6-0.6
				c-0.5,0.1-1.1,0-1.6-0.1c-0.4,0-0.8-0.1-1.3-0.2c-3-1.1-6-0.8-9-1.4c-1.7-0.3-3.1-0.5-4.6-1c-4.2-0.4-8.4-0.9-12.4-1.3
				c-0.7-1.1-1.2-1.9-1.8-2.9c-2.1,0.6-4.2,1-6.1,1.7c-2.6,0.9-5,2.1-7.6,3.1c-2.2,0.8-4.5,1.3-6.7,2.1c-2.7,1-5.4,2-7.9,3.3
				c-1.1,0.6-2.2,1.7-2.8,2.8c-2.2,4.1-2.6,8.4-0.7,12.8c0.7,1.7,1.5,3.4,2.1,5.2c2,5.9,6.6,8.3,12.3,9.1c0.8,0.1,1.7,0.2,2.5,0.3
				c-0.2-0.9-0.3-1.8-0.4-2.7C78.2,88.3,76.3,87.9,74.5,87.4z"/>
		</g>
	</g>
	<g>
		<g id="XMLID_3_">
			<path fill="#FFFFFF" d="M125.6,85.6c2-0.7,4-1.4,6-1.5c3.7-0.3,7.5-0.1,11.3-0.4c4-0.3,6.6,1.8,8.8,4.7c3.4,4.5,3.9,9.7,2.9,15.1
				c-0.4,2.2-1.7,3.3-3.7,3.7c-1.2,0.2-2.5,0.5-3.7,0.5c-1.9-0.1-3.9,0.5-5.7-0.5c1.9-3.2,2.7-6.3,1.7-9.7c-0.1,0-0.9-2.4-0.7-2.4
				c-0.7-3.2-3.3-6-6.8-7.4c-2.5,2.3-4.1,5.1-5,8.4c-0.4,1.4-0.7,2.9-1,4.3l0,0c-0.3,1.1-0.5,2.3-0.8,3.4c-0.5,1.7-1.1,3.3-1.7,5.1
				c-1.3,0.1-2.3,0.2-3.4,0.1c-2.4-0.2-4.7-0.7-7-0.8c-2.9-0.1-4.5-1.5-5.4-4.1c-1.1-3.2-2.2-6.4-3.4-9.6c-0.2-0.6-0.5-1.1-1-2
				c-2.4,5-4.8,15-4.8,15s-0.1,0.9-0.2,0.9c0,0-3.4,0.5-5.1,0.9l-1.6-0.3c-2.4,0.3-4.8,0.3-7.4-0.2c-0.1-0.4-0.2-0.8-0.3-1.1
				l-0.6-1.9c-0.1-0.2-0.1-0.5-0.2-0.7c-1.6-5.1-4.6-9.5-7.7-13.8c-0.3-0.5-1-0.7-1.6-1c0,0,0,0.1-0.1,0.1c-0.6-0.7-1.4-1-2.3-1
				c0.1-0.1,0.1-0.2,0.2-0.3c-0.4-0.5-0.7-0.8-1.2-1.4c1.3-0.3,2.3-0.7,3.3-0.8c2.4-0.4,4.9-0.5,7.3-1c2.9-0.6,4.9,0.6,6.7,2.8
				c0.8,0.9,1.5,1.9,2.3,3c0.7-1.2,1.5-2.2,1.9-3.3c0.9-2.2,2.7-3.2,4.7-3.6c3.7-0.8,7.5-0.7,11.3-0.2c3.2,0.5,5.3,2.2,6.7,5
				c0.5,0.9,0.9,1.8,1.6,3c0.3-0.7,0.4-1.1,0.6-1.4C122,88.8,123.1,86.5,125.6,85.6z"/>
		</g>
	</g>
</g>
</svg>
