<svg version="1.1" id="homunculus_svg" class="interactive" xmlns="http://www.w3.org/2000/svg" xmlns:xlink="http://www.w3.org/1999/xlink" x="0px" y="0px"
	 width="536px" height="440px" viewBox="190.446 69.139 536 440" enable-background="new 190.446 69.139 536 376"
	 xml:space="preserve">
<g id="bone" title="bone" class="interactive" fill="#FFFFFF">
	<g>
		<path stroke="#939598" stroke-miterlimit="10" d="M373.119,201.511c-3.165-0.535-6.559,1.697-7.123,5.594
			c-0.564,3.896,0.79,7.505,3.562,8.708s2.544,1.204,3.562,4.544c1.813,5.943,3.237,12.037,4.708,18.072
			c1.719,7.062,4.689,14.167,5.847,21.29c0.565,3.476,0.715,6.501,0,9.375c-0.703,2.835-0.616,2.763-1.407,5.702
			c-0.74,2.75-1.343,4.078,0.73,5.848c2.036,1.736,3.896,1.812,7.141-0.507c3.365-2.407,10.303-0.948,9.519-6.5
			c-0.753-5.362-5.741-8.443-7.642-13.448c-2.238-5.896-3.102-12.075-4.271-18.23c-2.093-11.012-6.713-23.028-6.208-34.312
			c0.228-5.021-0.729-6.963-3.668-6.216c-2.938,0.747-2.486,3.073-3.617,1.575C373.119,201.511,373.119,201.511,373.119,201.511
			C369.954,200.976,373.119,201.511,373.119,201.511z"/>
		<path stroke="#939598" stroke-miterlimit="10" d="M397.469,279.478c0.593,3.363,1.324,0.127,2.406,3.657
			c0.845,2.753-1.995,5.438-4.301,6.288c-3.705,1.364-6.237,5.333-9.359,7.604c-6.764,4.922-12.064,11.64-17.999,17.476
			c-1.045-3.569,1.456-6.996,0.297-10.178c0,0,0.592,0.016,4.688-2.617c5.874-3.774,9.542-8.961,14.076-14.04
			c1.566-1.754,1.791-4.316,3.231-5.885C392.002,280.158,395.409,280.002,397.469,279.478
			C398.062,282.842,397.469,279.478,397.469,279.478z"/>
		<path stroke="#939598" stroke-miterlimit="10" d="M386.069,284.158c-4.945,0-3.335-4.824-8.027-2.38
			c-4.227,2.2-7.387,7.332-11.074,10.423l1.392,6.778c2.762-2.237,5.617-4.439,8.16-6.925c2.691-2.632,4.297-3.781,7.939-4.835
			C386.056,286.757,387.985,285.496,386.069,284.158C385.338,284.158,386.069,284.158,386.069,284.158z"/>
		<path stroke="#939598" stroke-miterlimit="10" d="M350.301,183.527c6.66,0.064,12.447,2.333,18.252,5.422
			c1.488,0.792,3.222,2.06,4.94,2.312c1.056,0.154,5.248-2.357,5.753-3.425c0.214-0.453-0.072-1.023-1.502-1.69
			c-5.692-2.656-11.179-5.808-17.489-6.688c-2.505-0.35-15.384-3.224-16.97-0.979C342.608,179.439,349.238,183.11,350.301,183.527
			L350.301,183.527z"/>
		<path stroke="#939598" stroke-miterlimit="10" d="M381.264,188.7c5.15,1.818,3.806,10.427,1.608,13.717
			c-1.204-3.041-4.103-3.089-6.75-2.019c-1.678,0.679-1.63-0.6-3.057-0.938c-2.188-0.519-4.954,0.747-6.777,1.816
			c-3.604,2.111-2.31,11.432-0.42,13.773c1.821,2.262,5.396,3.47,5.396,3.47c-0.699,0.813-3.591,5.451-4.53,4.465
			c-1.77-1.858-2.175-5.677-2.828-8.042c-1.049-3.802-2.045-7.788-3.574-11.424c-0.353-0.837-5.49-8.886-2.744-8.519
			c2.959,0.396,5.811,3.046,8.914,1.961c4.173-1.459,5.263-1.582,9.554,0.031c2.708,1.019,2.487-3.672,0.801-4.311
			C372.867,191.172,379.886,189.108,381.264,188.7C384.097,189.7,381.264,188.7,381.264,188.7z"/>
	</g>
	<g>
		<g>
			<path stroke="#939598" stroke-miterlimit="10" d="M660.103,140.633l11.219-0.713l1.079,2.055
				c1.963,2.019,5.37-1.251,5.851,1.696c0.629,3.862-5.429,1.698-5.112,2.828c0.445,1.601-0.088,1.752-0.088,1.752l-11.402,1.858
				C661.131,146.951,660.617,143.792,660.103,140.633L660.103,140.633z"/>
			<path stroke="#939598" stroke-miterlimit="10" d="M662.041,151.611l11.229-2.138c0,0,0.741,0.605,2.145,0.339
				c1.401-0.268,2.311,0.121,2.278,1.061c-0.051,1.677-5.242,2.626-0.913,5.026l-13.16,4c0,0,0.093-1.697-0.549-2.883
				c-0.641-1.186,1.364-1.567,0.992-2.431c-0.371-0.862-1.081-0.728-1.768-1.344C661.613,152.627,662.041,151.611,662.041,151.611
				L662.041,151.611z"/>
			<path stroke="#939598" stroke-miterlimit="10" d="M664.82,160.742c1.93-0.539,10.581-4.374,12.205-3.184
				c0.837,0.612,1.382,0.157,1.854,1.013c0.476,0.854-0.683,1.776-0.778,2.349c-0.1,0.571,0.068,1.659,0.068,1.659l-11.294,3.784
				L664.82,160.742L664.82,160.742z"/>
			<path stroke="#939598" stroke-miterlimit="10" d="M667.569,167.771l11.416-4.104
				c0.662,3.862,4.796-0.578,6.146,2.062c0.614,1.193,0.584,2.132-1.346,2.479c-1.943,0.351-3.919-0.4-2.192,2.816
				c-3.342,1.017-6.681,2.043-10.035,3.014C669.126,174.74,668.241,169.628,667.569,167.771L667.569,167.771z"/>
			<path stroke="#939598" stroke-miterlimit="10" d="M670.821,175.627c2.392-0.541,9.238-3.44,11.308-2.061
				c1.604,1.07,3.076,1.816,4.952,0.765c1.174-0.658,4.562,0.623,2.901,1.729c-1.428,0.948-6.88,1.219-4.947,3.375l-11.678,2.598
				L670.821,175.627L670.821,175.627z"/>
			<path stroke="#939598" stroke-miterlimit="10" d="M674.563,183.173c2.912-0.508,5.824-1.016,8.735-1.522
				c1.08-0.188,1.611-1.23,2.696-0.146c1.026,1.026,6.828,1.934,6.236,3.118c-0.736,1.473-4.676,2.025-6.055,3.668l-10.377,1.339
				l-1.86-5.762L674.563,183.173L674.563,183.173z"/>
			<path stroke="#939598" stroke-miterlimit="10" d="M676.786,191.504l10.927-1.746c0,0-0.625-0.114,0,0.817
				c1.154,1.719,4.945-3.247,6.146,0.171c0.955,2.723-3.897,2.135-4.376,5.329l-11.018,1.804L676.786,191.504L676.786,191.504z"/>
			<path stroke="#939598" stroke-miterlimit="10" d="M678.993,199.509l10.979-1.934
				c1.86,1.266,7.1-0.281,7.262,2.032c0.314,4.5-4.977,1.417-5.122,4.528l-11.065,1.435L678.993,199.509L678.993,199.509z"/>
			<path stroke="#939598" stroke-miterlimit="10" d="M682.956,217.708l12.774-1.821
				c-1.038,4.403,4.259-0.396,5.232,1.335c2.325,4.129-5.861,3.169-3.734,6.289l-14.146,0.686L682.956,217.708L682.956,217.708z"/>
			<path stroke="#939598" stroke-miterlimit="10" d="M681.047,207.277l11.772-1.625c0,0,0.644,0.683,1.185,1.924
				c0.885,2.027,3.32-0.558,4.6-0.019c1.188,0.502-2.578,3.422-2.211,4.655c0.57,1.921-0.442,1.56-0.442,1.56l-12.992,2.163
				L681.047,207.277L681.047,207.277z"/>
			<path stroke="#939598" stroke-miterlimit="10" d="M680.024,389.949c-0.198,1.982,5.047-1.519,5.047-1.519
				l-2.213-1.638L680.024,389.949C679.825,391.932,680.024,389.949,680.024,389.949z"/>
			<polygon fill="#FFFFFF" stroke="#939598" stroke-miterlimit="10" points="683.813,386.198 686.143,387.622 688.448,384.502 
				684.813,383.365 			"/>
			<polygon fill="#FFFFFF" stroke="#939598" stroke-miterlimit="10" points="685.441,382.116 689.417,383.466 692.71,379.894 
				686.191,378.449 			"/>
			<polygon fill="#FFFFFF" stroke="#939598" stroke-miterlimit="10" points="687.691,376.949 693.645,378.552 695.645,372.386 
				687.998,372.283 			"/>
			<path stroke="#939598" stroke-miterlimit="10" d="M687.998,369.95l8.192-0.167v-6.001l-8.5,1.001
				C687.809,366.505,687.969,368.226,687.998,369.95L687.998,369.95z"/>
			<path stroke="#939598" stroke-miterlimit="10" d="M687.024,363.949c2.521-0.519,11.23-0.911,10.538-4.796
				c-1.141-6.383-8.462-3.465-12.121-2.204L687.024,363.949L687.024,363.949z"/>
			<path stroke="#939598" stroke-miterlimit="10" d="M684.858,356.066c1.953-1.105,4.396-2.864,6.669-3.116
				c2.479-0.274,6.604,2.215,5.762-1.38c-2.243-9.552-12.309-6.017-17.265-0.832L684.858,356.066L684.858,356.066z"/>
			<path stroke="#939598" stroke-miterlimit="10" d="M677.524,348.449c3.711-2.287,8.134-5.884,12.706-5.229
				c5.254,0.753,0.625-3.24-2.002-3.847c-3.373-0.775-7.904-2.258-11.37-1.351l-7.834,7.385L677.524,348.449L677.524,348.449z"/>
			<path stroke="#939598" stroke-miterlimit="10" d="M665.024,343.109c0.167-0.659,12.137-7.384,12.137-7.384
				c1.785-0.104,4.52-0.029,6.03-1.108c2.572-1.836,6.593,3.49,8.044-0.084c1.033-2.545-0.578-5.963-3.597-4.979
				c-3.739,1.218-6.341-1.5-9.382-3.438c-4.493,1.38-9.107,3.06-13.764,3.777c-1.009,0.155-2.327-0.676-3.239-0.339
				c-1.799,0.662,0.322,4.798,0.654,5.701C663.014,338.261,660.354,342.014,665.024,343.109
				C665.191,342.449,665.024,343.109,665.024,343.109z"/>
			<path stroke="#939598" stroke-miterlimit="10" d="M659.858,326.116c5.849-1.755,11.899-2.517,18.001-2.718
				c2.942-0.098,6.498,2.533,9.031,1.938c5.262-1.239,0.995-6.98-2.255-7.615c-1.855-0.362-3.789-0.494-5.394-1.625
				c-0.628-0.442-1.889-2.687-2.543-2.771c-2.848-0.367-5.887,0.104-8.737,0.297c-1.329,0.092-8.159,0.216-8.72,0.882
				C657.078,317.073,659.768,323.044,659.858,326.116L659.858,326.116z"/>
			<path stroke="#939598" stroke-miterlimit="10" d="M658.865,310.283c3.361,0.126,6.718,0.098,10.068-0.211
				c2.716-0.249,8.066-1.84,10.509-0.169c2.679,1.834,5.277,5.24,8.274,1.811c3.3-3.776-5.803-5.421-7.692-6.624
				c-2.337-1.485-2.921-5.844-3.951-6.108c-2.229-0.572-4.767,0.271-7.049,0c-1.712-0.202-3.434,0.411-5.155,0.301
				c-1.519-0.098-2.543-1.213-4.004-1.435c-2.619-0.397,0.554,3.795,0.747,4.41C661.501,305.083,658.581,307.579,658.865,310.283
				L658.865,310.283z"/>
			<path stroke="#939598" stroke-miterlimit="10" d="M660.651,293.284c0.256,3.085,9.286,2.026,11.54,2.528
				c3.564,0.796,10.167,7.362,13.25,5.971c6.719-3.033,1.18-4.375-2.394-6.758c-3.017-2.013-4.069-4.751-4.492-8.242
				c-4.681-1.719-9.976-2.685-14.889-3.564c-1.807-0.324-1.365,7.625-3.017,9.396C660.651,292.838,660.651,293.061,660.651,293.284
				C660.858,295.784,660.651,293.284,660.651,293.284z"/>
			<path stroke="#939598" stroke-miterlimit="10" d="M663.934,280.499c7.022,3.071,13.841,0.957,18.283,8.239
				c1.682,2.755,4.604,5.47,6.959,1.847c2.517-3.867-2.975-5.051-4.795-7.156c-2.013-2.333-2.636-3.958-1.673-6.652
				c1.013-2.832-5.625-2.982-7.424-3.673c-2.159-0.828-6.891-3.741-9.261-2.215c-0.746,0.479-1.863,7.974-2.09,9.408V280.499
				L663.934,280.499L663.934,280.499z"/>
			<path stroke="#939598" stroke-miterlimit="10" d="M668.043,267.124c0.298,1.78,6.747,2.281,7.997,2.894
				c2.355,1.151,4.668,1.736,7.045,2.894c1.062,1.982,2.309,5.746,4.356,6.908c2.833,1.61,5.125,0.129,5.187-3.355
				c0.045-2.545-6.198-5.052-7.839-6.702c-1.455-1.466,0.211-4.172,0.985-5.664c-3.605-1.152-7.276-1.99-10.722-3.582
				C669.035,257.735,671.035,263.056,668.043,267.124C668.181,267.941,668.043,267.124,668.043,267.124z"/>
			<path stroke="#939598" stroke-miterlimit="10" d="M675.225,247.627c-0.216,1.575-3.035,7.277-2.484,8.29
				c0.74,1.361,6.827,4.019,8.271,4.267c2.813,0.48,4.8-0.931,5.895,3.043c0.44,1.602,4.377,6.734,6.214,3.442
				c3.233-5.8-4.5-7.385-5.268-11.379c-0.805-4.185,1.396-3.288-3.479-5.142c-2.529-0.961-6.649-3.478-9.113-2.673"/>
			<path stroke="#939598" stroke-miterlimit="10" d="M679.767,236.707c-0.407,1.56-3.38,7.694-2.404,9.015
				c0.923,1.245,7.342,3.049,8.806,3.089c0.898,0.024,2.363-0.306,2.605-0.769c0.241-0.463,3.146-0.085,3.854,0.727
				c0.709,0.812,1.087,2.736,2.236,3.309c1.15,0.571,3.685,0.27,4.407-1.663c0.724-1.934-1.104-3.869-3.278-4.513
				c-2.176-0.644-3.414-1.953-3.771-2.988c-0.357-1.036,0.096-3.592-0.019-3.651c-1.498-0.842-3.978-0.973-5.641-1.331
				c-1.683-0.362-4.108-1.939-5.659-1.895c-0.992,0.027-1.128,0.515-1.128,0.515"/>
			<path stroke="#939598" stroke-miterlimit="10" d="M682.749,226.409c0.212,1.416-1.07,6.774-0.304,7.589
				c1.165,1.234,10.715,3.451,11.536,1.412c0.162-0.401,5.364,2.432,5.772,2.577c1.063,0.377,2.951,0.117,3.41-1.616
				c0.404-1.525-1.512-4.531-3.894-4.938c-1.975-0.336-1.621-0.024-2.029-0.88c-0.41-0.856,0.729-4.26,0.625-4.301
				c-0.104-0.042-7.492,0.54-8.58,0.547c-1.089,0.009-4.726-1.207-5.597-1.083c-0.87,0.123-0.945,0.556-0.945,0.556"/>
		</g>
		<path stroke="#939598" stroke-miterlimit="10" d="M647.855,435.534c1.918-13.125,4.456-26.623,4.728-39.906
			c0.045-2.215-1.511-2.483-1.251-4.896c0.415-3.84-0.062-7.084-1.049-10.81c-0.973-3.673,0.491-8.826,3.572-11.099
			c3.854-2.842,14.229-1.487,12.956,4.838c-1.274,6.338,2.154,12.347-2.182,18.28c-1.102,1.507-2.571,1.496-3.175,3.625
			c-1.28,4.522-1.234,9.54-1.525,14.194c-0.537,8.588-1.023,17.165-1.146,25.771h-10.929V435.534L647.855,435.534z"/>
		<path stroke="#939598" stroke-miterlimit="10" d="M662.272,399.447c2.691,5.83,12.396,2.24,12.677-3.333
			c0.161-3.214-3.216-8.284-1.043-11.178c3.351-4.462,3.72-4.541,2.046-10.294c-1.511-5.194-9.976-15.212,1.009-16.232
			c3.335-0.31,5.193,2.242,8.704,0.098c3.766-2.302,5.981-6.317,7.288-10.408c2.927-9.162-3.142-17.945-12.486-19.51
			c-3.542-0.594-8.617-0.879-11.624,1.53c-3.232,2.593-4.744,6.473-9.061,7.649c-4.203,1.146-8.704,1.095-12.674,3.071
			c-2.19,1.091-8.547,5.708-7.855,8.756c0.739,3.26,6.138,1.544,8.234,2.527c3.905,1.832,2.998,8.449,2.786,11.825
			c-0.231,3.712-3.429,11.417-7.416,15.917c-0.454,0.514,6.729,8.361,7.916,6.929c0.974-1.181-2.583-6.929-2.083-9.345
			c0.232-1.133,0.454-4.082,0.75-5.167c0.5-1.833,2.135-4.126,2.961-4.834c6.422-5.506,18.356,0.544,15.45,9.19
			c-0.951,2.828,0.689,4.479,0.933,7.195c0.232,2.604-1.16,5.542-2.507,7.681C664.185,394.839,662.291,394.807,662.272,399.447
			L662.272,399.447z"/>
	</g>
</g>
<path id="nervous_system" title="nervous system" class="interactive" fill="#FFFFFF" stroke="#939598" stroke-miterlimit="10" d="M338.504,107.168
	c0,10.938-2.608,25.329-9.513,25.329c-3.868,0-4.003,0.62-7.116-2.515c0,0-1.492,4.006-4.464,5.529l2.631,50.246l-4.677,0.245
	l-2.634-50.282c-3.544-1.358-4.705-6.01-4.705-6.01c-3.118,3.194-4.147,2.786-8.052,2.786c-6.904,0-9.516-14.392-9.516-25.329
	s5.13-17.677,12.504-19.807c5.008-1.444,9.969-3.158,11.519,2.956c1.515-6.305,6.535-4.499,11.521-2.956
	C332.876,89.49,338.504,96.23,338.504,107.168z M677.02,317.971c-0.225-26.982,6.999-38.597,11.65-50.914
	c4.653-12.318,9.975-23.743,7.278-53.286c-1.455-15.956-8.333-26.986-13.408-38.795c-5.777-13.442-9.064-20.101-13.349-35.057
	c-0.372-1.298-0.899-2.88-1.408-4.337c2.934,0.731,6.662,0.203,8.84-1.014c3.861-2.156,3.165-5.885,3.165-5.885
	s9.018-1.231,10.521-5.612c1.505-4.38,0.62-11.05-0.339-17.071s-5.686-12.766-11.568-16.187s-8.039-4.541-15.431-4.814
	c-7.393-0.272-17.978,3.072-24.547,8c-6.567,4.928-6.282,14.472-2.889,21.451c3.396,6.979,11.249,6.568,11.249,6.568
	s0.687-0.138,1.369,0.685c0.684,0.82-0.274,1.506-0.274,1.506s0,5.063,4.96,6.979c4.658,1.799,5.127-0.144,7.773-0.386
	c0.284,1.301,3.316,3.441,3.316,3.441s2.315,8.414,4.487,14.162c2.172,5.747,5.395,16.604,7.384,21.583
	c2.752,6.889,13.432,23.858,16.574,44.785c4.166,27.728-2.611,43.561-5.214,49.172c-2.601,5.61-12.867,28.058-13.414,47.082
	c-0.547,19.025,2.604,26.417,9.034,35.176c6.432,8.761,11.229,19.508,6.456,32.782c-1.116,3.106-3.861,7.521-4.45,8.807
	c0,0,13.723-9.481,7.301-30.729C687.713,341.579,677.24,344.952,677.02,317.971z"/>
<path id="blood" title="blood" class="interactive" fill="#FFFFFF" stroke="#939598" stroke-miterlimit="10" d="M323.186,283.583c0,0-0.611,5.078-0.03,6.515
	c1.011,2.489,11.93,2.527,11.93,2.527l-0.325,4.079c0,0-6.865-1.906-10.701-0.679c-0.936,0.3-0.873,5.179-0.873,5.179L315,301.562
	c0,0,1.033-4.746,0.404-5.537c-0.636-0.802-9.495-0.322-9.495-0.322l-0.297-3.125c0,0,7.094,0.165,9.771-1.414l0.322-6.489
	L323.186,283.583L323.186,283.583z M343.889,177.921l-2.576,3.061c-2.313-1.949-5.364-2.485-11.254-1.981
	c-4.144,0.354-6.395,2.971-9.752,4.946c-3.315,1.948-7.097,1.945-10.152,4.529c-2.801,2.37-2.794,7.999-2.556,9.968l-3.655,0.443
	c0.025,0.088,0.044,0.171,0.072,0.26l-3.347,1.028c-0.173-0.591-0.34-1.211-0.401-1.974c-0.083-0.734,0.077-1.783,0.495-2.521
	c1.521-2.791,3.085-4.97,3.18-8.317c0.024-0.903-0.105-1.673-0.468-2.321c-0.354-0.654-0.972-1.265-1.746-1.816
	c-2.125-1.528-5.032-3.009-7.664-3.257l-0.148,0.295l-0.276-0.327c-0.896-0.03-1.757,0.116-2.561,0.49
	c-3.742,1.651-6.907,5.438-10.549,7.451c-4.338,2.352-9.819,3.789-13.726,6.794c-1.037,0.809-1.945,1.855-2.721,3.015
	c-5.627,8.401-8.743,19.345-11.4,28.979c-1.412,5.121-2.602,10.305-3.579,15.525c-1.179,5.949-3.414,11.957-4.102,17.953
	c-0.504,4.223,1.376,8.125,1.038,12.165c-0.049,0.575-0.201,1.11-0.401,1.614l0.192,0.074c-0.314,0.824-0.993,3.293-0.357,4.792
	c0.553,1.299,1.285,2.562,1.502,3.979c2.058-1.286,4.195-1.796,5.805-3.762c1.601-1.723,1.621-6.852,1.924-9.036
	c0.985-7.124,1.699-14.284,2.593-21.419c1.407-11.247,1.903-26.204,8.528-35.889c0.435-0.624,0.932-1.236,1.562-1.797
	c0.688-0.597,1.453-1.041,2.325-1.282l0.823,2.886c-0.833,0.183-1.59,0.915-2.284,1.891c-3.643,5.196-4.716,12.508-5.866,18.603
	c-1.496,7.93-2.519,15.942-3.53,23.944c-0.922,7.195-1.015,15.376-3.569,22.229c-1.138,2.937-4.315,3.974-6.952,5.206
	c-0.521,0.244-0.907,0.519-1.225,0.931c-0.787,1.011-0.935,2.303-1.318,3.478l-0.096-0.029c-1.915,6.092,0.458,12.999-1.65,18.746
	l0.039-0.018c0.7,2.092,0.953,4.166,0.977,6.291c-0.02,6.151-2.812,12.167-5.354,17.663c2.125-5.519,4.594-11.643,4.323-17.638
	c-0.079-1.576-0.419-3.175-0.925-4.649c-1.098,1.396-2.976,2.32-3.865,3.863c-1.199,2.016-1.569,5.078-1.73,7.355
	c-0.692,9.871-9.074,19.128-12.45,28.144c-0.249,0.985-0.286,1.98-0.11,2.983c-0.002,0.562-0.267,1.127-0.63,1.527
	c-0.361,0.408-0.791,0.729-1.227,1.019c-1.771,1.171-3.839,1.417-5.7,2.356c-0.899,0.448-1.68,1.112-2.32,1.896
	c-1.688,2.004-4.091,5.323-4.425,7.974c-0.635,4.161-0.764,8.006-2.101,12.095c1.282-4.104,1.362-7.947,1.939-12.116
	c0.3-2.69,2.685-6.074,4.365-8.13c0.646-0.812,1.456-1.521,2.394-2.006c1.835-0.949,3.887-1.224,5.624-2.406
	c0.816-0.552,1.648-1.264,1.635-2.224c-0.19-1.047-0.159-2.088,0.096-3.122c2.123-5.973,5.635-12.41,8.49-18.14
	c3.709-7.442,3.926-11.938,0.909-19.717c-0.146,3.799-0.161,11.466-2.509,14.742c-2.195,3.263-6.244,3.046-9.163,5.157
	c-2.667,1.968-2.89,5.461-4.026,8.294c0.485,0.561,0.557,1.225,0.515,1.818c-0.24,2.576-1.87,6.07-2.669,8.58
	c-0.421,1.161-1.212,2.078-1.842,3.091c0.567-1.044,1.307-2.029,1.637-3.154c0.641-2.436,2.192-6.096,2.245-8.555
	c0.021-0.376-0.074-0.771-0.235-1.056c-0.021,0.04-0.038,0.085-0.062,0.124c-0.604,1.061-1.517,1.857-2.28,2.699
	c-0.768,0.827-1.245,1.917-1.226,3.058c0.019,1.17-0.139,2.353-0.399,3.49c-0.36,1.123-0.929,2.131-1.7,3.021
	c-0.497,1.05-0.898,2.15-1.142,3.291c0.209-1.146,0.582-2.263,1.051-3.331c0.742-0.896,1.274-1.904,1.6-3.021
	c0.227-1.142,0.348-2.287,0.296-3.449c-0.061-1.2,0.436-2.42,1.224-3.313c0.774-0.896,1.622-1.687,2.148-2.685
	c1.58-2.793,1.311-6.078,3.531-8.658c-1.022,0.1-2.048-0.012-3.008-0.408c-0.592-0.287-1.134-0.505-1.721-0.864
	c-0.291-0.182-0.556-0.49-0.668-0.82c-0.719-1.952-1.083-6.455-0.538-8.461c-0.458,2.085,0.324,5.349,0.696,7.438
	c0.11,0.613,0.254,1.194,0.76,1.446c0.495,0.274,1.131,0.506,1.677,0.738c1.104,0.402,2.38,0.373,3.494,0.072l0.032,0.112
	c0.044-0.039,0.082-0.083,0.127-0.122c1.862-1.472,4.349-1.745,6.358-2.952c0.946-0.571,1.822-1.305,2.382-2.178
	c2.649-3.98,1.82-12.487,2.058-16.927l0.13,0.008c-1.285-2.526-3.252-4.824-4.163-7.526c-0.518,0.269-1.032,0.634-1.444,1.053
	c-1.333,1.342-1.722,3.352-2.789,4.89c-1.104,1.645-2.958,2.48-4.107,4.077c-1.539,2.054-3.499,5.092-3.688,7.688
	c-0.019-2.625,1.726-5.899,3.161-8.056c1.041-1.644,2.827-2.572,3.828-4.241c1.034-1.682,1.304-3.734,2.59-5.267
	c0.6-0.701,1.283-1.27,2.132-1.715c-0.028-0.424-0.023-0.852,0.067-1.274c0.562-2.646,1.433-6.647,2.739-8.989
	c3.179-5.889,10.315-8.734,12.87-15.061l0.187,0.072c0.151-0.392,0.256-0.784,0.281-1.175c0.455-5.607-1.916-10.444-0.427-16.395
	c1.502-6.003,2.675-11.94,3.864-18.013c2.688-13.747,6.333-29.608,14.009-41.54c0.878-1.346,1.933-2.62,3.253-3.68
	c3.487-2.852,8.171-4.114,12.113-6.192c4.528-2.389,8.039-6.628,12.562-8.733c1.082-0.509,2.315-0.777,3.516-0.8
	c0.319-0.691,0.812-1.646,1.553-3.041c1.688-3.177,4.2-3.258,5.55-3.301c0.159-0.005,0.357-0.012,0.509-0.024
	c0.082-0.32,0.192-1.141,0.021-3.031l3.982-0.361c0.293,3.223-0.005,5.01-1.029,6.168c-1.609,1.817-4.375,0.312-5.501,2.429
	c-0.425,0.797-0.73,1.393-0.969,1.861c2.141,0.716,4.314,1.757,6.167,3.049c1.001,0.7,2.033,1.607,2.746,2.869
	c0.331,0.571,0.546,1.188,0.693,1.809c2.384-2.547,5.634-3.96,8.832-5.178c6.288-2.396,11.061-4.659,10.568-10.071
	c-0.351-3.854,3.138-12.828,3.84-14.589l3.715,1.483c-1.132,2.839-2.146,5.749-2.923,8.707c-0.818,3.114-0.154,6.467-1.474,9.426
	c0.04-0.004,0.075-0.012,0.115-0.017C335.721,174.499,340.189,174.806,343.889,177.921
	C343.889,177.921,340.189,174.806,343.889,177.921z M243.146,292.263c0.176-1.381,0.471-2.747,0.831-4.074l-0.096-0.029
	c0.006-0.018,0.537-1.732,1.042-3.703c0.621-2.427-1.596-4.467-1.699-6.854c-2.787,3.32-6.295,5.862-9.217,9.041
	c-1.345,1.46-2.422,3.106-2.661,5.02c-0.257,2.123-1.368,3.866-1.804,5.909c-0.748,3.337,3.115,7.36,4.44,10.204l0.154,0.01
	c-0.008,0.095-0.011,0.188-0.018,0.28c1.296,2.894,2.828,6.24,3.273,9.399c0.242-1.587,0.432-3.413,1.203-4.849
	c0.95-1.803,2.998-2.729,4.037-4.485c0.644-1.062,0.79-2.327,0.753-3.628C243.268,300.395,242.622,296.388,243.146,292.263
	C243.322,290.883,242.794,295.038,243.146,292.263z M296.359,177.2c-0.162-0.195-0.372-0.369-0.638-0.505l-0.163,0.321
	C295.83,177.069,296.096,177.132,296.359,177.2C296.197,177.005,296.096,177.132,296.359,177.2z M313.125,407.136
	c-1.559-5.461-3.228-10.992-6.548-15.682c-2.538-3.581-5.312-5.953-4.342-10.578c0.143-0.68,0.304-1.446,0.407-2.305
	c0.545-4.499-4.382-4.8-4.715-8.791c-0.475-5.68,0.768-13.474,0.779-13.552l-3.949-0.638c-0.771,4.853-1.352,10.047-0.77,14.941
	c-0.582,0.069-1.154,0.199-1.653,0.399c-1.043,0.419-2.156,1.207-2.958,2.659c-0.744-0.083-1.46-0.286-2.147-0.609
	c-1.018-0.489-1.857-1.269-2.438-2.285c-1.323-2.291-1.412-5.225-2.229-7.706c-0.236-0.704-0.608-1.451-1.136-2.04
	c-3.342-3.8-6.702-6.09-9.052-11.004c1.871,5.094,5.03,7.765,7.979,11.862c0.35,0.479,0.557,1.014,0.705,1.631
	c0.142,0.617,0.247,1.274,0.342,1.946c-1.39,0.46-2.679,1.053-3.916,1.819c-0.956,0.604-1.771,1.776-2.794,2.218
	c-0.223,0.099-0.432,0.099-0.801-0.022c-0.184-0.056-0.389-0.144-0.68-0.19c-0.282-0.062-0.698,0.013-0.945,0.203
	c-0.488,0.382-0.646,0.805-0.831,1.197c-0.625,1.506-1.048,3.467-1.478,5.034c0.017-0.515,0.065-1.026,0.147-1.536
	c-0.03,0.126-0.462,1.471-0.294,1.885c0.027,0.058,0.154,0.051,0.165,0.024c1.145-0.75,1.548-3.889,2.192-5.049
	c0.182-0.325,0.424-0.659,0.615-0.753c0.093-0.038,0.112-0.031,0.229-0.002c0.11,0.029,0.28,0.114,0.479,0.207
	c0.378,0.191,1.027,0.356,1.589,0.172c2.318-0.672,4.086-2.654,6.581-3.292c0.283,1.945,0.56,3.89,1.689,5.56
	c-1.788,1.202-3.45,2.726-4.712,4.465c-2.563,3.379-5.851,7.913-7.188,11.975c-0.742,2.251-1.033,4.593-1.006,6.896
	c0.292-2.286,0.902-4.519,1.896-6.532c1.837-3.734,5.444-7.677,8.198-10.812c1.4-1.614,3.054-2.863,4.969-3.841
	c0.895,0.611,1.886,1.061,2.946,1.319c-1.306,7.407,0.976,16.331,2.041,23.699c-1.01,0.96-1.885,1.955-2.692,3.062
	c-0.792,1.11-1.527,2.314-1.895,3.745c-0.152,1.356-0.111,2.708,0.122,4.052c-0.038,5.229-2.515,9.834-2.279,15.289
	c0.059,1.28-0.029,2.643-0.776,3.742c0.806-1.059,0.977-2.45,0.981-3.745c0.054-5.582,2.812-9.89,3.278-15.224
	c-0.139-1.245-0.106-2.482,0.098-3.717c0.612-1.885,2.099-3.487,3.501-4.812c0.506,3.59,1.038,7.267,2.778,10.503
	c1.665,3.095,4.552,5.18,5.991,8.416c1.925,4.325,2.64,9.468,2.604,14.188h3c0.033-4.865-0.709-10.007-2.508-14.535
	c-1.336-3.364-3.781-5.394-5.734-8.312c-2.276-3.402-2.725-7.557-3.275-11.508c-0.971-6.956-1.803-13.849-2.376-20.851
	c-0.253-3.075,0.238-5.215,1.421-6.188c0.639-0.524,1.43-0.664,2.071-0.67c0.673,1.383,4.038,3.223,3.869,4.616
	c-0.083,0.687-0.221,1.335-0.354,1.965c-1.27,6.055,1.902,9.232,5.172,13.968c3.674,5.319,4.973,11.751,6.845,17.824
	c2.376,7.706,3.533,15.672,4.33,23.688h3.979C317.673,425.772,315.815,416.549,313.125,407.136
	C311.491,401.41,313.644,408.953,313.125,407.136z"/>
<g id="skin" title="skin" class="interactive" fill="#FFFFFF">
	<g>
		<path stroke="#939598" stroke-miterlimit="10" d="M335.374,149.005l0.004-0.004
			c-0.016-0.166-0.026-0.298-0.033-0.387C335.35,148.701,335.36,148.829,335.374,149.005
			C335.374,149.005,335.36,148.829,335.374,149.005z"/>
		<path stroke="#939598" stroke-miterlimit="10" d="M326.917,400.698c-0.188-2.926-0.511-5.843-0.683-8.769
			l-0.036,0.002c-0.169-0.966-0.517-1.497-1.579-1.411c-1.057,0.084-1.318,0.723-1.34,1.642l-0.035,0.003
			c1.254,14.428,1.362,28.912,0.529,43.371c0.29,0,2.996,0.03,2.998,0l0.204-26.023c0,0,2.058,4.135,5.58,9.533
			c3.944,6.045,5.147,16.49,5.147,16.49c0.028,0.119,2.711,0,3.014,0c-1.199-5.324-2.727-10.596-4.869-15.623
			C333.112,413.49,327.733,407.846,326.917,400.698C326.869,399.948,327.063,401.98,326.917,400.698z"/>
		<path stroke="#939598" stroke-miterlimit="10" d="M335.343,148.615
			C335.328,148.429,335.329,148.444,335.343,148.615L335.343,148.615z"/>
		<path stroke="#939598" stroke-miterlimit="10" d="M402.193,228.139c-0.577-1.828-1.071-2.646-1.432-3.241
			c-2.108-3.479-0.612-11.857-1.128-16.009c-0.842-6.767-1.956-15.078-6.171-20.698c-2.925-3.899-7.732-5.772-12.214-7.214
			c-2.636-0.849-11.57-2.74-12.971-4.94c-2.71-4.26-10.534-5.98-14.812-7.968c-4.154-1.929-11.89-4.803-13.539-9.478l-1.706-12.696
			l-0.004,0.005c1.791-4.834,5.544-7.962,6.93-13.267c1.351-5.173-1.247-9.708-0.386-14.096c1.179-6.012,2.075-12.949,0.67-18.993
			c-2.479-10.668-12.22-18.02-22.532-20.328c-11.119-2.487-23.688,0.38-31.796,8.628c-8.531,8.681-8.196,21.581-6.562,32.89
			c-0.788,0.893-1.458,2.333-1.571,4.663c-0.106,2.165,0.277,4.816,1.084,7.472c1.474,4.862,5.743,7.597,7.124,11.801
			c1.134,3.45,2.727,6.784,4.735,9.812l0.032-0.01c0.275,1.236,0.813,2.262,1.027,3.283c0.618,2.958,0.833,4.329-0.541,5.814
			c-2.898,3.135-8.127,4.792-11.857,6.653c-4.653,2.32-9.225,4.813-13.037,8.401c-2.608,2.454-6.927,4.08-10.165,5.823
			c-4.521,2.432-9.808,4.531-12.637,9.101c-3.273,5.289-7.521,16.598-6.718,25.181c1.614,17.176-5.208,33.91-6.998,50.953
			c-0.393,3.749-4.38,7.576-6.417,10.562c-3.221,4.723-5.262,9.538-7.369,14.806c-4.211,10.527-8.711,19.102-10.33,30.607
			c-0.761,5.423-1.63,10.82-2.867,16.158c-1.392,6.008-4.946,10.989-7.08,16.689c-2.117,5.653-3.018,12.164-4.447,18.035
			c-0.896,3.68-2.862,9.114-1.455,12.906c1.441,3.887,2.293,7.683,3.199,11.682c0.288,1.267,0.932,2.126,1.459,2.646
			c0.048,6.646,2.526,12.956,4.399,19.189c0.178,0.593,1.043,2.444,4.737,1.511c2.19-0.558,2.584-3.417,2.417-5.735
			c1.05,1.659,1.923,2.743,3.104,3.271c0.971,0.433,1.846,0.442,2.6,0.036c1.21-0.657,1.572-2.146,1.74-3.208
			c0.272-1.73-0.188-3.588-0.996-5.181c0.073-0.019,0.148-0.041,0.228-0.065c0.857-0.285,1.549-1.024,1.897-2.029
			c0.502-1.447,0.241-3.166-0.697-4.599c-0.086-0.133-0.175-0.262-0.267-0.386c0.413-0.052,0.802-0.174,1.153-0.365
			c0.752-0.412,1.271-1.115,1.417-1.93c0.706-3.853,1.549-7.562,2.593-11.389c0.91-3.331,0.716-8.3,0.77-11.812
			c0.064-4.332-2.534-7.343-3.368-11.407c-0.802-3.911,1.93-10.016,3.839-12.941c1.091-1.673,2.241-3.31,3.48-4.875v-0.325
			c6.102-15.695,22.277-25.564,27.914-41.441c2.533-7.143,5.246-14.916,5.484-22.569c0.218-7,3.835-14.397,6.094-21.03
			c1.181,4.152,2.592,9.074,3.57,12.349c2.997,10.003-5.151,21.234-0.947,31.327c1.521,3.647-1.316,7.567-1.483,11.399
			c-0.285,6.548,0.805,13.148,0.372,19.674c-0.182,2.735-2.882,5.457-3.465,8.291c-0.979,4.763-1.186,9.65-2.196,14.44
			c-1.834,8.688-2.086,17.274-0.828,26.081c2.167,15.166,4.307,30.344,6.662,45.48h2.964c-2.282-14.609-4.274-29.272-6.371-43.912
			c-1.312-9.159-1.414-17.912,0.498-26.979c1.034-4.903,1.183-9.994,2.283-14.842c0.68-2.993,3.242-5.293,3.447-8.362
			c0.364-5.487-0.401-11.102-0.418-16.604c-0.015-4.443,2.85-9.751,1.953-13.842c-1.115-5.086-1.236-9.195-0.829-14.475
			c0.485-6.312,3.133-12.195,1.233-18.54c-1.235-4.125-2.411-8.269-3.588-12.41c-0.604-2.126-0.796-7.366-2.854-8.532l-3.174-1.814
			c0.554,1.977,1.105,3.952,1.661,5.929c-0.978,7.773-5.957,14.928-7.427,22.582c-1.672,8.703-2.427,16.778-5.469,25.356
			c-3.288,9.263-11.1,17.097-17.242,24.547c-5.439,6.582-9.205,14.357-13.837,21.462c-1.942,2.977-5.332,9.979-4.266,15.184
			c0.772,3.767,3.365,6.799,3.307,10.761c-0.048,3.262,0.161,8.032-0.662,11.066c-0.813,3.014-3.217,8.214-2.691,11.332
			c0.009,0.051,0.02,0.11,0.026,0.164c-0.129,0.015-0.368-0.011-0.716-0.152c-0.661-0.271-0.892-0.91-0.892-0.91l-0.338-1.062
			c-1.077,0.062-2.119-0.079-3.156-0.397c-1.63-0.502-3.008-2.518-4.032-3.828c1.549,1.078,3.184,2.978,5.076,3.304l1.829,0.316
			c-0.329-3.231,0.39-6.911,1.205-10.025c-0.185-1.239-0.64-2.902-1.553-3.814c-0.455-0.453-1.102-0.628-1.736-0.469
			c-2.125,0.542-3.489,4.993-3.503,5.038c-0.526,1.788-1.267,3.517-2.06,5.201l0.663,0.401l-1.009,2.018
			c-0.441,0.884-0.308,2.293,1.037,3.301c0.736,0.552,1.21,1.66,1.52,2.516c0.772,0.104,1.515,0.316,2.229,0.635
			c0.707,0.312,2.471,1.229,3.589,2.936c0.453,0.69,0.498,1.317,0.432,1.727c-0.24-0.309-0.553-0.688-0.978-1.068
			c-2.713-2.44-6.903-3.766-10.173-5.264c2.446,3.06,4.795,6.353,7.673,9.028c1.443,1.342,2.414,3.736,2.161,5.341
			c-0.067,0.431-0.145,0.705-0.205,0.875c-2.77-1.428-3.59-5.847-6.457-7.635l-3.609-2.255c0.96,2.765,2.11,5.569,2.65,8.453
			c0.312,1.665,0.138,3.345-0.141,3.79c-0.539,0.127-0.906,0.149-1.119,0.137c-1.019-3.07-2.309-5.886-2.795-9.117
			c-0.209-1.392-0.288-8.29-1.357-9.146l0.228-1.059l-0.897-0.582c-0.026-0.019-0.652-0.434-0.864-1.365
			c-0.939-4.126-1.825-8.051-3.313-12.06c-1.221-3.294,0.975-8.811,1.764-11.995c1.431-5.775,2.217-12.334,4.517-17.814
			c1.97-4.692,4.723-8.97,6.214-13.871c1.663-5.463,2.463-11.263,3.268-16.904c1.586-11.12,4.975-19.798,9.615-29.865
			c2.18-4.729,3.614-9.488,6.456-13.931c2.664-4.164,7.768-8.923,8.304-14.028c1.818-17.27,8.647-34.128,7.001-51.547
			c-0.731-7.805,3.315-18.529,6.282-23.32c2.135-3.448,6.267-5.386,9.758-7.139c1.934-0.971,3.322-2.195,5.121-3.339
			c2.292-1.459,4.726-1.229,6.741-3.185c7.296-7.072,19.02-8.596,25.728-15.859c2.48-2.686,1.641-7.535,0.128-11.941
			c-2.955-3.865-4.668-8.439-5.806-14.006c-0.084,0.05-0.17,0.094-0.264,0.122c-2.963,0.879-5.24-6.033-5.771-7.784
			c-1.464-4.823-1.25-9.157,0.476-9.681c0.146-0.039,0.294-0.052,0.442-0.039c-1.7-8.868-2.673-21.046,2.591-28.925
			c5.339-7.99,15.158-12.004,24.54-12.004s19.2,4.015,24.539,12.004c5.483,8.206,3.867,19.904,1.281,28.868
			c0.199-0.049,0.399-0.049,0.6-0.002c1.742,0.456,2.126,4.779,0.854,9.654c-0.474,1.812-2.381,8.543-5.341,8.019
			c-0.346,1.646-1.487,4.158-2.014,5.683l0.528,3.379l-0.042,0.046c0.166,1.814,0.777,7.917,1.722,10.588
			c1.346,3.815,4.49,5.506,8.131,7.463c7.527,4.048,15.079,7.389,21.995,12.164c2.764,1.908,8.331,3.117,11.61,4.144
			c4.332,1.355,9.371,2.822,12.229,6.632c3.764,5.017,4.698,12.608,5.497,18.631c0.671,5.061-0.998,13.478,1.634,17.829
			c0.298,0.491,0.669,1.104,1.139,2.591c2.531,8.011,3.225,17.067,3.026,25.414c-0.21,8.892-3.539,18.825-2.075,27.631
			c0.923,5.531-6.465,9.272-8.552,13.37c-2.875,5.644-6.962,11.194-11.709,15.385c-3.985,3.518-7.534,5.521-9.504,6.485
			c-1.129-5.883-0.454-10.207-0.51-16.137c-0.046-4.881-1.49-9.494-2.929-14.118l0.377-1.318
			c0.726-2.545,6.958-12.733,10.265-12.733l1.601-0.513c-2.354-4.807-3.059-10.262-3.562-15.534l-2.994,0.115
			c0,0.024-0.015,2.406-0.718,5.688c-1.249,5.827-5.736,10.926-7.699,16.572c-2.161,6.211-0.483,12.03,1.22,18.137
			c1.483,5.438-0.749,10.261-0.146,15.578c0.443,3.905,1.402,7.485,1.464,11.558c0.134,8.798-0.797,18.104,3.837,25.981
			c4.794,7.975,6.882,16.933,8.567,26.013c3.189,17.179,3.979,58.521,3.985,58.921h2.999c-0.03-1.649-0.8-42.047-4.036-59.468
			c-1.747-9.414-3.963-18.719-8.932-26.987c-4.91-8.349-3.14-18.896-3.52-28.164l0.105-0.036c0.227-0.081,5.597-2.039,12.112-7.788
			c4.31-3.805,7.831-8.565,10.803-13.463c2.49-4.102,5.583-7.197,8.344-11.142c2.696-3.848,1.808-7.505,2.167-11.913
			c0.472-5.789,1.325-11.541,1.782-17.332C405.902,249.097,405.281,237.915,402.193,228.139
			C401.615,226.311,403.805,233.244,402.193,228.139z M371.358,271.464c1.046-1.99,2.006-3.814,2.69-5.385
			c0.353,1.671,0.789,3.354,1.323,4.83c-3.44,2.238-5.88,5.747-8.087,9.126C368.251,277.373,369.898,274.24,371.358,271.464
			C372.404,269.473,369.898,274.24,371.358,271.464z"/>
	</g>
	<g>
		<path stroke="#939598" stroke-miterlimit="10" d="M685.76,435.534h-3.916c0.026-0.085,3.146-9.012,4.486-19.755
			c1.119-8.957-4.755-19.443,0.196-27.861c4.803-8.166,14.547-12.078,16.113-22.158c1.001-6.44,1.47-15.938-1.984-24.604
			c-2.107-5.289-8.539-8.156-9.625-13.943c-2.07-11.052-2.267-28.396,3.992-40.915c5.873-11.751,14.726-24.266,14.726-37.918v-2.625
			h0.132c0.731-7.309,5.105-13.979,5.105-21.354c0-4.503-0.978-9.092-1.861-13.484c-2.22-11.025-4.812-24.336-11.628-33.586
			c-4.914-6.668-11.363-11.932-16.979-17.938c-1.434-1.53-2.045-2.312-2.854-6.361c-0.822-4.108,0.916-7.198,2.45-9.925
			c3.587-6.367,8.062-13.107,9.484-20.328c1.894-9.626-0.523-19.978-6.391-27.825c-11.584-15.499-40.543-16.51-53.134-1.284
			c-4.345,5.253-5.719,12.341-4.085,21.068c0.33,0.774,1.449,3.623,1.159,5.936c-0.34,2.727-1.901,5.205-2.655,7.824
			c-0.288,1.002-2.771,6.027-2.454,6.663c0.495,0.989,3.101,1.214,3.886,1.211c0.539,0.086,1.012,0.375,1.324,0.812
			c1.159,1.616-0.042,4.16-0.062,5.895c-0.003,0.233,0.037,0.396,0.118,0.479c0.157,0.159,0.524,0.208,0.561,0.208h5.783
			l-5.055,2.811c-0.207,0.13-0.57,0.471-0.384,1.12c0.073,0.087,0.497,0.281,0.75,0.396c0.72,0.33,2.402,1.102,2.027,2.979
			c-0.345,1.727-2.954,2.965-2.419,4.848c2.038,7.133,10.775-0.168,12.53,7.277c0.505,2.155,1.197,4.112,2.314,6.04
			c1.204,2.08,2.449,4.23,1.629,8.326c-1.441,7.227-7.784,14.36-14.498,21.915c-10.589,11.916-21.538,24.236-14.051,37.702
			c3.939,7.096-1.522,16.549,0.226,24.139c1.416,6.174,3.775,12.097,4.943,18.334c1.497,8.013-4.632,15.131-5.277,23.039
			c-0.614,7.558-1.7,15.062-2.759,22.566c-1.042,7.445,2.692,14.389,2.778,21.771c0.526,1.25,1.113,2.561,1.715,3.902
			c3.766,8.396,8.447,18.849,2.299,25.037c-1.769,1.777-2.656,4.157-2.57,6.884c0.111,3.6,1.964,7.331,4.947,9.979
			c3.194,2.833,2.252,6.615,1.16,10.993c-2.652,10.646-0.859,21.123,1.139,31.714h-3.673c-1.055-5.539-1.581-11.223-1.832-16.849
			c-0.21-4.712-0.064-9.216,1.022-13.819c0.636-2.691,2.786-7.494,0.194-9.794c-3.594-3.186-5.819-7.72-5.958-12.13
			c-0.11-3.518,1.11-6.747,3.441-9.093c4.696-4.729,0.656-13.741-2.908-21.695c-0.673-1.502-1.338-3.005-1.975-4.521
			c0.039-7.764-3.851-14.94-2.751-22.794c1.047-7.447,2.128-14.893,2.74-22.392c0.606-7.422,6.685-14.942,5.316-22.246
			c-1.157-6.195-3.509-12.083-4.92-18.215c-1.617-7.04,3.627-16.959,0.078-23.353c-8.521-15.324,3.672-29.047,14.432-41.152
			c6.437-7.242,12.515-14.082,13.8-20.511c0.605-3.028-0.618-4.922-1.981-7.473c-1.093-2.045-1.068-5.465-2.413-7.225
			c-0.595-0.017-1.188,0.018-1.779,0.101c-5.172,0.566-8.688-0.174-10.244-5.635c-0.719-2.518,0.738-4.249,1.703-5.395
			c0.121-0.145,0.271-0.324,0.4-0.49c-0.026-0.014-0.054-0.024-0.079-0.036c-0.789-0.36-1.979-0.907-2.381-2.29
			c-0.298-1.025-0.188-1.908,0.104-2.625c-0.091-0.073-0.18-0.153-0.266-0.24c-0.459-0.465-1.002-1.296-0.984-2.624
			c0.017-1.298,0.343-2.549,0.485-3.832c-2.264-0.361-4.354-0.785-5.314-2.708c-0.951-1.902,0.104-3.524,0.879-4.709
			c1.681-2.584,3.558-8.433,3.936-11.492c0.196-1.557-0.459-3.436-1.098-4.836c-1.857-9.724-0.28-17.698,4.688-23.707
			c8.625-10.429,26.871-13.948,39.646-10.812c15.702,3.856,25.87,19.289,25.813,35.039c-0.023,6.625-2.068,13.058-4.961,18.96
			c-2.465,5.031-8.839,11.584-7.654,17.498c0.675,3.372,1.006,3.727,2.104,4.899c5.704,6.083,12.22,11.444,17.203,18.208
			c7.473,10.145,10.306,24.796,12.573,36.921c1.009,5.399,2.136,11.094,0.983,16.559c-1.593,7.559-4.87,14.075-4.72,21.978h-0.117
			c-1.156,13.283-9.117,25.013-14.926,36.635c-5.927,11.854-5.712,28.428-3.727,39.02c0.98,5.25,7.483,8.415,9.463,13.388
			c3.705,9.297,3.221,19.364,2.162,26.177c-1.687,10.842-11.388,14.538-16.492,23.216c-4.503,7.654,1.229,18.428,0.194,26.713
			C687.929,427.19,685.874,435.181,685.76,435.534C685.76,435.534,685.874,435.181,685.76,435.534z"/>
	</g>
</g>
<path id="gall_bladder" title="gall bladder" class="interactive" fill="#FFFFFF" stroke="#939598" stroke-miterlimit="10" d="M302.113,276.061
	c0,4.758-9.274,10.549-16.033,10.549s-6.981-6.021-8.439-10.549c-2.772-8.614,5.479-8.614,12.236-8.614
	C296.635,267.447,302.113,271.304,302.113,276.061z"/>
<path id="spleen" title="spleen" class="interactive" fill="#FFFFFF" stroke="#939598" stroke-miterlimit="10" d="M355.126,266.459c0,0,3.184-1.432,4.881,1.559
	c1.697,2.989,2.218,9.063,1.228,11.789c-0.99,2.724-2.574,7.07-2.733,9.29c-0.16,2.219-3.533,3.22-4.292,0.66
	c-0.758-2.559-1.397-7.973-2.826-10.276c-1.428-2.304,2.757-4.396,3.318-7.062C355.262,269.751,355.126,266.459,355.126,266.459z"/>
<path id="muscle" title="muscle" class="interactive" fill="#FFFFFF" stroke="#939598" stroke-miterlimit="10" d="M371.27,401.627c-1.04-3.302-3.178-4.783-7.253-9.474
	c-5.562-6.396-9.377-15.678-10.695-25.1c-1.21-8.648,1.947-19.415,1.947-19.415s0.205-0.044,0.547-0.145
	c-0.375,2.258-1.307,8.561-0.564,11.521c0.91,3.643,2.773,12.646,2.773,12.646l-1.525-12.495l3.405,11.384l-1.88-13.861
	l4.207,11.433L359.5,352.54l5.16,11.132l-3.644-14.57l4.451,7.893l-2.83-10.318l3.418,3.275l-1.6-7.122l2.125,4.148v-5.849
	c1.234,0.837,1.126,3.521,1.399,4.773c0.732,3.347,1.931,6.598,3.12,9.802c1.212,3.267,2.617,6.493,3.624,9.833
	c2.553,8.464,5.828,19.197,4.939,27.983l-2.702-7.621v8.369l-3.687-7.318l2.233,9.25l-3.866-6.25l1.633,7.443l-3.267-4.193
	C370.43,396.01,370.848,398.818,371.27,401.627C370.23,398.325,371.27,401.627,371.27,401.627z M340.556,359.449
	c1.825,14.104-2.269,28.77,0.77,42.637c2.279,10.408,6.314,26.138,13.943,33.449h17.185c0,0,1.229-12.317-1.941-24.435
	c-1.53-5.845-4.329-13.176-4.329-13.176l2.742,23.667l-6.285-26.862l2.855,26.862l-6.48-32.112l2.23,28.934l-5.977-35.184
	l1.23,27.608l-3.882-31.608l-0.874,26.108l-3.25-30.676v23.676l-3.672-40.962L340.556,359.449L340.556,359.449z M372.452,407.097
	c0,0,3.771,10.024,3.312,28.438h6.188c0,0,0.427-12.859-2.576-20.186c-0.746-1.354-8.02-11.523-8.089-11.35
	C371.01,404.69,372.062,406.532,372.452,407.097L372.452,407.097z M332.66,382.77c-6.949,5.701-6.565,18.554-3.198,26.183
	c2.004,4.54,5.202,8.581,7.327,13.104c2.049,4.362,3,9.122,5.046,13.479h7.896c-5.044-7.22-7.729-16.447-9.3-25.022l1.189,11.95
	c-2.786-8.372-3.857-17.487-4.48-26.262c-0.495,7.194-0.438,14.039,0.854,21.14c-2.009-9.955-3.258-19.484-2.773-29.661
	c-2.93,5.223-0.207,11.212-2.562,16.247c-2.386-5.416-2.872-14.316,1.376-18.988L332.66,382.77L332.66,382.77z"/>
<path id="pancreas" title="pancreas" class="interactive" fill="#FFFFFF" stroke="#939598" stroke-miterlimit="10" d="M662.943,266.283
	c3.215,0.688-2.373,8.549-2.959,9.825c-0.512,1.113,0.503,1.749-0.799,2.751c-0.957,0.737,0.488,0.932,0.129,2.123
	c-0.557,1.831,0.104,5.207-1.486,6.525c0.545,1.152,0.047,3.01-0.86,3.713c0.354,5.059-9.106,2.898-6.007,0.646
	c-1.738-2.898,1.898-6.324,1.415-9.146c-0.259-1.507,1.99-6.938,3.205-7.609C652.982,273.812,661.563,267.047,662.943,266.283
	C664.508,266.618,662.943,266.283,662.943,266.283z"/>
<path id="urine" title="urine" class="interactive" fill="#FFFFFF" stroke="#939598" stroke-miterlimit="10" d="M337.995,362.822
	c-1.962,4.23-9.126,11.548-11.552,12.169c2.087,4.59,2.508,9.972,2.527,10.248c0.062,0.826-0.561,1.544-1.387,1.604
	c-0.037,0.003-0.074,0.005-0.111,0.005c-0.777,0-1.437-0.604-1.494-1.392c-0.006-0.071-0.568-7.14-3.428-11.303
	c-5.093-1.696-13.315-5.527-14.549-9.063c-2.392-6.861,7.188-8.89,16.054-8.89C332.921,356.201,341.137,356.049,337.995,362.822z
	 M631.402,365.26c2.623,3.776,10.312,9.259,10.312,9.259c1.285,0.979,1.422,2.438,0.238,3.229c-1.073,0.719-5.291,1.016-8.556,2.423
	c-2.927,1.262-4.447,3.04-4.447,3.04l0.899,0.628c0,0,3.448-2.142,7.713-2.823c4.56-0.731,5.461-1.354,6.474-2.479
	c1.562-1.733,1.904-2.583,5.404-3.208s5.793-2.19,6.543-4.69s1.468-11.259-0.782-13.259s-2.234-2.318-12.657-2.437
	c-10.402-0.116-12.76,2.425-13.311,4.318C629.232,359.26,629.232,362.135,631.402,365.26z"/>
<path id="saliva" title="saliva" class="interactive" fill="#FFFFFF" stroke="#939598" stroke-miterlimit="10" d="M319.849,148.723
	c-0.707,1.856-2.815,2.578-4.979,2.578s-4.514-0.355-4.669-2.578c-0.129-1.819,1.244-2.096,2.335-0.912
	c0.538,0.586,1.459-0.96,2.434-0.889c1.021,0.076,2.155,0.883,2.976,0.533C319.227,146.908,320.305,147.523,319.849,148.723z
	 M301.534,137.406c-0.843-1.309,0.408-3.58,0.142-5.388c-0.254-1.727-0.122-3.315-0.604-4.408c-0.529-1.197-0.533-2.921-3.08-2.178
	c-2.548,0.742-1.441,3.505-0.648,7.289c0.795,3.783,2.354,9.177,3.964,8.517C302.572,140.72,302.133,138.337,301.534,137.406z
	 M329.417,142.307c1.657,0.784,2.87-4.503,3.421-8.237c0.551-3.732,1.479-6.417-1.123-7.355c-2.603-0.938-2.492,0.789-2.946,1.949
	c-0.413,1.059-0.18,2.662-0.321,4.373c-0.149,1.791,1.25,4.164,0.491,5.411C328.398,139.334,328.111,141.689,329.417,142.307z
	 M303.298,144.662c-1.066,0.483,0.186,1.631,1.336,4.164s2.553,3.091,3.619,2.606c1.065-0.483,0.649-1.107-0.5-3.643
	C306.603,145.258,304.364,144.178,303.298,144.662z M322.062,147.791c-1.149,2.534-1.565,3.158-0.5,3.643
	c1.066,0.483,2.469-0.073,3.619-2.606s2.402-3.681,1.336-4.164C325.45,144.178,323.212,145.258,322.062,147.791z M639.458,153.364
	c-1.26,0.497-4.392-1.697-4.601,0.396c-0.103,1.017,0.421,3.293,2.953,3.293c2.533,0,6.248-2.407,6.248-3.431
	C644.061,152.599,642.453,152.182,639.458,153.364z M647.222,152.575c-2.305,1.045-4.028,3.596-3.706,4.548
	c1.099,3.234,4.146,0.007,6.082,0.562c2.398,0.688,3.503-3.686,3.102-4.597C651.481,150.329,649.526,151.53,647.222,152.575z
	 M652.068,133.132c-1.354,2.425-0.846,3.232,0.62,8.426c1.418,5.021-0.712,9.548,1.877,9.124c2.593-0.424,6.298-4.169,5.613-10.301
	c-0.594-5.278-0.782-13.463-5.65-8.236C654.314,132.373,652.658,132.07,652.068,133.132z"/>
<path id="lymph_nodes" title="lymph nodes" class="interactive" fill="#FFFFFF" stroke="#939598" stroke-miterlimit="10" d="M277.898,191.714
	c-0.14,0.713-0.418,1.291-0.71,1.827c-0.424,0.738-0.904,1.383-1.404,1.989c-0.008,0.188-0.016,0.378-0.025,0.562
	c-0.033,0.672-0.088,1.353-0.18,2.033c-0.185,1.36-0.519,2.73-1.087,4.023c-0.569,1.294-1.368,2.488-2.395,3.497l-0.351,0.339
	c-0.094,0.085-0.178,0.18-0.257,0.278c-0.155,0.199-0.298,0.416-0.404,0.661c-0.229,0.48-0.349,1.049-0.41,1.633
	c-0.196,2.395,0.504,4.944,1.155,7.448l0.249,0.959c0.087,0.352,0.146,0.708,0.18,1.065c0.062,0.717,0.02,1.437-0.118,2.129
	c-0.284,1.395-0.846,2.649-1.691,3.811l0.041-0.062c-0.354,0.62-0.7,1.251-1.038,1.887c0.682,0.716,0.756,2.302,0.084,3.976
	c-0.688,1.715-1.928,2.947-2.998,3.106c-0.155,0.633-0.279,1.271-0.295,1.901c-0.01,0.374,0.02,0.745,0.112,1.082
	c0.044,0.163,0.115,0.341,0.187,0.459c0.097,0.159,0.212,0.306,0.334,0.479c0.282-0.443,0.65-0.729,1.081-0.757
	c1.07-0.073,2.083,1.423,2.261,3.342c0.177,1.918-0.548,3.532-1.62,3.604c-0.024,0.001-0.048-0.008-0.071-0.008
	c-0.196,1.06-0.572,2.069-0.835,3.066c0.697,0.407,1.31,1.402,1.523,2.628c0.237,1.354-0.083,2.554-0.729,3.046
	c0.51,1.103,1.053,2.189,1.723,3.2c0.859,1.349,2.125,2.385,3.515,3.17c-1.405-0.751-2.707-1.763-3.61-3.104
	c-0.693-0.992-1.262-2.062-1.795-3.145c-0.111,0.059-0.23,0.099-0.357,0.114c-0.987,0.126-2.028-1.137-2.325-2.822
	c-0.296-1.686,0.266-3.154,1.255-3.281c0.148-0.02,0.299,0.002,0.447,0.043c0.243-1.022,0.569-2.021,0.725-3.019
	c-0.854-0.355-1.576-1.643-1.724-3.232c-0.073-0.803,0.018-1.542,0.219-2.147c-0.073-0.104-0.146-0.207-0.221-0.309
	c-0.11-0.148-0.248-0.313-0.364-0.493c-0.141-0.22-0.22-0.418-0.289-0.637c-0.135-0.431-0.177-0.864-0.18-1.288
	c-0.003-0.692,0.104-1.358,0.241-2.016c-0.992-0.5-1.201-2.308-0.43-4.229c0.726-1.809,2.063-3.093,3.17-3.135
	c0.336-0.686,0.686-1.365,1.042-2.041l0.003-0.008l0.038-0.055c0.666-0.972,1.168-2.173,1.358-3.351
	c0.1-0.595,0.113-1.192,0.046-1.776c-0.038-0.292-0.094-0.58-0.174-0.861l-0.271-0.932c-0.719-2.51-1.568-5.077-1.438-7.942
	c0.055-0.714,0.178-1.452,0.482-2.167c0.146-0.357,0.349-0.702,0.585-1.023c0.12-0.16,0.25-0.312,0.394-0.456l0.346-0.354
	c0.817-0.846,1.479-1.877,1.934-2.987c0.458-1.114,0.724-2.315,0.858-3.547c0.002-0.021,0.002-0.042,0.004-0.062
	c-1.021,1.05-2.06,2.052-3.079,3.062c-0.076,0.075-0.151,0.151-0.229,0.229c0.06,0.801-0.025,1.729-0.286,2.688
	c-0.665,2.45-2.192,4.146-3.41,3.792c-0.489-0.144-0.848-0.606-1.063-1.26c-1.014,1.339-1.878,2.765-2.242,4.266
	c-0.007,0.034-0.012,0.077-0.02,0.111c0.119,0.289,0.229,0.591,0.32,0.91c0.627,2.204,0.278,4.203-0.778,4.471
	c-0.198,0.05-0.408,0.017-0.623-0.057c-0.117,0.305-0.245,0.604-0.396,0.898c-0.516,1.043-1.312,1.938-2.09,2.671
	c-0.342,0.325-0.665,0.646-0.969,0.973c0.104,0.533,0.146,1.128,0.095,1.76c-0.161,2-1.116,3.533-2.133,3.427
	c-0.167-0.019-0.32-0.092-0.468-0.188l-0.682,2.194c-0.308,1.018-0.624,2.03-0.799,3.065c-0.186,1.036-0.125,2.104,0.065,3.153
	c-0.277-1.023-0.435-2.104-0.336-3.186c0.088-1.078,0.322-2.127,0.542-3.171l0.606-2.77c-0.378-0.709-0.577-1.761-0.484-2.92
	c0.16-2,1.117-3.534,2.135-3.426c0.407,0.043,0.759,0.352,1.027,0.823c0.176-0.199,0.354-0.394,0.527-0.58
	c0.721-0.771,1.311-1.536,1.689-2.434c0.18-0.413,0.319-0.848,0.435-1.292c-0.48-0.624-0.909-1.468-1.188-2.452
	c-0.629-2.203-0.279-4.203,0.774-4.47c0.465-0.117,0.985,0.135,1.479,0.625c0.646-1.686,1.66-3.136,2.695-4.483
	c0.223-0.283,0.454-0.558,0.684-0.834c0.05-0.298,0.115-0.602,0.199-0.907c0.666-2.45,2.191-4.147,3.408-3.793
	c0.169,0.049,0.318,0.144,0.458,0.263c1.339-1.387,2.684-2.75,3.885-4.169c0.139-0.163,0.271-0.329,0.406-0.495
	c0.006-0.117,0.012-0.23,0.021-0.356l0.23,0.029c0.399-0.521,0.766-1.048,1.05-1.576c0.207-0.398,0.374-0.804,0.424-1.143
	c0.03-0.17,0.035-0.32,0.015-0.445c-0.005-0.056-0.027-0.146-0.034-0.157c-0.014-0.022,0.015,0.01-0.021-0.064l-0.084-0.181
	l2.19-0.979c0.049,0.116,0.103,0.218,0.188,0.494c0.072,0.24,0.103,0.415,0.123,0.623
	C278.002,190.976,277.969,191.363,277.898,191.714z M304.616,157.448c1.152-1.757,1.337-3.637,0.411-4.2
	c-0.466-0.284-1.126-0.177-1.813,0.225c-0.038-0.582-0.128-1.161-0.301-1.715c-0.39-1.198-0.979-2.239-1.821-3.208
	c0.214-0.648,0.343-1.417,0.342-2.252c0.001-2.376-1.001-4.354-2.236-4.417c-1.232-0.062-2.232,1.812-2.232,4.189
	c0.001,2.377,1.002,4.354,2.237,4.417c0.19,0.011,0.374-0.042,0.552-0.119c0.541,0.583,1.024,1.31,1.325,2.039
	c0.207,0.496,0.342,1.016,0.396,1.545c0.043,0.398,0.027,0.768-0.021,1.202c-0.062,0.085-0.127,0.163-0.187,0.254
	c-1.149,1.757-1.335,3.636-0.408,4.2c0.159,0.098,0.347,0.134,0.543,0.144c0.188,1.271,0.715,2.512,1.324,3.542
	c0.133,0.229,0.258,0.454,0.38,0.681c-0.834,0.208-1.646,1.354-1.946,2.877c-0.357,1.821,0.146,3.477,1.132,3.695
	c0.742,0.165,1.541-0.528,2.045-1.657c0.016,0.445,0.027,0.896,0.05,1.349c0.044,2.471,0.445,5.057-0.849,7.286
	c0.686-1.042,1.13-2.269,1.253-3.529c0.146-1.255,0.184-2.506,0.25-3.751c0.059-1.23,0.179-2.513-0.022-3.814
	c-0.162-1.302-0.706-2.569-1.265-3.671c-0.558-1.105-0.927-2.17-1.002-3.333c-0.002-0.028-0.001-0.06-0.003-0.088
	C303.398,158.936,304.067,158.286,304.616,157.448z M334.201,170.381c-0.545-0.957-0.938-2.007-1.356-3.046
	c0.171-0.565,0.217-1.267,0.085-2.019c-0.193-1.104-0.708-2.017-1.317-2.485c0.061-0.753,0.29-1.493,0.599-2.272
	c0.116-0.312,0.229-0.643,0.326-0.985c0.944-0.27,1.56-1.77,1.396-3.548c-0.179-1.919-1.188-3.415-2.262-3.342
	c-0.295,0.021-0.562,0.166-0.792,0.396c-0.315-0.45-0.496-0.774-0.605-1.195c-0.118-0.441-0.108-0.902-0.01-1.364
	c0.083-0.375,0.248-0.757,0.446-1.127c0.95-0.39,1.949-1.506,2.541-2.979c0.821-2.049,0.543-3.986-0.623-4.329
	s-2.776,1.041-3.6,3.089c-0.562,1.403-0.599,2.742-0.196,3.562c-0.181,0.469-0.33,0.954-0.408,1.484
	c-0.088,0.718-0.03,1.487,0.229,2.186c0.225,0.689,0.746,1.335,1.08,1.745c0.138,0.177,0.268,0.357,0.396,0.54
	c-0.093,0.485-0.129,1.025-0.076,1.601c0.125,1.356,0.671,2.489,1.356,3.02c-0.062,0.294-0.143,0.593-0.242,0.901
	c-0.229,0.691-0.438,1.483-0.494,2.29c-0.022,0.001-0.047-0.006-0.07-0.003c-0.989,0.127-1.55,1.598-1.254,3.281
	c0.296,1.686,1.337,2.948,2.324,2.822c0.345-0.044,0.633-0.26,0.854-0.58c0.43,0.857,0.863,1.72,1.416,2.526
	c0.687,1.032,1.722,1.745,2.784,2.279C335.708,172.198,334.768,171.418,334.201,170.381z M665.256,142.606
	c-1.034-0.635-2.95,0.28-4.277,2.044c-0.909,1.208-1.292,2.491-1.119,3.39c-0.296,0.404-0.566,0.835-0.78,1.325
	c-0.271,0.671-0.417,1.429-0.35,2.171c0.037,0.725,0.372,1.482,0.588,1.966c0.086,0.206,0.164,0.415,0.242,0.625
	c-0.22,0.444-0.395,0.957-0.491,1.524c-0.233,1.344-0.002,2.58,0.521,3.27c-0.137,0.269-0.291,0.536-0.469,0.808
	c-0.4,0.608-0.81,1.318-1.073,2.083c-0.021-0.005-0.045-0.019-0.066-0.021c-0.988-0.136-1.912,1.139-2.066,2.842
	c-0.151,1.705,0.522,3.195,1.51,3.331c0.346,0.048,0.68-0.085,0.979-0.337c0.19,0.939,0.385,1.887,0.707,2.81
	c0.393,1.175,1.207,2.133,2.094,2.925c-0.821-0.871-1.526-1.869-1.803-3.019c-0.276-1.065-0.383-2.182-0.518-3.294
	c0.312-0.502,0.539-1.167,0.608-1.927c0.101-1.115-0.159-2.131-0.623-2.743c0.254-0.711,0.668-1.366,1.169-2.039
	c0.193-0.271,0.389-0.562,0.572-0.865c0.979-0.015,1.966-1.303,2.271-3.062c0.329-1.898-0.258-3.606-1.311-3.815
	c-0.291-0.059-0.585,0.014-0.867,0.174c-0.188-0.519-0.275-0.878-0.272-1.312c0.002-0.457,0.131-0.898,0.347-1.319
	c0.178-0.341,0.437-0.666,0.726-0.973c1.02-0.128,2.274-0.945,3.229-2.215C666.059,145.185,666.292,143.241,665.256,142.606z"/>
<path id="thyroid_gland" title="thyroid gland" class="interactive" fill="#FFFFFF" stroke="#939598" stroke-miterlimit="10" d="M324.166,170.541
	c-0.227,2.905-1.587,5.255-3.041,5.249c-0.291-0.001-0.564-0.103-0.812-0.276c-0.002-0.001-1.968-0.698-3.624-0.51
	c-0.925,0.105-1.672,0.4-2.162,0.645c-0.248,0.554-0.617,0.931-1.106,1.041c-1.419,0.323-3.259-1.674-4.107-4.461
	c-0.852-2.787-0.39-5.309,1.029-5.631c1.36-0.311,3.109,1.52,3.998,4.129c0.509,0.168,1.149,0.222,1.895,0.145
	c1.181-0.124,2.06-0.407,2.699-0.708c0.301-2.736,1.606-4.897,3.004-4.893C323.389,165.276,324.389,167.637,324.166,170.541z
	 M651.077,167.424c-1.751,0.471-2.573,3.072-1.837,5.812c0.735,2.74,2.751,4.581,4.501,4.111c1.75-0.471,2.572-3.072,1.837-5.812
	C654.844,168.794,652.826,166.954,651.077,167.424z"/>
<path id="eye" title="eye" class="interactive" fill="#FFFFFF" stroke="#939598" stroke-width="1.4102" stroke-miterlimit="10" d="M309.969,122.013
	c0,0-2.922,3.698-6.522,3.698c-3.603,0-6.522-3.698-6.522-3.698s2.922-3.699,6.522-3.699
	C307.048,118.314,309.969,122.013,309.969,122.013z M306.201,122.013c0-1.52-1.235-2.753-2.754-2.753
	c-1.518,0-2.753,1.234-2.753,2.753c0,1.518,1.235,2.753,2.753,2.753C304.966,124.766,306.201,123.531,306.201,122.013z
	 M304.207,122.013c0,0.419-0.34,0.759-0.76,0.759c-0.418,0-0.758-0.34-0.758-0.759s0.34-0.76,0.758-0.76
	C303.866,121.254,304.207,121.594,304.207,122.013z M327.015,118.314c-3.604,0-6.522,3.699-6.522,3.699s2.921,3.698,6.522,3.698
	s6.521-3.698,6.521-3.698S330.616,118.314,327.015,118.314z M329.768,122.013c0-1.52-1.234-2.753-2.753-2.753
	c-1.52,0-2.753,1.234-2.753,2.753c0,1.518,1.234,2.753,2.753,2.753S329.768,123.531,329.768,122.013z M327.773,122.013
	c0,0.419-0.34,0.759-0.758,0.759c-0.419,0-0.76-0.34-0.76-0.759s0.341-0.76,0.76-0.76S327.773,121.594,327.773,122.013z
	 M632.895,118.314c-3.604,0-3.604,7.396,0,7.396c3.602,0,6.521-3.698,6.521-3.698S636.494,118.314,632.895,118.314z
	 M634.745,122.013c0-1.52-1.232-2.753-2.754-2.753c-1.518,0-1.952,1.234-1.952,2.753c0,1.518,0.437,2.753,1.952,2.753
	C633.513,124.766,634.745,123.531,634.745,122.013z M632.751,122.013c0,0.419-0.342,0.759-0.76,0.759
	c-0.419,0-0.759-0.34-0.759-0.759s0.34-0.76,0.759-0.76C632.409,121.254,632.751,121.594,632.751,122.013z"/>
<path id="kidney" title="kidney" class="interactive" fill="#FFFFFF" stroke="#939598" stroke-miterlimit="10" d="M342.225,316.045c-8.893,0-9.493-6.666-5.194-12.776
	c1.281-1.821-2.145-4.409-2.271-6.849c-0.321-6.169,2.274-5.188,2.497-7.074c0.429-3.633-4.071-5.58-0.451-9.618
	c2.175-2.427,7.603-3.211,10.145-2.285c4.939,1.802,9.052,9.092,9.314,19.302C356.522,306.768,348.558,316.045,342.225,316.045z
	 M298.443,315.044c8.893,0,9.493-6.666,5.194-12.776c-1.281-1.821,2.145-4.409,2.271-6.849c0.32-6.169-2.275-5.188-2.498-7.074
	c-0.429-3.633,4.071-5.58,0.451-9.618c-2.175-2.427-6.878-2.728-9.42-1.802c-4.939,1.802-9.774,8.606-10.039,18.817
	C284.146,305.768,292.11,315.044,298.443,315.044z M663.004,317.522c2.911,0.193,7.727-4.741,8.734-8.607
	c1.01-3.864,4.229-7.756,3.786-11.811c-0.443-4.055-1.109-5.722-0.609-7.722s6.055-7.971,0.609-9.151
	c-5.444-1.182-11.74-1.182-12.425,4.318c-0.687,5.5-1.699,4.71-2.275,9.521s1.241,9.735-0.001,13.857
	c-1.242,4.121-1.488,6.787-0.115,8.454S663.004,317.522,663.004,317.522z"/>
<path id="adrenal_gland" title="adrenal gland" class="interactive" fill="#FFFFFF" stroke="#939598" stroke-miterlimit="10" d="M670.377,273.883c1.481,0,1.886,1.647,3.704,3
	c1.493,1.109,3.46,0.896,3.818,2.719c0.356,1.821-0.701,1.169-4.938,0.63c-4.233-0.539-8.8,1.364-9.165,2.142
	c-0.363,0.776-1.953,0.707-1.419-2.142c0.535-2.849,3.533-2.521,4.665-4.554C668.043,273.883,670.377,273.883,670.377,273.883z"/>
<path id="bone_marrow" title="bone marrow" class="interactive" fill="#FFFFFF" stroke="#939598" stroke-miterlimit="10" d="M375.338,211.424
	c3.033-1.18,3.37,1.505,3.974,4.705c0.688,3.665,2.59,14.07,3.562,17.868s3.686,17.432,5.545,24.098
	c0.732,2.628,2.479,8.097,3.812,10.384s1.905,8.768-1.145,6.479c-3.049-2.287-4.627-3.621-4.124-8.387
	c0.503-4.765-2.643-12.699-3.668-17.125c-0.964-4.156-2.596-11.43-3.911-17.129c-1.314-5.698-4.686-15.354-5.392-16.569
	C373.334,214.619,372.305,212.604,375.338,211.424z M651.594,435.534l3.098,0.1c0,0,0.402-1.635,0.519-3.635s3.136-32.5,3.575-37
	c0.44-4.5-2.939-2.75-3.562,1.468c-0.622,4.216-3.63,37.032-3.63,37.032V435.534L651.594,435.534z"/>
<path id="stomach" title="stomach" class="interactive" fill="#FFFFFF" stroke="#939598" stroke-miterlimit="10" d="M654.612,265.139
	c0.455,5.256-1.146,10.631-2.646,14.135s-3.303,5.768-6.664,9.854c-3.359,4.087-12.438,3.604-14.348,2.874
	c-1.911-0.729-1.092-5.693,0-10.073s6.278-12.117,10.236-16.205s6.688-5.841,11.055-5.549
	C652.244,260.175,654.156,259.883,654.612,265.139z M306.23,233.329l-1.754,3.061c0,0-1.272,7.09-0.485,11.858
	c0.786,4.769-5.669,9.875-11.096,17.334c-3.129,4.301-8.004,12.676-1.927,19.83c5.878,6.919,12.552,4.682,18.757,5.988
	c5.949,1.253,8.481-3.129,20.3-6.672c15.025-4.506,27.188-0.788,27.489-13.253c0.087-3.618,0.062-8.883-7.404-13.896
	c-7.352-4.938-23.396-3.999-31.649-3.999c-11.309,0-10.005-16.824-10.005-16.824L306.23,233.329z"/>
<path id="liver" title="liver" class="interactive" fill="#FFFFFF" stroke="#939598" stroke-miterlimit="10" d="M630.692,271.945c-2.5-1.333-5-13.167,0-23.667
	s12.63-16.5,20.146-16c7.52,0.5,10.859-0.582,15.105,5.709s6.745,14.291,1.579,17.458s-7.832,3.479-9.666-1.677
	c-1.834-5.156-3-5.489-2.667-3.156s4.37,4.159-1.148,7.246c-5.518,3.087-10.032,1.446-13.685,5.92
	C633.692,271.945,630.692,271.945,630.692,271.945z M291.76,270.188c13.462-3.389,25.689-10.301,39.006-14.702
	c4.311-1.425,19.545-2.021,17.091-10.163c-2.811-9.319-16.16-12.114-24.228-12.963c-14.848-1.562-35.068-3.392-44.167,10.779
	C272.583,253.855,275.568,274.262,291.76,270.188C298.197,268.567,282.498,272.519,291.76,270.188z"/>
<g id="heart" title="heart" class="interactive" fill="#FFFFFF">
	
		<ellipse transform="matrix(-0.8558 -0.5173 0.5173 -0.8558 1076.2495 739.0811)" fill="#FFFFFF" stroke="#939598" stroke-miterlimit="10" cx="641.137" cy="219.533" rx="11.333" ry="19.683"/>
	<path stroke="#939598" stroke-miterlimit="10" d="M300.373,200.042c0,0.203-1.783,2.945,0.262,11.112
		c1.054,4.199-0.579,9.487,3.283,12.673c4.319,3.562,5.039,8.561,14.808,11.606c8.909,2.778,12.332,2.701,15.504-1.358
		c3.539-4.529,0.469-9.354-1.664-14.769c-1.043-2.647-6.248-6.933-5.637-13.03c0.608-6.099-4.744-6.641-6.71-8.132
		c-1.965-1.491-2.006-10.652,0.57-14.517l-7.465,2.791c-1.166,2.979-2.378,4.425-3.013,8.646c-0.215,1.42-0.815,2.177-3.996,2.357
		C301.732,197.684,300.373,200.042,300.373,200.042z"/>
</g>
<g id="lung" title="lung" class="interactive" fill="#FFFFFF">
	<path stroke="#939598" stroke-miterlimit="10" d="M667.704,176.196c-5.453,1.276-7.703,5.651-11.453,8.026
		s-7.875,7.7-11,12.788c-3.125,5.087-7.5,14.462-9.5,20.462s-5,10.625-5.125,15.375s-2.25,13.25,0,16.25
		s12.375,11.625,16.875,11.375s16.489,5.924,22.651,5.174s5.987-8.903,11.479-11.478c5.493-2.572,4.517-7.447,5.131-14.072
		c0.612-6.625,2.952-23.352-1.229-42.369C681.353,178.709,667.704,176.196,667.704,176.196z"/>
	<g>
		<path stroke="#939598" stroke-miterlimit="10" d="M303.894,223.726c-3.861-3.186-2.229-8.474-3.282-12.672
			c-2.046-8.167-0.263-10.91-0.263-11.113c0,0,0.949-1.631,3.912-2.33c-2.41-12.652-8.252-22.458-21.859-8.425
			c-10.814,11.155-13.68,56.804-5.773,70.534c-0.566-0.985,2.041-14.611,8.602-20.301c6.557-5.686,16.348-7.098,19.806-14.64
			C304.676,224.419,304.304,224.064,303.894,223.726z"/>
		<path stroke="#939598" stroke-miterlimit="10" d="M365.235,235.519c0.857-8.75-0.423-20.314-3.973-28.485
			c-6.996-16.103-12.849-36.229-35.5-26.769c-3.714,1.8-5.203,7.899-5.79,17.544c0.071,0.083,0.143,0.175,0.221,0.233
			c1.966,1.491,7.319,2.033,6.709,8.132c-0.609,6.1,4.595,10.383,5.638,13.03c2.133,5.415,5.203,10.237,1.665,14.769
			c-0.752,0.963-1.521,1.694-2.371,2.225c12.949,9.48,27.859,26.025,29.299,29.514C371.589,264.12,364.69,241.059,365.235,235.519z"
			/>
	</g>
</g>
<path id="intestine" title="intestine" class="interactive" fill="#FFFFFF" stroke="#939598" stroke-miterlimit="10" d="M666.207,353.838
	c-0.022-2.466-0.833-3.721-0.833-3.721s0.827-0.606,0.598-2.587c-0.234-1.979-1.771-2.732-1.771-2.732s2.213-0.796,0.92-2.691
	c-1.297-1.898-2.487-2.369-2.487-2.369c0.746-1.065,1.268-2.54,0.597-3.854c-1.332-2.613-2.36-2.866-2.36-2.866
	s0.859-2.69,0.559-3.946c-0.303-1.259-1.435-2.197-1.435-2.197s0.348-3.695-0.534-4.417c-0.884-0.718-1.721-2.064-1.721-2.064
	s1.215-2.439,0.875-3.858c-0.338-1.419-1.249-2.372-1.249-2.372s1.312-2.219,0.293-3.648c-1.021-1.435-2.018-3.024-2.018-3.024
	s1.433-1.695-0.312-3.971c-1.743-2.271-2.937-2.725-2.937-2.725s-0.681-4.627-2.458-5.304c-1.778-0.675-2.442-0.579-2.442-0.579
	c-3.047-3.693-9.407-1.638-13.285-0.238c-2.556,0.921-6.413,4.724-6.795,7.506c0,0-1.566,0.759-2.084,2.563
	c-0.517,1.809-0.205,3.085-0.205,3.085s-0.562-0.326-1.493,1.283c-0.932,1.61-0.797,3.459-0.797,3.459l-1.229,2.272
	c0.027,3.769,1.676,7.174,4.354,6.973c2.68-0.201,3.169-0.385,4.623-0.137c0.641,0.108,1.691-0.575,2.731-1.637
	c-0.098,0.383-0.189,0.771-0.283,1.184c-0.259,1.132-5.747,1.354-6.829,2.42c-3.029,2.984,3.396,3.532,4.631,3.567
	c1.046,0.024,2.487-0.168,3.812-0.793c-2.104,1.794-3.023,4.903-1.432,5.968c2.021,1.347,3.667-1.029,4.06-0.938
	c-1.319,1.31-1.824,3.357-1.593,4.965c0.099,0.669,0.312,1.278,0.624,1.79c-0.748-0.276-1.485-0.447-2.21-0.427
	c0.184-2.292-2.416-4.167-2.531-5.979c-0.367-5.676-7.773-4.527-4.519,1.262c0.779,1.385-2.911,5.939-1.892,8.96
	c0.381,1.125,1.154,1.961,2.184,2.354c0.127,0.051,0.258,0.101,0.391,0.146c-0.321,0.391-0.578,0.869-0.703,1.461
	c-0.121,0.584-0.187,1.749,0.756,2.979c2.121,2.771,6.61,2.904,9.213,1.185c0.448-0.301,1.007-0.335,1.251-0.271
	c0.621,0.821,1.525,1.285,2.512,1.28c0.14-0.002,0.276-0.011,0.41-0.03c1.695-0.239,2.975-1.865,3.611-2.86
	c0.102-0.16,0.184-0.327,0.247-0.5c1.296-0.001,2.418-0.659,3.053-1.806c1.533-2.778-0.437-7.395-1.104-8.384
	c-1.191-1.774-3.491-2.188-5.644-2.467c1.724-0.216,3.533-0.019,5.207-0.583c0.219-0.074,0.534-0.221,0.864-0.461
	c1.021,1.28,2.078,1.65,2.078,1.65s-2.179,1.11-1.577,2.096c1.749,2.866,1.548,7.873,3.677,10.102c0,0-2.162,0.021-1.74,1.302
	c0.418,1.28,1.459,2.101,1.064,2.517c-0.396,0.415-2.201,1.162-1.492,2.719c0.944,2.079,1.116,4.493,2.199,6.115
	c1.261,1.89,4.542,5.588,6.911,5.379c3.386-0.297,5.177-1.414,6.101-3.53c0.859-1.977,0.884-3.957-0.521-5.686
	C664.099,356.719,666.235,356.303,666.207,353.838C666.185,351.372,666.235,356.303,666.207,353.838z M634.257,345.775
	c0.144-0.262,0.256-0.556,0.322-0.89c0.155-0.732,0.095-1.358-0.109-1.896c1.165,0.363,2.329,1.052,3.39,1.673
	C636.643,344.675,635.373,345.035,634.257,345.775C634.4,345.513,635.373,345.035,634.257,345.775z M639.76,317.834
	c-0.243,0.281-0.521,0.562-0.814,0.843c0.277-0.793,0.515-1.307,0.696-1.632c0.114,0.132,0.198,0.274,0.235,0.404
	C639.907,317.552,639.933,317.638,639.76,317.834C639.517,318.115,639.933,317.638,639.76,317.834z M642.969,340.674
	c0.157,0.336,0.326,0.854,0.457,1.371c-1.061-0.604-2.106-1.229-3.141-1.875C641.03,340.262,642.404,340.437,642.969,340.674
	C643.126,341.01,642.404,340.437,642.969,340.674z M642.923,329.801c-0.406,0.017-0.828,0.035-1.258,0.062
	c0.681-0.506,1.365-1.003,2.058-1.491c0.139,0.428,0.248,0.938,0.292,1.368C643.661,329.769,643.273,329.784,642.923,329.801
	C642.517,329.817,643.273,329.784,642.923,329.801z M640.088,324.646c1.062-1.188,2.358-2.131,3.406-3.335
	c1.289-1.479,1.718-3.405,1.182-5.284c-0.59-2.052-2.283-3.761-4.321-4.354c-0.994-0.291-2.046-0.146-2.957,0.405
	c-0.154,0.096-0.306,0.202-0.451,0.318c0.623-2.651,1.425-5.403,2.735-5.583c1.771-0.243,3.516,1.242,4.021,1.57
	c0.437,0.279,1.065-0.354,1.232-0.533c-0.216,0.239-1.38,1.605-0.916,2.756c0.509,1.262,1.668,2.15,1.668,2.15
	s-1.759,1.331-0.996,2.557c0.762,1.223,2.25,2.613,2.25,2.613s-2.152-0.521-1.636,1.688c0.515,2.207,2.491,4.324,2.491,4.324
	s-0.322,0.056-0.674,0.312c-0.357-0.422-0.771-0.771-1.242-1.008C643.78,322.191,641.772,323.42,640.088,324.646
	C640.473,324.217,641.772,323.42,640.088,324.646z M365.357,326.676c-0.575-4.729,1.068-10.014-0.172-14.593
	c-0.538-1.981-1.571-3.662-2.465-5.487c-1.803-3.685-6.703-7.017-10.825-7.396c-0.652-0.06-1.271-0.055-1.857,0.009
	c-0.459-0.192-0.958-0.362-1.494-0.497c-1.686-0.418-3.396-0.224-4.938,0.479c-0.229-0.043-0.464-0.077-0.704-0.104
	c-1.148-0.127-2.25,0.017-3.258,0.385c-0.792-0.306-1.668-0.533-2.629-0.642c-1.371-0.152-2.533-0.032-3.502,0.23
	c-0.891-0.331-1.891-0.609-2.981-0.772c-1.007-0.149-1.952-0.16-2.834-0.061c-0.996-0.713-2.173-1.273-3.531-1.57
	c-3.108-0.677-8.506,0.131-11.688,0.688c-0.56,0.099-1.098,0.273-1.6,0.521c-0.92-0.262-1.949-0.433-3.088-0.45
	c-2.192-0.035-4.765-0.269-6.915-0.012c-1.557,0.188-3.034,0.814-4.329,1.587c-0.163-0.053-0.33-0.104-0.499-0.151
	c-3.537-1.013-10.922-1.306-14.572-0.501c0.567-0.249,1.157-0.484,1.732-0.674c1.319-0.43,2.043-1.849,1.612-3.169
	c-0.429-1.32-1.849-2.042-3.169-1.613c-1.854,0.604-6.314,2.3-7.66,5.01c-0.495,1-0.571,2.061-0.22,3.069
	c0.321,0.924,0.918,1.544,1.562,2.007c-0.943,2.001-0.911,4.124-0.463,5.82c-0.694,1.82-0.374,4.442,1.417,5.713
	c1.113,0.789,1.387,1.15,1.418,1.312c0,1.285-0.512,1.42-0.079,2.63c-0.042-0.015-0.089-0.033-0.128-0.047
	c-3.058-1.07-4.724,3.659-1.67,4.743c1.21,0.43,2.583,1.179,3.083,1.662c-0.533,2.386-4.897,1.523-5.724,4.916
	c-0.09,0.371-0.185,0.754-0.356,1.198c-0.991,2.543,0.052,6.257,2.146,7.64c1.438,0.951,3.168,0.775,4.409-0.439
	c0.805-0.665,1.613-1.327,2.424-1.983c-0.329,0.291-0.632,0.588-0.896,0.897c-1.646,1.937-3.807,6.354-2.601,9.979
	c0.435,1.306,1.338,2.271,2.544,2.722c1.174,0.381,2.351,0.371,3.528-0.03c-0.055,0.203-0.083,0.417-0.085,0.638
	c-0.004,1.39,1.119,2.519,2.508,2.521c1.063,0,2.057-0.393,2.756-1.213c0.165-0.193,0.303-0.396,0.417-0.605
	c0.545,0.846,1.303,1.474,2.375,1.657c0.125,0.939,0.433,2.362,1.781,3.263c1.552,1.035,3.438,0.672,4.718,0.308
	c0.839-0.238,1.526-0.829,1.888-1.621c0.623-1.373,0.172-2.896-0.742-4.952c0.338,0.148,0.707,0.242,1.112,0.271
	c1.282,0.09,2.34-0.321,3.123-0.643c-0.337,1.734-0.739,3.405-0.522,5.197c0.322,2.666,1.854,3.571,2.738,3.874
	c1.822,0.624,3.748-0.256,5.121-1.424c-0.249,2.428,0.035,5.137,1.224,6.643c2.188,2.772,5.854,1.19,8.747,0.949
	c0.907-0.076,3.315-0.279,4.021-2.335c0.071-0.209,0.119-0.412,0.146-0.608c0.768,0.796,1.612,1.071,2.289,1.143
	c2.749,0.286,4.624-2.414,6.443-5.022c1.345-1.929,3.317-3.447,3.652-5.916c0.112,1.219,0.733,1.932,1.329,2.337
	c2.081,1.421,4.505-0.216,7.069-1.95c0.669-0.452,1.361-0.921,1.804-1.155c2.79-1.486,2.324-4.22,2.125-5.386
	c-0.146-0.853-0.151-1.095-0.034-1.235c0.174-0.212,0.317-0.405,0.473-0.605c0.729,0.579,1.602,0.998,2.578,1.187
	c4.396,0.833,4.997-2.67,7.66-4.761C366.453,336.033,366.063,332.711,365.357,326.676
	C365.357,326.676,366.063,332.711,365.357,326.676z M336.167,311.775c1.29,1.381,3.197,1.966,5.199,1.649
	c1.021-0.163,1.932-0.618,2.684-1.271c0.298,0.024,0.599,0.026,0.9,0.007c0.824-0.057,1.612-0.281,2.322-0.649
	c0.806,0.314,1.68,0.449,2.562,0.389c-0.685,0.078-1.327,0.344-1.86,0.801c-0.896,0.767-1.335,1.875-1.562,3.137
	c-1.468-2.437-5.346-2.385-7.037-2.236c-1.381,0.122-2.4,1.339-2.282,2.721c0.021,0.236,0.083,0.457,0.163,0.669
	c-1.421-0.737-3.052-0.998-3.973-2.471c-0.218-0.347-0.245-0.512-0.245-0.513c0.022,0.147-0.083,0.42-0.158,0.482l-0.088,0.029
	l-0.858-2.824C333.266,312.255,334.763,312.287,336.167,311.775C337.457,313.156,334.763,312.287,336.167,311.775z M332.335,323.513
	c-0.161-0.166-0.287-0.303-0.384-0.414c0.717-0.62,1.292-1.351,1.725-2.189c0.455,0.19,1.137,0.318,1.489,0.68
	c0.766,0.812,1.763,3.45,0.856,5.379c-1.519,3.232-0.886,5.469-1.4,8.561C331.814,333.866,335.307,326.594,332.335,323.513
	C332.174,323.347,334.399,325.653,332.335,323.513z M341.628,318.635c-0.418,1.143-0.795,2.15-0.701,3.417
	c-0.413-1.396-1.051-2.608-1.724-3.469C340.01,318.622,340.819,318.64,341.628,318.635
	C341.613,318.676,341.088,318.575,341.628,318.635z M325.11,311.279c1.557,0.224,3.104-0.177,4.334-1.064
	c0.17,0.065,0.326,0.144,0.462,0.217c-0.606,0.435-1.253,1.094-1.62,2.078c-0.375,1-0.552,2.624,0.733,4.678
	c0.227,0.361,0.462,0.688,0.707,0.982c-0.794,0.628-1.731,1.763-2.265,2.526c0.461-1.637,0.706-3.814-1.187-5.395
	c-1.908-1.597-3.623-1.604-4.725-1.332c-1.19,0.294-2.853,1.229-3.999,4.018c-0.506,1.229-0.871,1.94-1.128,2.354
	c-0.572-0.587-1.239-1.286-1.72-1.96c0.549-0.437,1.127-0.831,1.734-1.188c2.347-1.537,5.268-3.449,4.704-6.652
	c-0.038-0.22-0.091-0.43-0.154-0.635c0.271-0.081,0.533-0.175,0.787-0.293C322.665,310.494,323.825,311.094,325.11,311.279
	C326.666,311.502,323.825,311.094,325.11,311.279z M315.308,330.423c-0.133,3.493-1.658,6.007-0.509,9.653
	c-0.814-0.009-1.618,0.375-2.11,1.103c-0.097,0.144-0.286,0.354-0.474,0.532c-1.053-4.841,4.159-9.19,2.386-14.438
	c-0.29-0.854-0.608-1.779-0.991-2.667c1.401,1.158,2.715,1.248,3.62,1.084c3.591-0.652,3.613-4.471,5.506-6.748
	c-0.509,2.251-0.67,5.106-1.479,7.221c-1.466-1.229-3.058-0.604-3.609-0.323C315.439,326.966,315.354,329.215,315.308,330.423
	C315.283,331.088,315.354,329.215,315.308,330.423z M303.53,327.729c-0.403,0.254-0.903,0.592-1.446,1.05
	c-1.582,1.336-1.598,2.844-1.146,4.111c-0.044-0.027-0.09-0.055-0.136-0.081c-2.887-1.668-5.17,0.541-6.269,1.604
	c-0.172,0.166-0.393,0.382-0.585,0.552c-0.961-0.773-1.342-1.411-1.369-1.747c-0.022-0.285,0.31-0.666,0.509-0.868
	c2.101-2.117,5.367-1.394,7.188-4.209l0.103-0.158c1.413-2.184,3.172-4.901-0.572-8.125c-1.957-1.687-4.222-2.373-6.056-1.876
	c1.007-1.041,1.708-2.508,1.886-4.046c0.034-0.305,0.041-0.604,0.032-0.899c1.103,2.722,3.917,5.516,6.102,7.434
	c0.458,0.401,1.854,1.632,3.658,1.214c0.053-0.014,0.095-0.035,0.146-0.049C303.119,323.644,303.202,326.123,303.53,327.729
	C303.126,327.983,303.202,326.123,303.53,327.729z M283.079,313.177c0.409,0.303,0.705,0.584,0.803,0.8
	c0.266,0.806,0.7,1.604,1.245,2.334c-0.792-0.137-1.588-0.245-2.387-0.323c0.036-0.941-0.21-1.771-0.588-2.496
	C282.465,313.413,282.774,313.306,283.079,313.177C283.489,313.479,282.774,313.306,283.079,313.177z M290.566,312.813
	c0.062,0.058,0.106,0.265,0.075,0.548c-0.046,0.406-0.222,0.768-0.381,0.986c-0.509-0.294-1.33-1.118-1.602-1.942
	c-0.031-0.094-0.076-0.183-0.113-0.272c0.021,0.01,0.038,0.022,0.061,0.032c0.582,0.269,1.188,0.424,1.798,0.492
	C290.459,312.711,290.507,312.759,290.566,312.813C290.628,312.87,290.507,312.759,290.566,312.813z M290.863,321.58
	c-0.004,0.026-0.009,0.057-0.017,0.085c-0.301-0.737-0.69-1.521-1.201-2.26c0.721,0.126,1.429,0.083,2.085-0.123
	C291.223,319.912,290.917,320.704,290.863,321.58C290.859,321.607,290.917,320.704,290.863,321.58z M293.937,326.344
	c0.81-1.019,1.413-2.226,1.722-3.268c0.469,0.254,0.887,0.571,1.255,0.952c-0.276,0.466-0.562,0.926-0.857,1.38
	C295.627,326.07,294.622,326.135,293.937,326.344C294.746,325.325,294.066,326.304,293.937,326.344z M306.555,331.774
	c0.771-0.464,2.821-1.696,2.05-4.464c-0.267-0.95-0.323-1.303-0.039-1.62c0.479,0.848,1.013,2.426,1.271,3.19
	c0.737,2.185-0.991,5.252-1.653,7.271c-0.021-0.208-0.048-0.421-0.076-0.638c-0.188-1.421-1.074-2.454-1.918-3.52
	C306.313,331.921,306.435,331.847,306.555,331.774C307.326,331.31,306.435,331.847,306.555,331.774z M307.149,320.655
	c0.898-0.989,1.271-2.31,1.817-3.493c1.294-2.788-0.244-5.152-1.544-6.84c0.272-0.145,0.538-0.303,0.784-0.484
	c0.251,0.194,0.519,0.368,0.795,0.521c0.087,1.547,0.479,3.068,2.042,3.696c0.264,0.104,0.521,0.172,0.777,0.204
	c-0.035,0.025-0.071,0.054-0.107,0.081c-1.343,1.006-2.084,2.188-2.2,3.515c-0.091,1.017,0.191,1.911,0.683,2.769
	c-0.057-0.021-0.104-0.059-0.161-0.076C309.101,320.226,308.104,320.269,307.149,320.655
	C307.776,319.965,308.104,320.269,307.149,320.655z M319.619,334.219c0.312-0.677,0.481-1.338,0.577-1.947
	c0.965,0.348,1.867,0.094,2.354-0.11c2.89-1.218,4.479-6.179,4.102-8.765c0-0.024,0.012-0.07,0.016-0.103
	c0.126,1.714,1.438,3.073,2.05,3.71c0.976,1.006,0.212,3.477,0.076,4.564c-0.603-0.479-1.603-1.049-2.861-0.896
	c-1.111,0.133-2.054,0.795-2.65,1.861c-0.964,1.727-0.729,3.866-1.646,5.59c-0.72,0.311-1.288,0.768-1.75,1.198
	C319.029,337.496,319.137,335.261,319.619,334.219C319.932,333.543,319.137,335.261,319.619,334.219z M300.965,310.565
	c0.085-0.089,0.197-0.196,0.318-0.309c0.577,1.32,3.206,3.362,3.12,4.79c-0.108,0.233-0.21,0.467-0.306,0.688
	c-1.257-1.317-3.072-2.888-3.766-4.604C300.553,310.96,300.768,310.774,300.965,310.565
	C301.05,310.476,300.768,310.774,300.965,310.565z M282.371,321.004c2.988,0.284,3.756,1.766,4.439,4.604
	c0.052,0.218,0.119,0.415,0.189,0.604c-1.098,0.175-2.406,0.428-3.613,0.979c0.352-0.774,0.56-1.629,0.594-2.533
	c0.058-1.492-0.729-2.708-1.806-3.674C282.241,320.99,282.307,320.996,282.371,321.004
	C283.015,321.065,282.307,320.996,282.371,321.004z M280.252,330.502c-0.254,0.637-1.929,2.003-2.78,2.683
	c0.048-0.737,0.236-1.445,0.566-2.124c0.809-0.098,1.564-0.329,2.252-0.67C280.277,330.427,280.265,330.465,280.252,330.502
	C279.998,331.138,280.265,330.465,280.252,330.502z M282.112,335.867c1.378-1.208,2.46-2.408,2.913-3.78
	c0.03-0.094,0.189-0.271,0.896-0.491c-0.15,0.422-0.292,0.843-0.39,1.233C285.044,334.059,283.082,335.052,282.112,335.867
	C283.49,334.659,282.47,335.566,282.112,335.867z M286.996,339.178c-1.853,1.164-2.193,3.155-2.104,5.054
	c-0.67,0.114-1.306,0.326-1.907,0.636c-0.082-1.438,0.911-3.586,1.759-4.582c1.141-1.341,2.842-2.202,4.055-3.495
	c0.533,0.754,1.235,1.476,2.094,2.156c-0.081-0.046-0.146-0.104-0.231-0.146C290.007,338.492,288.66,338.134,286.996,339.178
	C285.144,340.343,288.66,338.134,286.996,339.178z M293.002,341.186c-0.07,0.104-0.135,0.213-0.193,0.322
	c-0.263-0.81-0.646-1.497-1.202-2.033c0.787,0.521,1.539,0.733,2.239,0.74C293.558,340.469,293.273,340.782,293.002,341.186
	C292.931,341.29,293.273,340.782,293.002,341.186z M296.551,339.283c0.681-0.53,1.331-1.098,1.948-1.699
	c0.194,1.09,0.463,2.16,0.804,3.216C298.558,339.978,297.671,339.385,296.551,339.283
	C297.175,338.854,297.671,339.385,296.551,339.283z M301.972,344.804c-0.438-0.7-0.871-1.404-1.296-2.112
	c0.413,0.363,0.91,0.693,1.527,0.964c0.723,0.317,1.364,0.432,1.928,0.431C303.394,344.275,302.675,344.514,301.972,344.804
	C301.717,344.427,302.121,344.748,301.972,344.804z M309.042,351.639c-0.082,0.228-0.186,0.513-0.279,0.76
	c0.068-0.477,0.172-0.968,0.272-1.452c0.39-1.865,0.979-4.686-1.486-6.236c-0.913-0.577-1.799-0.736-2.602-0.713
	c0.631-0.14,1.115-0.41,1.429-0.646c0.331-0.249,0.62-0.547,0.865-0.896c0.185,1.183,0.685,2.324,1.709,3.298
	c0.84,0.796,1.959,1.299,3.131,1.257C310.312,348.17,309.56,350.209,309.042,351.639C308.96,351.866,309.56,350.209,309.042,351.639
	z M319.103,353.594c-0.75,0.737-2.506,2.47-1.115,5.284c0.173,0.348,0.384,0.67,0.617,0.971c-0.648,0.107-1.297,0.218-1.945,0.327
	c-0.723-3.088,1.114-5.604,1.442-8.56c0.439,0.549,0.923,1.052,1.452,1.505C319.437,353.263,319.288,353.409,319.103,353.594
	C318.353,354.331,319.288,353.409,319.103,353.594z M323.611,357.8c-0.23-0.213-0.562-0.518-0.812-0.787
	c0.23-0.231,0.497-0.508,0.763-0.845c0.059,0.599,0.186,1.243,0.395,1.948C323.837,358.008,323.722,357.901,323.611,357.8
	C323.38,357.587,323.722,357.901,323.611,357.8z M325.834,350.031c-0.437,0.539-0.848,1.078-1.197,1.646
	c-0.215-0.604-0.563-1.109-0.924-1.519c0.734,0.048,1.457-0.014,2.166-0.186C325.865,349.993,325.85,350.014,325.834,350.031
	C325.398,350.571,325.85,350.014,325.834,350.031z M332.634,351.955c-1.557,1.372-2.517,3.332-3.809,4.937
	c-0.621-1.791-0.203-2.309,0.92-3.695c1.102-1.363,2.007-2.863,2.736-4.46c0.041,0.098,0.082,0.192,0.125,0.285
	C333.577,351.127,332.94,351.687,332.634,351.955C331.866,352.633,332.94,351.687,332.634,351.955z M332.707,341.854
	c-0.555-0.591-1.76-1.446-3.771-0.818c-2.625,0.817-3.712,2.617-4.36,3.693c-0.076,0.125-0.168,0.278-0.247,0.4
	c-0.32,0.011-0.72,0.002-1.106-0.009c-1.713-0.037-3.651-0.086-4.979,1.29c-0.37,0.385-0.644,0.843-0.81,1.348
	c-0.104-0.158-0.221-0.312-0.351-0.452c-0.66-0.729-1.552-1.096-2.52-1.097c1.254-0.786,2.082-1.905,2.289-2.21
	c0.029-0.047,0.048-0.096,0.075-0.142c0.729,0.743,1.548,1.158,2.44,1.231c1.488,0.129,2.615-0.75,3.592-1.739
	c0.212-0.214,0.532-0.539,0.628-0.595c2.544-0.858,3.184-3.821,3.697-6.201c0.116-0.543,0.294-1.364,0.384-1.567
	c-0.098,0.174-0.431,0.533-0.993,0.652c-0.541,0.114-0.926-0.066-0.994-0.118l-0.051-0.052l3.044-2.821
	c-0.269,3.998,1.566,6.828,5.258,8.025c0.021,0.007,0.04,0.009,0.061,0.015C333.494,340.973,333.054,341.359,332.707,341.854
	C332.153,341.263,333.054,341.359,332.707,341.854z M338.52,346.488c0.036,1.413-0.163,2.681-0.375,4.074
	c-0.093-1.928-1.409-3.59-1.334-5.512c0.627-0.158,1.215-0.401,1.767-0.688C338.484,345.117,338.503,345.824,338.52,346.488
	C338.547,347.525,338.503,345.824,338.52,346.488z M342.055,328.577c-0.12,0.271-0.279,0.583-0.451,0.925
	c-1.059,2.102-2.375,4.717-0.994,6.875c0.191,0.3,0.456,0.616,0.818,0.897c-0.877-0.003-1.646,0.228-2.309,0.689
	c0.646-1.561,0.754-3.477,0.172-4.729c-0.233-3.477,2.621-6.146,1.928-9.939c0.333,0.764,0.968,1.468,2.09,1.979
	c0.611,0.279,1.218,0.474,1.81,0.585C343.756,326.289,342.641,327.259,342.055,328.577
	C341.935,328.847,342.641,327.259,342.055,328.577z M346.504,341.225c-1.607,1.953-1.252,4.036-1.04,5.281
	c0.019,0.102,0.038,0.219,0.056,0.331c-0.666,0.412-1.323,0.841-1.971,1.281c0.116-2.872,2.273-7.849-0.162-10.033
	c-0.012-0.012-0.023-0.021-0.034-0.029c1.298,0.188,2.671-0.042,3.925-0.376C347.876,339.559,347.83,339.614,346.504,341.225
	C344.896,343.178,347.83,339.614,346.504,341.225z M348.239,332.398c-0.921,0.095-1.824,0.272-2.711,0.533
	c0.372-0.751,0.733-1.506,1.084-2.268c0.087-0.028,0.174-0.029,0.262-0.003c0.579,0.476,1.037,1.055,1.373,1.737
	C348.243,332.398,348.241,332.398,348.239,332.398C347.638,332.398,348.241,332.398,348.239,332.398z M347.858,325.728
	c0.3-0.097,0.587-0.223,0.862-0.378c1.32-0.748,2.153-2.08,2.345-3.751c0.074-1.381,0.144-2.762,0.207-4.145
	c0.545,0.457,1.038,1.27,0.887,2.694c-0.104,0.979-0.386,1.983-0.634,2.87c-0.514,1.839-1.045,3.74,0.323,5.243
	c0.334,0.367,0.73,0.643,1.188,0.825c-0.836,0.108-1.095-0.075-1.204-0.286C350.983,327.178,349.525,326.072,347.858,325.728
	C348.157,325.632,349.525,326.072,347.858,325.728z"/>
		<g id="Legend" title="Legend" class="interactive" transform="translate(200,50)">
			<rect x="1.001" y="420.033" fill="#ffffff" stroke="#939598" stroke-width="0.8987" stroke-miterlimit="10" width="15.938" height="15.938"/>
			<rect x="21.449" y="420.033" fill="#EDF8E9" stroke="#939598" stroke-width="0.8987" stroke-miterlimit="10" width="15.938" height="15.938"/>
			<rect x="41.898" y="420.033" fill="#BAE4B3" stroke="#939598" stroke-width="0.8987" stroke-miterlimit="10" width="15.938" height="15.938"/>
			<rect x="62.345" y="420.033" fill="#74C476" stroke="#939598" stroke-width="0.8987" stroke-miterlimit="10" width="15.938" height="15.938"/>
			<rect x="82.794" y="420.033" fill="#31A354" stroke="#939598" stroke-width="0.8987" stroke-miterlimit="10" width="15.938" height="15.938"/>
			<rect x="103.134" y="420.033" fill="#006D2C" stroke="#939598" stroke-width="0.8987" stroke-miterlimit="10" width="15.938" height="15.938"/>
		<text transform="matrix(1 0 0 1 5.3159 449.998)" font-family="'ArialMT'" font-size="12.9619">0</text>
		<text transform="matrix(1 0 0 1 25.6763 449.998)" font-family="'ArialMT'" font-size="12.9619">1</text>
		<text transform="matrix(1 0 0 1 46.0376 449.998)" font-family="'ArialMT'" font-size="12.9619">2</text>
		<text transform="matrix(1 0 0 1 66.3984 449.998)" font-family="'ArialMT'" font-size="12.9619">3</text>
		<text transform="matrix(1 0 0 1 86.7598 449.998)" font-family="'ArialMT'" font-size="12.9619">4</text>
		<text transform="matrix(1 0 0 1 107.04 449.998)" font-family="'ArialMT'" font-size="12.9619">5</text>
		<text transform="matrix(1 0 0 1 1.3125 414.334)" font-family="'ArialMT'" font-size="12.9619">Confidence</text>
	</g>
</svg>
