<?xml version="1.0" encoding="utf-8"?>
<!-- Generator: Adobe Illustrator 18.0.0, SVG Export Plug-In . SVG Version: 6.00 Build 0)  -->
<!DOCTYPE svg PUBLIC "-//W3C//DTD SVG 1.1//EN" "http://www.w3.org/Graphics/SVG/1.1/DTD/svg11.dtd">
<svg version="1.1" id="Layer_1" xmlns="http://www.w3.org/2000/svg" xmlns:xlink="http://www.w3.org/1999/xlink" x="0px" y="0px"
	 viewBox="0 0 240 240" style="enable-background:new 0 0 240 240;" xml:space="preserve">
<style type="text/css">
	.st0{fill:none;}
	.st1{fill:#FFFFFF;}
	.st2{fill:#FF00FF;}
	.st3{fill:none;stroke:#FFFFFF;stroke-width:4.2698;stroke-linecap:square;stroke-miterlimit:10;}
	.st4{fill:none;stroke:#FFFFFF;stroke-width:4.2698;stroke-miterlimit:10;}
</style>
<g>
	<rect x="17.5" y="19.3" class="st0" width="205" height="20.6"/>
	<path class="st1" d="M60.4,32.8h-7.1l-2,4.7h-2L56.9,20l7.5,17.5h-2L60.4,32.8z M59.7,31l-2.8-6.7L54,31H59.7z"/>
	<path class="st1" d="M68.6,20.8v14.9h4.6v1.7h-6.4V20.8H68.6z"/>
	<path class="st1" d="M77.6,20.8v14.9h4.6v1.7h-6.4V20.8H77.6z"/>
	<path class="st1" d="M93.5,20.8c1.7,0,3.1,0.2,4.2,1.2c1.2,1,1.5,2.5,1.5,3.6c0,2.3-1.5,4.7-5.3,4.7h-1.6v7.2h-1.8V20.8H93.5z
		 M92.3,28.5h1.5c2.2,0,3.5-1.1,3.5-3c0-2.6-2.5-2.9-3.7-2.9h-1.4V28.5z"/>
	<path class="st1" d="M104.6,20.8c1.1,0,2.8,0.1,4,0.9c1,0.6,1.8,1.9,1.8,3.7c0,2.5-1.7,4.4-4.2,4.6l5.3,7.4h-2.2l-5.1-7.3h-0.5v7.3
		h-1.8V20.8H104.6z M103.7,28.5h1.2c2.3,0,3.7-1.1,3.7-3c0-0.9-0.3-1.8-1.3-2.4c-0.7-0.4-1.6-0.5-2.4-0.5h-1.1V28.5z"/>
	<path class="st1" d="M113.5,29.2c0-5,3.9-8.6,8.7-8.6s8.7,3.6,8.7,8.6c0,4.9-3.8,8.6-8.7,8.6C117.4,37.8,113.5,34.1,113.5,29.2z
		 M115.4,29.2c0,3.8,3,6.9,6.8,6.9c3.7,0,6.8-3,6.8-6.9c0-3.8-3-6.9-6.8-6.9C118.5,22.3,115.4,25.3,115.4,29.2z"/>
	<path class="st1" d="M137.6,20.8v12c0,1.3,0,2.9-1,3.9c-0.6,0.6-1.4,1-2.6,1c-1.2,0-2.2-0.4-3-1.2l1-1.4c0.5,0.6,1.3,0.9,1.9,0.9
		c0.5,0,0.9-0.2,1.3-0.5c0.6-0.6,0.6-1.7,0.6-2.7v-12H137.6z"/>
	<path class="st1" d="M150.6,22.6h-6.8v4.9h6.6v1.7h-6.6v6.5h6.8v1.7h-8.6V20.8h8.6V22.6z"/>
	<path class="st1" d="M166.7,24.5c-0.5-0.5-1.3-1.1-2.2-1.5c-0.9-0.4-1.9-0.6-2.9-0.6c-3.8,0-6.7,3.1-6.7,6.9c0,4.5,3.7,6.8,6.7,6.8
		c1.1,0,2.2-0.3,3.1-0.8c0.9-0.5,1.6-1.1,1.9-1.4v2.3c-1.8,1.3-3.8,1.6-5,1.6c-4.9,0-8.6-3.7-8.6-8.6c0-5,3.7-8.7,8.7-8.7
		c1,0,2.9,0.1,4.9,1.6V24.5z"/>
	<path class="st1" d="M174.2,22.6v14.9h-1.8V22.6h-4v-1.7h9.9v1.7H174.2z"/>
	<path class="st1" d="M187.6,24.1c-0.2-0.5-0.6-0.9-1-1.3c-0.3-0.3-0.9-0.6-1.9-0.6c-1.6,0-2.8,1-2.8,2.6c0,0.6,0.2,1,0.6,1.4
		c0.5,0.5,1.1,0.8,1.7,1l1.6,0.7c1,0.4,1.9,0.9,2.6,1.6c0.8,0.9,1.2,1.8,1.2,3c0,3.1-2.3,5.1-5.3,5.1c-1.1,0-2.5-0.2-3.6-1.3
		c-0.8-0.8-1.3-1.9-1.5-2.9L181,33c0.1,0.9,0.5,1.6,1,2.1c0.7,0.7,1.5,0.9,2.4,0.9c2.3,0,3.3-1.6,3.3-3.3c0-0.7-0.2-1.4-0.8-1.9
		c-0.5-0.5-1.1-0.8-2-1.1l-1.5-0.7c-0.6-0.3-1.5-0.6-2.2-1.4c-0.7-0.7-1.1-1.5-1.1-2.7c0-2.6,2-4.3,4.7-4.3c1,0,1.8,0.2,2.7,0.7
		c0.7,0.5,1.2,1.1,1.6,1.8L187.6,24.1z"/>
</g>
<path class="st2" d="M63.6,191.3c-4.6-1-8.6-2.9-11.9-5.8c-8.9-7.8-11.5-21.6-7.6-39.1c4.1-17.9,14.7-37.3,29.8-54.6
	s32.9-30.3,50.2-36.7c16.8-6.2,30.9-5.4,39.7,2.3c3.3,2.9,5.7,6.6,7.3,11c-21.6-2.4-52.2,13.2-76.7,41.3
	C69.8,137.8,58.4,170.1,63.6,191.3z"/>
<g>
	<path class="st1" d="M155.7,139.2l0.1-0.1c9.6-13.9,16.3-28.3,19.3-41.8c3.1-13.7,2.4-25.5-2-34.2l-1.2-2.3l15.9,14
		c16.8,14.7,12.8,48.2-9.6,81.5l-0.1,0.1l-21.1,7.3L155.7,139.2z"/>
	<g>
		<path class="st1" d="M173.6,62.8l14,12.2c16.8,14.7,12,48.7-9.7,80.9l-20.3,7l-1.4-23.6c9.5-13.8,16.3-28.3,19.4-42
			C178.8,83.6,178.1,71.7,173.6,62.8 M170.3,58.6l2.4,4.7c4.4,8.6,5.1,20.3,2,33.9c-3.1,13.4-9.7,27.8-19.3,41.6l-0.2,0.3l0,0.3
			l1.4,23.6l0.1,1.3l1.2-0.4l20.3-7l0.3-0.1l0.2-0.3c10.7-15.9,17.6-32.7,19.4-47.4c1.9-15.1-1.6-27.5-9.9-34.8l-14-12.2L170.3,58.6
			L170.3,58.6z"/>
	</g>
</g>
<g>
	<path class="st1" d="M93.4,213.9c-8.6,0-15.7-2.4-21.2-7.2l-15.9-14l2.5,0.9c3.7,1.3,7.8,2,12.2,2c6.7,0,14-1.5,21.9-4.4
		c13.7-5.1,27.8-14.2,40.7-26.4l0.3-0.3l21.4,18.7l-0.4,0.4C134.7,202.6,111.7,213.9,93.4,213.9z"/>
	<g>
		<path class="st1" d="M134,165.2l20.6,18.1c-20.6,19.3-43.3,30.1-61.2,30.1c-8.2,0-15.4-2.3-20.8-7.1l-14-12.2
			c3.8,1.3,7.9,2,12.4,2c6.7,0,14.1-1.5,22.1-4.4C106.9,186.5,121,177.4,134,165.2 M133.9,163.8l-0.7,0.6
			c-12.9,12.1-26.9,21.2-40.5,26.3c-7.8,2.9-15.1,4.4-21.7,4.4c-4.4,0-8.5-0.7-12.1-1.9l-4.9-1.7l3.9,3.4l14,12.2
			c5.5,4.9,12.8,7.3,21.5,7.3c18.4,0,41.5-11.4,61.8-30.4l0.8-0.8l-0.8-0.7l-20.6-18.1L133.9,163.8L133.9,163.8z"/>
	</g>
</g>
<g>
	<path class="st1" d="M63.5,191.7c-4.7-1-8.8-3-12.1-5.9c-9-7.9-11.7-21.9-7.7-39.6c4.1-18,14.7-37.5,29.9-54.8
		c15.2-17.3,33.1-30.4,50.4-36.9c7.5-2.8,14.4-4.2,20.7-4.2c8,0,14.5,2.2,19.5,6.6c3.3,2.9,5.8,6.7,7.4,11.2l0.3,0.8L171,69
		c-1.4-0.2-2.9-0.2-4.4-0.2c-21.7,0-49.9,16.2-71.9,41.3c-23.7,27-36,59.6-30.7,81.1l0.2,0.8L63.5,191.7z"/>
	<path class="st1" d="M144.6,51c7.7,0,14.3,2.2,19.2,6.5c3.3,2.9,5.7,6.6,7.3,11c-1.5-0.2-2.9-0.2-4.5-0.2
		c-21.2,0-49.3,15.3-72.3,41.5c-24.6,28.1-36,60.4-30.8,81.5c-4.6-1-8.6-2.9-11.9-5.8c-8.9-7.8-11.5-21.6-7.6-39.1
		c4.1-17.9,14.7-37.3,29.8-54.6c15.1-17.3,32.9-30.3,50.2-36.7C131.5,52.4,138.5,51,144.6,51 M144.6,50c-6.3,0-13.4,1.4-20.9,4.2
		c-17.4,6.5-35.3,19.6-50.6,37c-15.2,17.4-25.9,36.9-30,55c-4.1,17.8-1.3,32.1,7.9,40.1c3.4,3,7.5,5,12.3,6l1.6,0.3l-0.4-1.5
		c-5.3-21.3,7-53.7,30.6-80.6c21.9-25,50-41.2,71.5-41.2c1.5,0,3,0.1,4.4,0.2l1.6,0.2l-0.5-1.5c-1.6-4.6-4.2-8.5-7.6-11.4
		C159.4,52.2,152.7,50,144.6,50L144.6,50z"/>
</g>
<path class="st3" d="M186.6,141.4"/>
<path class="st4" d="M176,158.1"/>
</svg>
