<?xml version="1.0" encoding="utf-8"?>
<!-- Generator: Adobe Illustrator 18.0.0, SVG Export Plug-In . SVG Version: 6.00 Build 0)  -->
<!DOCTYPE svg PUBLIC "-//W3C//DTD SVG 1.1//EN" "http://www.w3.org/Graphics/SVG/1.1/DTD/svg11.dtd">
<svg version="1.1" id="Layer_1" xmlns="http://www.w3.org/2000/svg" xmlns:xlink="http://www.w3.org/1999/xlink" x="0px" y="0px"
	 viewBox="0 0 240 240" enable-background="new 0 0 240 240" xml:space="preserve">
<rect x="20.7" y="18.1" fill="none" width="205" height="22.9"/>
<text transform="matrix(1 0 0 1 20.687 36.3238)" fill="#FFFFFF" font-family="'FuturaPT-Book'" font-size="25">CANCER</text>
<circle fill="none" stroke="#FFFFFF" stroke-width="6.8025" stroke-linejoin="round" stroke-miterlimit="10" cx="120.4" cy="133.3" r="58.5"/>
<g>
	<g id="XMLID_19_">
		<path fill="#D88C52" d="M154.3,118.4c-5.4-5.9-12.9-7.1-19.8-3.1c-3.5,2-6.4,4.8-9.1,7.8c-1.7,1.8-3.3,3.7-4.9,5.5
			c-1.5-1.9-2.9-3.8-4.4-5.7c-2.8-3.3-5.8-6.4-9.8-8.3c-7.1-3.6-15.1-1.9-19.9,4.1c-5.8,7.3-5.9,19.2-0.2,26.6
			c4.1,5.3,9.5,7.5,16.2,6.4c4.1-0.7,7.7-2.9,10.7-5.6c3.1-2.8,5.9-5.7,8.9-8.7c0.2,0.2,0.4,0.5,0.6,0.8c2.2,2.6,4.3,5.2,6.6,7.7
			c2.1,2.2,4.6,3.9,7.4,5c6,2.2,11.7,2,16.6-2.6C161.2,140.6,161.6,126.5,154.3,118.4z M105.7,143.6c-2.2,1.5-4.6,2.5-7.3,2.9
			c-5,0.8-9.3-1.6-11.1-6.3c-2.2-6.1-1.3-11.8,2.8-16.9c4.3-5.4,11.9-6.3,17.9-2.4c2.7,1.8,4.9,4.1,6.9,6.7c1,1.2,1.9,2.5,3,3.9
			C114.2,136,110.5,140.4,105.7,143.6z M147,145.1c-4.6,2.2-9.2,2-13.5-0.9c-3.8-2.6-6.5-6.3-9.2-9.9c4-4.7,7.8-9.5,12.8-13.1
			c2.1-1.5,4.4-2.7,7-3c3.5-0.5,6.4,0.6,8.4,3.6c2.7,4,3,8.5,2,13C153.6,139.3,151.3,143,147,145.1z"/>
	</g>
</g>
</svg>
