<?xml version="1.0" encoding="utf-8"?>
<!-- Generator: Adobe Illustrator 18.0.0, SVG Export Plug-In . SVG Version: 6.00 Build 0)  -->
<!DOCTYPE svg PUBLIC "-//W3C//DTD SVG 1.1//EN" "http://www.w3.org/Graphics/SVG/1.1/DTD/svg11.dtd">
<svg version="1.1" id="Layer_1" xmlns="http://www.w3.org/2000/svg" xmlns:xlink="http://www.w3.org/1999/xlink" x="0px" y="0px"
	 viewBox="0 0 240 240" style="enable-background:new 0 0 240 240;" xml:space="preserve">
<style type="text/css">
	.st0{fill:none;}
	.st1{fill:#FFFFFF;}
	.st2{fill:none;stroke:#FFFFFF;stroke-width:6.8025;stroke-linejoin:round;stroke-miterlimit:10;}
	.st3{fill:#D88C52;}
</style>
<g>
	<g>
		<rect x="17.5" y="18.1" class="st0" width="205" height="22.9"/>
		<path class="st1" d="M89.1,23.3c-0.5-0.5-1.3-1.1-2.2-1.5C86,21.4,85,21.1,84,21.1c-3.8,0-6.7,3.1-6.7,6.9c0,4.5,3.7,6.8,6.7,6.8
			c1.1,0,2.2-0.3,3.1-0.8c0.9-0.5,1.6-1.1,1.9-1.4V35c-1.8,1.3-3.8,1.6-5,1.6c-4.9,0-8.6-3.7-8.6-8.6c0-5,3.7-8.7,8.7-8.7
			c1,0,2.9,0.1,4.9,1.6V23.3z"/>
		<path class="st1" d="M101.7,31.6h-7.1l-2,4.7h-2l7.7-17.5l7.5,17.5h-2L101.7,31.6z M101,29.9l-2.8-6.7l-2.8,6.7H101z"/>
		<path class="st1" d="M108,36.3V19l13,13.6V19.7h1.8v17.4l-13-13.6v12.9H108z"/>
		<path class="st1" d="M139.9,23.3c-0.5-0.5-1.3-1.1-2.2-1.5c-0.9-0.4-1.9-0.6-2.9-0.6c-3.8,0-6.7,3.1-6.7,6.9
			c0,4.5,3.7,6.8,6.7,6.8c1.1,0,2.2-0.3,3.1-0.8c0.9-0.5,1.6-1.1,1.9-1.4V35c-1.8,1.3-3.8,1.6-5,1.6c-4.9,0-8.6-3.7-8.6-8.6
			c0-5,3.7-8.7,8.7-8.7c1,0,2.9,0.1,4.9,1.6V23.3z"/>
		<path class="st1" d="M152,21.4h-6.8v4.9h6.6v1.7h-6.6v6.5h6.8v1.7h-8.6V19.7h8.6V21.4z"/>
		<path class="st1" d="M158.1,19.7c1.1,0,2.8,0.1,4,0.9c1,0.6,1.8,1.9,1.8,3.7c0,2.5-1.7,4.4-4.2,4.6l5.3,7.4h-2.2l-5.1-7.3h-0.5
			v7.3h-1.8V19.7H158.1z M157.2,27.4h1.2c2.3,0,3.7-1.1,3.7-3c0-0.9-0.3-1.8-1.3-2.4c-0.7-0.4-1.6-0.5-2.4-0.5h-1.1V27.4z"/>
	</g>
	<g>
		<circle class="st2" cx="120.4" cy="133.3" r="58.5"/>
		<g>
			<g id="XMLID_19_">
				<path class="st3" d="M154.3,118.4c-5.4-5.9-12.9-7.1-19.8-3.1c-3.5,2-6.4,4.8-9.1,7.8c-1.7,1.8-3.3,3.7-4.9,5.5
					c-1.5-1.9-2.9-3.8-4.4-5.7c-2.8-3.3-5.8-6.4-9.8-8.3c-7.1-3.6-15.1-1.9-19.9,4.1c-5.8,7.3-5.9,19.2-0.2,26.6
					c4.1,5.3,9.5,7.5,16.2,6.4c4.1-0.7,7.7-2.9,10.7-5.6c3.1-2.8,5.9-5.7,8.9-8.7c0.2,0.2,0.4,0.5,0.6,0.8c2.2,2.6,4.3,5.2,6.6,7.7
					c2.1,2.2,4.6,3.9,7.4,5c6,2.2,11.7,2,16.6-2.6C161.2,140.6,161.6,126.5,154.3,118.4z M105.7,143.6c-2.2,1.5-4.6,2.5-7.3,2.9
					c-5,0.8-9.3-1.6-11.1-6.3c-2.2-6.1-1.3-11.8,2.8-16.9c4.3-5.4,11.9-6.3,17.9-2.4c2.7,1.8,4.9,4.1,6.9,6.7c1,1.2,1.9,2.5,3,3.9
					C114.2,136,110.5,140.4,105.7,143.6z M147,145.1c-4.6,2.2-9.2,2-13.5-0.9c-3.8-2.6-6.5-6.3-9.2-9.9c4-4.7,7.8-9.5,12.8-13.1
					c2.1-1.5,4.4-2.7,7-3c3.5-0.5,6.4,0.6,8.4,3.6c2.7,4,3,8.5,2,13C153.6,139.3,151.3,143,147,145.1z"/>
			</g>
		</g>
	</g>
</g>
</svg>
