<?xml version="1.0" encoding="utf-8"?>
<!-- Generator: Adobe Illustrator 18.0.0, SVG Export Plug-In . SVG Version: 6.00 Build 0)  -->
<!DOCTYPE svg PUBLIC "-//W3C//DTD SVG 1.1//EN" "http://www.w3.org/Graphics/SVG/1.1/DTD/svg11.dtd">
<svg version="1.1" id="Layer_1" xmlns="http://www.w3.org/2000/svg" xmlns:xlink="http://www.w3.org/1999/xlink" x="0px" y="0px"
	 viewBox="0 0 240 240" style="enable-background:new 0 0 240 240;" xml:space="preserve">
<style type="text/css">
	.st0{fill:none;}
	.st1{fill:#FFFFFF;}
	.st2{fill:#D88C52;}
	.st3{fill:#FFFFFF;stroke:#FFFFFF;stroke-width:2;stroke-miterlimit:10;}
</style>
<g>
	<rect x="17.5" y="20.9" class="st0" width="205" height="64.8"/>
	<path class="st1" d="M37.2,26.2c-0.5-0.5-1.3-1.1-2.2-1.5c-0.9-0.4-1.9-0.6-2.9-0.6c-3.8,0-6.7,3.1-6.7,6.9c0,4.5,3.7,6.8,6.7,6.8
		c1.1,0,2.2-0.3,3.1-0.8c0.9-0.5,1.6-1.1,1.9-1.4v2.3c-1.8,1.3-3.8,1.6-5,1.6c-4.9,0-8.6-3.7-8.6-8.6c0-5,3.7-8.7,8.7-8.7
		c1,0,2.9,0.1,4.9,1.6V26.2z"/>
	<path class="st1" d="M49.8,34.5h-7.1l-2,4.7h-2l7.7-17.5l7.5,17.5h-2L49.8,34.5z M49.1,32.7L46.3,26l-2.8,6.7H49.1z"/>
	<path class="st1" d="M58.8,22.5c1.1,0,2.8,0.1,4,0.9c1,0.6,1.8,1.9,1.8,3.7c0,2.5-1.7,4.4-4.2,4.6l5.3,7.4h-2.2l-5.1-7.3H58v7.3
		h-1.8V22.5H58.8z M58,30.2h1.2c2.3,0,3.7-1.1,3.7-3c0-0.9-0.3-1.8-1.3-2.4c-0.7-0.4-1.6-0.5-2.4-0.5H58V30.2z"/>
	<path class="st1" d="M68.7,22.5h3.4c1.7,0,4,0.2,6.1,1.9c1.5,1.3,2.8,3.4,2.8,6.4c0,3.5-1.7,5.4-2.9,6.4c-1.5,1.3-3.1,1.9-6.1,1.9
		h-3.4V22.5z M70.5,37.4h1.6c1.3,0,3.1-0.1,4.8-1.5c1.2-1,2.2-2.7,2.2-5.1c0-4-2.8-6.6-7-6.6h-1.6V37.4z"/>
	<path class="st1" d="M86.3,22.5v16.7h-1.8V22.5H86.3z"/>
	<path class="st1" d="M89.7,30.8c0-5,3.9-8.6,8.7-8.6s8.7,3.6,8.7,8.6c0,4.9-3.8,8.6-8.7,8.6C93.6,39.5,89.7,35.8,89.7,30.8z
		 M91.6,30.8c0,3.8,3,6.9,6.8,6.9c3.7,0,6.8-3,6.8-6.9c0-3.8-3-6.9-6.8-6.9C94.7,24,91.6,27,91.6,30.8z"/>
	<path class="st1" d="M109.8,22.5l4.7,12.7l4.7-12.7h2l-6.7,17.7l-6.7-17.7H109.8z"/>
	<path class="st1" d="M131.5,34.5h-7.1l-2,4.7h-2l7.7-17.5l7.5,17.5h-2L131.5,34.5z M130.8,32.7L128,26l-2.8,6.7H130.8z"/>
	<path class="st1" d="M145,25.8c-0.2-0.5-0.6-0.9-1-1.3c-0.3-0.3-0.9-0.6-1.9-0.6c-1.6,0-2.8,1-2.8,2.6c0,0.6,0.2,1,0.6,1.4
		c0.5,0.5,1.1,0.8,1.7,1l1.6,0.7c1,0.4,1.9,0.9,2.6,1.6c0.8,0.9,1.2,1.8,1.2,3c0,3.1-2.3,5.1-5.3,5.1c-1.1,0-2.5-0.2-3.6-1.3
		c-0.8-0.8-1.3-1.9-1.5-2.9l1.8-0.5c0.1,0.9,0.5,1.6,1,2.1c0.7,0.7,1.5,0.9,2.4,0.9c2.3,0,3.3-1.6,3.3-3.3c0-0.7-0.2-1.4-0.8-1.9
		c-0.5-0.5-1.1-0.8-2-1.1l-1.5-0.7c-0.6-0.3-1.5-0.6-2.2-1.4c-0.7-0.7-1.1-1.5-1.1-2.7c0-2.6,2-4.3,4.7-4.3c1,0,1.8,0.2,2.7,0.7
		c0.7,0.5,1.2,1.1,1.6,1.8L145,25.8z"/>
	<path class="st1" d="M163.3,26.2c-0.5-0.5-1.3-1.1-2.2-1.5c-0.9-0.4-1.9-0.6-2.9-0.6c-3.8,0-6.7,3.1-6.7,6.9c0,4.5,3.7,6.8,6.7,6.8
		c1.1,0,2.2-0.3,3.1-0.8c0.9-0.5,1.6-1.1,1.9-1.4v2.3c-1.8,1.3-3.8,1.6-5,1.6c-4.9,0-8.6-3.7-8.6-8.6c0-5,3.7-8.7,8.7-8.7
		c1,0,2.9,0.1,4.9,1.6V26.2z"/>
	<path class="st1" d="M168.5,32.7c0,1.4,0,2.9,1.3,4c0.7,0.6,1.8,0.9,2.7,0.9s2.1-0.4,2.7-0.9c1.3-1.1,1.3-2.6,1.3-4V22.5h1.8v10.7
		c0,1.4-0.1,2.7-1,4c-1,1.4-2.7,2.2-4.9,2.2c-2.1,0-3.9-0.9-4.9-2.2c-0.9-1.2-1-2.6-1-4V22.5h1.8V32.7z"/>
	<path class="st1" d="M184.7,22.5v14.9h4.6v1.7h-6.4V22.5H184.7z"/>
	<path class="st1" d="M201,34.5h-7.1l-2,4.7h-2l7.7-17.5l7.5,17.5h-2L201,34.5z M200.2,32.7l-2.8-6.7l-2.8,6.7H200.2z"/>
	<path class="st1" d="M210,22.5c1.1,0,2.8,0.1,4,0.9c1,0.6,1.8,1.9,1.8,3.7c0,2.5-1.7,4.4-4.2,4.6l5.3,7.4h-2.2l-5.1-7.3h-0.5v7.3
		h-1.8V22.5H210z M209.2,30.2h1.2c2.3,0,3.7-1.1,3.7-3c0-0.9-0.3-1.8-1.3-2.4c-0.7-0.4-1.6-0.5-2.4-0.5h-1.1V30.2z"/>
	<path class="st1" d="M78.5,52.5h3.4c1.7,0,4,0.2,6.1,1.9c1.5,1.3,2.8,3.4,2.8,6.4c0,3.5-1.7,5.4-2.9,6.4c-1.5,1.3-3.1,1.9-6.1,1.9
		h-3.4V52.5z M80.4,67.4H82c1.3,0,3.1-0.1,4.8-1.5c1.2-1,2.2-2.7,2.2-5.1c0-4-2.8-6.6-7-6.6h-1.6V67.4z"/>
	<path class="st1" d="M96.2,52.5v16.7h-1.8V52.5H96.2z"/>
	<path class="st1" d="M107.9,55.8c-0.2-0.5-0.6-0.9-1-1.3c-0.3-0.3-0.9-0.6-1.9-0.6c-1.6,0-2.8,1-2.8,2.6c0,0.6,0.2,1,0.6,1.4
		c0.5,0.5,1.1,0.8,1.7,1l1.6,0.7c1,0.4,1.9,0.9,2.6,1.6c0.8,0.9,1.2,1.8,1.2,3c0,3.1-2.3,5.1-5.3,5.1c-1.1,0-2.5-0.2-3.6-1.3
		c-0.8-0.8-1.3-1.9-1.5-2.9l1.8-0.5c0.1,0.9,0.5,1.6,1,2.1c0.7,0.7,1.5,0.9,2.4,0.9c2.3,0,3.3-1.6,3.3-3.3c0-0.7-0.2-1.4-0.8-1.9
		c-0.5-0.5-1.1-0.8-2-1.1l-1.5-0.7c-0.6-0.3-1.5-0.6-2.2-1.4c-0.7-0.7-1.1-1.5-1.1-2.7c0-2.6,2-4.3,4.7-4.3c1,0,1.8,0.2,2.7,0.7
		c0.7,0.5,1.2,1.1,1.6,1.8L107.9,55.8z"/>
	<path class="st1" d="M122.1,54.2h-6.8v4.9h6.6v1.7h-6.6v6.5h6.8v1.7h-8.6V52.5h8.6V54.2z"/>
	<path class="st1" d="M134.7,64.5h-7.1l-2,4.7h-2l7.7-17.5l7.5,17.5h-2L134.7,64.5z M134,62.7l-2.8-6.7l-2.8,6.7H134z"/>
	<path class="st1" d="M148.2,55.8c-0.2-0.5-0.6-0.9-1-1.3c-0.3-0.3-0.9-0.6-1.9-0.6c-1.6,0-2.8,1-2.8,2.6c0,0.6,0.2,1,0.6,1.4
		c0.5,0.5,1.1,0.8,1.7,1l1.6,0.7c1,0.4,1.9,0.9,2.6,1.6c0.8,0.9,1.2,1.8,1.2,3c0,3.1-2.3,5.1-5.3,5.1c-1.1,0-2.5-0.2-3.6-1.3
		c-0.8-0.8-1.3-1.9-1.5-2.9l1.8-0.5c0.1,0.9,0.5,1.6,1,2.1c0.7,0.7,1.5,0.9,2.4,0.9c2.3,0,3.3-1.6,3.3-3.3c0-0.7-0.2-1.4-0.8-1.9
		c-0.5-0.5-1.1-0.8-2-1.1l-1.5-0.7c-0.6-0.3-1.5-0.6-2.2-1.4c-0.7-0.7-1.1-1.5-1.1-2.7c0-2.6,2-4.3,4.7-4.3c1,0,1.8,0.2,2.7,0.7
		c0.7,0.5,1.2,1.1,1.6,1.8L148.2,55.8z"/>
	<path class="st1" d="M162.4,54.2h-6.8v4.9h6.6v1.7h-6.6v6.5h6.8v1.7h-8.6V52.5h8.6V54.2z"/>
</g>
<g id="_x33_cvyh5.tif_1_">
	<g>
		<path class="st2" d="M80.4,152.5c0.2,0.5,0.4,1,0.6,1.4c1.8,3.2,3.8,3.9,7.2,2.5c1-0.4,2-1,3.1-1.3c1.2-0.3,2.5-0.4,4.2-0.6
			c-0.4,0.8-0.5,1.2-0.8,1.5c-2.5,2.3-2.4,5.2-2.3,8.2c0.2,3.4,0.5,6.9,0.7,10.3c0.1,1.4,0.1,2.7,0.1,4.1c0,0.9,0,1.8-0.2,2.6
			c-1.7,5.3-0.7,10.3,1.2,15.3c2.4,6.1,5.3,12,9.4,17.3c3.5,4.5,9.2,6.1,14.3,3.5c3.9-2,7.4-4.4,9.6-8.4c0.4-0.8,1.5-1.5,2.4-1.9
			c5.5-2.4,8.8-7.2,12.7-11.3c1.6-1.8,3-3.8,4.4-5.8c2.8-4,3.4-8.5,2.1-13.2c-0.1-0.5-0.4-1-0.5-1.5c-0.3-2-0.6-4-1-6.4
			c2.2-2.2,5.6-2.8,9-3.5c0.6-0.1,1.2-0.1,1.8-0.2c2.2-0.3,3.6-2.2,3.6-4.7c0-1.9-1.1-2.7-3.6-3c-0.9-0.1-1.7,0-2.6-0.1
			c-0.8,0-1.5,0-2.5-0.5c1.1-0.4,2.3-0.9,3.4-1.3c2.8-1,3.6-1.8,3.2-3.6c-0.5-2.3-2.6-4.2-4.8-3.9c-2.2,0.3-4.4,0.9-6.5,1.6
			c-3,1.1-2.8,1.1-4.7-1.4c-1-1.4-2.3-2.5-3.5-3.8c-0.4-0.4-0.6-1-1.1-1.9c1.6-0.3,2.9-0.6,4.3-0.8c3.1-0.5,3.9-1.4,3.5-4.2
			c-0.4-3.1-1.6-4.1-4.7-3.5c-2.4,0.4-4.7,1.1-7.1,1.6c-0.5,0.1-1,0.1-1.9,0.3c1.5-1.9,3.3-2.4,4.9-3.3c0.5-0.2,0.9-0.4,1.4-0.6
			c3.2-1.3,3.5-1.7,2.6-4.1c-1.1-2.9-3.3-4.2-5.8-3.3c-2.2,0.9-4.2,2-6.4,3c-0.4,0.2-0.8,0.4-1.4,0.7c-1-2.3-1.7-4.7-1.6-7.1
			c0.2-3.5-2.5-5.1-5.3-4.7c-2,0.3-4,0.8-6,1.5c-1.5,0.5-1.7,1.8-1.1,3.2c0.5,1,0.8,2.1,1.4,3.7c-1.5-0.6-2.5-0.8-3.3-1.4
			c-0.5-0.4-1-1.1-1.1-1.8c-0.1-0.7,0.1-1.5,0.2-2.3c0.2-3.2-2.6-5.3-5.6-3.9c-0.7,0.3-1.3,1.3-1.5,2.1c-0.3,1.2-0.2,2.6-0.7,4
			c-0.2-1.1-0.6-2.2-0.6-3.3c-0.1-1.6-0.8-2.3-2.3-2.6c-1.7-0.3-3.1,0.1-4.3,1.3c-0.3,0.3-0.1,1.2,0,1.7c0.6,2.3,1.3,4.6,1.5,7.2
			c-1.3-2.1-2.7-4.2-4-6.2c-1.3-2-2.2-2.1-4.2-0.8c-1.9,1.2-2.5,3-1.3,4.6c1.3,1.9,2.7,3.6,4.1,5.4c0.6,0.8,1,1.5,0.2,2.5
			c-3.2,3.9-3.5,8.3-2,13.4c-2.8,1-5.6,2-8.4,2.9C79.8,148.9,79.3,149.7,80.4,152.5z"/>
	</g>
</g>
<g id="O4ruSV.tif">
	<g>
		<path class="st3" d="M197.7,177.1L197.7,177.1c0,0.9-0.7,1.7-1.7,1.7c-0.7,0-1.5,0-2.2,0c-1.2,0-1.6-0.4-2.1-1.4
			c-1.7-3.4-3.4-6.8-5.3-10.1c-1.2-2.1-2.8-3.8-4.7-5.3c-1.4-1.1-2.9-1.2-4.4-0.3c-2.1,1.3-4.3,2.7-6.2,4.3
			c-4.3,3.6-7.9,7.8-11.5,12.1c-0.4,0.5-1.2,0.7-1.9,0.7c-8.4,0-16.8,0.1-25.1,0c-1,0-1.3,0.3-1.5,1.2c-2.1,8.5-4.2,17-6.4,25.4
			c-0.1,0.5-0.6,0.9-1,1.4c-0.3,0.1-0.6,0.2-1,0.2c-1.1-0.5-1.4-1.5-1.4-2.6c-0.1-2.9-0.2-5.8-0.4-8.7c-0.2-3.4-0.4-6.7-0.6-10.1
			c-0.2-3.4-0.4-6.8-0.6-10.3c-0.2-3.3-0.4-6.6-0.6-10c-0.2-3.4-0.4-6.9-0.6-10.3c-0.2-3.3-0.4-6.6-0.6-10
			c-0.2-3.7-0.5-7.4-0.7-11.2c-0.1-1.7-0.1-3.5-0.2-5.2c-0.2-3.8-0.5-7.7-0.7-11.5c-0.1-1.6-0.1-3.2-0.2-4.9c-0.1-1.3-0.2-2.7-0.4-4
			c-0.1,1.5-0.3,2.9-0.4,4.4c-0.2,2.5-0.2,5-0.4,7.5c-0.2,4.2-0.5,8.4-0.8,12.6c-0.2,2.8-0.3,5.6-0.5,8.4c-0.2,3.5-0.5,6.9-0.7,10.4
			c-0.1,1.1-0.1,2.3-0.2,3.4c-0.2,3.6-0.4,7.2-0.6,10.8c-0.2,2.8-0.4,5.6-0.5,8.5c-0.3,4.2-0.5,8.4-0.8,12.6
			c-0.1,1.4-0.3,2.8-0.3,4.2c0,1-0.5,1.5-1.3,1.7c-0.8,0.2-1.4-0.2-1.8-1c-1.6-3.2-3.1-6.3-4.7-9.5c-0.4-0.9-0.9-1.8-1.3-2.7
			c-0.3-0.7-0.7-1-1.5-1c-6.2,0-12.4,0-18.6,0c-0.9,0-1.5-0.3-2.1-1.1c-2.4-3.4-5.1-6.4-8.6-8.7c-2.7-1.7-5.4-1.3-8.1-0.2
			c-4.8,2-9.2,4.9-13.4,7.8c-0.8,0.5-1.5,1.2-2.3,1.7c-0.4,0.3-1,0.4-1.5,0.4c-0.4,0-0.9,0-1.3,0c-0.9,0-1.7-0.8-1.7-1.7v0
			c0-0.8,0.6-1.6,1.5-1.7c1.2-0.1,2.3-0.6,3.4-1.5c3.7-2.8,7.7-5.3,11.9-7.3c2.2-1,4.4-1.9,6.9-2.1c3-0.3,5.6,1,8,2.6
			c2.9,2,5.2,4.7,7.3,7.5c0.4,0.5,0.8,0.7,1.4,0.7c6.3,0,12.6,0,19,0c1,0,1.7,0.4,2.1,1.3c1.1,2.3,2.3,4.6,3.4,6.8
			c0.2,0.3,0.3,0.6,0.6,1.1c0.1-1.3,0.2-2.3,0.3-3.3c0.3-3.9,0.5-7.8,0.7-11.7c0.1-2.5,0.2-4.9,0.4-7.4c0.2-3.5,0.5-7.1,0.7-10.6
			c0.1-1.1,0.1-2.3,0.2-3.4c0.2-3.6,0.4-7.2,0.6-10.8c0.2-2.8,0.3-5.6,0.5-8.5c0.2-3.4,0.5-6.9,0.7-10.3c0.1-1.2,0.1-2.5,0.2-3.7
			c0.2-3.8,0.5-7.5,0.7-11.3c0.1-1.1,0.1-2.3,0.2-3.4c0.2-3.6,0.4-7.2,0.6-10.8c0.2-2.9,0.4-5.7,0.5-8.6c0.1-0.8,0.1-1.6,0.2-2.4
			c0.1-0.8,0.7-1.5,1.5-1.5c0.8-0.1,1.5,0.3,1.7,1.2c0.2,1.1,0.3,2.3,0.3,3.4c0.1,1.7,0.1,3.5,0.2,5.2c0.2,3.8,0.5,7.7,0.7,11.5
			c0.1,1.2,0.1,2.5,0.2,3.7c0.1,3,0.2,5.9,0.4,8.9c0.2,3.7,0.5,7.4,0.7,11.2c0.1,1.7,0.1,3.4,0.2,5c0.2,3.9,0.5,7.8,0.7,11.7
			c0.1,1.2,0.1,2.5,0.2,3.7c0.1,3,0.2,5.9,0.4,8.9c0.2,3.7,0.5,7.4,0.7,11.2c0.1,1.7,0.1,3.4,0.2,5c0.2,3.9,0.5,7.8,0.7,11.7
			c0.1,1.2,0.1,2.4,0.2,3.6c0.1,3,0.3,5.9,0.4,8.9c0,0.5,0.1,1,0.3,1.6c0.3-1.2,0.7-2.5,1-3.7c1.1-4.3,2.1-8.6,3.2-13
			c0.2-1,0.9-1.4,2-1.4c8.4,0,16.7-0.1,25.1,0c1.6,0,2.4-0.6,3.4-1.7c4.2-4.9,8.5-9.6,13.8-13.4c1.6-1.1,3.3-2.1,5.3-2.5
			c1.9-0.4,3.5,0,5.1,1c2.5,1.5,4.2,3.7,5.8,6c2.1,3.1,3.9,6.4,5.4,9.8c0.2,0.5,0.5,0.8,1.1,0.7c0.2,0,0.5,0,0.7,0
			C196.9,175.4,197.7,176.2,197.7,177.1z"/>
	</g>
</g>
</svg>
