<?xml version="1.0" encoding="utf-8"?>
<!-- Generator: Adobe Illustrator 18.0.0, SVG Export Plug-In . SVG Version: 6.00 Build 0)  -->
<!DOCTYPE svg PUBLIC "-//W3C//DTD SVG 1.1//EN" "http://www.w3.org/Graphics/SVG/1.1/DTD/svg11.dtd">
<svg version="1.1" id="Layer_1" xmlns="http://www.w3.org/2000/svg" xmlns:xlink="http://www.w3.org/1999/xlink" x="0px" y="0px"
	 viewBox="0 0 240 240" style="enable-background:new 0 0 240 240;" xml:space="preserve">
<style type="text/css">
	.st0{fill:none;}
	.st1{fill:#FFFFFF;}
	.st2{fill:#D88C52;}
</style>
<g>
	<rect x="53.4" y="20.9" class="st0" width="133.1" height="48.9"/>
	<path class="st1" d="M59,22.5v16.7h-1.8V22.5H59z"/>
	<path class="st1" d="M63.3,39.2V21.8l13,13.6V22.5h1.8v17.4l-13-13.6v12.9H63.3z"/>
	<path class="st1" d="M90,24.2h-5.7v4.9h5.5v1.7h-5.5v8.2h-1.8V22.5H90V24.2z"/>
	<path class="st1" d="M101.9,24.2h-6.8v4.9h6.6v1.7h-6.6v6.5h6.8v1.7h-8.6V22.5h8.6V24.2z"/>
	<path class="st1" d="M118,26.2c-0.5-0.5-1.3-1.1-2.2-1.5C115,24.2,114,24,113,24c-3.8,0-6.7,3.1-6.7,6.9c0,4.5,3.7,6.8,6.7,6.8
		c1.1,0,2.2-0.3,3.1-0.8c0.9-0.5,1.6-1.1,1.9-1.4v2.3c-1.8,1.3-3.8,1.6-5,1.6c-4.9,0-8.6-3.7-8.6-8.6c0-5,3.7-8.7,8.7-8.7
		c1,0,2.9,0.1,4.9,1.6V26.2z"/>
	<path class="st1" d="M125.5,24.2v14.9h-1.8V24.2h-4v-1.7h9.9v1.7H125.5z"/>
	<path class="st1" d="M133.9,22.5v16.7h-1.8V22.5H133.9z"/>
	<path class="st1" d="M137.3,30.8c0-5,3.9-8.6,8.7-8.6s8.7,3.6,8.7,8.6c0,4.9-3.8,8.6-8.7,8.6C141.2,39.5,137.3,35.8,137.3,30.8z
		 M139.2,30.8c0,3.8,3,6.9,6.8,6.9c3.7,0,6.8-3,6.8-6.9c0-3.8-3-6.9-6.8-6.9C142.3,24,139.2,27,139.2,30.8z"/>
	<path class="st1" d="M159.9,32.7c0,1.4,0,2.9,1.3,4c0.7,0.6,1.8,0.9,2.7,0.9c0.9,0,2.1-0.4,2.7-0.9c1.3-1.1,1.3-2.6,1.3-4V22.5h1.8
		v10.7c0,1.4-0.1,2.7-1,4c-1,1.4-2.7,2.2-4.9,2.2s-3.9-0.9-4.9-2.2c-0.9-1.2-1-2.6-1-4V22.5h1.8V32.7z"/>
	<path class="st1" d="M181.7,25.8c-0.2-0.5-0.6-0.9-1-1.3c-0.3-0.3-0.9-0.6-1.9-0.6c-1.6,0-2.8,1-2.8,2.6c0,0.6,0.2,1,0.6,1.4
		c0.5,0.5,1.1,0.8,1.7,1l1.6,0.7c1,0.4,1.9,0.9,2.6,1.6c0.8,0.9,1.2,1.8,1.2,3c0,3.1-2.3,5.1-5.3,5.1c-1.1,0-2.5-0.2-3.6-1.3
		c-0.8-0.8-1.3-1.9-1.5-2.9l1.8-0.5c0.1,0.9,0.5,1.6,1,2.1c0.7,0.7,1.5,0.9,2.4,0.9c2.3,0,3.3-1.6,3.3-3.3c0-0.7-0.2-1.4-0.8-1.9
		c-0.5-0.5-1.1-0.8-2-1.1l-1.5-0.7c-0.6-0.3-1.5-0.6-2.2-1.4c-0.7-0.7-1.1-1.5-1.1-2.7c0-2.6,2-4.3,4.7-4.3c1,0,1.8,0.2,2.7,0.7
		c0.7,0.5,1.2,1.1,1.6,1.8L181.7,25.8z"/>
	<path class="st1" d="M78.5,52.5h3.4c1.7,0,4,0.2,6.1,1.9c1.5,1.3,2.8,3.4,2.8,6.4c0,3.5-1.7,5.4-2.9,6.4c-1.5,1.3-3.1,1.9-6.1,1.9
		h-3.4V52.5z M80.4,67.4H82c1.3,0,3.1-0.1,4.8-1.5c1.2-1,2.2-2.7,2.2-5.1c0-4-2.8-6.6-7-6.6h-1.6V67.4z"/>
	<path class="st1" d="M96.2,52.5v16.7h-1.8V52.5H96.2z"/>
	<path class="st1" d="M107.9,55.8c-0.2-0.5-0.6-0.9-1-1.3c-0.3-0.3-0.9-0.6-1.9-0.6c-1.6,0-2.8,1-2.8,2.6c0,0.6,0.2,1,0.6,1.4
		c0.5,0.5,1.1,0.8,1.7,1l1.6,0.7c1,0.4,1.9,0.9,2.6,1.6c0.8,0.9,1.2,1.8,1.2,3c0,3.1-2.3,5.1-5.3,5.1c-1.1,0-2.5-0.2-3.6-1.3
		c-0.8-0.8-1.3-1.9-1.5-2.9l1.8-0.5c0.1,0.9,0.5,1.6,1,2.1c0.7,0.7,1.5,0.9,2.4,0.9c2.3,0,3.3-1.6,3.3-3.3c0-0.7-0.2-1.4-0.8-1.9
		c-0.5-0.5-1.1-0.8-2-1.1l-1.5-0.7c-0.6-0.3-1.5-0.6-2.2-1.4c-0.7-0.7-1.1-1.5-1.1-2.7c0-2.6,2-4.3,4.7-4.3c1,0,1.8,0.2,2.7,0.7
		c0.7,0.5,1.2,1.1,1.6,1.8L107.9,55.8z"/>
	<path class="st1" d="M122.1,54.2h-6.8v4.9h6.6v1.7h-6.6v6.5h6.8v1.7h-8.6V52.5h8.6V54.2z"/>
	<path class="st1" d="M134.7,64.5h-7.1l-2,4.7h-2l7.7-17.5l7.5,17.5h-2L134.7,64.5z M134,62.7l-2.8-6.7l-2.8,6.7H134z"/>
	<path class="st1" d="M148.2,55.8c-0.2-0.5-0.6-0.9-1-1.3c-0.3-0.3-0.9-0.6-1.9-0.6c-1.6,0-2.8,1-2.8,2.6c0,0.6,0.2,1,0.6,1.4
		c0.5,0.5,1.1,0.8,1.7,1l1.6,0.7c1,0.4,1.9,0.9,2.6,1.6c0.8,0.9,1.2,1.8,1.2,3c0,3.1-2.3,5.1-5.3,5.1c-1.1,0-2.5-0.2-3.6-1.3
		c-0.8-0.8-1.3-1.9-1.5-2.9l1.8-0.5c0.1,0.9,0.5,1.6,1,2.1c0.7,0.7,1.5,0.9,2.4,0.9c2.3,0,3.3-1.6,3.3-3.3c0-0.7-0.2-1.4-0.8-1.9
		c-0.5-0.5-1.1-0.8-2-1.1l-1.5-0.7c-0.6-0.3-1.5-0.6-2.2-1.4c-0.7-0.7-1.1-1.5-1.1-2.7c0-2.6,2-4.3,4.7-4.3c1,0,1.8,0.2,2.7,0.7
		c0.7,0.5,1.2,1.1,1.6,1.8L148.2,55.8z"/>
	<path class="st1" d="M162.4,54.2h-6.8v4.9h6.6v1.7h-6.6v6.5h6.8v1.7h-8.6V52.5h8.6V54.2z"/>
</g>
<g>
	<path class="st1" d="M114.5,80.9c0,0.5,0,1,0,1.5c-7.8,1.6-14,5.7-18.5,12.4c-3.3,5-5,11-4.7,17c0.3,7.3,3,13.7,8.2,19
		c5.2,5.3,11.7,8.1,19.1,8.6v4.2c-2.5,0.5-4.4,1.8-5.7,4c-1.3,2.2-1.4,4.6-0.6,7l-3.6,2.1c-5.4-8-13-12.5-22.9-13.2
		c-3.9-0.3-7.9,0.4-11.6,1.9c-8,3.3-13.5,8.8-16.5,16.5c-2.5,6.5-2.6,13.1-0.4,19.8l-1.3,0.7c-0.7-0.9-2.5-7.5-2.8-10.5
		c-0.4-3.6-0.4-7.3,0.1-10.9c0.5-3.6,1.5-7.2,3-10.5c1.5-3.4,3.3-6.5,5.7-9.3c2.3-2.9,4.9-5.4,7.9-7.5c3-2.2,6.2-3.9,9.6-5.2
		c0-0.1,0-0.1,0-0.2c-0.4-2.5-0.6-5.1-0.5-7.6c0.3-8,2.6-15.4,7.1-22C90.5,92,96.3,87.2,103.6,84c3-1.3,6.1-2.2,9.3-2.8
		c0.4-0.1,0.9-0.1,1.3-0.2c0.1,0,0.1,0,0.2-0.1C114.4,80.9,114.5,80.9,114.5,80.9z"/>
	<path class="st1" d="M125.6,80.9c0.4,0.1,0.7,0.1,1.1,0.2c7,1.2,13.3,4,18.8,8.4c5,4,8.9,8.9,11.7,14.8c1.4,3,2.4,6.2,3.1,9.5
		c0.6,3,0.8,6,0.8,9.1c-0.1,1.8-0.2,3.6-0.5,5.4c0,0,0,0.1,0,0.2c7.6,2.9,13.8,7.6,18.6,14.1c3.2,4.2,5.4,8.9,6.7,14.1
		c1.3,4.9,1.6,9.9,1.1,15c-0.4,3.8-1.4,7.4-2.8,10.9c-0.4-0.3-0.9-0.5-1.3-0.7c2.7-8.5,1.9-16.6-2.6-24.3c-2-3.3-6.4-7.8-9.7-9.7
		c-6.3-3.7-13-4.9-20-3.7c-2,0.3-4,0.9-5.9,1.7c-5.6,2.4-9.9,6.1-13.1,11l-3.7-2.1c0.8-2.4,0.7-4.8-0.6-7c-1.3-2.2-3.2-3.5-5.7-4
		v-4.2c9.9-0.7,17.8-5.3,23.3-14c2.1-3.4,3.5-7.2,3.9-11.2c0.9-8.5-1.4-15.9-6.6-22.1c-4.3-5.2-9.9-8.4-16.5-9.7c0-0.5,0-1,0-1.5
		C125.5,80.9,125.6,80.9,125.6,80.9z"/>
	<path class="st1" d="M120,198.6c-8.6,6.9-18.5,10-30,9.2c-2.3-0.2-4.6-0.6-6.8-1.2c-9.1-2.7-16.3-7.6-21.8-14.6
		c0.4-0.3,0.9-0.5,1.3-0.7c6.7,7.3,15.1,10.7,25.3,9.7c3.9-0.4,7.7-1.7,11.1-3.8c7.2-4.5,11.7-10.7,13.5-18.7
		c1.5-6.7,0.6-13.1-2.5-19.3c1.2-0.7,2.4-1.4,3.7-2.1c1.7,1.9,3.8,3,6.3,3c2.6,0,4.7-1,6.4-3c1.2,0.7,2.4,1.4,3.6,2.1
		c-4,8.2-4.3,16.4-0.7,24.8c2.5,5.7,6.5,10.1,11.8,13.3c2.3,1.3,4.7,2.3,7.3,3c2.6,0.7,5.2,1,7.9,0.9c2.7-0.1,5.3-0.5,7.8-1.3
		c2.6-0.8,4.9-1.9,7.2-3.4c2.2-1.5,4.2-3.2,6-5.2c0.4,0.3,0.9,0.5,1.3,0.8c-5.8,7.7-15.6,14.4-27.9,15.7
		C139.3,208.9,129,205.7,120,198.6z"/>
	<path class="st2" d="M133.5,186.1c-1.7-2.7-2.9-5.7-3.5-8.9c5.9-2.4,10.5-6.3,13.7-11.8c3.2-5.5,4.3-11.4,3.4-17.7
		c3.1-1.1,6.2-1.5,9.4-1.4C159.1,160.9,151.3,179.2,133.5,186.1z"/>
	<path class="st2" d="M83.4,146.3c3.2-0.1,6.4,0.4,9.5,1.4c-0.9,6.3,0.2,12.2,3.4,17.7c3.2,5.5,7.8,9.4,13.6,11.8
		c-0.2,2.1-2.1,7-3.5,8.9C91.2,180.3,80.8,163.9,83.4,146.3z"/>
	<path class="st2" d="M102.9,130.3c-2.4-2.1-4.4-4.6-5.9-7.5c12.7-10.5,32.5-11,46,0c-1.5,2.8-3.5,5.3-5.9,7.5
		c-5-3.9-10.7-5.9-17.1-5.9C113.6,124.4,108,126.4,102.9,130.3z"/>
</g>
</svg>
