<?xml version="1.0" encoding="utf-8"?>
<!-- Generator: Adobe Illustrator 18.0.0, SVG Export Plug-In . SVG Version: 6.00 Build 0)  -->
<!DOCTYPE svg PUBLIC "-//W3C//DTD SVG 1.1//EN" "http://www.w3.org/Graphics/SVG/1.1/DTD/svg11.dtd">
<svg version="1.1" id="Layer_1" xmlns="http://www.w3.org/2000/svg" xmlns:xlink="http://www.w3.org/1999/xlink" x="0px" y="0px"
	 viewBox="0 0 240 240" style="enable-background:new 0 0 240 240;" xml:space="preserve">
<style type="text/css">
	.st0{fill:none;}
	.st1{fill:#FFFFFF;}
</style>
<g>
	<rect x="57.9" y="20.9" class="st0" width="124.2" height="64.8"/>
	<path class="st1" d="M60.1,39.2l2.8-17.6l6.4,14.1l6.5-14.1l2.6,17.6h-1.9l-1.6-11.6l-5.7,12.3l-5.6-12.3l-1.6,11.6H60.1z"/>
	<path class="st1" d="M90.8,24.2H84v4.9h6.6v1.7H84v6.5h6.8v1.7h-8.6V22.5h8.6V24.2z"/>
	<path class="st1" d="M98.3,24.2v14.9h-1.8V24.2h-4v-1.7h9.9v1.7H98.3z"/>
	<path class="st1" d="M113,34.5h-7.1l-2,4.7h-2l7.7-17.5l7.5,17.5h-2L113,34.5z M112.2,32.7l-2.8-6.7l-2.8,6.7H112.2z"/>
	<path class="st1" d="M122.3,22.5c0.9,0,2.6,0.1,3.8,1c0.5,0.4,1.5,1.4,1.5,3.4c0,0.8-0.2,2.3-1.6,3.3c2.3,0.6,3.2,2.6,3.2,4.2
		s-0.8,2.9-1.7,3.6c-1.3,1-2.8,1.1-4,1.1h-4.1V22.5H122.3z M121.2,29.8h1.4c1,0,3.3-0.2,3.3-2.8c0-2.7-2.7-2.8-3.2-2.8h-1.4V29.8z
		 M121.2,37.4h2.1c1.1,0,2.1-0.1,2.9-0.7c0.6-0.5,1.1-1.3,1.1-2.3c0-1.3-0.8-2.1-1.4-2.4c-0.6-0.4-1.5-0.5-2.8-0.5h-1.9V37.4z"/>
	<path class="st1" d="M131.7,30.8c0-5,3.9-8.6,8.7-8.6s8.7,3.6,8.7,8.6c0,4.9-3.8,8.6-8.7,8.6C135.5,39.5,131.7,35.8,131.7,30.8z
		 M133.6,30.8c0,3.8,3,6.9,6.8,6.9c3.7,0,6.8-3,6.8-6.9c0-3.8-3-6.9-6.8-6.9C136.6,24,133.6,27,133.6,30.8z"/>
	<path class="st1" d="M154.3,22.5v14.9h4.6v1.7h-6.4V22.5H154.3z"/>
	<path class="st1" d="M163.2,22.5v16.7h-1.8V22.5H163.2z"/>
	<path class="st1" d="M180.3,26.2c-0.5-0.5-1.3-1.1-2.2-1.5c-0.9-0.4-1.9-0.6-2.9-0.6c-3.8,0-6.7,3.1-6.7,6.9c0,4.5,3.7,6.8,6.7,6.8
		c1.1,0,2.2-0.3,3.1-0.8c0.9-0.5,1.6-1.1,1.9-1.4v2.3c-1.8,1.3-3.8,1.6-5,1.6c-4.9,0-8.6-3.7-8.6-8.6c0-5,3.7-8.7,8.7-8.7
		c1,0,2.9,0.1,4.9,1.6V26.2z"/>
	<path class="st1" d="M68.3,52.5h3.4c1.7,0,4,0.2,6.1,1.9c1.5,1.3,2.8,3.4,2.8,6.4c0,3.5-1.7,5.4-2.9,6.4c-1.5,1.3-3.1,1.9-6.1,1.9
		h-3.4V52.5z M70.1,67.4h1.6c1.3,0,3.1-0.1,4.8-1.5c1.2-1,2.2-2.7,2.2-5.1c0-4-2.8-6.6-7-6.6h-1.6V67.4z"/>
	<path class="st1" d="M85.9,52.5v16.7h-1.8V52.5H85.9z"/>
	<path class="st1" d="M97.7,55.8c-0.2-0.5-0.6-0.9-1-1.3c-0.3-0.3-0.9-0.6-1.9-0.6c-1.6,0-2.8,1-2.8,2.6c0,0.6,0.2,1,0.6,1.4
		c0.5,0.5,1.1,0.8,1.7,1l1.6,0.7c1,0.4,1.9,0.9,2.6,1.6c0.8,0.9,1.2,1.8,1.2,3c0,3.1-2.3,5.1-5.3,5.1c-1.1,0-2.5-0.2-3.6-1.3
		c-0.8-0.8-1.3-1.9-1.5-2.9l1.8-0.5c0.1,0.9,0.5,1.6,1,2.1c0.7,0.7,1.5,0.9,2.4,0.9c2.3,0,3.3-1.6,3.3-3.3c0-0.7-0.2-1.4-0.8-1.9
		c-0.5-0.5-1.1-0.8-2-1.1l-1.5-0.7c-0.6-0.3-1.5-0.6-2.2-1.4c-0.7-0.7-1.1-1.5-1.1-2.7c0-2.6,2-4.3,4.7-4.3c1,0,1.8,0.2,2.7,0.7
		c0.7,0.5,1.2,1.1,1.6,1.8L97.7,55.8z"/>
	<path class="st1" d="M102.3,60.8c0-5,3.9-8.6,8.7-8.6s8.7,3.6,8.7,8.6c0,4.9-3.8,8.6-8.7,8.6C106.1,69.5,102.3,65.8,102.3,60.8z
		 M104.2,60.8c0,3.8,3,6.9,6.8,6.9c3.7,0,6.8-3,6.8-6.9c0-3.8-3-6.9-6.8-6.9C107.2,54,104.2,57,104.2,60.8z"/>
	<path class="st1" d="M125.7,52.5c1.1,0,2.8,0.1,4,0.9c1,0.6,1.8,1.9,1.8,3.7c0,2.5-1.7,4.4-4.2,4.6l5.3,7.4h-2.2l-5.1-7.3h-0.5v7.3
		H123V52.5H125.7z M124.9,60.2h1.2c2.3,0,3.7-1.1,3.7-3c0-0.9-0.3-1.8-1.3-2.4c-0.7-0.4-1.6-0.5-2.4-0.5h-1.1V60.2z"/>
	<path class="st1" d="M135.6,52.5h3.4c1.7,0,4,0.2,6.1,1.9c1.5,1.3,2.8,3.4,2.8,6.4c0,3.5-1.7,5.4-2.9,6.4c-1.5,1.3-3.1,1.9-6.1,1.9
		h-3.4V52.5z M137.4,67.4h1.6c1.3,0,3.1-0.1,4.8-1.5c1.2-1,2.2-2.7,2.2-5.1c0-4-2.8-6.6-7-6.6h-1.6V67.4z"/>
	<path class="st1" d="M160,54.2h-6.8v4.9h6.6v1.7h-6.6v6.5h6.8v1.7h-8.6V52.5h8.6V54.2z"/>
	<path class="st1" d="M166.1,52.5c1.1,0,2.8,0.1,4,0.9c1,0.6,1.8,1.9,1.8,3.7c0,2.5-1.7,4.4-4.2,4.6l5.3,7.4h-2.2l-5.1-7.3h-0.5v7.3
		h-1.8V52.5H166.1z M165.3,60.2h1.2c2.3,0,3.7-1.1,3.7-3c0-0.9-0.3-1.8-1.3-2.4c-0.7-0.4-1.6-0.5-2.4-0.5h-1.1V60.2z"/>
</g>
<g>
	<g>
		<path class="st1" d="M98,100.7c0-0.1-0.1-0.1-0.1-0.2c-0.1-0.1-0.2-0.2-0.2-0.3C97.1,102.3,99.4,102.5,98,100.7z"/>
		<path class="st1" d="M155.8,138.1c-3.2-10.2-9.3-20.6-8.4-31.5c-4.8,3.3-7.5,9.4-8.5,14.9c-1.1,5.5,0.4,17.7-0.3,23.1
			c-4.5-9.6-3.5-28-7.9-37.9c-3.5-7.6-9.4-16.2-16.9-20.4c-0.5,5.1,0.5,9.6-0.9,14.7c-1.3,4.7-3,9.3-4.8,13.8
			c-3.6,9.4-4.5,9.5-6.6,13.5c-1.3-5.9-0.9-5.5-1-6.5c-0.1-1,1.7-15.4-2.6-21c1.4,1.8-0.9,1.5-0.4-0.5
			c-5.8,21.4-19.4,41.2-17.6,64.2c1.5,20.2,16.7,37.6,37.5,38.9c20.3,1.3,39.2-13,42.2-33.5C161.2,159.1,159,148.4,155.8,138.1z
			 M106.7,158.6C106.8,158.6,106.8,158.6,106.7,158.6c0.3,0.6-0.4-0.1-0.1-0.2C106.7,158.4,106.7,158.5,106.7,158.6z"/>
	</g>
	<g>
		<path class="st1" d="M111.3,183.2c-8.1-4.9-9.2-14.8-4.8-22.7c2.3-4.1,4.9-7.9,7.4-11.9c1.1-1.8,2.2-3.7,3-5.7
			c0.9-2.3,0.5-5.2,1.7-7.3c7.5,9.3,11.3,17.5,8.8,29.2c1.2,0.2,7.5-6.1,7.5-6.1s1.2,2.1,1.5,10.3c0.1,4.2-1.5,8.2-4.3,11.3
			C126.7,186.3,118,187.3,111.3,183.2C103.2,178.3,118,187.3,111.3,183.2z"/>
	</g>
</g>
</svg>
