<?xml version="1.0" encoding="utf-8"?>
<!-- Generator: Adobe Illustrator 18.0.0, SVG Export Plug-In . SVG Version: 6.00 Build 0)  -->
<!DOCTYPE svg PUBLIC "-//W3C//DTD SVG 1.1//EN" "http://www.w3.org/Graphics/SVG/1.1/DTD/svg11.dtd">
<svg version="1.1" id="Layer_1" xmlns="http://www.w3.org/2000/svg" xmlns:xlink="http://www.w3.org/1999/xlink" x="0px" y="0px"
	 viewBox="0 0 240 240" style="enable-background:new 0 0 240 240;" xml:space="preserve">
<style type="text/css">
	.st0{fill:none;}
	.st1{fill:#FFFFFF;}
</style>
<g>
	<rect x="17.5" y="20.9" class="st0" width="205" height="52.4"/>
	<path class="st1" d="M34.7,25.9c-0.5-0.5-1.3-1.1-2.1-1.5c-0.8-0.4-1.8-0.6-2.8-0.6c-3.7,0-6.4,3-6.4,6.7c0,4.3,3.5,6.5,6.5,6.5
		c1.1,0,2.1-0.3,3-0.7c0.9-0.5,1.6-1.1,1.8-1.3v2.2c-1.8,1.3-3.6,1.6-4.8,1.6c-4.8,0-8.3-3.6-8.3-8.2c0-4.8,3.6-8.3,8.4-8.3
		c1,0,2.8,0.1,4.7,1.6V25.9z"/>
	<path class="st1" d="M46.3,24.1h-6.5v4.8h6.3v1.7h-6.3v6.2h6.5v1.7H38v-16h8.3V24.1z"/>
	<path class="st1" d="M49.5,38.4V21.7L62,34.8V22.4h1.8v16.7L51.3,26.1v12.4H49.5z"/>
	<path class="st1" d="M71.9,24.1v14.3h-1.8V24.1h-3.9v-1.7h9.6v1.7H71.9z"/>
	<path class="st1" d="M80.7,22.4c1.1,0,2.7,0.1,3.9,0.9c0.9,0.6,1.8,1.8,1.8,3.6c0,2.4-1.6,4.2-4,4.4l5.1,7.2h-2.2l-4.9-7h-0.5v7
		h-1.8v-16H80.7z M79.9,29.8h1.1c2.2,0,3.5-1.1,3.5-2.9c0-0.9-0.3-1.8-1.3-2.4c-0.7-0.4-1.5-0.5-2.3-0.5h-1.1V29.8z"/>
	<path class="st1" d="M99,33.9h-6.8l-1.9,4.5h-2l7.4-16.8l7.2,16.8h-2L99,33.9z M98.3,32.2l-2.7-6.4l-2.7,6.4H98.3z"/>
	<path class="st1" d="M106.9,22.4v14.3h4.4v1.7h-6.2v-16H106.9z"/>
	<path class="st1" d="M119.3,38.4V21.7l12.5,13.1V22.4h1.8v16.7l-12.5-13.1v12.4H119.3z"/>
	<path class="st1" d="M146,24.1h-6.5v4.8h6.3v1.7h-6.3v6.2h6.5v1.7h-8.3v-16h8.3V24.1z"/>
	<path class="st1" d="M151.8,22.4c1.1,0,2.7,0.1,3.9,0.9c0.9,0.6,1.8,1.8,1.8,3.6c0,2.4-1.6,4.2-4,4.4l5.1,7.2h-2.2l-4.9-7H151v7
		h-1.8v-16H151.8z M151,29.8h1.1c2.2,0,3.5-1.1,3.5-2.9c0-0.9-0.3-1.8-1.3-2.4c-0.7-0.4-1.5-0.5-2.3-0.5H151V29.8z"/>
	<path class="st1" d="M161.4,22.4l4.5,12.2l4.5-12.2h2l-6.5,17l-6.5-17H161.4z"/>
	<path class="st1" d="M173.8,30.4c0-4.8,3.7-8.3,8.3-8.3s8.3,3.5,8.3,8.3c0,4.8-3.7,8.3-8.3,8.3S173.8,35.2,173.8,30.4z M175.6,30.4
		c0,3.7,2.9,6.6,6.5,6.6s6.5-2.9,6.5-6.6s-2.9-6.6-6.5-6.6S175.6,26.8,175.6,30.4z"/>
	<path class="st1" d="M195.5,32.2c0,1.3,0,2.8,1.3,3.9c0.6,0.6,1.8,0.9,2.6,0.9c0.9,0,2-0.4,2.6-0.9c1.3-1.1,1.3-2.5,1.3-3.9v-9.8
		h1.8v10.3c0,1.3-0.1,2.6-1,3.8c-1,1.3-2.6,2.2-4.7,2.2c-2,0-3.7-0.8-4.7-2.2c-0.9-1.2-1-2.5-1-3.8V22.4h1.8V32.2z"/>
	<path class="st1" d="M216.4,25.6c-0.2-0.4-0.6-0.9-0.9-1.2c-0.3-0.2-0.9-0.6-1.8-0.6c-1.6,0-2.7,1-2.7,2.5c0,0.6,0.2,1,0.6,1.4
		c0.5,0.5,1.1,0.7,1.7,1l1.5,0.7c0.9,0.4,1.8,0.8,2.5,1.5c0.8,0.8,1.2,1.8,1.2,2.9c0,3-2.2,4.9-5.1,4.9c-1.1,0-2.4-0.2-3.5-1.3
		c-0.8-0.8-1.3-1.9-1.5-2.8l1.7-0.5c0.1,0.8,0.5,1.6,1,2c0.7,0.7,1.5,0.9,2.3,0.9c2.2,0,3.2-1.6,3.2-3.2c0-0.7-0.2-1.3-0.8-1.9
		c-0.5-0.4-1.1-0.7-1.9-1.1l-1.4-0.7c-0.6-0.3-1.4-0.6-2.1-1.3c-0.7-0.7-1.1-1.4-1.1-2.6c0-2.5,1.9-4.1,4.5-4.1c1,0,1.8,0.2,2.6,0.7
		c0.6,0.4,1.2,1.1,1.6,1.8L216.4,25.6z"/>
	<path class="st1" d="M45.8,55.6c-0.2-0.4-0.6-0.9-0.9-1.2c-0.3-0.2-0.9-0.6-1.8-0.6c-1.6,0-2.7,1-2.7,2.5c0,0.6,0.2,1,0.6,1.4
		c0.5,0.5,1.1,0.7,1.7,1l1.5,0.7c0.9,0.4,1.8,0.8,2.5,1.5c0.8,0.8,1.2,1.8,1.2,2.9c0,3-2.2,4.9-5.1,4.9c-1.1,0-2.4-0.2-3.5-1.3
		c-0.8-0.8-1.3-1.9-1.5-2.8l1.7-0.5c0.1,0.8,0.5,1.6,1,2c0.7,0.7,1.5,0.9,2.3,0.9c2.2,0,3.2-1.6,3.2-3.2c0-0.7-0.2-1.3-0.8-1.9
		c-0.5-0.4-1.1-0.7-1.9-1.1l-1.4-0.7c-0.6-0.3-1.4-0.6-2.1-1.3c-0.7-0.7-1.1-1.4-1.1-2.6c0-2.5,1.9-4.1,4.5-4.1c1,0,1.8,0.2,2.6,0.7
		c0.6,0.4,1.2,1.1,1.6,1.8L45.8,55.6z"/>
	<path class="st1" d="M53.7,61.5l-5.3-9.1h2.1l4.1,7.2l4.1-7.2h2.1l-5.3,9.1v6.9h-1.8V61.5z"/>
	<path class="st1" d="M69.4,55.6c-0.2-0.4-0.6-0.9-0.9-1.2c-0.3-0.2-0.9-0.6-1.8-0.6c-1.6,0-2.7,1-2.7,2.5c0,0.6,0.2,1,0.6,1.4
		c0.5,0.5,1.1,0.7,1.7,1l1.5,0.7c0.9,0.4,1.8,0.8,2.5,1.5c0.8,0.8,1.2,1.8,1.2,2.9c0,3-2.2,4.9-5.1,4.9c-1.1,0-2.4-0.2-3.5-1.3
		c-0.8-0.8-1.3-1.9-1.5-2.8l1.7-0.5c0.1,0.8,0.5,1.6,1,2c0.7,0.7,1.5,0.9,2.3,0.9c2.2,0,3.2-1.6,3.2-3.2c0-0.7-0.2-1.3-0.8-1.9
		c-0.5-0.4-1.1-0.7-1.9-1.1l-1.4-0.7c-0.6-0.3-1.4-0.6-2.1-1.3c-0.7-0.7-1.1-1.4-1.1-2.6c0-2.5,1.9-4.1,4.5-4.1c1,0,1.8,0.2,2.6,0.7
		c0.6,0.4,1.2,1.1,1.6,1.8L69.4,55.6z"/>
	<path class="st1" d="M77.6,54.1v14.3h-1.8V54.1H72v-1.7h9.6v1.7H77.6z"/>
	<path class="st1" d="M92.2,54.1h-6.5v4.8H92v1.7h-6.3v6.2h6.5v1.7h-8.3v-16h8.3V54.1z"/>
	<path class="st1" d="M94.9,68.4l2.7-16.9l6.1,13.5l6.3-13.5l2.5,16.9h-1.8l-1.5-11.1l-5.4,11.8l-5.4-11.8l-1.6,11.1H94.9z"/>
	<path class="st1" d="M121.8,52.4h3.3c1.6,0,3.9,0.2,5.9,1.9c1.5,1.2,2.7,3.3,2.7,6.1c0,3.4-1.7,5.2-2.8,6.1c-1.5,1.2-3,1.8-5.9,1.8
		h-3.2V52.4z M123.6,66.7h1.6c1.3,0,3-0.1,4.6-1.4c1.2-1,2.2-2.6,2.2-4.9c0-3.8-2.7-6.3-6.7-6.3h-1.6V66.7z"/>
	<path class="st1" d="M138.7,52.4v16H137v-16H138.7z"/>
	<path class="st1" d="M150,55.6c-0.2-0.4-0.6-0.9-0.9-1.2c-0.3-0.2-0.9-0.6-1.8-0.6c-1.6,0-2.7,1-2.7,2.5c0,0.6,0.2,1,0.6,1.4
		c0.5,0.5,1.1,0.7,1.7,1l1.5,0.7c0.9,0.4,1.8,0.8,2.5,1.5c0.8,0.8,1.2,1.8,1.2,2.9c0,3-2.2,4.9-5.1,4.9c-1.1,0-2.4-0.2-3.5-1.3
		c-0.8-0.8-1.3-1.9-1.5-2.8l1.7-0.5c0.1,0.8,0.5,1.6,1,2c0.7,0.7,1.5,0.9,2.3,0.9c2.2,0,3.2-1.6,3.2-3.2c0-0.7-0.2-1.3-0.8-1.9
		c-0.5-0.4-1.1-0.7-1.9-1.1l-1.4-0.7c-0.6-0.3-1.4-0.6-2.1-1.3c-0.7-0.7-1.1-1.4-1.1-2.6c0-2.5,1.9-4.1,4.5-4.1c1,0,1.8,0.2,2.6,0.7
		c0.6,0.4,1.2,1.1,1.6,1.8L150,55.6z"/>
	<path class="st1" d="M163.6,54.1h-6.5v4.8h6.3v1.7h-6.3v6.2h6.5v1.7h-8.3v-16h8.3V54.1z"/>
	<path class="st1" d="M175.7,63.9h-6.8l-1.9,4.5h-2l7.4-16.8l7.2,16.8h-2L175.7,63.9z M175,62.2l-2.7-6.4l-2.7,6.4H175z"/>
	<path class="st1" d="M188.7,55.6c-0.2-0.4-0.6-0.9-0.9-1.2c-0.3-0.2-0.9-0.6-1.8-0.6c-1.6,0-2.7,1-2.7,2.5c0,0.6,0.2,1,0.6,1.4
		c0.5,0.5,1.1,0.7,1.7,1l1.5,0.7c0.9,0.4,1.8,0.8,2.5,1.5c0.8,0.8,1.2,1.8,1.2,2.9c0,3-2.2,4.9-5.1,4.9c-1.1,0-2.4-0.2-3.5-1.3
		c-0.8-0.8-1.3-1.9-1.5-2.8l1.7-0.5c0.1,0.8,0.5,1.6,1,2c0.7,0.7,1.5,0.9,2.3,0.9c2.2,0,3.2-1.6,3.2-3.2c0-0.7-0.2-1.3-0.8-1.9
		c-0.5-0.4-1.1-0.7-1.9-1.1l-1.4-0.7c-0.6-0.3-1.4-0.6-2.1-1.3c-0.7-0.7-1.1-1.4-1.1-2.6c0-2.5,1.9-4.1,4.5-4.1c1,0,1.8,0.2,2.6,0.7
		c0.6,0.4,1.2,1.1,1.6,1.8L188.7,55.6z"/>
	<path class="st1" d="M202.3,54.1h-6.5v4.8h6.3v1.7h-6.3v6.2h6.5v1.7H194v-16h8.3V54.1z"/>
</g>
<g>
	<g>
		<path class="st1" d="M152.7,93.9c0.7,0.7,1.6,1.4,2.1,2.3c1.1,2.1,3.2,2.6,5,3.5c-2.1-2.3-3.4-5.6-6.9-6.2
			C152.8,93.7,152.8,93.8,152.7,93.9z"/>
		<path class="st1" d="M175.6,146.6c-0.8,0.1-1.5,0.1-2.2,0.1c-0.7,1.7,0.5,2.4,1.5,3.3c-0.6,1.1-0.6,2.2,1,3.4
			C175.8,151,176.8,148.8,175.6,146.6z"/>
		<path class="st1" d="M132.6,91.3c0.7-0.2,1.5-0.4,2.3-0.7c-0.1,1-0.7,1.5-1.4,1.9c-0.4,0.2-0.8,0.4-1.2,0.7
			c-0.6,0.4-0.8,1-0.6,1.7c0.2,0.7,0.6,1.2,1.4,1.1c0.7,0,1.4-0.2,2.1-0.3c0.6-0.1,1.1-0.4,1.7-0.5c0,0.1,0.1,0.2,0.1,0.4
			c-0.8,0.4-1.7,0.8-2.5,1.2c-1.2,0.7-1.4,1.2-0.4,2.2c0.9,0.9,1.7,1.8,2.1,3c0.1,0.3,0.7,0.8,0.9,0.7c0.5-0.2,1-0.7,1.4-1.1
			c0.1-0.1-0.1-0.5-0.1-0.7c0.1-1.3,1-1.8,2.1-1.2c0.7,0.4,1.3,1,2,1.5c0.7,0.5,1.4,0.8,2.3,0.5c5.2-1.5,9.1,0.3,11.7,4.3
			c0.2,0.3,0.3,0.7,0.5,1.1c-0.6-0.3-0.9-0.8-1.2-1.2c-1.7-2.1-3.7-3.8-6.7-3.7c-0.5,0-1.1,0.1-1.4,0.5c-0.8,1-1.2,2.1-0.7,3.4
			c0.5,1.3,1,2.5,1.5,3.8c1,2.5,2,4.9,0.5,7.6c-0.1,0.2-0.1,0.7,0.1,0.9c0.3,0.2,0.8,0.3,1,0.2c0.8-0.4,1.6-0.9,2.2-1.6
			c1-1.1,2.3-1.9,3.7-2.4c0.3-0.1,0.7-0.3,1.1-0.5c-0.9-1.3-1.8-2.5-2.5-3.8c-0.7-1.3-2.6-1.8-2.5-3.8c0.4,0.1,0.6,0.2,0.7,0.3
			c1,1.1,2,2.2,3,3.3c0.7,0.8,1.5,1,2.4,0.8c1-0.2,1.3-1,1.4-1.9c0-1.2,0.1-2.4,0.1-3.6c0-0.7-0.1-1.5-0.1-2.3
			c0.4,0.1,0.5,0.1,0.6,0.1c1.2,1.7,2.4,3.3,2.3,5.6c0,1.9,0.3,2.2,2.2,2.9c0.3,0.1,0.6,0.3,0.9,0.5c-0.9,0.2-1.7,0.1-2.5,0.1
			c-1.3-0.1-2.6,0.2-3.7,0.9c-0.7,0.4-1.2,1-1,1.9c0.3,0,0.6,0.2,0.9,0.1c2.7-0.4,4.8,0.9,6.6,2.6c0.7,0.7,1.3,1.6,1.9,2.4
			c1.1,1.7,1,1.7,2.9,1.3c0.1,0,0.3-0.1,0.4-0.1c0.4,0.1,1,0.2,1.1,0.5c0.1,0.3-0.1,0.9-0.4,1.1c-0.6,0.6-1.4,1.1-2.3,1.8
			c1.4,1.4,2.4,3,4.2,3.7c0.3,0.1,0.8,0.4,0.9,0.6c0.3,0.8,0.5,1.6,0.9,2.8c-0.7-0.6-1.1-1-1.5-1.4c-1.2-1.2-2.2-2.5-3.5-3.6
			c-1.4-1.1-2.1-2.3-2.5-4c-0.8-2.9-2.8-4.9-5.2-6.5c-0.4-0.3-1.1-0.4-1.6-0.2c-0.3,0.1-0.5,0.7-0.8,1.2c-1.6-1-2.9-0.3-4.2,0.8
			c-0.4,0.4-0.9,0.8-1.3,1.2c-1.9,1.8-4,2.2-6.4,1.3c-1.7-0.7-3.4-0.8-5.1-0.6c-1.3,0.2-2.5,0.1-3.8-0.5c0-1.1,0.8-1.4,1.5-1.6
			c1.2-0.3,2.4-0.7,3.6-0.9c1.7-0.3,2.1-0.7,2.2-2.4c0.1-2-0.4-3.9-1.4-5.8c-1-1.7-2.3-3.3-2.6-5.4c-0.1-0.9-1.2-1.5-2.3-1.4
			c-0.8,0.1-1.6,0.3-2.4,0.7c-2.9,1.4-3.1,3.6-0.7,5.7c0.9,0.7,1.7,1.6,2.3,2.6c0.4,0.5,0.6,1.4-0.1,1.9c-0.6,0.5-1.3,0.5-2,0.1
			c-0.2-0.1-0.5-0.3-0.6-0.5c-0.8-1.1-1.8-1.2-3.1-0.8c-1.4,0.4-1.9,1.5-0.8,2.5c1.3,1.2,1.6,2.6,1.8,4.1c0.2,1.5,0.9,2.7,2.5,3.2
			c1.8,0.5,3.6,0.8,5.5,1.2c0.9,0.2,1.8,0.2,2.7,0.4c2.1,0.5,4.1,1.1,6.1,1.7c1.7,0.5,3.5,1,5.2,1.5c0.5,0.2,0.9,0.5,1.3,0.8
			c0.7,0.6,1.4,1.3,2.1,2c2.2,2.3,4.5,4.4,4.1,8.1c-0.2,1.5,0.7,2,2.2,2c1.1,0,2.2,0,3.1,0c0.7,1.1,1.2,2,1.8,2.9
			c0.4,0.6,0.9,1.5,1.8,1.2c1-0.3,0.8-1.4,0.7-2.2c-0.1-1.3-0.2-2.5-0.3-3.7c0,0,0,0-0.1-0.1c0,0,0-0.1,0-0.1
			c-0.2-0.5-0.5-1-0.8-1.5c-0.5-0.7-0.9-1.5-1.5-1.9c-1.5-1-2.4-2.5-2.7-4.1c-0.5-2.8-2-4.9-3.7-6.9c-0.5-0.6-1-1.2-1.5-1.8
			c-0.2-0.3-0.1-0.7-0.2-1.3c2.8,2.3,4.5,4.9,5.8,7.9c1,2.3,1.7,4.6,3.5,6.4c0.8,0.8,1.2,1.9,1,3.1c0,0,0,0,0,0.1c0,0,0,0.1,0,0.1
			c0.2,0.2,0.6,0.5,0.6,0.7c0.3,2.3,1,4.4,0.8,6.8c0,0.3,0.4,0.7,0.7,1.2c0.2-1.4,0.4-2.5,0.5-3.7c0.1-2,0.4-4,0.2-6
			c-0.2-2.2-0.3-4.3,0-6.5c0.2-1.2,0.3-2.7-1.2-3.6c-0.7-0.4-0.6-1.2-0.2-1.9c0.4-0.7,0.2-1.3-0.1-1.8c-0.8-0.4-1.7-0.6-2.1-1.1
			c-0.6-0.8-0.9-1.8-1.3-2.8c-0.2-0.5-0.4-1.1-0.8-1.4c-1.4-1.1-1.6-2.9-2.4-4.3c-0.1-0.2,0-0.6,0-1.1c1.6,1.2,2,3,3.2,4.1
			c-0.4-1.2-1-2.4-1.3-3.6c-0.7-3.4-2.8-6-4.9-8.6c-0.2-0.3-0.7-0.4-1-0.6c-0.5-0.3-1-0.6-1.5-0.8c-0.9-0.4-1.9-0.8-2.8-1.2
			c-1.6-0.6-3.3-1.2-4.9-1.7c-1.9-0.7-3.9-1.4-5.8-2c-1.2-0.4-2.5-0.5-3.8-0.8c-1.4-0.4-2.5-1.1-2.9-2.6c1.3,1.2,2.9,1.7,4.5,2.1
			c2.1,0.5,4.2,1.2,6.3,1.8c0.3,0.1,0.6,0.1,1.1,0.1c-0.1-0.5-0.1-0.9-0.3-1c-1.1-0.7-2.2-1.4-3.3-1.9c-1.5-0.7-3.1-1.2-4.7-1.9
			c-0.1,0-0.1-0.2-0.1-0.3c0.3-0.1,0.5-0.3,0.8-0.4c-0.5-1.6-1.6-2.2-3.1-2.4c-2-0.2-3.5-1-5.1-2H136c-0.2,0-0.4,0.1-0.6,0.2
			C133.5,88.3,133.1,89.7,132.6,91.3z M168.6,132.2c0.1,0,0.2,0,0.4,0c0,0.5,0.1,1,0,1.5c-0.6,2.2-1.1,3-2.3,3.7
			C167.3,135.8,168,134,168.6,132.2z"/>
		<path class="st1" d="M162,134.5c-1.1-1.6-2.5-2.9-3.9-4.3c-0.4-0.5-1-0.8-1.6-1c-1.2-0.6-2.4-1.2-3.7-1.7
			c-0.8-0.4-1.7-0.7-2.5-0.9c-2.7-0.5-5.5-0.9-8.2-1.3c-1.6-0.2-3.2-0.6-4.5-1.6c-0.9-0.6-1.9-1.2-2.9-1.8c-1,1.3-1.8,2.4-1.5,4
			c0.4,3,2.3,5,5.2,5.7c0.6,0.1,1.2,0.2,1.7,0.4c0.5,0.2,1.1,0.5,1.5,0.9c0.3,0.3,0.4,0.8,0.3,1.2c-0.1,0.2-0.6,0.5-0.9,0.5
			c-0.7,0-1.4-0.1-2.1-0.1c-0.8-0.1-1.5-0.2-2.3-0.2c-1,0-1.7,0.6-2.1,1.5c-0.9,2.2,0.2,6.3,2,7.7c0.7,0.6,1.4,1.1,2.1,1.7
			c1,0.8,1.5,0.7,2.1-0.5c0.2-0.4,0.4-0.8,0.5-1.3c0.4-1.5,1.4-2.1,2.8-2.2c1-0.1,2-0.2,3.1-0.4c1-0.2,1.6-0.7,1.9-1.7
			c0.4-1.4,0.8-2.8,1.2-4.2c0.2-0.7,0.3-1.4,1.4-1.6c0,1,0,1.8-0.1,2.6c-0.2,1.1-0.1,2.1,0.5,3.2c0.5,0.9,1,1.8,1.8,2.5
			c0.7,0.6,1.3,1.3,1.8,2c1.4,2.3,3.7,3.4,6.4,3c1.8-0.2,3.7-0.3,5.6-0.5c-0.2,1.8-0.4,3.4-0.6,5.2c-0.7-0.3-1.3-0.6-1.9-0.9
			c-2.2-1.3-4.6-2-7.2-1.7c-1.8,0.2-2.5,0.9-2.6,2.7c0,0.3,0,0.6,0,1c0,2.6-0.7,5-2.6,6.9c-0.2,0.2-0.2,0.4-0.4,0.8
			c0.5,0.5,0.9,1.1,1.4,1.5c1,0.9,2,1.6,3,2.5c2.3,2,4.2,2,6.5-0.1c0.5-0.5,1.1-1,1.7-1.5c0.1,0.4,0.1,0.5,0.1,0.6
			c-0.1,0.3-0.2,0.6-0.3,0.9c-1.4,2.2-2.9,4.3-6.1,3.8c-0.7-0.1-1.3,0.2-1.6,0.8c-0.8,1.7-2.1,3.1-3.4,4.5c-1.6,1.8-1.5,3.7,0.1,5.5
			c0.2,0.2,0.3,0.4,0.5,0.6c0.9,1,1,2,0.4,3.2c-0.4,0.7-0.7,1.6-0.8,2.4c-0.1,0.5,0,1.3,0.3,1.6c0.4,0.3,1.2,0.3,1.8,0.2
			c0.6-0.2,1.1-0.7,1.6-1.1c0.7-0.5,1.5-1,2.2-1.6c0.7-0.6,1.4-1.3,2.2-2.1c-0.1,1-0.3,1.7-0.2,2.4c0,0.8,0.1,1.7,0.4,2.4
			c0.8,1.8,0.7,2.8-0.5,4.1c-0.7-0.2-1.2-0.3-2-0.5c0.2-0.7,0.4-1.5,0.6-2.4c0.3-1,0.2-1.9-0.6-2.6c-1.2,0.4-1.2,0.4-2.3,1.6
			c-0.5,0.5-1,1.3-1.9,1.1c-1.7-0.4-3.3,0.2-4.9,0.9c-1.3,0.6-2.7,1.1-4.2,1.6c-0.4-1.4,0.4-1.7,1.3-1.9c1.8-0.4,3.5-0.9,4.8-2.2
			c0-0.6,0.1-1.3,0.1-1.9c0.3-2.9-1.3-5.2-4.2-5.5c-3.1-0.3-2.9-0.3-4.1,2.1c-0.7,1.4-1.7,2.2-2.9,3c-0.6,0.4-1.4,0.8-1.9,0
			c-0.5-0.8,0.3-1.1,0.8-1.4c1.8-1.3,3.6-2.6,4.6-4.6c0.3-0.7,0.9-0.9,1.6-0.9c0.5,0,1,0.1,1.5,0.1c1.4,0.1,2.4-0.5,3.2-1.8
			c0.6-1.1,1.4-2,2.1-3c0.5-0.7,1.1-1.4,1.6-2.2c1.4-2.4,1-3.9-1.2-5.7c-1.6-1.2-3-2.6-4.5-3.9c-0.3-0.2-0.4-0.6-0.6-1.1
			c0.6-0.5,1.2-0.8,1.8-1.3c2.5-1.9,3.9-4.2,3.6-7.5c-0.2-1.6-0.1-3.2-0.1-4.8c-0.1-2-1.4-3.1-3.3-2.7c-1.2,0.3-2.3,0.8-3.5,1.1
			c-0.9,0.3-1.5,0.8-1.9,1.7c-1.2,2.4-3.3,3.3-5.8,2.7c-0.7-0.2-1.4-0.6-2.1-1c-2-1.2-2.4-1.1-3.1,1.2c-0.1,0.3-0.3,0.6-0.2,0.9
			c0.1,2.8,0.1,5.6,1.2,8.2c0.3,0.6,0.9,1.1,1.3,1.7c1.3-0.6,1.6-1.6,2.1-2.5c0.4-0.8,0.9-1.8,1.7-2.2c2.2-1.1,4.5-2,6.8-2.9
			c0.3-0.1,1,0,1.2,0.3c0.4,0.5,0.3,1.1-0.3,1.5c-0.6,0.4-1.3,0.7-1.9,0.9c-2.2,0.9-4.1,2.2-5.3,4.3c-1.2,2-1.7,4.1-1.1,6.5
			c0.1,0.3-0.2,1-0.5,1.1c-0.3,0.1-1,0-1.2-0.3c-0.7-0.8-1-1.8-0.7-2.9c0.1-0.4,0.3-0.9,0.4-1.3c0.2-0.8-0.2-1.3-0.8-1.5
			c-0.7-0.3-1.5,0.1-1.8,0.8c-0.1,0.3-0.2,0.8-0.1,1.1c0.2,1,0,1.9-0.3,2.8c-0.5,2.1-0.7,4.3,0.2,6.5c0.4,1,0.6,2.3,0.4,3.4
			c-0.5,2.1-1.1,4-1.3,6.2c-0.2,1.5-0.2,2.6,0.7,3.7c1,1.2,1.9,2.4,3,3.9c-1-0.2-1.6-0.3-2.4-0.5c-0.5,1.2-1,2.3-1.4,3.5
			c-0.1,0.3-0.1,0.8,0.1,1.1c0.8,1.4,1,2.8,0.7,4.5c-0.3,1.5,0.5,2.5,2,2.8c0.9,0.2,1.8,0.2,2.7,0.4c0.4,0.1,0.9,0.3,1.5,0.5
			c-2.2,0.9-4.2,0.4-6.2-0.1c-0.3,1.4,0.5,2.1,1.4,2.1c1.9,0.1,3.8,0.5,5.7-0.5c0.9-0.5,2-0.8,2.9-0.8c3,0.2,5.8-0.1,7.8-2.6
			c0.1-0.2,0.3,0,0.5-0.2c0,0,0,0.3,0,0.3c-0.9,0-1.9,0-2.9,0c0-2,1.1-1.8,2-2.2c0.4,0.8,0.7,1.2,1,2.2c0,0,0,0,0.1,0
			c0,0,0-0.3,0-0.3c0,0,0-0.1,0-0.1c1.3-1,2.7-1.9,3.9-3c1.9-1.7,3.2-4,5.7-5c0.1,0,0.2-0.1,0.3-0.2c0.8-0.6,1.4-1.5,1.1-2.5
			c-0.4-1.3,0.3-2.1,1.2-2.5c1.4-0.6,2.1-1.7,2.3-3.1c0.2-1.1,0.7-1.9,1.6-2.5c1.1-0.8,1.7-1.9,1.9-3.2c0.3-2,0.1-4-0.5-6.1
			c-1.2,2.1-2.2,3.1-4.2,4.4c-0.6,0.4-1.2,0.8-1.8,1.1c-0.5,0.3-0.7,0.8-0.5,1.3c0.4,0.8,0.9,1.6,1.3,2.4c1.5-1.6,2.9-3,4.3-4.4
			c0.1,0.1,0.3,0.2,0.4,0.3c-0.3,0.5-0.5,1-0.9,1.4c-0.9,1.2-1.9,2.4-2.9,3.6c-0.6,0.7-1.1,1.4-2.3,1.5c-0.2-1.1-0.4-2.2-0.5-3.2
			c-0.4-2.8-2.6-4.4-5.4-3.9c-0.4,0.1-0.8,0.3-1.1,0.2c-0.4,0-1.1-0.2-1.1-0.5c-0.1-0.4,0.1-1,0.4-1.3c0.3-0.3,0.9-0.5,1.4-0.6
			c1-0.2,2.1-0.3,3.1-0.3c1.8,0,3.3-0.6,4.7-1.6c0.5-0.4,1-0.8,1.5-1.2c0.7-0.5,1.4-0.8,2.4-0.3c-0.9,1.4-2.3,1.8-3.5,2.5
			c-1.2,0.7-2.4,1.3-3.7,2c0.5,1,1.2,1.6,2.2,1.1c2.1-0.8,4-2.1,5.1-4c1-1.7,1.6-3.8,2.2-5.7c0.6-1.9,0.2-2.6-1.7-3.9
			c0.1,1,0.2,1.9,0.4,2.7c-0.2,0-0.3,0.1-0.5,0.1c-0.2-0.5-0.4-1-0.6-1.5c-0.6-1.7-1.6-3.1-3.5-3.5c-0.7-0.1-1.5-0.4-1.9-0.9
			c-1.1-1.6-2-3.4-2.9-5.2c-0.2-0.5-0.2-1.1-0.4-2c1.5,1,2.7,1.7,3.3,3.1c0.7,1.6,1.9,2.5,3.7,2.7c0.5,0,1.2,0.3,1.3,0.6
			c0.5,1.9,1.8,1.9,3.3,1.5c0.1,0,0.2,0.1,0.4,0.2c-0.6,1.3-0.9,2.6,0,4c1.4-0.9,2.4-1.9,2.6-3.5c0.3-2.2,0-4.2-0.7-6.2
			c-0.8-2.1-1.8-4.3-1.1-6.7c0.2-0.6,0-1.6-0.4-2.2c-1.9-2.9-6.5-3.8-9.4-1.8c-0.8,0.5-1.5,1.1-2.2,1.6c-0.1-1.3,0.5-2.4,1.1-3.4
			C163.2,138.9,163.4,136.6,162,134.5z M141.2,170.9c1.4-0.7,2.1-1.7,2.3-3.3c0.1-0.6,0.5-1.3,0.8-1.9c1.5,0.4,2.8,0.8,4.1,1.2
			c-1.9,3.3-5,5.3-7.8,7.6C139.5,172.9,139.7,171.7,141.2,170.9z M146.7,197.5c0.4,0.4,0.8,0.8,1.3,1.2c-1.1,0.7-2,1.2-3.1,1.8
			c-0.4-1-0.8-2.1-1.4-3.6c0.2-0.3,1-1.1,0.2-1.9c-0.9-0.9-1.9-1.6-3.3-1.3c-0.9,0.2-1.7,0.3-2.7,0.3c2.6-0.9,4.1-3.1,5.7-5.1
			c1.5-1.8,2.9-3.7,4.4-5.6c1.1,1.1,1.1,1.3,0.1,2.1c-1.8,1.5-3.2,3.4-4.4,5.4c-0.7,1.1-0.5,1.6,0.5,2.3c0.8,0.6,1.8,0.9,2.8,1.3
			c0.4,0.2,0.8,0.2,1.6,0.4c-0.7,0.4-1.1,0.7-1.5,1C146.1,196.3,146.1,196.8,146.7,197.5z M153.8,194.2c-0.5-0.1-1.1,0-1.6,0
			c-0.2-2-0.6-1.9-2.1-1.2c0.1-0.4,0.1-0.8,0.2-1.2c0.5-1.3,1.2-1.6,2.5-1.2c1,0.3,2.1,0.5,3.1,0.8c0.2,0.7,0.4,1.3,0.6,2
			C155.6,194.5,155.3,194.6,153.8,194.2z"/>
	</g>
	<g>
		<path class="st1" d="M70.6,158.7c-1.5-0.8-2.3-1.9-2.8-3.5c-0.1-0.5-0.5-0.9-0.9-1.7c-0.9,2.4-1.2,4.6-0.8,6.8
			c0.5,2.3,1.8,3.7,4.4,2C72,161.4,72.1,159.5,70.6,158.7z"/>
		<path class="st1" d="M105,110.8c0.5,0.3,1.4,0.2,2.1,0.3c0.7,0,1.2-0.4,1.2-1.1c-0.1-1.3,0.7-2.1,1.3-3c-0.6-1.1-1.2-2-1.8-3
			c1.7-1.1,2-2.4,1.6-3.9c-0.3-1.6-0.3-1.6-1.5-1.9c0,0.6,0.8,1.2,0.1,2c-0.5-1-0.9-1.8-1.3-2.7c-0.3-0.7-0.3-1.2,0.5-1.7
			c1.6-1.1,1.5-2,0-3.1c-0.7-0.5-1.1-1.2-1.2-2.1c-0.2-1.2-0.7-2.2-2.1-2.5c-0.2,0-0.4,0.2-0.7,0.3c0.6,0.4,1,0.7,1.4,0.9
			c0,0.1-0.1,0.3-0.1,0.4c-0.6,0-1.4,0.2-1.8-0.2c-1.6-1.5-3.2-1.2-5-0.5c-2.3,0.8-4.7,1.1-6.9,2.3c-0.7,0.4-1.5,0.6-2.3,0.9
			c-1.1,0.4-1.9,1.1-2.8,2.1c2.7,0.9,4.9,0.5,7.2-0.6c-0.2-0.5-0.4-0.8-0.6-1.2c1.2,0,2.2,0,3.3,0c2-0.1,4-0.2,6-0.4
			c0.5-0.1,1.1-0.4,1.5-0.8c1.1-1,1.4-1,1.9,0.4c0.1,0.4,0.3,0.9,0.4,1.3c0.1,0.8-0.4,1.3-1.1,0.9c-2.3-1.3-4.7-1.2-7.2-0.7
			c-2.5,0.6-5,1.1-7.4,2.3c-1.2,0.6-2.1,1.5-2.6,2.7c-0.1,0.3-0.2,0.8-0.2,1.1c0.1,0.3,0.4,0.5,0.6,0.8c-0.1-0.1-0.3-0.2-0.4-0.2
			c-0.6,0.8-1.1,1.6-1.8,2.3c-1,0.9-2.1,1.6-3.2,2.3c-0.6,1.1-1.7,1.3-2.7,1.6c-1.7,0.6-3.1,1.5-4.3,2.8c-1.7,2-1.7,3,0.1,5
			c0.2,0.2,0.4,0.4,0.6,0.5c1.6,1.3,3,1.2,4.5-0.2c0.9-0.8,1.6-1.7,2.5-2.5c0.4-0.4,0.9-1,1.7-0.5c0.5,0.9,0.1,1.7-0.3,2.6
			c-0.5,1.2-0.3,1.5,0.9,2.1c0.6,0.3,1.4,0.6,1.8,1.1c0.9,1.5,2.2,1.4,3.6,1.3c0.8,0,1.4-0.2,1.7-1c0.3-0.8,0.3-1.6-0.6-2.3
			c-0.3,0.3-0.5,0.6-0.8,0.9c-0.8,0.9-1.5,1.1-2.2,0.7c-0.9-0.6-0.4-1.3-0.2-2.1c0.4-1.2,1-2.5,1-3.7c0-2.6,1.8-4.3,2.4-6.5
			c1.3,0.4,1.3,0.4,2.1,1.2c0.4,0.5,0.9,0.7,1.5,0.5c0.7-0.3,0.7-0.8,0.7-1.4c0-0.4-0.1-0.9-0.2-1.3c-0.6-2.6-2-4.8-4-6.9
			c1.3-0.1,2.2,0.3,3,1c0.6,0.6,1.2,0.6,1.9,0c0.2-0.2,0.4-0.4,0.7-0.6c-0.9,2.3-0.5,4.4,0.7,6.7c0.9-1.1,1.7-2,2.5-3
			c0.3,0.7,0.4,1.2,0.7,1.5c0.3,0.4,0.8,0.8,1.3,1.1c0.3,0.3,0.8,0.4,1.1,0.6c-0.8,0.2-1.4,0-2,0c-1.4-0.1-2.7,0.2-3.7,1.2
			c-1.1,1.1-2.3,2-3.8,2.5c-0.9,0.3-1.6,1-1.6,2c-0.1,1.4,0,2.8,0.1,4.2c0.1,1.3,1,2,2.2,2.4c1,0.3,2,0.6,2.9,1.1
			c1,0.5,2,1.1,2.9,1.8c0.3,0.2,0.5,1,0.4,1.3c-0.2,0.4-0.9,0.9-1.3,0.9c-1.1,0-2.3-0.1-3.4-0.5c-3.8-1.3-7.9-1.4-11.8-2
			c-1.9-0.3-3.5,0.3-5,1.5c-2,1.5-3.1,3.7-4.5,5.7c-1.2,1.8-1.4,3.5-1,5.5c0.3,1.1,0.5,2.3,0.7,3.4c0.1,0.9,0,1.9-1.1,2.5
			c-0.1-0.5-0.2-0.9-0.3-1.2c-0.4-1-0.9-1.1-1.7-0.3c-0.7,0.7-1.5,1.4-2.2,2.1c-1.2,1.3-2.2,2.7-1.5,4.6c0.6,0.3,1.1,0.5,1.7,0.8
			c1.3,0.6,2.7,0.7,3.8,0.2c2.3-1,4-2.7,4.7-5.3c0.6-2.1,1.4-4.2,2.3-6.2c0.7-1.4,1-2.7,0.1-4.2c-0.8-1.4,0-2.5,1.6-2.7
			c0.6-0.1,1.2,0,1.7-0.1c0.8-0.1,1.7,0,2.3-0.4c1.4-0.8,2.7-0.7,4.1-0.4c2.9,0.5,5.7,0.9,8.7,0.4c2.5-0.4,4.7-1.4,6.1-3.6
			c0.4-0.6,0.9-1.3,1.5-1.8c0.4-0.3,1-0.5,1.5-0.6c1.3-0.1,1.4-0.2,1.4-1.9c-0.4,0.1-0.8,0.1-1.4,0.2c0.3-1.6,0.5-3,0.8-4.3
			c-1.8-1.5-3.2-0.8-4.4,0.3c-1-0.4-1.8-0.7-1.9-1.9C103.1,110.6,103.8,110,105,110.8z"/>
		<path class="st1" d="M83.7,192.1c-1.4-0.5-2.7-0.9-4.3-1.3c-0.2-0.3-0.6-0.9-1-1.7c-0.6,0.8-0.8,1.3-0.6,2.1
			c0.6,2.5,2.3,4,4.3,5.1c0.9,0.5,2,0.5,3,0c0.8-0.4,0.8-1,0.3-1.7c-0.4-0.6-0.7-1.2-1.1-1.8C84.1,192.5,83.9,192.2,83.7,192.1z"/>
		<path class="st1" d="M79.8,168.3c-0.4-1.2-1.2-1.9-2.3-2.4c-0.7-0.3-1.4-0.6-2.1-0.9c-0.9-0.4-1.7-0.4-2.4,0.5
			c-0.2,0.3-0.6,0.6-0.9,0.7c-1.6,0.1-2,1.2-2.3,2.4c-0.1,0.5-0.3,1-0.5,1.4c-1,1.9-1.2,3.8-0.4,5.7c0.8,2,1.6,3.9,2.4,5.9
			c0.3,0.7,0.7,1.3,1.1,2c0.5,0.7,1.1,1.4,1.6,2.1c-0.1,0.1-0.3,0.2-0.4,0.3c-0.6-0.6-1.1-1.3-1.7-1.9c-0.1,0-0.2,0.1-0.2,0.1
			c0.3,0.6,0.5,1.4,1,1.9c1.1,1.1,2.4,1.9,3.7,2.9c0-0.6-0.2-1.5,0.1-1.8c1.3-1.1,0.8-2.5,0.8-3.8c0.1-1.5-0.1-2.8-2-3.4
			c0.4-0.6,0.8-1.1,1-1.6c0.4-1.1,0.8-2.2,0.8-3.3c0-0.5-0.9-1.1-1.5-1.6c-0.8-0.7-1.3-1.6-1.3-2.7c1.1,0.9,2.2,1.7,3.2,2.6
			c0.5-0.4,0.8-0.7,1.2-1c1.5,1.1,3.2,1.7,4.9,1.7c0.9,0,1.7,0.3,2.7,1.1c-3.1,0.8-5.5-0.1-7.8-1.6c-0.6,1.3-0.7,2.6-0.7,3.9
			c0,2.6,1.9,4.1,3.3,6c-1-0.6-2-1.2-3.1-1.9c-0.7,2.5-0.1,4.4,1.4,6.1c0.5,0.6,1.1,1.2,1.3,1.8c0.4,1.1,1.1,1.5,2.2,1.5
			c1.8,0,3.6-0.1,5.4-0.1c0.4,0,0.8-0.3,1.4-0.5c-0.9-1.7-1.6-3.2-2.5-4.8c-2.3,0.5-4.5,1-6.5-0.6c0.7-0.1,1.4,0,2.1,0
			c0.9,0,1.8,0,2.7-0.2c1.1-0.3,1.6-1.5,1.5-2.6c-0.1-1.2-1-1.1-1.9-1.2c-1-0.2-2-0.5-3-0.8c0.6-0.3,1.2-0.4,1.8-0.4
			c1.8,0.1,3.3-0.5,4.8-1.3c2.3-1.2,3.2-4.2,1.8-6.5c-1.8-3-3.6-5.9-5.3-9c-1-1.9-1.7-3.9-0.8-6.1c0.5-1.2-0.2-2-1.6-1.8
			c-2.3,0.2-4.6,0.9-6.6,2c-0.8,0.4-1.5,1.1-2.1,1.7c-1.1,1.2-0.7,2.4,0.7,3.1c1.2,0.6,2.4,1.2,3.6,1.9c1.2,0.7,2,1.6,2.1,3
			c0.1,1.6,0.9,2.8,2.1,3.8c0.4,0.3,1,0.6,0.8,1.5C81.7,171.3,80.4,170.1,79.8,168.3z M75.3,183.6c-0.1,0.1-0.2,0.1-0.3,0.2
			c-0.2-0.3-0.5-0.6-0.7-0.9c-0.3-0.5-0.5-1.1-1-1.4c-1.1-0.7-1.5-1.8-1.9-3c-0.5-1.8-1.2-3.6-1.8-5.5c-0.1-0.3-0.2-0.7-0.2-1
			c0.2,0,0.4-0.1,0.6-0.1c0.6,1.7,1.1,3.4,1.7,5.1c0.4,1.5,0.7,2.9,2.2,3.9C74.6,181.3,74.8,182.7,75.3,183.6z"/>
		<path class="st1" d="M64.6,126.7c-0.1,1.5-0.4,3.1-0.6,4.6c-0.2,1.6-0.3,3.3,0.5,4.7c0.5,1,1.3,1.8,2.1,2.9
			c0.5-0.6,0.9-1.2,1.3-1.8c1.1-1.7,2-3.6,3.3-5.2c1.4-1.6,1.6-3.4,2.1-5.3c-2.1-0.9-3.7,0.3-5.3,0.9c-0.5-0.4-0.9-0.8-1.4-1.2
			c-0.8-0.6-1.2-1.4-1.1-2.4C65,124.8,64.6,125.6,64.6,126.7z"/>
		<path class="st1" d="M65.7,123.9c0.3,0.1,0.7,0,0.9,0.2c1,1,2,0.8,3.2,0.2c0.8-0.4,1.7-0.5,2.6-0.7c1.2-0.2,2.3-0.5,3.3-1.3
			c1.5-1.3,3.2-2.5,4.8-3.8c0.5-0.4,0.9-0.8,1.4-1.1c-0.1-0.1-0.1-0.2-0.2-0.4c-1,0.2-2,0.2-3,0.5c-2.3,0.6-4.2,0.1-5.5-2.1
			c-0.5-0.9-1.4-1.3-2.5-0.8c-0.6,0.2-1.3,0-2,0C67.2,117.6,66.2,120.7,65.7,123.9z"/>
		<path class="st1" d="M68.1,144c-0.2-0.6-0.3-1-0.4-1.3c-2-1.2-2.9-0.8-3,1.5c0,1.4,0.2,2.8,0.3,4.2c0-0.1,0.1-0.3,0.1-0.4
			C65,145.9,65.3,144.1,68.1,144z"/>
		<path class="st1" d="M78.4,103.5c1.2-0.4,2.4-0.6,3.5-0.9c0.7-0.2,1.4-0.5,1.8-0.9c1.8-1.6,1.9-3.9,0.2-6.3
			c-3.4,1.8-5.7,4.6-8.2,7.5C76.7,103.9,77.5,103.8,78.4,103.5z"/>
		<path class="st1" d="M70,112.2c1,0.3,1.9,0.6,2.9,0.9c0-0.8,0-1.2,0-1.6c0-0.4,0-1,0.2-1.3c1.4-1.3,2.7-2.8,4.3-3.8
			c1.4-0.9,3-1.3,4.6-1.8c0.2-0.4,0.3-0.9,0.6-1.5c-0.6,0.1-1.1,0.1-1.5,0.2c-1.4,0.4-2.8,1-4.2,1.3C72.8,105.5,71.3,108.6,70,112.2
			z"/>
		<path class="st1" d="M107.9,197.9c-1-1.1-1.8-2.5-3.5-2.9c-1.5-0.3-2.5-1.3-3-2.8c-0.5-1.3-1.3-2.2-2.6-2.8
			c-2.4-1.1-4.9-2.1-7.4-3.1c0.2-0.1,0.5-0.2,0.7-0.2c2.8,0.3,5.4,1,7.9,2.2c1.3,0.6,2.5,1.5,3.8,2.3c0.4,0.3,0.7,0.7,1.1,1.1
			c0.7,0.9,1.8,1.1,2.6,0.3c1-0.9,1-1.9,0.6-3.2c-0.8,0.3-1.4,0.5-2.2,0.8c0.6-0.8,1.2-1.4,1.6-2.1c1-1.5,1-4.8-0.2-5.8
			c-1.7-1.5-3.4-3.2-5.7-3.9c-0.8-0.2-1.6-0.4-2.3-1.2c0.5-0.1,0.8-0.3,1.1-0.3c1.2,0,2.5,0,3.7,0.1c3.3,0.1,4-1.1,2.4-3.5
			c-0.7-1.1-0.6-2.2,0.2-3.2c0.3-0.4,0.6-0.7,0.9-1c2-2.4,2.8-4.9,1-7.8c-0.7-1.1-0.9-2.3-0.2-3.5c1.6-2.8,0.9-5.6,0.4-8.5
			c-0.2-1.2-0.8-1.5-2-1.3c-1,0.1-2,0.6-2.9,0.9c-1.2,0.4-2.4,1.1-4.2,0.8c0.6-0.7,0.9-1.4,1.5-1.7c1.4-0.9,2.8-1.8,4.3-2.6
			c2-1,2.9-2.6,2.9-4.8c0-1.5,0.4-2.9,0.6-4.4c0.3-1.8,0.9-3.6,0.2-5.5c-0.2-0.7-0.1-1.7,0.1-2.5c0.6-2.3-0.3-4.3-0.7-6.5
			c0-0.1-0.3-0.2-0.5-0.4c-0.3,0.4-0.6,0.7-0.8,1c-1.9,3-4.8,4.6-8.1,5.7c-0.5,0.2-1.2,0.3-1.7,0.2c-1.8-0.3-3.7-0.6-5.5-1.1
			c-2.2-0.7-4.4-0.3-6.4,0.4c-0.7,0.2-1.4,0.8-1.7,1.4c-1.2,2.1-2.3,4.3-3.2,6.6c-0.4,0.9-0.5,1.9-0.5,2.8c0,1.6-0.3,3-1.2,4.2
			c-0.8,1-1,2-1,3.2c0,0.2-0.1,0.3-0.1,0.5c-0.3-0.3-0.6-0.6-0.9-0.9c-0.2,0.1-0.4,0.1-0.5,0.2c-0.2,0.1-0.3,0.3-0.4,0.4
			c-1.6,0.8-3.1,1.7-5,0.3c-1.2-0.9-2.8-0.4-4.1-0.2c-1,0.2-1,1.2-1.4,2c-0.1,0.2-0.2,0.4-0.4,0.6c0,0,0,0,0,0
			c1.2,2.4,2.4,4.7,3.5,7.1c0.2,0.5,0.5,0.9,0.8,1.3c1,1.2,2.5,1.1,3.5-0.1c0.2-0.3,0.4-0.6,0.6-1c0.3-0.7,0.8-0.9,1.5-1.1
			c2.8-0.7,5.5-1.3,8.3-2.1c1.4-0.4,2.7-1.2,2.8-2.8c0.2-1.6,0.6-3.1,1.4-4.6c0.6-1.1,0.6-2.2,0-3.3c-0.4-0.9-0.6-2-0.9-2.9
			c-0.3-1.1-0.1-2,0.6-2.9c1.1,1.1,1.7,2.5,2.3,3.8c1.2,2.3,4.1,2.7,5.8,0.7c0.5-0.5,0.9-1.1,1.3-1.6c0.4,0.2,0.7,0.3,1,0.4
			c1.9,1.1,2,1.7,0.7,3.5c-0.6,0.9-1.2,1.8-1.7,2.8c-1.4,3.1,0.2,6.6,3.5,7.6c0.8,0.2,1.6,0.3,2.5,0.5c0.2,0,0.3,0.6,0.5,0.7
			c-0.3,0.5-0.6,0.7-0.9,1.7c0.6,0,1,0,1.4,0c-0.9,1-0.9,0.8-1.9,0.9c-1.6,0.1-3.2-0.4-4.7-1.1c-1.1-0.5-1.9-1.4-2.3-2.6
			c-0.5-1.8-1.2-3.6-0.7-5.5c0.2-0.7,0.1-1.4,0.1-2.1c0-0.8-0.4-1.2-1.2-1.2c-1.2-0.1-2,0.3-2.4,1.4c-1.3,3.2-2.7,6.4-3.9,9.7
			c-1,2.8-0.9,5.6,1.2,8c0.5,0.5,0.9,1.1,1.2,1.8c1,2.1,2.8,3.5,4.4,5.1c1,1,2.2,1.3,3.6,0.8c0.4-0.1,0.9-0.3,1.3-0.4
			c0.3,0,0.6,0.3,0.8,0.4c-0.6,0.4-1.1,0.8-1.5,1.1c-0.4,0.3-0.7,0.5-1.1,0.7c-3.1,1.7-3.3,5.4-0.3,7.3c1.8,1.1,3.7,2,5.7,3.1
			c-0.6,0-1.3,0.2-1.7,0c-2.3-1.2-5-1.6-7.2-3.3c-1.4-1.1-3.7-0.1-3.9,1.6c-0.4,2.6-0.1,5,1.7,7.1c0.4,0.5,0.9,1,1.1,1.6
			c0.6,1.6,1.4,3,2.5,4.3c2.2,2.9,4.7,5.1,8.6,5c0.6,0,1.4-0.2,2,0.4c-0.4,0.9-1.1,0.6-1.7,0.8c-0.7,0.2-1.5,0.2-2,0.6
			c-1.4,1.1-3,1.2-5.1,1.1c1.3-0.8,2.3-1.5,3.3-2.1c-0.2-0.2-0.3-0.3-0.5-0.4c-2.2-1.4-4.5-2.8-6.3-4.8c-0.4-0.4-0.7-0.9-0.8-1.4
			c-0.3-2-0.7-2.3-2.6-1.8c-0.4,0.1-0.9,0.2-1.3,0.4c-1.3,0.5-1.6,1.2-0.8,2.4c0.6,0.9,1.4,1.7,2.1,2.5c1.1,1.2,2.3,2.5,3.5,3.7
			c-0.1,0.1-0.2,0.2-0.3,0.3c-0.5-0.4-0.9-0.8-1.4-1.2c-0.5-0.4-1.1-0.8-1.7-1.2c-0.1,0.3-0.2,0.4-0.2,0.5c0.8,1.8,3.6,3.6,5.6,3.5
			c1.2,0,2.3-0.1,3.5,0c1.6,0.1,3.2,0,4.7,1h1.6c1.1-1,2.3-2.3,3.4-3.5C108.1,200,108.4,198.4,107.9,197.9z M98.8,133.4
			c-2.8-0.2-3.4,0.1-4.2,3c-0.3-0.4-0.5-0.8-0.7-1.1c-0.3,0.1-0.6,0.2-1,0.4c0-2.4-1.1-4.4-2.5-6.2c1,1,2.3,1.2,3.4,1.7
			c1.6,0.7,3.2,0.8,4.9,0.5c1-0.2,2.1-0.2,3.1-0.2c0.8,0,1.4,0.2,1.8,1.4c-0.7,0.2-1.2,0.5-1.8,0.6
			C100.9,133.5,99.8,133.4,98.8,133.4z M92.5,162c0-0.1,0-0.3,0-0.4c-0.4-0.7-0.8-1.3-1.3-2.2c2.5,0.6,5,1.1,7.4,1.7
			c2.4,0.6,5,0.7,7.6,1.4c-1.5,2.2-2.6,2.6-5.3,1.9C98.2,163.7,95.4,162.8,92.5,162z"/>
	</g>
</g>
</svg>
