<?xml version="1.0" encoding="utf-8"?>
<!-- Generator: Adobe Illustrator 18.0.0, SVG Export Plug-In . SVG Version: 6.00 Build 0)  -->
<!DOCTYPE svg PUBLIC "-//W3C//DTD SVG 1.1//EN" "http://www.w3.org/Graphics/SVG/1.1/DTD/svg11.dtd">
<svg version="1.1" id="Layer_1" xmlns="http://www.w3.org/2000/svg" xmlns:xlink="http://www.w3.org/1999/xlink" x="0px" y="0px"
	 viewBox="0 0 240 240" style="enable-background:new 0 0 240 240;" xml:space="preserve">
<style type="text/css">
	.st0{fill:none;}
	.st1{fill:#FFFFFF;}
</style>
<g>
	<rect x="17.5" y="19.4" class="st0" width="205" height="20.2"/>
	<path class="st1" d="M85.9,29.3c0-5,3.9-8.6,8.7-8.6s8.7,3.6,8.7,8.6c0,4.9-3.8,8.6-8.7,8.6C89.7,38,85.9,34.3,85.9,29.3z
		 M87.8,29.3c0,3.8,3,6.9,6.8,6.9c3.7,0,6.8-3,6.8-6.9c0-3.8-3-6.9-6.8-6.9C90.8,22.5,87.8,25.5,87.8,29.3z"/>
	<path class="st1" d="M109.8,22.7v14.9H108V22.7h-4V21h9.9v1.7H109.8z"/>
	<path class="st1" d="M118.2,27.8h8.5V21h1.8v16.7h-1.8v-8.1h-8.5v8.1h-1.8V21h1.8V27.8z"/>
	<path class="st1" d="M141.6,22.7h-6.8v4.9h6.6v1.7h-6.6v6.5h6.8v1.7h-8.6V21h8.6V22.7z"/>
	<path class="st1" d="M147.7,21c1.1,0,2.8,0.1,4,0.9c1,0.6,1.8,1.9,1.8,3.7c0,2.5-1.7,4.4-4.2,4.6l5.3,7.4h-2.2l-5.1-7.3h-0.5v7.3
		H145V21H147.7z M146.8,28.7h1.2c2.3,0,3.7-1.1,3.7-3c0-0.9-0.3-1.8-1.3-2.4c-0.7-0.4-1.6-0.5-2.4-0.5h-1.1V28.7z"/>
</g>
</svg>
