<?xml version="1.0" encoding="utf-8"?>
<!-- Generator: Adobe Illustrator 18.0.0, SVG Export Plug-In . SVG Version: 6.00 Build 0)  -->
<!DOCTYPE svg PUBLIC "-//W3C//DTD SVG 1.1//EN" "http://www.w3.org/Graphics/SVG/1.1/DTD/svg11.dtd">
<svg version="1.1" id="Layer_1" xmlns="http://www.w3.org/2000/svg" xmlns:xlink="http://www.w3.org/1999/xlink" x="0px" y="0px"
	 viewBox="0 0 240 240" style="enable-background:new 0 0 240 240;" xml:space="preserve">
<style type="text/css">
	.st0{fill:none;}
	.st1{fill:#FFFFFF;}
</style>
<g>
	<rect x="17.1" y="18.1" class="st0" width="205" height="22.9"/>
	<path class="st1" d="M85.5,28c0-5,3.9-8.6,8.7-8.6s8.7,3.6,8.7,8.6c0,4.9-3.8,8.6-8.7,8.6C89.4,36.6,85.5,32.9,85.5,28z M87.4,28
		c0,3.8,3,6.9,6.8,6.9c3.7,0,6.8-3,6.8-6.9c0-3.8-3-6.9-6.8-6.9C90.4,21.1,87.4,24.2,87.4,28z"/>
	<path class="st1" d="M109.5,21.4v14.9h-1.8V21.4h-4v-1.7h9.9v1.7H109.5z"/>
	<path class="st1" d="M117.9,26.4h8.5v-6.8h1.8v16.7h-1.8v-8.1h-8.5v8.1H116V19.7h1.8V26.4z"/>
	<path class="st1" d="M141.2,21.4h-6.8v4.9h6.6v1.7h-6.6v6.5h6.8v1.7h-8.6V19.7h8.6V21.4z"/>
	<path class="st1" d="M147.3,19.7c1.1,0,2.8,0.1,4,0.9c1,0.6,1.8,1.9,1.8,3.7c0,2.5-1.7,4.4-4.2,4.6l5.3,7.4H152L147,29h-0.5v7.3
		h-1.8V19.7H147.3z M146.5,27.4h1.2c2.3,0,3.7-1.1,3.7-3c0-0.9-0.3-1.8-1.3-2.4c-0.7-0.4-1.6-0.5-2.4-0.5h-1.1V27.4z"/>
</g>
<g>
	<path class="st1" d="M171,102.7l19.2-0.8l-8.9,17.1l-2.5-4c-8.9,5.6-18.4,10.2-28.4,13.5c10.1,2.6,19.9,6.3,29.2,11.2l2.2-4.2
		l10.2,16.3l-19.2,0.7l2.1-3.9c-11.2-5.9-23.2-10.1-35.7-12.2c0.3-1.9,0.7-3.7,1-5.6c0.3-1.6,0.2-3.2-0.2-4.8
		c-0.4-1.5-0.8-3.1-1.2-4.6c12.3-3.2,23.9-8.2,34.6-15L171,102.7z"/>
	<path class="st1" d="M170.7,163.8l11.4,15.5l-19.1,2.1l1.9-4.3c-9.6-4.2-18.7-9.6-27.1-16c3.5,9.8,5.8,20.1,6.9,30.5l4.7-0.5
		l-7.9,17.6l-11.3-15.6l4.4-0.5c-1.3-12.6-4.6-24.9-9.7-36.5c1.7-0.8,3.4-1.5,5.2-2.3c1.5-0.7,2.8-1.6,3.9-2.8
		c1.1-1.2,2.1-2.4,3.2-3.6c9.5,8.4,20.2,15.3,31.8,20.4L170.7,163.8z"/>
	<path class="st1" d="M127.3,67l11-15.8l8.1,17.4l-4.7-0.4c-0.9,10.5-3.1,20.8-6.5,30.8c8.2-6.5,17.1-12,26.7-16.3l-2-4.3l19.2,1.8
		L168,96l-1.8-4c-11.5,5.3-22.1,12.3-31.4,20.9c-1.3-1.4-2.6-2.8-3.8-4.2c-1.1-1.2-2.4-2.1-3.9-2.8c-1.5-0.6-2.9-1.2-4.4-1.9
		c4.9-11.7,8-24,9.2-36.6L127.3,67z"/>
	<g>
		<path class="st1" d="M68.3,159.5l-19.2,0.8l8.9-17.1l2.5,4c8.9-5.6,18.4-10.2,28.4-13.5c-10.1-2.6-19.9-6.3-29.2-11.2l-2.2,4.2
			l-10.2-16.3l19.2-0.7l-2.1,3.9c11.2,5.9,23.2,10.1,35.7,12.2c-0.3,1.9-0.7,3.7-1,5.6c-0.3,1.6-0.2,3.2,0.2,4.8
			c0.4,1.5,0.8,3.1,1.2,4.6c-12.3,3.2-23.9,8.2-34.6,15L68.3,159.5z"/>
		<path class="st1" d="M68.6,98.4L57.2,82.8l19.1-2.1l-1.9,4.3c9.6,4.2,18.7,9.6,27.1,16C98,91.2,95.6,81,94.5,70.6l-4.7,0.5
			l7.9-17.6L109,69.1l-4.4,0.5c1.3,12.6,4.6,24.9,9.7,36.5c-1.7,0.8-3.4,1.5-5.2,2.3c-1.5,0.7-2.8,1.6-3.9,2.8
			c-1.1,1.2-2.1,2.4-3.2,3.6c-9.5-8.4-20.2-15.3-31.8-20.4L68.6,98.4z"/>
		<path class="st1" d="M112,195.1l-11,15.8l-8.1-17.4l4.7,0.4c0.9-10.5,3.1-20.8,6.5-30.8c-8.2,6.5-17.1,12-26.7,16.3l2,4.3
			l-19.2-1.8l11.2-15.7l1.8,4c11.5-5.3,22.1-12.3,31.4-20.9c1.3,1.4,2.6,2.8,3.8,4.2c1.1,1.2,2.4,2.1,3.9,2.8
			c1.5,0.6,2.9,1.2,4.4,1.9c-4.9,11.7-8,24-9.2,36.6L112,195.1z"/>
	</g>
	<g>
		<path class="st1" d="M117.9,158.6c-7.1,0-13.7-2.9-18.6-8.1c-4.6-5-7-11.4-6.8-18.2c0.2-6.8,3.1-13.1,8.1-17.7
			c4.7-4.4,10.9-6.8,17.3-6.8c7.1,0,13.7,2.9,18.6,8.1c4.6,5,7,11.4,6.8,18.2c-0.2,6.8-3.1,13.1-8.1,17.7
			C130.5,156.2,124.3,158.6,117.9,158.6z"/>
		<path class="st1" d="M117.5,103v9.2c6,0,11.6,2.4,15.6,6.7c3.8,4.1,5.9,9.5,5.7,15.1c-0.2,5.6-2.5,10.8-6.6,14.6
			c-3.9,3.6-9,5.6-14.3,5.6c-5.9,0-11.4-2.4-15.4-6.7c-3.8-4.1-5.8-9.5-5.6-15.1c0.2-5.6,2.6-10.8,6.7-14.6
			c3.9-3.6,8.8-5.6,14.1-5.6l-0.2-8.8 M117.9,103.4c-7.3,0-14.6,2.6-20.3,8c-12,11.2-12.7,30.1-1.5,42.1c5.9,6.3,13.8,9.5,21.8,9.5
			c7.3,0,14.6-2.6,20.3-8c12-11.2,12.7-30.1,1.5-42.1C133.8,106.6,125.9,103.4,117.9,103.4L117.9,103.4z"/>
	</g>
</g>
</svg>
