<?xml version="1.0" encoding="utf-8"?>
<!-- Generator: Adobe Illustrator 18.0.0, SVG Export Plug-In . SVG Version: 6.00 Build 0)  -->
<!DOCTYPE svg PUBLIC "-//W3C//DTD SVG 1.1//EN" "http://www.w3.org/Graphics/SVG/1.1/DTD/svg11.dtd">
<svg version="1.1" id="Layer_1" xmlns="http://www.w3.org/2000/svg" xmlns:xlink="http://www.w3.org/1999/xlink" x="0px" y="0px"
	 viewBox="0 0 240 240" style="enable-background:new 0 0 240 240;" xml:space="preserve">
<style type="text/css">
	.st0{fill:none;}
	.st1{fill:#FFFFFF;}
	.st2{fill:#D88C52;}
</style>
<g>
	<rect x="46.7" y="19.6" class="st0" width="146.6" height="19.9"/>
	<path class="st1" d="M51.9,21.2c1.1,0,2.8,0.1,4,0.9c1,0.6,1.8,1.9,1.8,3.7c0,2.5-1.7,4.4-4.2,4.6l5.3,7.4h-2.2l-5.1-7.3h-0.5v7.3
		h-1.8V21.2H51.9z M51.1,28.9h1.2c2.3,0,3.7-1.1,3.7-3c0-0.9-0.3-1.8-1.3-2.4c-0.7-0.4-1.6-0.5-2.4-0.5h-1.1V28.9z"/>
	<path class="st1" d="M71,33.1h-7.1l-2,4.7h-2l7.7-17.5L75,37.8h-2L71,33.1z M70.3,31.4l-2.8-6.7l-2.8,6.7H70.3z"/>
	<path class="st1" d="M80,21.2c1.1,0,2.8,0.1,4,0.9c1,0.6,1.8,1.9,1.8,3.7c0,2.5-1.7,4.4-4.2,4.6l5.3,7.4h-2.2l-5.1-7.3h-0.5v7.3
		h-1.8V21.2H80z M79.2,28.9h1.2c2.3,0,3.7-1.1,3.7-3c0-0.9-0.3-1.8-1.3-2.4c-0.7-0.4-1.6-0.5-2.4-0.5h-1.1V28.9z"/>
	<path class="st1" d="M98.6,22.9h-6.8v4.9h6.6v1.7h-6.6v6.5h6.8v1.7h-8.6V21.2h8.6V22.9z"/>
	<path class="st1" d="M107.8,21.2h3.4c1.7,0,4,0.2,6.1,1.9c1.5,1.3,2.8,3.4,2.8,6.4c0,3.5-1.7,5.4-2.9,6.4c-1.5,1.3-3.1,1.9-6.1,1.9
		h-3.4V21.2z M109.6,36.1h1.6c1.3,0,3.1-0.1,4.8-1.5c1.2-1,2.2-2.7,2.2-5.1c0-4-2.8-6.6-7-6.6h-1.6V36.1z"/>
	<path class="st1" d="M125.4,21.2v16.7h-1.8V21.2H125.4z"/>
	<path class="st1" d="M137.2,24.5c-0.2-0.5-0.6-0.9-1-1.3c-0.3-0.3-0.9-0.6-1.9-0.6c-1.6,0-2.8,1-2.8,2.6c0,0.6,0.2,1,0.6,1.4
		c0.5,0.5,1.1,0.8,1.7,1l1.6,0.7c1,0.4,1.9,0.9,2.6,1.6c0.8,0.9,1.2,1.8,1.2,3c0,3.1-2.3,5.1-5.3,5.1c-1.1,0-2.5-0.2-3.6-1.3
		c-0.8-0.8-1.3-1.9-1.5-2.9l1.8-0.5c0.1,0.9,0.5,1.6,1,2.1c0.7,0.7,1.5,0.9,2.4,0.9c2.3,0,3.3-1.6,3.3-3.3c0-0.7-0.2-1.4-0.8-1.9
		c-0.5-0.5-1.1-0.8-2-1.1l-1.5-0.7c-0.6-0.3-1.5-0.6-2.2-1.4c-0.7-0.7-1.1-1.5-1.1-2.7c0-2.6,2-4.3,4.7-4.3c1,0,1.8,0.2,2.7,0.7
		c0.7,0.5,1.2,1.1,1.6,1.8L137.2,24.5z"/>
	<path class="st1" d="M151.3,22.9h-6.8v4.9h6.6v1.7h-6.6v6.5h6.8v1.7h-8.6V21.2h8.6V22.9z"/>
	<path class="st1" d="M163.9,33.1h-7.1l-2,4.7h-2l7.7-17.5l7.5,17.5h-2L163.9,33.1z M163.2,31.4l-2.8-6.7l-2.8,6.7H163.2z"/>
	<path class="st1" d="M177.5,24.5c-0.2-0.5-0.6-0.9-1-1.3c-0.3-0.3-0.9-0.6-1.9-0.6c-1.6,0-2.8,1-2.8,2.6c0,0.6,0.2,1,0.6,1.4
		c0.5,0.5,1.1,0.8,1.7,1l1.6,0.7c1,0.4,1.9,0.9,2.6,1.6c0.8,0.9,1.2,1.8,1.2,3c0,3.1-2.3,5.1-5.3,5.1c-1.1,0-2.5-0.2-3.6-1.3
		c-0.8-0.8-1.3-1.9-1.5-2.9l1.8-0.5c0.1,0.9,0.5,1.6,1,2.1c0.7,0.7,1.5,0.9,2.4,0.9c2.3,0,3.3-1.6,3.3-3.3c0-0.7-0.2-1.4-0.8-1.9
		c-0.5-0.5-1.1-0.8-2-1.1l-1.5-0.7c-0.6-0.3-1.5-0.6-2.2-1.4c-0.7-0.7-1.1-1.5-1.1-2.7c0-2.6,2-4.3,4.7-4.3c1,0,1.8,0.2,2.7,0.7
		c0.7,0.5,1.2,1.1,1.6,1.8L177.5,24.5z"/>
	<path class="st1" d="M191.6,22.9h-6.8v4.9h6.6v1.7h-6.6v6.5h6.8v1.7H183V21.2h8.6V22.9z"/>
</g>
<g>
	<g>
		<g id="QdVzjp.tif_20_">
			<g>
				<path class="st2" d="M54.1,84.3c-0.3,0-0.5,0-0.8,0c0,0.1-0.1,0.3-0.1,0.4c0,3.7,0,7.4,0,11.1c0,0.5,0,1,0,1.5
					c-0.1,1.1-1,1.9-2.1,1.8c-1-0.1-1.8-0.9-1.8-1.9c0-4.9,0-9.9,0-14.8c0-2.7,2.7-5.2,5.1-5.4c3.5-0.2,6.9-0.1,10.4-0.1
					c2,0,3.7,0.8,4.9,2.5c0.6,0.9,1.1,1.9,1.1,2.9c0,4.9,0,9.9,0,14.8c0,1-0.4,1.5-1.3,1.8c-0.9,0.3-1.7,0.1-2.3-0.6
					c-0.3-0.3-0.4-0.7-0.4-1.1c0-1.4,0-2.8,0-4.2c0-2.7,0-5.4,0-8.2c0-0.2,0-0.4,0-0.7c-0.3,0-0.5,0-0.7,0c-0.2,0.3-0.1,0.8-0.1,1.1
					c0,7.4,0,14.8,0,22.2c0,3.3,0,6.7,0,10c0,0.9-0.1,1.8-0.2,2.7c0,0.4-0.2,0.7-0.5,1c-0.9,0.9-2.6,1.1-3.8,0.3
					c-0.6-0.4-0.9-1-0.9-1.8c0-1.4,0-2.7,0-4.1c0-5.1,0-10.2,0-15.3c0-0.4,0-0.8,0-1.3c-0.3,0-0.6,0-1-0.1c0,0.5,0,0.9,0,1.3
					c0,6.4,0,12.8,0,19.2c0,1.3-0.5,2.1-1.5,2.4c-1.2,0.4-2.2,0.3-3.1-0.7c-0.3-0.3-0.5-0.6-0.5-1.1c0-0.5-0.1-1-0.1-1.5
					c0-11,0-22.1-0.1-33.1C54.1,85.2,54.1,84.8,54.1,84.3z"/>
			</g>
		</g>
		<circle class="st2" cx="60.3" cy="71.4" r="4.6"/>
	</g>
	<g>
		<g id="QdVzjp.tif_19_">
			<g>
				<path class="st1" d="M54.1,153.3c-0.3,0-0.5,0-0.8,0c0,0.1-0.1,0.3-0.1,0.4c0,3.7,0,7.4,0,11.1c0,0.5,0,1,0,1.5
					c-0.1,1.1-1,1.9-2.1,1.8c-1-0.1-1.8-0.9-1.8-1.9c0-4.9,0-9.9,0-14.8c0-2.7,2.7-5.2,5.1-5.4c3.5-0.2,6.9-0.1,10.4-0.1
					c2,0,3.7,0.8,4.9,2.5c0.6,0.9,1.1,1.9,1.1,2.9c0,4.9,0,9.9,0,14.8c0,1-0.4,1.5-1.3,1.8c-0.9,0.3-1.7,0.1-2.3-0.6
					c-0.3-0.3-0.4-0.7-0.4-1.1c0-1.4,0-2.8,0-4.2c0-2.7,0-5.4,0-8.2c0-0.2,0-0.4,0-0.7c-0.3,0-0.5,0-0.7,0c-0.2,0.3-0.1,0.8-0.1,1.1
					c0,7.4,0,14.8,0,22.2c0,3.3,0,6.7,0,10c0,0.9-0.1,1.8-0.2,2.7c0,0.4-0.2,0.7-0.5,1c-0.9,0.9-2.6,1.1-3.8,0.3
					c-0.6-0.4-0.9-1-0.9-1.8c0-1.4,0-2.7,0-4.1c0-5.1,0-10.2,0-15.3c0-0.4,0-0.8,0-1.3c-0.3,0-0.6,0-1-0.1c0,0.5,0,0.9,0,1.3
					c0,6.4,0,12.8,0,19.2c0,1.3-0.5,2.1-1.5,2.4c-1.2,0.4-2.2,0.3-3.1-0.7c-0.3-0.3-0.5-0.6-0.5-1.1c0-0.5-0.1-1-0.1-1.5
					c0-11,0-22.1-0.1-33.1C54.1,154.2,54.1,153.8,54.1,153.3z"/>
			</g>
		</g>
		<circle class="st1" cx="60.3" cy="140.4" r="4.6"/>
	</g>
	<g>
		<g id="QdVzjp.tif_18_">
			<g>
				<path class="st1" d="M84.1,84.3c-0.3,0-0.5,0-0.8,0c0,0.1-0.1,0.3-0.1,0.4c0,3.7,0,7.4,0,11.1c0,0.5,0,1,0,1.5
					c-0.1,1.1-1,1.9-2.1,1.8c-1-0.1-1.8-0.9-1.8-1.9c0-4.9,0-9.9,0-14.8c0-2.7,2.7-5.2,5.1-5.4c3.5-0.2,6.9-0.1,10.4-0.1
					c2,0,3.7,0.8,4.9,2.5c0.6,0.9,1.1,1.9,1.1,2.9c0,4.9,0,9.9,0,14.8c0,1-0.4,1.5-1.3,1.8c-0.9,0.3-1.7,0.1-2.3-0.6
					c-0.3-0.3-0.4-0.7-0.4-1.1c0-1.4,0-2.8,0-4.2c0-2.7,0-5.4,0-8.2c0-0.2,0-0.4,0-0.7c-0.3,0-0.5,0-0.7,0c-0.2,0.3-0.1,0.8-0.1,1.1
					c0,7.4,0,14.8,0,22.2c0,3.3,0,6.7,0,10c0,0.9-0.1,1.8-0.2,2.7c0,0.4-0.2,0.7-0.5,1c-0.9,0.9-2.6,1.1-3.8,0.3
					c-0.6-0.4-0.9-1-0.9-1.8c0-1.4,0-2.7,0-4.1c0-5.1,0-10.2,0-15.3c0-0.4,0-0.8,0-1.3c-0.3,0-0.6,0-1-0.1c0,0.5,0,0.9,0,1.3
					c0,6.4,0,12.8,0,19.2c0,1.3-0.5,2.1-1.5,2.4c-1.2,0.4-2.2,0.3-3.1-0.7c-0.3-0.3-0.5-0.6-0.5-1.1c0-0.5-0.1-1-0.1-1.5
					c0-11,0-22.1-0.1-33.1C84.1,85.2,84.1,84.8,84.1,84.3z"/>
			</g>
		</g>
		<circle class="st1" cx="90.3" cy="71.4" r="4.6"/>
	</g>
	<g>
		<g id="QdVzjp.tif_17_">
			<g>
				<path class="st1" d="M84.1,153.3c-0.3,0-0.5,0-0.8,0c0,0.1-0.1,0.3-0.1,0.4c0,3.7,0,7.4,0,11.1c0,0.5,0,1,0,1.5
					c-0.1,1.1-1,1.9-2.1,1.8c-1-0.1-1.8-0.9-1.8-1.9c0-4.9,0-9.9,0-14.8c0-2.7,2.7-5.2,5.1-5.4c3.5-0.2,6.9-0.1,10.4-0.1
					c2,0,3.7,0.8,4.9,2.5c0.6,0.9,1.1,1.9,1.1,2.9c0,4.9,0,9.9,0,14.8c0,1-0.4,1.5-1.3,1.8c-0.9,0.3-1.7,0.1-2.3-0.6
					c-0.3-0.3-0.4-0.7-0.4-1.1c0-1.4,0-2.8,0-4.2c0-2.7,0-5.4,0-8.2c0-0.2,0-0.4,0-0.7c-0.3,0-0.5,0-0.7,0c-0.2,0.3-0.1,0.8-0.1,1.1
					c0,7.4,0,14.8,0,22.2c0,3.3,0,6.7,0,10c0,0.9-0.1,1.8-0.2,2.7c0,0.4-0.2,0.7-0.5,1c-0.9,0.9-2.6,1.1-3.8,0.3
					c-0.6-0.4-0.9-1-0.9-1.8c0-1.4,0-2.7,0-4.1c0-5.1,0-10.2,0-15.3c0-0.4,0-0.8,0-1.3c-0.3,0-0.6,0-1-0.1c0,0.5,0,0.9,0,1.3
					c0,6.4,0,12.8,0,19.2c0,1.3-0.5,2.1-1.5,2.4c-1.2,0.4-2.2,0.3-3.1-0.7c-0.3-0.3-0.5-0.6-0.5-1.1c0-0.5-0.1-1-0.1-1.5
					c0-11,0-22.1-0.1-33.1C84.1,154.2,84.1,153.8,84.1,153.3z"/>
			</g>
		</g>
		<circle class="st1" cx="90.3" cy="140.4" r="4.6"/>
	</g>
	<g>
		<g id="QdVzjp.tif_16_">
			<g>
				<path class="st1" d="M114.1,84.3c-0.3,0-0.5,0-0.8,0c0,0.1-0.1,0.3-0.1,0.4c0,3.7,0,7.4,0,11.1c0,0.5,0,1,0,1.5
					c-0.1,1.1-1,1.9-2.1,1.8c-1-0.1-1.8-0.9-1.8-1.9c0-4.9,0-9.9,0-14.8c0-2.7,2.7-5.2,5.1-5.4c3.5-0.2,6.9-0.1,10.4-0.1
					c2,0,3.7,0.8,4.9,2.5c0.6,0.9,1.1,1.9,1.1,2.9c0,4.9,0,9.9,0,14.8c0,1-0.4,1.5-1.3,1.8c-0.9,0.3-1.7,0.1-2.3-0.6
					c-0.3-0.3-0.4-0.7-0.4-1.1c0-1.4,0-2.8,0-4.2c0-2.7,0-5.4,0-8.2c0-0.2,0-0.4,0-0.7c-0.3,0-0.5,0-0.7,0c-0.2,0.3-0.1,0.8-0.1,1.1
					c0,7.4,0,14.8,0,22.2c0,3.3,0,6.7,0,10c0,0.9-0.1,1.8-0.2,2.7c0,0.4-0.2,0.7-0.5,1c-0.9,0.9-2.6,1.1-3.8,0.3
					c-0.6-0.4-0.9-1-0.9-1.8c0-1.4,0-2.7,0-4.1c0-5.1,0-10.2,0-15.3c0-0.4,0-0.8,0-1.3c-0.3,0-0.6,0-1-0.1c0,0.5,0,0.9,0,1.3
					c0,6.4,0,12.8,0,19.2c0,1.3-0.5,2.1-1.5,2.4c-1.2,0.4-2.2,0.3-3.1-0.7c-0.3-0.3-0.5-0.6-0.5-1.1c0-0.5-0.1-1-0.1-1.5
					c0-11,0-22.1-0.1-33.1C114.1,85.2,114.1,84.8,114.1,84.3z"/>
			</g>
		</g>
		<circle class="st1" cx="120.3" cy="71.4" r="4.6"/>
	</g>
	<g>
		<g id="QdVzjp.tif_15_">
			<g>
				<path class="st1" d="M114.1,153.3c-0.3,0-0.5,0-0.8,0c0,0.1-0.1,0.3-0.1,0.4c0,3.7,0,7.4,0,11.1c0,0.5,0,1,0,1.5
					c-0.1,1.1-1,1.9-2.1,1.8c-1-0.1-1.8-0.9-1.8-1.9c0-4.9,0-9.9,0-14.8c0-2.7,2.7-5.2,5.1-5.4c3.5-0.2,6.9-0.1,10.4-0.1
					c2,0,3.7,0.8,4.9,2.5c0.6,0.9,1.1,1.9,1.1,2.9c0,4.9,0,9.9,0,14.8c0,1-0.4,1.5-1.3,1.8c-0.9,0.3-1.7,0.1-2.3-0.6
					c-0.3-0.3-0.4-0.7-0.4-1.1c0-1.4,0-2.8,0-4.2c0-2.7,0-5.4,0-8.2c0-0.2,0-0.4,0-0.7c-0.3,0-0.5,0-0.7,0c-0.2,0.3-0.1,0.8-0.1,1.1
					c0,7.4,0,14.8,0,22.2c0,3.3,0,6.7,0,10c0,0.9-0.1,1.8-0.2,2.7c0,0.4-0.2,0.7-0.5,1c-0.9,0.9-2.6,1.1-3.8,0.3
					c-0.6-0.4-0.9-1-0.9-1.8c0-1.4,0-2.7,0-4.1c0-5.1,0-10.2,0-15.3c0-0.4,0-0.8,0-1.3c-0.3,0-0.6,0-1-0.1c0,0.5,0,0.9,0,1.3
					c0,6.4,0,12.8,0,19.2c0,1.3-0.5,2.1-1.5,2.4c-1.2,0.4-2.2,0.3-3.1-0.7c-0.3-0.3-0.5-0.6-0.5-1.1c0-0.5-0.1-1-0.1-1.5
					c0-11,0-22.1-0.1-33.1C114.1,154.2,114.1,153.8,114.1,153.3z"/>
			</g>
		</g>
		<circle class="st1" cx="120.3" cy="140.4" r="4.6"/>
	</g>
	<g>
		<g id="QdVzjp.tif_14_">
			<g>
				<path class="st1" d="M144.1,84.3c-0.3,0-0.5,0-0.8,0c0,0.1-0.1,0.3-0.1,0.4c0,3.7,0,7.4,0,11.1c0,0.5,0,1,0,1.5
					c-0.1,1.1-1,1.9-2.1,1.8c-1-0.1-1.8-0.9-1.8-1.9c0-4.9,0-9.9,0-14.8c0-2.7,2.7-5.2,5.1-5.4c3.5-0.2,6.9-0.1,10.4-0.1
					c2,0,3.7,0.8,4.9,2.5c0.6,0.9,1.1,1.9,1.1,2.9c0,4.9,0,9.9,0,14.8c0,1-0.4,1.5-1.3,1.8c-0.9,0.3-1.7,0.1-2.3-0.6
					c-0.3-0.3-0.4-0.7-0.4-1.1c0-1.4,0-2.8,0-4.2c0-2.7,0-5.4,0-8.2c0-0.2,0-0.4,0-0.7c-0.3,0-0.5,0-0.7,0c-0.2,0.3-0.1,0.8-0.1,1.1
					c0,7.4,0,14.8,0,22.2c0,3.3,0,6.7,0,10c0,0.9-0.1,1.8-0.2,2.7c0,0.4-0.2,0.7-0.5,1c-0.9,0.9-2.6,1.1-3.8,0.3
					c-0.6-0.4-0.9-1-0.9-1.8c0-1.4,0-2.7,0-4.1c0-5.1,0-10.2,0-15.3c0-0.4,0-0.8,0-1.3c-0.3,0-0.6,0-1-0.1c0,0.5,0,0.9,0,1.3
					c0,6.4,0,12.8,0,19.2c0,1.3-0.5,2.1-1.5,2.4c-1.2,0.4-2.2,0.3-3.1-0.7c-0.3-0.3-0.5-0.6-0.5-1.1c0-0.5-0.1-1-0.1-1.5
					c0-11,0-22.1-0.1-33.1C144.1,85.2,144.1,84.8,144.1,84.3z"/>
			</g>
		</g>
		<circle class="st1" cx="150.3" cy="71.4" r="4.6"/>
	</g>
	<g>
		<g id="QdVzjp.tif_13_">
			<g>
				<path class="st1" d="M144.1,153.3c-0.3,0-0.5,0-0.8,0c0,0.1-0.1,0.3-0.1,0.4c0,3.7,0,7.4,0,11.1c0,0.5,0,1,0,1.5
					c-0.1,1.1-1,1.9-2.1,1.8c-1-0.1-1.8-0.9-1.8-1.9c0-4.9,0-9.9,0-14.8c0-2.7,2.7-5.2,5.1-5.4c3.5-0.2,6.9-0.1,10.4-0.1
					c2,0,3.7,0.8,4.9,2.5c0.6,0.9,1.1,1.9,1.1,2.9c0,4.9,0,9.9,0,14.8c0,1-0.4,1.5-1.3,1.8c-0.9,0.3-1.7,0.1-2.3-0.6
					c-0.3-0.3-0.4-0.7-0.4-1.1c0-1.4,0-2.8,0-4.2c0-2.7,0-5.4,0-8.2c0-0.2,0-0.4,0-0.7c-0.3,0-0.5,0-0.7,0c-0.2,0.3-0.1,0.8-0.1,1.1
					c0,7.4,0,14.8,0,22.2c0,3.3,0,6.7,0,10c0,0.9-0.1,1.8-0.2,2.7c0,0.4-0.2,0.7-0.5,1c-0.9,0.9-2.6,1.1-3.8,0.3
					c-0.6-0.4-0.9-1-0.9-1.8c0-1.4,0-2.7,0-4.1c0-5.1,0-10.2,0-15.3c0-0.4,0-0.8,0-1.3c-0.3,0-0.6,0-1-0.1c0,0.5,0,0.9,0,1.3
					c0,6.4,0,12.8,0,19.2c0,1.3-0.5,2.1-1.5,2.4c-1.2,0.4-2.2,0.3-3.1-0.7c-0.3-0.3-0.5-0.6-0.5-1.1c0-0.5-0.1-1-0.1-1.5
					c0-11,0-22.1-0.1-33.1C144.1,154.2,144.1,153.8,144.1,153.3z"/>
			</g>
		</g>
		<circle class="st1" cx="150.3" cy="140.4" r="4.6"/>
	</g>
	<g>
		<g id="QdVzjp.tif_12_">
			<g>
				<path class="st1" d="M174.1,84.3c-0.3,0-0.5,0-0.8,0c0,0.1-0.1,0.3-0.1,0.4c0,3.7,0,7.4,0,11.1c0,0.5,0,1,0,1.5
					c-0.1,1.1-1,1.9-2.1,1.8c-1-0.1-1.8-0.9-1.8-1.9c0-4.9,0-9.9,0-14.8c0-2.7,2.7-5.2,5.1-5.4c3.5-0.2,6.9-0.1,10.4-0.1
					c2,0,3.7,0.8,4.9,2.5c0.6,0.9,1.1,1.9,1.1,2.9c0,4.9,0,9.9,0,14.8c0,1-0.4,1.5-1.3,1.8c-0.9,0.3-1.7,0.1-2.3-0.6
					c-0.3-0.3-0.4-0.7-0.4-1.1c0-1.4,0-2.8,0-4.2c0-2.7,0-5.4,0-8.2c0-0.2,0-0.4,0-0.7c-0.3,0-0.5,0-0.7,0c-0.2,0.3-0.1,0.8-0.1,1.1
					c0,7.4,0,14.8,0,22.2c0,3.3,0,6.7,0,10c0,0.9-0.1,1.8-0.2,2.7c0,0.4-0.2,0.7-0.5,1c-0.9,0.9-2.6,1.1-3.8,0.3
					c-0.6-0.4-0.9-1-0.9-1.8c0-1.4,0-2.7,0-4.1c0-5.1,0-10.2,0-15.3c0-0.4,0-0.8,0-1.3c-0.3,0-0.6,0-1-0.1c0,0.5,0,0.9,0,1.3
					c0,6.4,0,12.8,0,19.2c0,1.3-0.5,2.1-1.5,2.4c-1.2,0.4-2.2,0.3-3.1-0.7c-0.3-0.3-0.5-0.6-0.5-1.1c0-0.5-0.1-1-0.1-1.5
					c0-11,0-22.1-0.1-33.1C174.1,85.2,174.1,84.8,174.1,84.3z"/>
			</g>
		</g>
		<circle class="st1" cx="180.3" cy="71.4" r="4.6"/>
	</g>
	<g>
		<g id="QdVzjp.tif_11_">
			<g>
				<path class="st1" d="M174.1,153.3c-0.3,0-0.5,0-0.8,0c0,0.1-0.1,0.3-0.1,0.4c0,3.7,0,7.4,0,11.1c0,0.5,0,1,0,1.5
					c-0.1,1.1-1,1.9-2.1,1.8c-1-0.1-1.8-0.9-1.8-1.9c0-4.9,0-9.9,0-14.8c0-2.7,2.7-5.2,5.1-5.4c3.5-0.2,6.9-0.1,10.4-0.1
					c2,0,3.7,0.8,4.9,2.5c0.6,0.9,1.1,1.9,1.1,2.9c0,4.9,0,9.9,0,14.8c0,1-0.4,1.5-1.3,1.8c-0.9,0.3-1.7,0.1-2.3-0.6
					c-0.3-0.3-0.4-0.7-0.4-1.1c0-1.4,0-2.8,0-4.2c0-2.7,0-5.4,0-8.2c0-0.2,0-0.4,0-0.7c-0.3,0-0.5,0-0.7,0c-0.2,0.3-0.1,0.8-0.1,1.1
					c0,7.4,0,14.8,0,22.2c0,3.3,0,6.7,0,10c0,0.9-0.1,1.8-0.2,2.7c0,0.4-0.2,0.7-0.5,1c-0.9,0.9-2.6,1.1-3.8,0.3
					c-0.6-0.4-0.9-1-0.9-1.8c0-1.4,0-2.7,0-4.1c0-5.1,0-10.2,0-15.3c0-0.4,0-0.8,0-1.3c-0.3,0-0.6,0-1-0.1c0,0.5,0,0.9,0,1.3
					c0,6.4,0,12.8,0,19.2c0,1.3-0.5,2.1-1.5,2.4c-1.2,0.4-2.2,0.3-3.1-0.7c-0.3-0.3-0.5-0.6-0.5-1.1c0-0.5-0.1-1-0.1-1.5
					c0-11,0-22.1-0.1-33.1C174.1,154.2,174.1,153.8,174.1,153.3z"/>
			</g>
		</g>
		<circle class="st1" cx="180.3" cy="140.4" r="4.6"/>
	</g>
</g>
</svg>
