<?xml version="1.0" encoding="utf-8"?>
<!-- Generator: Adobe Illustrator 18.0.0, SVG Export Plug-In . SVG Version: 6.00 Build 0)  -->
<!DOCTYPE svg PUBLIC "-//W3C//DTD SVG 1.1//EN" "http://www.w3.org/Graphics/SVG/1.1/DTD/svg11.dtd">
<svg version="1.1" id="Layer_1" xmlns="http://www.w3.org/2000/svg" xmlns:xlink="http://www.w3.org/1999/xlink" x="0px" y="0px"
	 viewBox="0 0 240 240" style="enable-background:new 0 0 240 240;" xml:space="preserve">
<style type="text/css">
	.st0{fill:#D88C52;stroke:#D88C52;stroke-miterlimit:10;}
	.st1{fill:#FFFFFF;}
	.st2{fill:none;}
</style>
<g>
	<g id="uAsOUE.tif_1_">
		<g>
			<path class="st0" d="M77.4,141.1c4.8,7.6,9.7,15.2,14.5,22.7c0.8-0.3,3.4-2.1,3.7-2.4c-4.8-7.6-9.7-15.1-14.5-22.7
				C79.8,139.3,78.5,140.1,77.4,141.1z M100.1,156.8c-4.3-6.7-8.5-13.4-12.8-20.1c-1.5,0.2-3,0.6-4.4,1.2
				c4.7,7.4,9.5,14.9,14.2,22.3C97.7,159.6,99.6,157.5,100.1,156.8z M160.1,119.3c-4.5-7.1-9.1-14.3-13.6-21.4
				c-1.3,0.7-2.4,1.5-3.5,2.3c4.5,7.1,9,14.1,13.5,21.2C157.4,121.1,159.6,119.8,160.1,119.3z M108.8,122.8c0,0-0.1,0.1-0.1,0.1
				c-0.2,0.3-0.3,0.5-0.4,0.8c-0.7,1.3-1.2,2.6-1.6,4c0,0.1,0,0.3,0.1,0.4c3,4.7,6,9.3,8.9,14c0,0,0,0,0,0.1c0,0.1,0.1,0.1,0.2,0.1
				c1.6,0.2,3.3,0.3,4.9,0.1c0.1,0,0.2,0,0.4-0.1C117.1,135.8,113,129.3,108.8,122.8z M89.5,136.5c3.9,6.2,7.8,12.3,11.8,18.4
				c0.1-0.2,0.2-0.3,0.2-0.4c0.6-1.2,1.1-2.5,1.5-3.8c0-0.1,0-0.2-0.1-0.4c-2.8-4.4-5.7-8.9-8.5-13.3c-0.1-0.1-0.2-0.2-0.3-0.2
				c-0.1,0-0.2,0-0.3-0.1c-1.2-0.2-2.3-0.3-3.5-0.3C90,136.5,89.8,136.5,89.5,136.5z M113.2,141.7c-2.4-3.7-4.7-7.4-7.1-11.2
				c-0.1,0.3-0.1,0.7-0.2,1c-0.1,1-0.2,2-0.3,3c-0.1,1.4-0.1,2.8,0,4.2c0,0.1,0,0.2,0.1,0.2c1.1,0.6,2.3,1.1,3.4,1.5
				c1.1,0.4,2.3,0.8,3.5,1.1C112.8,141.7,112.9,141.7,113.2,141.7z M103.6,147.8c0-0.1,0-0.1,0-0.1c0.1-1,0.2-1.9,0.2-2.9
				c0-1.1-0.1-2.2-0.2-3.2c0-0.4-0.1-0.7-0.2-1.1c0-0.1,0-0.1-0.1-0.2c-1.1-0.6-2.2-1.2-3.4-1.6c-0.9-0.4-1.8-0.7-2.7-1
				c0,0-0.1,0-0.1,0C99.2,141,101.4,144.4,103.6,147.8z M132.1,119.5c0,0,0-0.1,0-0.1c0-0.5,0-1,0-1.5c0.1-1.6,0.3-3.2,0.6-4.7
				c0.1-0.6,0.3-1.2,0.4-1.8c0.3-1.2,0.7-2.3,1.2-3.4c0.5-1.2,1.1-2.4,1.9-3.5c0.8-1.3,1.8-2.5,2.8-3.6c0.7-0.8,1.5-1.5,2.3-2.1
				c0.7-0.5,1.4-1.1,2.1-1.5c0.5-0.3,1-0.6,1.6-1c0.4-0.3,0.9-0.5,1.4-0.7c0.7-0.3,1.4-0.6,2.1-1c0.2-0.1,0.5-0.1,0.7,0
				c0.5,0.1,0.8,0.6,0.8,1c0,0.5-0.2,1-0.7,1.2c-0.2,0.1-0.5,0.2-0.7,0.3c-0.1,0.1-0.2,0.1-0.3,0.2c4.5,7,9,14.1,13.5,21.1
				c0,0,0.1-0.1,0.1-0.1c0.3-0.2,0.5-0.5,0.8-0.7c0.4-0.3,0.8-0.4,1.3-0.1c0.1,0.1,0.2,0.2,0.4,0.3c0.1,0.1,0.1,0.2,0.2,0.2
				c0,0,0,0.1,0,0.1c0.2,0.4,0.1,0.9-0.3,1.3c-0.2,0.2-0.4,0.4-0.7,0.6c-0.4,0.3-0.7,0.6-1.1,0.8c-0.5,0.3-0.9,0.7-1.4,1
				c-0.5,0.3-1,0.6-1.4,0.9c-0.3,0.2-0.5,0.3-0.8,0.5c-0.4,0.2-0.9,0.5-1.3,0.7c-0.6,0.3-1.3,0.6-1.9,0.9c-0.9,0.4-1.9,0.7-2.9,1
				c-1.2,0.3-2.4,0.5-3.6,0.7c-1.2,0.1-2.5,0.2-3.7,0.2c-1.3,0-2.7-0.2-4-0.5c-0.8-0.2-1.5-0.3-2.3-0.6c-1.3-0.4-2.5-0.8-3.7-1.4
				c-0.3-0.1-0.5-0.2-0.8-0.4 M134.8,123.4c0,0.1,0,0.1,0,0.2c0,0.7-0.1,1.5-0.1,2.2c-0.1,1.7-0.3,3.3-0.6,4.9
				c-0.2,1.1-0.5,2.1-0.8,3.1c-0.4,1.4-1,2.7-1.7,3.9c-0.6,1.1-1.4,2.1-2.3,3c-0.7,0.7-1.4,1.3-2.3,1.8c-0.2,0.1-0.3,0.2-0.5,0.3
				c-0.3,0.2-0.6,0.3-0.9,0.5c-1,0.5-2.1,0.8-3.1,1.1c-1.4,0.3-2.7,0.4-4.1,0.4c-1.5,0-3-0.2-4.4-0.5c-1-0.2-1.9-0.4-2.9-0.7
				c-1.7-0.5-3.4-1.1-5.1-1.9c0,0-0.1,0-0.2-0.1c0,0.5,0.1,1,0.1,1.5c0.1,1.5,0.1,2.9-0.1,4.4c-0.1,1-0.3,2-0.5,3
				c-0.1,0.4-0.2,0.8-0.3,1.3c-0.3,0.9-0.6,1.9-1.1,2.8c-0.5,1-1,1.9-1.6,2.9c-0.5,0.8-1.1,1.6-1.7,2.3c-0.7,0.8-1.4,1.5-2.2,2.2
				c-0.4,0.3-0.7,0.6-1.1,0.9c-0.4,0.3-0.7,0.6-1.1,0.8c-0.2,0.2-0.5,0.3-0.7,0.5c0,0,0,0-0.1,0.1c-0.4,0.3-0.8,0.5-1.2,0.8
				c0,0,0,0-0.1,0c-0.2,0.1-0.4,0.2-0.5,0.3c-0.2,0.1-0.3,0.2-0.5,0.3c-0.6,0.3-1.1,0.6-1.7,0.8c-0.5,0.2-1,0.4-1.5,0.6
				c-0.3,0.1-0.6,0.1-0.8-0.1c-0.1-0.1-0.3-0.2-0.4-0.3c-0.1-0.1-0.1-0.2-0.2-0.3c0-0.1,0-0.1,0-0.2c-0.1-0.4,0-0.7,0.2-1
				c0.1-0.2,0.3-0.3,0.6-0.4c0.3-0.1,0.5-0.2,0.8-0.3c-4.7-7.4-9.5-14.8-14.2-22.2c-0.1,0.2-0.3,0.3-0.4,0.5
				c-0.1,0.1-0.3,0.3-0.5,0.4c-0.6,0.3-1.3,0-1.5-0.6c-0.2-0.5-0.1-0.9,0.2-1.2c0.5-0.5,1-1,1.5-1.5c0.4-0.4,0.9-0.8,1.4-1.1
				c0.3-0.2,0.7-0.5,1-0.7c0.8-0.6,1.7-1.1,2.6-1.6c0.7-0.3,1.4-0.6,2.1-0.9c0.9-0.3,1.9-0.6,2.8-0.9c0.9-0.2,1.7-0.3,2.6-0.4
				c1-0.1,2.1-0.1,3.1-0.1c1.4,0,2.8,0.2,4.1,0.5c0.5,0.1,1,0.2,1.5,0.4c0.6,0.2,1.2,0.3,1.8,0.5c1.6,0.5,3.1,1.2,4.6,1.9
				c0.1,0,0.1,0.1,0.2,0.1c0-0.3,0-0.6,0-0.9c0-1.3,0.1-2.6,0.2-3.8c0.2-1.6,0.4-3.2,0.8-4.8c0.2-0.8,0.4-1.6,0.7-2.4
				c0.4-1.2,0.9-2.4,1.6-3.5c0.5-0.9,1.2-1.8,1.9-2.6c0.7-0.8,1.5-1.4,2.3-2c0.2-0.1,0.4-0.2,0.6-0.4c0.4-0.3,0.9-0.5,1.3-0.7
				c1.5-0.6,3-1,4.6-1.1c1.7-0.1,3.4,0,5,0.4c0.6,0.1,1.3,0.3,1.9,0.4c0.7,0.2,1.4,0.4,2.1,0.6c1.9,0.6,3.8,1.4,5.6,2.3
				c0.2,0.1,0.4,0.2,0.6,0.3 M110.1,121.2c4.4,6.9,8.8,13.8,13.2,20.7c1.6-0.5,3-1.3,4.2-2.5c-4.5-7-8.9-14-13.3-20.9
				C113.1,118.7,110.8,120.2,110.1,121.2z M154.7,122.3c-0.2-0.3-13.1-20.6-13.2-20.7c-1.1,1.1-2.1,2.2-3,3.5
				c3.9,6.2,7.9,12.3,11.8,18.5C151.8,123.3,153.3,122.9,154.7,122.3z M116.1,117.9c4.2,6.7,8.5,13.3,12.7,19.9c0,0,0.1-0.1,0.1-0.1
				c0.3-0.4,0.5-0.8,0.8-1.2c0.6-1.1,1.1-2.2,1.5-3.3c0.1-0.2,0-0.3-0.1-0.4c-3.1-4.8-6.2-9.7-9.3-14.5c0,0,0-0.1-0.1-0.1
				c0-0.1-0.1-0.1-0.2-0.1c-0.5-0.1-1.1-0.2-1.6-0.2c-1.1-0.1-2.2-0.1-3.3,0C116.4,117.9,116.2,117.9,116.1,117.9z M148.2,123.9
				c-3.6-5.7-7.2-11.3-10.8-16.9c-0.5,0.6-1.9,4.1-2,4.8c0.2,0.1,0.3,0.3,0.4,0.5c2.4,3.8,4.8,7.6,7.2,11.4c0.1,0.1,0.2,0.2,0.3,0.2
				c1.5,0.2,3,0.2,4.5,0.1C148,123.9,148.1,123.9,148.2,123.9z M124.3,118.7c0,0.1,0,0.1,0.1,0.1c2.5,3.9,4.9,7.7,7.4,11.6
				c0,0,0,0,0,0c0,0,0,0,0,0c0.5-2.1,0.8-6.7,0.7-8.3c-0.9-0.5-1.9-1-2.9-1.4C127.9,119.9,126.2,119.2,124.3,118.7z M140.5,123.3
				C140.5,123.2,140.6,123.2,140.5,123.3c-1.9-3-3.8-6-5.7-9c-0.3,1-0.6,5.2-0.4,6.5C136.4,121.9,138.4,122.7,140.5,123.3z"/>
		</g>
	</g>
	<g>
		<path class="st1" d="M62.4,147.2c-3.4-1.3-7.1-1.2-10.8-0.4c-4.8,1-8.6,3.8-12.5,6.4c-2.8,1.8-4.8,4.4-6.6,7.1
			c-1.6,2.6-1.8,5.2,0.2,8.3c5.6-1.1,11-3.4,16.5-4.9c5.9,4.1,7.6,10.6,4.5,16c-5.3,2.3-11.1,3.1-16.1,5.4c-0.7,2.3,0.1,3.8,1.6,4.8
			c1.1,0.7,2.3,1.3,3.6,1.7c5.8,1.5,11.7,1.6,17.6,0.9c6.9-0.9,11.9-4.6,14.6-11c1.4-3.3,2.6-6.8,4-10.1c0.5-1.2,4.5-3.2,5.2-3.9
			l0,0c0.8-0.8,1-2.1,0.3-3.1l-10.4-16.3c-0.7-1-1.9-1.4-3.1-1C69.1,147.8,65.8,148.5,62.4,147.2z"/>
	</g>
	<path class="st1" d="M168.3,72.4c-1.7,3.2-3,6.7-4.1,10.2c-1.5,4.9-6.4,8.1-9.5,10.4c-0.1,0-0.1,0.1-0.2,0.1
		c-1.1,0.8-1.4,2.3-0.7,3.4c0,0,7.9,12.5,10.8,16.9c0.6,1,2.5,0.6,3.2,0.1c2.6-1.7,5.8-3.4,9.4-2c1.1,0.4,2.4,0.7,3.6,1.1
		c3.9,1.3,7.8,1.6,11.5-0.2c3.8-1.9,7.5-4,11-6.3c3.7-2.4,6.3-6,8.8-9.5c1.3-1.9,1.5-3.9-0.3-6.1c-6.2,1-12,3.7-18.1,5.2
		c-6.8-3.6-9.3-12.1-5.5-18.1c5.8-2,12-3.3,17.9-5.9c-0.1-1.4-0.3-2.6-0.4-4.1c-1.7-0.9-3.1-1.9-4.6-2.5c-6.4-2.5-13.1-3.1-19.8-1.8
		C175.8,64.4,171,67.3,168.3,72.4z"/>
</g>
<g>
	<rect x="17.5" y="18.9" class="st2" width="205" height="21.3"/>
	<path class="st1" d="M49,22.2v14.9h-1.8V22.2h-4v-1.7H53v1.7H49z"/>
	<path class="st1" d="M64.2,22.2h-6.8v4.9H64v1.7h-6.6v6.5h6.8v1.7h-8.6V20.4h8.6V22.2z"/>
	<path class="st1" d="M80.3,24.1c-0.5-0.5-1.3-1.1-2.2-1.5c-0.9-0.4-1.9-0.6-2.9-0.6c-3.8,0-6.7,3.1-6.7,6.9c0,4.5,3.7,6.8,6.7,6.8
		c1.1,0,2.2-0.3,3.1-0.8c0.9-0.5,1.6-1.1,1.9-1.4v2.3c-1.8,1.3-3.8,1.6-5,1.6c-4.9,0-8.6-3.7-8.6-8.6c0-5,3.7-8.7,8.7-8.7
		c1,0,2.9,0.1,4.9,1.6V24.1z"/>
	<path class="st1" d="M85.6,27.2h8.5v-6.8H96v16.7h-1.8V29h-8.5v8.1h-1.8V20.4h1.8V27.2z"/>
	<path class="st1" d="M100.3,37.1V19.7l13,13.6V20.4h1.8v17.4l-13-13.6v12.9H100.3z"/>
	<path class="st1" d="M118.5,28.8c0-5,3.9-8.6,8.7-8.6s8.7,3.6,8.7,8.6c0,4.9-3.8,8.6-8.7,8.6C122.4,37.4,118.5,33.7,118.5,28.8z
		 M120.4,28.8c0,3.8,3,6.9,6.8,6.9c3.7,0,6.8-3,6.8-6.9c0-3.8-3-6.9-6.8-6.9C123.4,21.9,120.4,25,120.4,28.8z"/>
	<path class="st1" d="M141.1,20.4v14.9h4.6v1.7h-6.4V20.4H141.1z"/>
	<path class="st1" d="M146.5,28.8c0-5,3.9-8.6,8.7-8.6s8.7,3.6,8.7,8.6c0,4.9-3.8,8.6-8.7,8.6C150.3,37.4,146.5,33.7,146.5,28.8z
		 M148.4,28.8c0,3.8,3,6.9,6.8,6.9c3.7,0,6.8-3,6.8-6.9c0-3.8-3-6.9-6.8-6.9C151.4,21.9,148.4,25,148.4,28.8z"/>
	<path class="st1" d="M175.8,28.7h6.9v0.4c0,1.8-0.5,3.8-1.6,5.3c-0.5,0.7-2.4,3-6.2,3c-4.9,0-8.6-3.8-8.6-8.6
		c0-4.8,3.7-8.6,8.7-8.6c1.6,0,3.5,0.4,5.1,1.6c0.7,0.6,1.4,1.3,1.9,2l-1.4,1.2c-0.5-0.7-1-1.3-1.6-1.7c-0.8-0.6-2-1.4-4-1.4
		c-4,0-6.8,3-6.8,6.9c0,4.5,3.6,6.8,6.8,6.8c2.2,0,4.1-1.1,5.1-2.8c0.3-0.5,0.6-1.3,0.7-2.4h-4.9V28.7z"/>
	<path class="st1" d="M189.7,29.9l-5.5-9.5h2.1l4.2,7.4l4.3-7.4h2.1l-5.5,9.5v7.2h-1.8V29.9z"/>
</g>
</svg>
