<?xml version="1.0" encoding="utf-8"?>
<!-- Generator: Adobe Illustrator 18.0.0, SVG Export Plug-In . SVG Version: 6.00 Build 0)  -->
<!DOCTYPE svg PUBLIC "-//W3C//DTD SVG 1.1//EN" "http://www.w3.org/Graphics/SVG/1.1/DTD/svg11.dtd">
<svg version="1.1" id="Layer_1" xmlns="http://www.w3.org/2000/svg" xmlns:xlink="http://www.w3.org/1999/xlink" x="0px" y="0px"
	 viewBox="0 0 344 344" style="enable-background:new 0 0 344 344;" xml:space="preserve">
<style type="text/css">
	.st0{fill:#F0F0F0;}
	.st1{fill:#F2F2F2;}
	.st2{fill:none;}
	.st3{fill:#FFFFFF;}
	.st4{fill:#E6E6E6;}
	.st5{fill:#B3B3B3;}
	.st6{fill:#FBB03B;}
	.st7{fill:#F7931E;}
	.st8{fill:#166B91;}
	.st9{fill:#56C1FC;}
	.st10{fill:#BEE9FC;}
	.st11{opacity:0.53;fill:#56C1FC;}
	.st12{opacity:0.32;fill:#56C1FC;}
	.st13{fill:#666666;}
	.st14{fill:#CCCCCC;stroke:#999999;stroke-width:2;stroke-miterlimit:10;}
	.st15{clip-path:url(#SVGID_2_);}
	.st16{clip-path:url(#SVGID_4_);}
	.st17{fill:#4D4D4D;}
	.st18{fill:#FF931E;stroke:#AF651B;stroke-miterlimit:10;}
	.st19{fill:#FF931E;stroke:#AF651B;stroke-width:1.1825;stroke-miterlimit:10;}
	.st20{fill:none;stroke:#B3B3B3;stroke-width:2.0562;stroke-miterlimit:10;stroke-dasharray:7.2;}
	.st21{fill:none;stroke:#B3B3B3;stroke-width:2.0562;stroke-miterlimit:10;}
	.st22{fill:none;stroke:#B3B3B3;stroke-width:2.0562;stroke-miterlimit:10;stroke-dasharray:6.5096,6.5096;}
	.st23{fill:#CCCCCC;}
	.st24{fill:#00A99D;}
	.st25{fill:#999999;}
	.st26{fill:#333333;}
	.st27{fill:#0071BC;}
	.st28{fill:#9AC8E2;}
	.st29{fill:#BED9E5;}
	.st30{fill:none;stroke:#B3B3B3;stroke-width:3.4271;stroke-miterlimit:10;stroke-dasharray:12;}
	.st31{fill:none;stroke:#B3B3B3;stroke-width:3.4271;stroke-miterlimit:10;}
	.st32{fill:none;stroke:#B3B3B3;stroke-width:3.4271;stroke-miterlimit:10;stroke-dasharray:10.8493,10.8493;}
	.st33{fill:#02897C;}
	.st34{fill:#808080;}
	.st35{fill:#1E82F7;}
	.st36{fill:#F15A24;}
	.st37{fill:#FF5662;}
	.st38{opacity:0.8;}
	.st39{opacity:0.8;fill:none;stroke:#FF5662;stroke-width:2;stroke-miterlimit:10;stroke-dasharray:2,4;}
	.st40{fill:#F9C580;}
	.st41{opacity:0.8;fill:none;stroke:#F15A24;stroke-width:2;stroke-miterlimit:10;stroke-dasharray:2,4;}
	.st42{clip-path:url(#SVGID_6_);}
	.st43{clip-path:url(#SVGID_8_);}
	.st44{fill:#B3B3B3;stroke:#999999;stroke-width:2;stroke-miterlimit:10;}
	.st45{fill:none;stroke:#FFFFFF;stroke-width:7;stroke-miterlimit:10;}
	.st46{fill:#B77318;}
	.st47{fill:none;stroke:#FFFFFF;stroke-width:4;stroke-linecap:round;stroke-miterlimit:10;}
	.st48{fill:#694861;}
	.st49{fill:#A65B03;}
	.st50{clip-path:url(#SVGID_10_);}
	.st51{clip-path:url(#SVGID_12_);}
	.st52{clip-path:url(#SVGID_14_);}
	.st53{fill:#A6338C;}
	.st54{clip-path:url(#SVGID_16_);}
	.st55{fill:#C0A23B;}
	.st56{fill:#B01C8E;}
	.st57{clip-path:url(#SVGID_18_);}
	.st58{clip-path:url(#SVGID_20_);}
	.st59{fill:#FF931E;}
	.st60{clip-path:url(#SVGID_22_);}
	.st61{clip-path:url(#SVGID_24_);}
	.st62{clip-path:url(#SVGID_26_);}
	.st63{clip-path:url(#SVGID_28_);}
	.st64{fill:none;stroke:#999999;stroke-width:2.5947;stroke-miterlimit:10;}
	.st65{fill:none;stroke:#999999;stroke-width:2.3313;stroke-miterlimit:10;}
	.st66{fill:#8E7689;}
	.st67{fill:none;stroke:#4D4D4D;stroke-width:2;stroke-miterlimit:10;}
	.st68{clip-path:url(#SVGID_30_);}
	.st69{clip-path:url(#SVGID_32_);}
	.st70{opacity:0.7;fill:#FEEFD8;}
	.st71{opacity:0.7;fill:#CCEEEB;}
	.st72{fill:#1A1A1A;}
	.st73{fill:none;stroke:#333333;stroke-width:2;stroke-miterlimit:10;}
	.st74{clip-path:url(#SVGID_34_);}
	.st75{clip-path:url(#SVGID_36_);}
	.st76{clip-path:url(#SVGID_38_);}
	.st77{clip-path:url(#SVGID_40_);}
	.st78{fill:none;stroke:#666666;stroke-width:2.1246;stroke-linecap:round;stroke-miterlimit:10;stroke-dasharray:2.1246,3.1869;}
	.st79{fill:none;stroke:#CCCCCC;stroke-width:3;stroke-miterlimit:10;}
	.st80{fill:none;stroke:#333333;stroke-width:3;stroke-miterlimit:10;}
	.st81{fill:none;stroke:#FFFFFF;stroke-width:3;stroke-miterlimit:10;}
	.st82{fill:#3783A5;}
</style>
<g>
	<path class="st72" d="M298.6,318.2H64.1c-10.7,0-19.5-8.8-19.5-19.5V64.1c0-10.7,8.8-19.5,19.5-19.5h234.5
		c10.7,0,19.5,8.8,19.5,19.5v234.5C318.2,309.4,309.4,318.2,298.6,318.2z"/>
	<path class="st55" d="M279.9,299.4H45.4c-10.7,0-19.5-8.8-19.5-19.5V45.4c0-10.7,8.8-19.5,19.5-19.5h234.5
		c10.7,0,19.5,8.8,19.5,19.5v234.5C299.4,290.6,290.6,299.4,279.9,299.4z"/>
	<path class="st17" d="M169.1,55.8l85.2,47.1c4.2,2.3,6.4,6.7,6.4,11.5v18.3c0,3-3.2,4.9-5.9,3.5l-85.7-47.4
		c-4.2-2.3-9.4-2.3-13.6,0l-85.4,47.2c-2.6,1.5-5.9-0.5-5.9-3.5v-18.3c0-4.8,3-9.2,7.2-11.5l84.9-46.9
		C160.2,53.6,165.2,53.6,169.1,55.8z"/>
	<path class="st3" d="M261,164.7v86.8c0,10.8-8.8,19.6-19.6,19.6h-42.6c-5.6,0-10.1-4.5-10.1-10.1v-47c0-5.6-4.5-10.1-10.1-10.1
		h-33.6c-5.6,0-10.1,4.5-10.1,10.1v47c0,5.6-4.5,10.1-10.1,10.1H84.1c-10.8,0-19.6-8.8-19.6-19.6v-87c0-4.8,2.5-9.2,6.6-11.5
		l84.6-46.9c3.9-2.2,8.7-2.2,12.6,0l85.7,47.1C258.3,155.5,261,159.9,261,164.7z"/>
</g>
</svg>
