<?xml version="1.0" encoding="utf-8"?>
<!-- Generator: Adobe Illustrator 18.1.1, SVG Export Plug-In . SVG Version: 6.00 Build 0)  -->
<svg version="1.1" id="Layer_1" xmlns="http://www.w3.org/2000/svg" xmlns:xlink="http://www.w3.org/1999/xlink" x="0px" y="0px"
	 viewBox="0 0 400 400" style="enable-background:new 0 0 400 400;" xml:space="preserve">
<style type="text/css">
	.st0{fill:#FFFFFF;}
	.st1{fill:#F2F2F2;}
	.st2{fill:none;}
	.st3{fill:#E6E6E6;}
	.st4{fill:#B3B3B3;}
	.st5{fill:#FBB03B;}
	.st6{fill:#F7931E;}
	.st7{fill:#166B91;}
	.st8{fill:#56C1FC;}
	.st9{fill:#BEE9FC;}
	.st10{opacity:0.53;fill:#56C1FC;}
	.st11{opacity:0.32;fill:#56C1FC;}
	.st12{fill:#666666;}
	.st13{fill:#CCCCCC;stroke:#999999;stroke-width:2;stroke-miterlimit:10;}
	.st14{clip-path:url(#SVGID_2_);}
	.st15{clip-path:url(#SVGID_4_);}
	.st16{fill:#4D4D4D;}
	.st17{fill:#FF931E;stroke:#AF651B;stroke-miterlimit:10;}
	.st18{fill:#FF931E;stroke:#AF651B;stroke-width:1.1825;stroke-miterlimit:10;}
	.st19{fill:none;stroke:#B3B3B3;stroke-width:2.0562;stroke-miterlimit:10;stroke-dasharray:7.2;}
	.st20{fill:none;stroke:#B3B3B3;stroke-width:2.0562;stroke-miterlimit:10;}
	.st21{fill:none;stroke:#B3B3B3;stroke-width:2.0562;stroke-miterlimit:10;stroke-dasharray:6.5096,6.5096;}
	.st22{fill:#CCCCCC;}
	.st23{fill:#00A99D;}
	.st24{fill:#999999;}
	.st25{fill:#333333;}
	.st26{fill:#0071BC;}
	.st27{fill:#9AC8E2;}
	.st28{fill:#BED9E5;}
	.st29{fill:none;stroke:#B3B3B3;stroke-width:3.4271;stroke-miterlimit:10;stroke-dasharray:12;}
	.st30{fill:none;stroke:#B3B3B3;stroke-width:3.4271;stroke-miterlimit:10;}
	.st31{fill:none;stroke:#B3B3B3;stroke-width:3.4271;stroke-miterlimit:10;stroke-dasharray:10.8493,10.8493;}
	.st32{fill:#02897C;}
	.st33{fill:#808080;}
	.st34{fill:#1E82F7;}
	.st35{fill:#F15A24;}
	.st36{fill:#FF5662;}
	.st37{opacity:0.8;}
	.st38{opacity:0.8;fill:none;stroke:#FF5662;stroke-width:2;stroke-miterlimit:10;stroke-dasharray:2,4;}
	.st39{fill:#F9C580;}
	.st40{opacity:0.8;fill:none;stroke:#F15A24;stroke-width:2;stroke-miterlimit:10;stroke-dasharray:2,4;}
	.st41{clip-path:url(#SVGID_6_);}
	.st42{clip-path:url(#SVGID_8_);}
	.st43{fill:#B3B3B3;stroke:#999999;stroke-width:2;stroke-miterlimit:10;}
	.st44{fill:none;stroke:#FFFFFF;stroke-width:7;stroke-miterlimit:10;}
	.st45{fill:#B77318;}
	.st46{fill:none;stroke:#FFFFFF;stroke-width:4;stroke-linecap:round;stroke-miterlimit:10;}
	.st47{fill:#694861;}
	.st48{fill:#A65B03;}
	.st49{clip-path:url(#SVGID_10_);}
	.st50{clip-path:url(#SVGID_12_);}
	.st51{clip-path:url(#SVGID_14_);}
	.st52{fill:#A6338C;}
	.st53{clip-path:url(#SVGID_16_);}
	.st54{fill:#C0A23B;}
	.st55{fill:#B01C8E;}
	.st56{clip-path:url(#SVGID_18_);}
	.st57{clip-path:url(#SVGID_20_);}
	.st58{fill:#FF931E;}
	.st59{clip-path:url(#SVGID_22_);}
	.st60{clip-path:url(#SVGID_24_);}
	.st61{clip-path:url(#SVGID_26_);}
	.st62{clip-path:url(#SVGID_28_);}
	.st63{fill:none;stroke:#999999;stroke-width:2.5947;stroke-miterlimit:10;}
	.st64{fill:none;stroke:#999999;stroke-width:2.3313;stroke-miterlimit:10;}
	.st65{fill:#8E7689;}
	.st66{fill:none;stroke:#4D4D4D;stroke-width:2;stroke-miterlimit:10;}
	.st67{clip-path:url(#SVGID_30_);}
	.st68{clip-path:url(#SVGID_32_);}
	.st69{opacity:0.7;fill:#FEEFD8;}
	.st70{opacity:0.7;fill:#CCEEEB;}
	.st71{fill:#1A1A1A;}
	.st72{fill:none;stroke:#333333;stroke-width:2;stroke-miterlimit:10;}
	.st73{clip-path:url(#SVGID_34_);}
	.st74{clip-path:url(#SVGID_36_);}
	.st75{clip-path:url(#SVGID_38_);}
	.st76{clip-path:url(#SVGID_40_);}
	.st77{fill:none;stroke:#666666;stroke-width:2.1246;stroke-linecap:round;stroke-miterlimit:10;stroke-dasharray:2.1246,3.1869;}
	.st78{fill:none;stroke:#CCCCCC;stroke-width:3;stroke-miterlimit:10;}
	.st79{fill:none;stroke:#333333;stroke-width:3;stroke-miterlimit:10;}
	.st80{fill:none;stroke:#FFFFFF;stroke-width:3;stroke-miterlimit:10;}
	.st81{fill:none;stroke:#666666;stroke-width:5.099;stroke-linecap:round;stroke-miterlimit:10;stroke-dasharray:5.099,7.6485;}
	.st82{fill:none;stroke:#CCCCCC;stroke-width:7.2;stroke-miterlimit:10;}
	.st83{fill:none;stroke:#333333;stroke-width:7.2;stroke-miterlimit:10;}
	.st84{fill:none;stroke:#FFFFFF;stroke-width:7.2;stroke-miterlimit:10;}
</style>
<g>
	<path class="st71" d="M340.7,362.4H80.1c-11.9,0-21.7-9.8-21.7-21.7V80.1c0-11.9,9.8-21.7,21.7-21.7h260.6
		c11.9,0,21.7,9.8,21.7,21.7v260.6C362.4,352.6,352.6,362.4,340.7,362.4z"/>
	<path class="st23" d="M319.9,341.6H59.3c-11.9,0-21.7-9.8-21.7-21.7V59.3c0-11.9,9.8-21.7,21.7-21.7h260.6
		c11.9,0,21.7,9.8,21.7,21.7v260.6C341.6,331.8,331.8,341.6,319.9,341.6z"/>
	<g>
		<rect x="61.6" y="59.9" class="st2" width="251.2" height="71.6"/>
		<path class="st0" d="M71.8,61.9c2.1,0,3.9,0.3,5.4,1.5c1.6,1.3,2,3.2,2,4.6c0,3-1.9,6-6.8,6h-2.1v9.3h-2.4V61.9H71.8z M70.3,71.7
			h2c2.8,0,4.5-1.4,4.5-3.9c0-3.4-3.2-3.7-4.7-3.7h-1.8V71.7z"/>
		<path class="st0" d="M86,61.9c1.4,0,3.6,0.1,5.2,1.2c1.2,0.8,2.3,2.5,2.3,4.7c0,3.3-2.1,5.7-5.4,5.9l6.8,9.5H92l-6.5-9.3h-0.6v9.3
			h-2.4V61.9H86z M84.9,71.7h1.5c2.9,0,4.7-1.4,4.7-3.9c0-1.2-0.4-2.4-1.7-3.1c-1-0.5-2-0.6-3.1-0.6h-1.4V71.7z"/>
		<path class="st0" d="M97.4,72.5c0-6.4,5-11,11.1-11s11.1,4.7,11.1,11c0,6.3-4.9,11-11.1,11S97.4,78.9,97.4,72.5z M99.9,72.5
			c0,4.9,3.9,8.8,8.7,8.8c4.8,0,8.7-3.9,8.7-8.8s-3.9-8.8-8.7-8.8C103.8,63.8,99.9,67.7,99.9,72.5z"/>
		<path class="st0" d="M127.8,61.9c1.2,0,3.3,0.1,4.9,1.3c0.7,0.5,1.9,1.8,1.9,4.4c0,1.1-0.2,2.9-2.1,4.2c3,0.7,4.1,3.3,4.1,5.4
			s-1,3.7-2.2,4.6c-1.7,1.3-3.6,1.4-5.1,1.4H124V61.9H127.8z M126.4,71.2h1.8c1.2,0,4.2-0.3,4.2-3.6c0-3.5-3.5-3.6-4.1-3.6h-1.9
			V71.2z M126.4,81h2.7c1.4,0,2.7-0.1,3.7-0.9c0.8-0.6,1.4-1.7,1.4-2.9c0-1.7-1-2.7-1.8-3.1c-0.8-0.4-1.9-0.6-3.6-0.6h-2.4V81z"/>
		<path class="st0" d="M152,64.1h-8.7v6.3h8.4v2.2h-8.4V81h8.7v2.2H141V61.9H152V64.1z"/>
		<path class="st0" d="M163.1,83.2l3.6-22.5l8.2,18l8.4-18l3.3,22.6h-2.4l-2-14.8l-7.3,15.7l-7.2-15.7l-2.1,14.8H163.1z"/>
		<path class="st0" d="M190.3,72.5c0-6.4,5-11,11.1-11s11.1,4.7,11.1,11c0,6.3-4.9,11-11.1,11S190.3,78.9,190.3,72.5z M192.7,72.5
			c0,4.9,3.9,8.8,8.7,8.8c4.8,0,8.7-3.9,8.7-8.8s-3.9-8.8-8.7-8.8C196.6,63.8,192.7,67.7,192.7,72.5z"/>
		<path class="st0" d="M219.2,61.9V81h5.9v2.2h-8.3V61.9H219.2z"/>
		<path class="st0" d="M239.4,64.1h-8.7v6.3h8.4v2.2h-8.4V81h8.7v2.2h-11.1V61.9h11.1V64.1z"/>
		<path class="st0" d="M260.1,66.6c-0.7-0.7-1.7-1.5-2.8-2c-1.1-0.5-2.4-0.8-3.7-0.8c-4.9,0-8.6,4-8.6,8.9c0,5.8,4.7,8.7,8.6,8.7
			c1.4,0,2.8-0.4,4-1c1.2-0.6,2.1-1.4,2.5-1.8v2.9c-2.4,1.7-4.8,2.1-6.4,2.1c-6.3,0-11-4.8-11-11c0-6.4,4.8-11.1,11.2-11.1
			c1.3,0,3.7,0.2,6.3,2.1V66.6z"/>
		<path class="st0" d="M266.8,74.9c0,1.8,0,3.7,1.7,5.2c0.9,0.7,2.3,1.2,3.5,1.2c1.2,0,2.7-0.5,3.5-1.2c1.7-1.4,1.7-3.4,1.7-5.2
			V61.9h2.4v13.7c0,1.8-0.2,3.5-1.3,5.1c-1.3,1.8-3.5,2.9-6.2,2.9c-2.7,0-5-1.1-6.2-2.9c-1.2-1.6-1.3-3.3-1.3-5.1V61.9h2.4V74.9z"/>
		<path class="st0" d="M287.5,61.9V81h5.9v2.2h-8.3V61.9H287.5z"/>
		<path class="st0" d="M307.6,64.1h-8.7v6.3h8.4v2.2h-8.4V81h8.7v2.2h-11.1V61.9h11.1V64.1z"/>
		<path class="st0" d="M133.1,115.6H124l-2.6,6h-2.6l9.8-22.4l9.6,22.4h-2.6L133.1,115.6z M132.1,113.3l-3.6-8.5l-3.6,8.5H132.1z"/>
		<path class="st0" d="M139.7,100.3l6,16.3l6-16.3h2.6l-8.6,22.6l-8.6-22.6H139.7z"/>
		<path class="st0" d="M167.4,115.6h-9.1l-2.6,6h-2.6l9.8-22.4l9.6,22.4h-2.6L167.4,115.6z M166.5,113.3l-3.6-8.5l-3.6,8.5H166.5z"
			/>
		<path class="st0" d="M177.9,100.3v21.3h-2.4v-21.3H177.9z"/>
		<path class="st0" d="M185.8,100.3v19.1h5.9v2.2h-8.3v-21.3H185.8z"/>
		<path class="st0" d="M206.7,115.6h-9.1l-2.6,6h-2.6l9.8-22.4l9.6,22.4h-2.6L206.7,115.6z M205.7,113.3l-3.6-8.5l-3.6,8.5H205.7z"
			/>
		<path class="st0" d="M218.6,100.3c1.2,0,3.3,0.1,4.9,1.3c0.7,0.5,1.9,1.8,1.9,4.4c0,1.1-0.2,2.9-2.1,4.2c3,0.7,4.1,3.3,4.1,5.4
			s-1,3.7-2.2,4.6c-1.7,1.3-3.6,1.4-5.1,1.4h-5.3v-21.3H218.6z M217.2,109.6h1.8c1.2,0,4.2-0.3,4.2-3.6c0-3.5-3.5-3.6-4.1-3.6h-1.9
			V109.6z M217.2,119.4h2.7c1.4,0,2.7-0.1,3.7-0.9c0.8-0.6,1.4-1.7,1.4-2.9c0-1.7-1-2.7-1.8-3.1c-0.8-0.4-1.9-0.6-3.6-0.6h-2.4
			V119.4z"/>
		<path class="st0" d="M234.1,100.3v19.1h5.9v2.2h-8.3v-21.3H234.1z"/>
		<path class="st0" d="M254.3,102.5h-8.7v6.3h8.4v2.2h-8.4v8.3h8.7v2.2h-11.1v-21.3h11.1V102.5z"/>
	</g>
	<g>
		<path class="st0" d="M249.8,213.9L238,194l-12.4-21h-71.4l-12.1,20.4L130,214.1l-11.5,19.8l11.5,19.8l12.1,19.2l12.1,19.1h71.4
			l12.4-19.7l11.8-19.5l11.5-19.4L249.8,213.9z M210,274h-40.2c-2.6,0-5.1-0.5-6.4-2.8l-20-34.2c-1.3-2.3-1.3-4.9,0-7.2l20-36.9
			c1.3-2.3,3.8-6,6.4-6H210c2.6,0,5.1,3.8,6.4,6.1l20.1,35.8c1.3,2.3,1.3,5.7,0,8l-20.1,34C215,273.2,212.6,274,210,274z"/>
		<path class="st0" d="M231.5,197.8l-29.5-17c-1.9-1.1-2.4-3.6-1.1-5.4l21.7-28c1.1-1.4,3.1-1.8,4.7-0.9l21.2,12.2
			c1.6,0.9,2.2,2.8,1.5,4.5l-13.4,32.8C235.8,198.1,233.4,198.9,231.5,197.8z"/>
		<path class="st0" d="M177.7,180.8l-29.5,17c-1.9,1.1-4.3,0.3-5.2-1.8l-13.4-32.8c-0.7-1.7,0-3.6,1.5-4.5l21.2-12.2
			c1.6-0.9,3.6-0.5,4.7,0.9l21.7,28C180.1,177.2,179.6,179.7,177.7,180.8z"/>
		<path class="st0" d="M139.3,216.7v34.1c0,2.2-1.9,3.9-4.1,3.6l-35.1-4.8c-1.8-0.2-3.1-1.8-3.1-3.6v-24.4c0-1.8,1.3-3.3,3.1-3.6
			l35.1-4.8C137.4,212.8,139.3,214.5,139.3,216.7z"/>
		<path class="st0" d="M148.2,269.7l29.5,17c1.9,1.1,2.4,3.6,1.1,5.4l-21.7,28c-1.1,1.4-3.1,1.8-4.7,0.9l-21.2-12.2
			c-1.6-0.9-2.2-2.8-1.5-4.5l13.4-32.8C143.9,269.4,146.3,268.6,148.2,269.7z"/>
		<path class="st0" d="M202,286.7l29.5-17c1.9-1.1,4.3-0.3,5.2,1.8l13.4,32.8c0.7,1.7,0,3.6-1.5,4.5L227.4,321
			c-1.6,0.9-3.6,0.5-4.7-0.9l-21.7-28C199.6,290.3,200.1,287.8,202,286.7z"/>
		<path class="st0" d="M239.9,250.8v-34.1c0-2.2,1.9-3.9,4.1-3.6l35.1,4.8c1.8,0.2,3.1,1.8,3.1,3.6V246c0,1.8-1.3,3.3-3.1,3.6
			l-35.1,4.8C241.8,254.7,239.9,253,239.9,250.8z"/>
	</g>
</g>
</svg>
