<?xml version="1.0" encoding="utf-8"?>
<!-- Generator: Adobe Illustrator 18.1.1, SVG Export Plug-In . SVG Version: 6.00 Build 0)  -->
<svg version="1.1" id="Layer_1" xmlns="http://www.w3.org/2000/svg" xmlns:xlink="http://www.w3.org/1999/xlink" x="0px" y="0px"
	 viewBox="0 0 400 400" style="enable-background:new 0 0 400 400;" xml:space="preserve">
<style type="text/css">
	.st0{fill:#FFFFFF;}
	.st1{fill:#F2F2F2;}
	.st2{fill:none;}
	.st3{fill:#E6E6E6;}
	.st4{fill:#B3B3B3;}
	.st5{fill:#FBB03B;}
	.st6{fill:#F7931E;}
	.st7{fill:#166B91;}
	.st8{fill:#56C1FC;}
	.st9{fill:#BEE9FC;}
	.st10{opacity:0.53;fill:#56C1FC;}
	.st11{opacity:0.32;fill:#56C1FC;}
	.st12{fill:#666666;}
	.st13{fill:#CCCCCC;stroke:#999999;stroke-width:2;stroke-miterlimit:10;}
	.st14{clip-path:url(#SVGID_2_);}
	.st15{clip-path:url(#SVGID_4_);}
	.st16{fill:#4D4D4D;}
	.st17{fill:#FF931E;stroke:#AF651B;stroke-miterlimit:10;}
	.st18{fill:#FF931E;stroke:#AF651B;stroke-width:1.1825;stroke-miterlimit:10;}
	.st19{fill:none;stroke:#B3B3B3;stroke-width:2.0562;stroke-miterlimit:10;stroke-dasharray:7.2;}
	.st20{fill:none;stroke:#B3B3B3;stroke-width:2.0562;stroke-miterlimit:10;}
	.st21{fill:none;stroke:#B3B3B3;stroke-width:2.0562;stroke-miterlimit:10;stroke-dasharray:6.5096,6.5096;}
	.st22{fill:#CCCCCC;}
	.st23{fill:#00A99D;}
	.st24{fill:#999999;}
	.st25{fill:#333333;}
	.st26{fill:#0071BC;}
	.st27{fill:#9AC8E2;}
	.st28{fill:#BED9E5;}
	.st29{fill:none;stroke:#B3B3B3;stroke-width:3.4271;stroke-miterlimit:10;stroke-dasharray:12;}
	.st30{fill:none;stroke:#B3B3B3;stroke-width:3.4271;stroke-miterlimit:10;}
	.st31{fill:none;stroke:#B3B3B3;stroke-width:3.4271;stroke-miterlimit:10;stroke-dasharray:10.8493,10.8493;}
	.st32{fill:#02897C;}
	.st33{fill:#808080;}
	.st34{fill:#1E82F7;}
	.st35{fill:#F15A24;}
	.st36{fill:#FF5662;}
	.st37{opacity:0.8;}
	.st38{opacity:0.8;fill:none;stroke:#FF5662;stroke-width:2;stroke-miterlimit:10;stroke-dasharray:2,4;}
	.st39{fill:#F9C580;}
	.st40{opacity:0.8;fill:none;stroke:#F15A24;stroke-width:2;stroke-miterlimit:10;stroke-dasharray:2,4;}
	.st41{clip-path:url(#SVGID_6_);}
	.st42{clip-path:url(#SVGID_8_);}
	.st43{fill:#B3B3B3;stroke:#999999;stroke-width:2;stroke-miterlimit:10;}
	.st44{fill:none;stroke:#FFFFFF;stroke-width:7;stroke-miterlimit:10;}
	.st45{fill:#B77318;}
	.st46{fill:none;stroke:#FFFFFF;stroke-width:4;stroke-linecap:round;stroke-miterlimit:10;}
	.st47{fill:#694861;}
	.st48{fill:#A65B03;}
	.st49{clip-path:url(#SVGID_10_);}
	.st50{clip-path:url(#SVGID_12_);}
	.st51{clip-path:url(#SVGID_14_);}
	.st52{fill:#A6338C;}
	.st53{clip-path:url(#SVGID_16_);}
	.st54{fill:#C0A23B;}
	.st55{fill:#B01C8E;}
	.st56{clip-path:url(#SVGID_18_);}
	.st57{clip-path:url(#SVGID_20_);}
	.st58{fill:#FF931E;}
	.st59{clip-path:url(#SVGID_22_);}
	.st60{clip-path:url(#SVGID_24_);}
	.st61{clip-path:url(#SVGID_26_);}
	.st62{clip-path:url(#SVGID_28_);}
	.st63{fill:none;stroke:#999999;stroke-width:2.5947;stroke-miterlimit:10;}
	.st64{fill:none;stroke:#999999;stroke-width:2.3313;stroke-miterlimit:10;}
	.st65{fill:#8E7689;}
	.st66{fill:none;stroke:#4D4D4D;stroke-width:2;stroke-miterlimit:10;}
	.st67{clip-path:url(#SVGID_30_);}
	.st68{clip-path:url(#SVGID_32_);}
	.st69{opacity:0.7;fill:#FEEFD8;}
	.st70{opacity:0.7;fill:#CCEEEB;}
	.st71{fill:#1A1A1A;}
	.st72{fill:none;stroke:#333333;stroke-width:2;stroke-miterlimit:10;}
	.st73{clip-path:url(#SVGID_34_);}
	.st74{clip-path:url(#SVGID_36_);}
	.st75{clip-path:url(#SVGID_38_);}
	.st76{clip-path:url(#SVGID_40_);}
	.st77{fill:none;stroke:#666666;stroke-width:2.1246;stroke-linecap:round;stroke-miterlimit:10;stroke-dasharray:2.1246,3.1869;}
	.st78{fill:none;stroke:#CCCCCC;stroke-width:3;stroke-miterlimit:10;}
	.st79{fill:none;stroke:#333333;stroke-width:3;stroke-miterlimit:10;}
	.st80{fill:none;stroke:#FFFFFF;stroke-width:3;stroke-miterlimit:10;}
	.st81{fill:none;stroke:#666666;stroke-width:5.099;stroke-linecap:round;stroke-miterlimit:10;stroke-dasharray:5.099,7.6485;}
	.st82{fill:none;stroke:#CCCCCC;stroke-width:7.2;stroke-miterlimit:10;}
	.st83{fill:none;stroke:#333333;stroke-width:7.2;stroke-miterlimit:10;}
	.st84{fill:none;stroke:#FFFFFF;stroke-width:7.2;stroke-miterlimit:10;}
</style>
<g>
	<path class="st71" d="M340.7,362.4H80.1c-11.9,0-21.7-9.8-21.7-21.7V80.1c0-11.9,9.8-21.7,21.7-21.7h260.6
		c11.9,0,21.7,9.8,21.7,21.7v260.6C362.4,352.6,352.6,362.4,340.7,362.4z"/>
	<path class="st23" d="M319.9,341.6H59.3c-11.9,0-21.7-9.8-21.7-21.7V59.3c0-11.9,9.8-21.7,21.7-21.7h260.6
		c11.9,0,21.7,9.8,21.7,21.7v260.6C341.6,331.8,331.8,341.6,319.9,341.6z"/>
	<g>
		<rect x="61.6" y="59.9" class="st2" width="251.2" height="71.6"/>
		<path class="st0" d="M138,61.9c1.4,0,3.6,0.1,5.2,1.2c1.2,0.8,2.3,2.5,2.3,4.7c0,3.3-2.1,5.7-5.4,5.9l6.8,9.5h-2.9l-6.5-9.3H137
			v9.3h-2.4V61.9H138z M137,71.7h1.5c2.9,0,4.7-1.4,4.7-3.9c0-1.2-0.4-2.4-1.7-3.1c-1-0.5-2-0.6-3.1-0.6H137V71.7z"/>
		<path class="st0" d="M161.7,64.1H153v6.3h8.4v2.2H153V81h8.7v2.2h-11.1V61.9h11.1V64.1z"/>
		<path class="st0" d="M168.5,61.9V81h5.9v2.2h-8.3V61.9H168.5z"/>
		<path class="st0" d="M189.3,77.2h-9.1l-2.6,6h-2.6l9.8-22.4l9.6,22.4h-2.6L189.3,77.2z M188.4,74.9l-3.6-8.5l-3.6,8.5H188.4z"/>
		<path class="st0" d="M201.3,64.1v19.1h-2.4V64.1h-5.2v-2.2h12.7v2.2H201.3z"/>
		<path class="st0" d="M220.7,64.1H212v6.3h8.4v2.2H212V81h8.7v2.2h-11.1V61.9h11.1V64.1z"/>
		<path class="st0" d="M225.1,61.9h4.4c2.1,0,5.2,0.2,7.9,2.5c2,1.6,3.6,4.4,3.6,8.2c0,4.5-2.2,6.9-3.7,8.2c-2,1.7-4,2.5-7.8,2.5
			h-4.3V61.9z M227.4,81h2.1c1.7,0,4-0.2,6.1-1.9c1.6-1.3,2.9-3.5,2.9-6.5c0-5.1-3.6-8.4-9-8.4h-2.1V81z"/>
		<path class="st0" d="M128.2,100.3c2.1,0,3.9,0.3,5.4,1.5c1.6,1.3,2,3.2,2,4.6c0,3-1.9,6-6.8,6h-2.1v9.3h-2.4v-21.3H128.2z
			 M126.7,110.1h2c2.8,0,4.5-1.4,4.5-3.9c0-3.4-3.2-3.7-4.7-3.7h-1.8V110.1z"/>
		<path class="st0" d="M142.3,100.3c1.4,0,3.6,0.1,5.2,1.2c1.2,0.8,2.3,2.5,2.3,4.7c0,3.3-2.1,5.7-5.4,5.9l6.8,9.5h-2.9l-6.5-9.3
			h-0.6v9.3h-2.4v-21.3H142.3z M141.3,110.1h1.5c2.9,0,4.7-1.4,4.7-3.9c0-1.2-0.4-2.4-1.7-3.1c-1-0.5-2-0.6-3.1-0.6h-1.4V110.1z"/>
		<path class="st0" d="M153.8,110.9c0-6.4,5-11,11.1-11s11.1,4.7,11.1,11c0,6.3-4.9,11-11.1,11S153.8,117.3,153.8,110.9z
			 M156.2,110.9c0,4.9,3.9,8.8,8.7,8.8c4.8,0,8.7-3.9,8.7-8.8s-3.9-8.8-8.7-8.8C160.1,102.1,156.2,106.1,156.2,110.9z"/>
		<path class="st0" d="M184.7,100.3v15.4c0,1.7,0,3.7-1.3,5c-0.7,0.8-1.8,1.3-3.4,1.3c-1.5,0-2.8-0.5-3.8-1.6l1.3-1.9
			c0.7,0.8,1.6,1.2,2.4,1.2c0.6,0,1.2-0.2,1.6-0.6c0.8-0.8,0.8-2.1,0.8-3.5v-15.4H184.7z"/>
		<path class="st0" d="M201.2,102.5h-8.7v6.3h8.4v2.2h-8.4v8.3h8.7v2.2h-11.1v-21.3h11.1V102.5z"/>
		<path class="st0" d="M221.9,105c-0.7-0.7-1.7-1.5-2.8-2c-1.1-0.5-2.4-0.8-3.7-0.8c-4.9,0-8.6,4-8.6,8.9c0,5.8,4.7,8.7,8.6,8.7
			c1.4,0,2.8-0.4,4-1c1.2-0.6,2.1-1.4,2.5-1.8v2.9c-2.4,1.7-4.8,2.1-6.4,2.1c-6.3,0-11-4.8-11-11c0-6.4,4.8-11.1,11.2-11.1
			c1.3,0,3.7,0.2,6.3,2.1V105z"/>
		<path class="st0" d="M231.5,102.5v19.1h-2.4v-19.1H224v-2.2h12.7v2.2H231.5z"/>
		<path class="st0" d="M248.6,104.5c-0.3-0.6-0.8-1.2-1.2-1.6c-0.4-0.3-1.2-0.7-2.4-0.7c-2.1,0-3.6,1.3-3.6,3.3
			c0,0.8,0.2,1.3,0.8,1.9c0.6,0.6,1.4,1,2.2,1.3l2,0.9c1.2,0.5,2.4,1.1,3.3,2c1.1,1.1,1.5,2.3,1.5,3.9c0,3.9-2.9,6.6-6.8,6.6
			c-1.4,0-3.2-0.3-4.6-1.7c-1.1-1-1.7-2.5-2-3.8l2.3-0.6c0.2,1.1,0.7,2.1,1.3,2.7c0.9,0.9,2,1.2,3.1,1.2c2.9,0,4.3-2.1,4.3-4.2
			c0-1-0.3-1.8-1.1-2.5c-0.6-0.6-1.4-1-2.6-1.5l-1.9-0.9c-0.8-0.4-1.9-0.8-2.8-1.8c-0.9-0.9-1.5-1.9-1.5-3.5c0-3.3,2.5-5.5,6-5.5
			c1.3,0,2.4,0.3,3.4,1c0.9,0.6,1.6,1.4,2.1,2.4L248.6,104.5z"/>
	</g>
	<g>
		<line class="st81" x1="156" y1="214.5" x2="220.8" y2="191.1"/>
		<line class="st81" x1="156" y1="251.6" x2="220.8" y2="275"/>
		<path class="st82" d="M256.8,216.2c-21.2,0-38.4-17.2-38.4-38.4c0-21.2,17.2-38.4,38.4-38.4s38.4,17.2,38.4,38.4
			C295.2,199,278,216.2,256.8,216.2z"/>
		<g>
			<circle class="st0" cx="256.8" cy="177.8" r="26.5"/>
		</g>
		<path class="st83" d="M256.8,326.6c-21.2,0-38.4-17.2-38.4-38.4c0-21.2,17.2-38.4,38.4-38.4s38.4,17.2,38.4,38.4
			C295.2,309.4,278,326.6,256.8,326.6z"/>
		<g>
			<circle class="st0" cx="256.8" cy="288.2" r="26.5"/>
		</g>
		<path class="st84" d="M122.4,271.4c-21.2,0-38.4-17.2-38.4-38.4c0-21.2,17.2-38.4,38.4-38.4s38.4,17.2,38.4,38.4
			C160.8,254.2,143.6,271.4,122.4,271.4z"/>
		<circle class="st0" cx="122.4" cy="233" r="26.5"/>
	</g>
</g>
</svg>
