<?xml version="1.0" encoding="utf-8"?>
<!-- Generator: Adobe Illustrator 18.1.1, SVG Export Plug-In . SVG Version: 6.00 Build 0)  -->
<svg version="1.1" id="Layer_1" xmlns="http://www.w3.org/2000/svg" xmlns:xlink="http://www.w3.org/1999/xlink" x="0px" y="0px"
	 viewBox="0 0 400 400" style="enable-background:new 0 0 400 400;" xml:space="preserve">
<style type="text/css">
	.st0{fill:#FFFFFF;}
	.st1{fill:#F2F2F2;}
	.st2{fill:none;}
	.st3{fill:#E6E6E6;}
	.st4{fill:#B3B3B3;}
	.st5{fill:#FBB03B;}
	.st6{fill:#F7931E;}
	.st7{fill:#166B91;}
	.st8{fill:#56C1FC;}
	.st9{fill:#BEE9FC;}
	.st10{opacity:0.53;fill:#56C1FC;}
	.st11{opacity:0.32;fill:#56C1FC;}
	.st12{fill:#666666;}
	.st13{fill:#CCCCCC;stroke:#999999;stroke-width:2;stroke-miterlimit:10;}
	.st14{clip-path:url(#SVGID_2_);}
	.st15{clip-path:url(#SVGID_4_);}
	.st16{fill:#4D4D4D;}
	.st17{fill:#FF931E;stroke:#AF651B;stroke-miterlimit:10;}
	.st18{fill:#FF931E;stroke:#AF651B;stroke-width:1.1825;stroke-miterlimit:10;}
	.st19{fill:none;stroke:#B3B3B3;stroke-width:2.0562;stroke-miterlimit:10;stroke-dasharray:7.2;}
	.st20{fill:none;stroke:#B3B3B3;stroke-width:2.0562;stroke-miterlimit:10;}
	.st21{fill:none;stroke:#B3B3B3;stroke-width:2.0562;stroke-miterlimit:10;stroke-dasharray:6.5096,6.5096;}
	.st22{fill:#CCCCCC;}
	.st23{fill:#00A99D;}
	.st24{fill:#999999;}
	.st25{fill:#333333;}
	.st26{fill:#0071BC;}
	.st27{fill:#9AC8E2;}
	.st28{fill:#BED9E5;}
	.st29{fill:none;stroke:#B3B3B3;stroke-width:3.4271;stroke-miterlimit:10;stroke-dasharray:12;}
	.st30{fill:none;stroke:#B3B3B3;stroke-width:3.4271;stroke-miterlimit:10;}
	.st31{fill:none;stroke:#B3B3B3;stroke-width:3.4271;stroke-miterlimit:10;stroke-dasharray:10.8493,10.8493;}
	.st32{fill:#02897C;}
	.st33{fill:#808080;}
	.st34{fill:#1E82F7;}
	.st35{fill:#F15A24;}
	.st36{fill:#FF5662;}
	.st37{opacity:0.8;}
	.st38{opacity:0.8;fill:none;stroke:#FF5662;stroke-width:2;stroke-miterlimit:10;stroke-dasharray:2,4;}
	.st39{fill:#F9C580;}
	.st40{opacity:0.8;fill:none;stroke:#F15A24;stroke-width:2;stroke-miterlimit:10;stroke-dasharray:2,4;}
	.st41{clip-path:url(#SVGID_6_);}
	.st42{clip-path:url(#SVGID_8_);}
	.st43{fill:#B3B3B3;stroke:#999999;stroke-width:2;stroke-miterlimit:10;}
	.st44{fill:none;stroke:#FFFFFF;stroke-width:7;stroke-miterlimit:10;}
	.st45{fill:#B77318;}
	.st46{fill:none;stroke:#FFFFFF;stroke-width:4;stroke-linecap:round;stroke-miterlimit:10;}
	.st47{fill:#694861;}
	.st48{fill:#A65B03;}
	.st49{clip-path:url(#SVGID_10_);}
	.st50{clip-path:url(#SVGID_12_);}
	.st51{clip-path:url(#SVGID_14_);}
	.st52{fill:#A6338C;}
	.st53{clip-path:url(#SVGID_16_);}
	.st54{fill:#C0A23B;}
	.st55{fill:#B01C8E;}
	.st56{clip-path:url(#SVGID_18_);}
	.st57{clip-path:url(#SVGID_20_);}
	.st58{fill:#FF931E;}
	.st59{clip-path:url(#SVGID_22_);}
	.st60{clip-path:url(#SVGID_24_);}
	.st61{clip-path:url(#SVGID_26_);}
	.st62{clip-path:url(#SVGID_28_);}
	.st63{fill:none;stroke:#999999;stroke-width:2.5947;stroke-miterlimit:10;}
	.st64{fill:none;stroke:#999999;stroke-width:2.3313;stroke-miterlimit:10;}
	.st65{fill:#8E7689;}
	.st66{fill:none;stroke:#4D4D4D;stroke-width:2;stroke-miterlimit:10;}
	.st67{clip-path:url(#SVGID_30_);}
	.st68{clip-path:url(#SVGID_32_);}
	.st69{opacity:0.7;fill:#FEEFD8;}
	.st70{opacity:0.7;fill:#CCEEEB;}
	.st71{fill:#1A1A1A;}
	.st72{fill:none;stroke:#333333;stroke-width:2;stroke-miterlimit:10;}
	.st73{clip-path:url(#SVGID_34_);}
	.st74{clip-path:url(#SVGID_36_);}
	.st75{clip-path:url(#SVGID_38_);}
	.st76{clip-path:url(#SVGID_40_);}
	.st77{fill:none;stroke:#666666;stroke-width:2.1246;stroke-linecap:round;stroke-miterlimit:10;stroke-dasharray:2.1246,3.1869;}
	.st78{fill:none;stroke:#CCCCCC;stroke-width:3;stroke-miterlimit:10;}
	.st79{fill:none;stroke:#333333;stroke-width:3;stroke-miterlimit:10;}
	.st80{fill:none;stroke:#FFFFFF;stroke-width:3;stroke-miterlimit:10;}
	.st81{fill:none;stroke:#666666;stroke-width:5.099;stroke-linecap:round;stroke-miterlimit:10;stroke-dasharray:5.099,7.6485;}
	.st82{fill:none;stroke:#CCCCCC;stroke-width:7.2;stroke-miterlimit:10;}
	.st83{fill:none;stroke:#333333;stroke-width:7.2;stroke-miterlimit:10;}
	.st84{fill:none;stroke:#FFFFFF;stroke-width:7.2;stroke-miterlimit:10;}
</style>
<g>
	<path class="st71" d="M340,362.4H79.4c-11.9,0-21.7-9.8-21.7-21.7V80.1c0-11.9,9.8-21.7,21.7-21.7H340c11.9,0,21.7,9.8,21.7,21.7
		v260.6C361.7,352.6,351.9,362.4,340,362.4z"/>
	<path class="st47" d="M319.2,341.6H58.6c-11.9,0-21.7-9.8-21.7-21.7V59.3c0-11.9,9.8-21.7,21.7-21.7h260.6
		c11.9,0,21.7,9.8,21.7,21.7v260.6C340.9,331.8,331.1,341.6,319.2,341.6z"/>
	<g>
		<rect x="60.9" y="59.9" class="st2" width="251.2" height="71.6"/>
		<path class="st0" d="M101.6,61.9h4.4c2.1,0,5.2,0.2,7.9,2.5c2,1.6,3.6,4.4,3.6,8.2c0,4.5-2.2,6.9-3.7,8.2c-2,1.7-4,2.5-7.8,2.5
			h-4.3V61.9z M103.9,81h2.1c1.7,0,4-0.2,6.1-1.9c1.6-1.3,2.9-3.5,2.9-6.5c0-5.1-3.6-8.4-9-8.4h-2.1V81z"/>
		<path class="st0" d="M120.6,72.5c0-6.4,5-11,11.1-11s11.1,4.7,11.1,11c0,6.3-4.9,11-11.1,11S120.6,78.9,120.6,72.5z M123.1,72.5
			c0,4.9,3.9,8.8,8.7,8.8c4.8,0,8.7-3.9,8.7-8.8s-3.9-8.8-8.7-8.8C126.9,63.8,123.1,67.7,123.1,72.5z"/>
		<path class="st0" d="M146.6,61.9l5.6,16l6.7-17.1l6.3,17.1l6.2-16h2.6l-9,22.5l-6.3-17.1l-6.7,17.1L144,61.9H146.6z"/>
		<path class="st0" d="M177.2,83.2V61l16.6,17.4V61.9h2.4v22.3l-16.6-17.4v16.5H177.2z"/>
		<path class="st0" d="M204.1,61.9V81h5.9v2.2h-8.3V61.9H204.1z"/>
		<path class="st0" d="M210.9,72.5c0-6.4,5-11,11.1-11s11.1,4.7,11.1,11c0,6.3-4.9,11-11.1,11S210.9,78.9,210.9,72.5z M213.3,72.5
			c0,4.9,3.9,8.8,8.7,8.8c4.8,0,8.7-3.9,8.7-8.8s-3.9-8.8-8.7-8.8C217.2,63.8,213.3,67.7,213.3,72.5z"/>
		<path class="st0" d="M248.6,77.2h-9.1l-2.6,6h-2.6l9.8-22.4l9.6,22.4h-2.6L248.6,77.2z M247.7,74.9l-3.6-8.5l-3.6,8.5H247.7z"/>
		<path class="st0" d="M256.7,61.9h4.4c2.1,0,5.2,0.2,7.9,2.5c2,1.6,3.6,4.4,3.6,8.2c0,4.5-2.2,6.9-3.7,8.2c-2,1.7-4,2.5-7.8,2.5
			h-4.3V61.9z M259.1,81h2.1c1.7,0,4-0.2,6.1-1.9c1.6-1.3,2.9-3.5,2.9-6.5c0-5.1-3.6-8.4-9-8.4h-2.1V81z"/>
		<path class="st0" d="M76.7,104.5c-0.3-0.6-0.8-1.2-1.2-1.6c-0.4-0.3-1.2-0.7-2.4-0.7c-2.1,0-3.6,1.3-3.6,3.3
			c0,0.8,0.2,1.3,0.8,1.9c0.6,0.6,1.4,1,2.2,1.3l2,0.9c1.2,0.5,2.4,1.1,3.3,2c1.1,1.1,1.5,2.3,1.5,3.9c0,3.9-2.9,6.6-6.8,6.6
			c-1.4,0-3.2-0.3-4.6-1.7c-1.1-1-1.7-2.5-2-3.8l2.3-0.6c0.2,1.1,0.7,2.1,1.3,2.7c0.9,0.9,2,1.2,3.1,1.2c2.9,0,4.3-2.1,4.3-4.2
			c0-1-0.3-1.8-1.1-2.5c-0.6-0.6-1.4-1-2.6-1.5l-1.9-0.9c-0.8-0.4-1.9-0.8-2.8-1.8c-0.9-0.9-1.5-1.9-1.5-3.5c0-3.3,2.5-5.5,6-5.5
			c1.3,0,2.4,0.3,3.4,1c0.9,0.6,1.6,1.4,2.1,2.4L76.7,104.5z"/>
		<path class="st0" d="M86.1,113.3c0,1.8,0,3.7,1.7,5.2c0.9,0.7,2.3,1.2,3.5,1.2c1.2,0,2.7-0.5,3.5-1.2c1.7-1.4,1.7-3.4,1.7-5.2
			v-13.1h2.4V114c0,1.8-0.2,3.5-1.3,5.1c-1.3,1.8-3.5,2.9-6.2,2.9c-2.7,0-5-1.1-6.2-2.9c-1.2-1.6-1.3-3.3-1.3-5.1v-13.7h2.4V113.3z"
			/>
		<path class="st0" d="M103.7,121.6l3.6-22.5l8.2,18l8.4-18l3.3,22.6h-2.4l-2-14.8l-7.3,15.7l-7.2-15.7l-2.1,14.8H103.7z"/>
		<path class="st0" d="M131.3,121.6l3.6-22.5l8.2,18l8.4-18l3.3,22.6h-2.4l-2-14.8l-7.3,15.7l-7.2-15.7l-2.1,14.8H131.3z"/>
		<path class="st0" d="M171.4,115.6h-9.1l-2.6,6h-2.6l9.8-22.4l9.6,22.4h-2.6L171.4,115.6z M170.5,113.3l-3.6-8.5l-3.6,8.5H170.5z"
			/>
		<path class="st0" d="M183,100.3c1.4,0,3.6,0.1,5.2,1.2c1.2,0.8,2.3,2.5,2.3,4.7c0,3.3-2.1,5.7-5.4,5.9l6.8,9.5H189l-6.5-9.3h-0.6
			v9.3h-2.4v-21.3H183z M181.9,110.1h1.5c2.9,0,4.7-1.4,4.7-3.9c0-1.2-0.4-2.4-1.7-3.1c-1-0.5-2-0.6-3.1-0.6h-1.4V110.1z"/>
		<path class="st0" d="M199.1,112.4l-7-12.2h2.8l5.4,9.5l5.5-9.5h2.8l-7.1,12.2v9.2h-2.4V112.4z"/>
		<path class="st0" d="M230.8,115.6h-9.1l-2.6,6h-2.6l9.8-22.4l9.6,22.4h-2.6L230.8,115.6z M229.9,113.3l-3.6-8.5l-3.6,8.5H229.9z"
			/>
		<path class="st0" d="M248.1,104.5c-0.3-0.6-0.8-1.2-1.2-1.6c-0.4-0.3-1.2-0.7-2.4-0.7c-2.1,0-3.6,1.3-3.6,3.3
			c0,0.8,0.2,1.3,0.8,1.9c0.6,0.6,1.4,1,2.2,1.3l2,0.9c1.2,0.5,2.4,1.1,3.3,2c1.1,1.1,1.5,2.3,1.5,3.9c0,3.9-2.9,6.6-6.8,6.6
			c-1.4,0-3.2-0.3-4.6-1.7c-1.1-1-1.7-2.5-2-3.8l2.3-0.6c0.2,1.1,0.7,2.1,1.3,2.7c0.9,0.9,2,1.2,3.1,1.2c2.9,0,4.3-2.1,4.3-4.2
			c0-1-0.3-1.8-1.1-2.5c-0.6-0.6-1.4-1-2.6-1.5l-1.9-0.9c-0.8-0.4-1.9-0.8-2.8-1.8c-0.9-0.9-1.5-1.9-1.5-3.5c0-3.3,2.5-5.5,6-5.5
			c1.3,0,2.4,0.3,3.4,1c0.9,0.6,1.6,1.4,2.1,2.4L248.1,104.5z"/>
		<path class="st0" d="M266.5,100.3c2.1,0,3.9,0.3,5.4,1.5c1.6,1.3,2,3.2,2,4.6c0,3-1.9,6-6.8,6H265v9.3h-2.4v-21.3H266.5z
			 M265,110.1h2c2.8,0,4.5-1.4,4.5-3.9c0-3.4-3.2-3.7-4.7-3.7H265V110.1z"/>
		<path class="st0" d="M277.2,100.3h4.4c2.1,0,5.2,0.2,7.9,2.5c2,1.6,3.6,4.4,3.6,8.2c0,4.5-2.2,6.9-3.7,8.2c-2,1.7-4,2.5-7.8,2.5
			h-4.3V100.3z M279.6,119.4h2.1c1.7,0,4-0.2,6.1-1.9c1.6-1.3,2.9-3.5,2.9-6.5c0-5.1-3.6-8.4-9-8.4h-2.1V119.4z"/>
		<path class="st0" d="M307.2,102.5h-7.4v6.3h7.1v2.2h-7.1v10.6h-2.4v-21.3h9.7V102.5z"/>
	</g>
	<g>
		<polygon class="st0" points="266,181 266,313 130,313 130,137 230,137 230,181 		"/>
		<rect x="115.6" y="158.4" class="st33" width="101.4" height="35.1"/>
		<polygon class="st4" points="230,138 264.8,181 230,181 		"/>
	</g>
</g>
</svg>
