<?xml version="1.0" encoding="utf-8"?>
<!-- Generator: Adobe Illustrator 18.1.1, SVG Export Plug-In . SVG Version: 6.00 Build 0)  -->
<svg version="1.1" id="Layer_1" xmlns="http://www.w3.org/2000/svg" xmlns:xlink="http://www.w3.org/1999/xlink" x="0px" y="0px"
	 viewBox="0 0 686.4 328" style="enable-background:new 0 0 686.4 328;" xml:space="preserve">
<style type="text/css">
	.st0{fill:#FFFFFF;}
	.st1{fill:#F2F2F2;}
	.st2{fill:none;}
	.st3{fill:#E6E6E6;}
	.st4{fill:#B3B3B3;}
	.st5{fill:#FBB03B;}
	.st6{fill:#F7931E;}
	.st7{fill:#166B91;}
	.st8{fill:#56C1FC;}
	.st9{fill:#BEE9FC;}
	.st10{opacity:0.53;fill:#56C1FC;}
	.st11{opacity:0.32;fill:#56C1FC;}
	.st12{fill:#666666;}
	.st13{fill:#CCCCCC;stroke:#999999;stroke-width:2;stroke-miterlimit:10;}
	.st14{clip-path:url(#SVGID_2_);}
	.st15{clip-path:url(#SVGID_4_);}
	.st16{fill:#4D4D4D;}
	.st17{fill:#FF931E;stroke:#AF651B;stroke-miterlimit:10;}
	.st18{fill:#FF931E;stroke:#AF651B;stroke-width:1.1825;stroke-miterlimit:10;}
	.st19{fill:none;stroke:#B3B3B3;stroke-width:2.0562;stroke-miterlimit:10;stroke-dasharray:7.2;}
	.st20{fill:none;stroke:#B3B3B3;stroke-width:2.0562;stroke-miterlimit:10;}
	.st21{fill:none;stroke:#B3B3B3;stroke-width:2.0562;stroke-miterlimit:10;stroke-dasharray:6.5096,6.5096;}
	.st22{fill:#CCCCCC;}
	.st23{fill:#00A99D;}
	.st24{fill:#999999;}
	.st25{fill:#333333;}
	.st26{fill:#0071BC;}
	.st27{fill:#9AC8E2;}
	.st28{fill:#BED9E5;}
	.st29{fill:none;stroke:#B3B3B3;stroke-width:3.4271;stroke-miterlimit:10;stroke-dasharray:12;}
	.st30{fill:none;stroke:#B3B3B3;stroke-width:3.4271;stroke-miterlimit:10;}
	.st31{fill:none;stroke:#B3B3B3;stroke-width:3.4271;stroke-miterlimit:10;stroke-dasharray:10.8493,10.8493;}
	.st32{fill:#02897C;}
	.st33{fill:#808080;}
	.st34{fill:#1E82F7;}
	.st35{fill:#F15A24;}
	.st36{fill:#FF5662;}
	.st37{opacity:0.8;}
	.st38{opacity:0.8;fill:none;stroke:#FF5662;stroke-width:2;stroke-miterlimit:10;stroke-dasharray:2,4;}
	.st39{fill:#F9C580;}
	.st40{opacity:0.8;fill:none;stroke:#F15A24;stroke-width:2;stroke-miterlimit:10;stroke-dasharray:2,4;}
	.st41{clip-path:url(#SVGID_6_);}
	.st42{clip-path:url(#SVGID_8_);}
	.st43{fill:#B3B3B3;stroke:#999999;stroke-width:2;stroke-miterlimit:10;}
	.st44{fill:none;stroke:#FFFFFF;stroke-width:7;stroke-miterlimit:10;}
	.st45{fill:#B77318;}
	.st46{fill:none;stroke:#FFFFFF;stroke-width:4;stroke-linecap:round;stroke-miterlimit:10;}
	.st47{fill:#694861;}
	.st48{fill:#A65B03;}
	.st49{clip-path:url(#SVGID_10_);}
	.st50{clip-path:url(#SVGID_12_);}
	.st51{clip-path:url(#SVGID_14_);}
	.st52{fill:#A6338C;}
	.st53{clip-path:url(#SVGID_16_);}
	.st54{fill:#C0A23B;}
	.st55{fill:#B01C8E;}
	.st56{clip-path:url(#SVGID_18_);}
	.st57{clip-path:url(#SVGID_20_);}
	.st58{fill:#FF931E;}
	.st59{clip-path:url(#SVGID_22_);}
	.st60{clip-path:url(#SVGID_24_);}
	.st61{clip-path:url(#SVGID_26_);}
	.st62{clip-path:url(#SVGID_28_);}
	.st63{fill:none;stroke:#999999;stroke-width:2.5947;stroke-miterlimit:10;}
	.st64{fill:none;stroke:#999999;stroke-width:2.3313;stroke-miterlimit:10;}
	.st65{fill:#8E7689;}
	.st66{fill:none;stroke:#4D4D4D;stroke-width:2;stroke-miterlimit:10;}
	.st67{clip-path:url(#SVGID_30_);}
	.st68{clip-path:url(#SVGID_32_);}
	.st69{opacity:0.7;fill:#FEEFD8;}
	.st70{opacity:0.7;fill:#CCEEEB;}
	.st71{fill:#1A1A1A;}
	.st72{fill:none;stroke:#333333;stroke-width:2;stroke-miterlimit:10;}
	.st73{clip-path:url(#SVGID_34_);}
	.st74{clip-path:url(#SVGID_36_);}
	.st75{clip-path:url(#SVGID_38_);}
	.st76{clip-path:url(#SVGID_40_);}
	.st77{fill:none;stroke:#666666;stroke-width:2.1246;stroke-linecap:round;stroke-miterlimit:10;stroke-dasharray:2.1246,3.1869;}
	.st78{fill:none;stroke:#CCCCCC;stroke-width:3;stroke-miterlimit:10;}
	.st79{fill:none;stroke:#333333;stroke-width:3;stroke-miterlimit:10;}
	.st80{fill:none;stroke:#FFFFFF;stroke-width:3;stroke-miterlimit:10;}
	.st81{fill:none;stroke:#666666;stroke-width:5.099;stroke-linecap:round;stroke-miterlimit:10;stroke-dasharray:5.099,7.6485;}
	.st82{fill:none;stroke:#CCCCCC;stroke-width:7.2;stroke-miterlimit:10;}
	.st83{fill:none;stroke:#333333;stroke-width:7.2;stroke-miterlimit:10;}
	.st84{fill:none;stroke:#FFFFFF;stroke-width:7.2;stroke-miterlimit:10;}
</style>
<g>
	<path class="st71" d="M629.7,299.4H77.4c-15.3,0-27.8-12.5-27.8-27.8V77.3c0-15.3,12.5-27.8,27.8-27.8h552.3
		c15.3,0,27.8,12.5,27.8,27.8v194.3C657.6,286.9,645.1,299.4,629.7,299.4z"/>
	<path class="st47" d="M608.9,278.6H56.6c-15.3,0-27.8-12.5-27.8-27.8V56.5c0-15.3,12.5-27.8,27.8-27.8h552.3
		c15.3,0,27.8,12.5,27.8,27.8v194.3C636.8,266.1,624.3,278.6,608.9,278.6z"/>
	<g>
		<rect x="137.9" y="47.9" class="st2" width="389.8" height="41"/>
		<path class="st0" d="M144.6,51.3l9.7,27.5l11.5-29.4l10.9,29.4l10.7-27.5h4.5l-15.4,38.6l-10.8-29.4l-11.5,29.4l-14.1-38.6H144.6z
			"/>
		<path class="st0" d="M195.1,69.7c0-10.9,8.5-19,19.1-19s19.1,8,19.1,19c0,10.9-8.5,19-19.1,19C203.5,88.6,195.1,80.6,195.1,69.7z
			 M199.3,69.7c0,8.4,6.7,15.1,14.9,15.1c8.2,0,14.9-6.7,14.9-15.1s-6.7-15.1-14.9-15.1C205.9,54.6,199.3,61.3,199.3,69.7z"/>
		<path class="st0" d="M246.6,51.3c2.5,0,6.2,0.2,8.9,2c2.1,1.4,4,4.2,4,8.1c0,5.6-3.7,9.7-9.2,10.1L262,88H257l-11.2-16.1h-1V88
			h-4.1V51.3H246.6z M244.8,68.3h2.6c5.1,0,8.1-2.4,8.1-6.7c0-2-0.6-4.1-2.9-5.4c-1.6-0.9-3.5-1-5.3-1h-2.5V68.3z"/>
		<path class="st0" d="M272.4,67L288,51.3h5.5l-17.2,17.1L294.1,88h-5.6l-15-16.8l-1,1V88h-4.1V51.3h4.1V67z"/>
		<path class="st0" d="M312.6,51.3l9.7,27.5l11.5-29.4l10.9,29.4l10.7-27.5h4.5l-15.4,38.6l-10.8-29.4l-11.5,29.4l-14.1-38.6H312.6z
			"/>
		<path class="st0" d="M369.1,51.3V88h-4.1V51.3H369.1z"/>
		<path class="st0" d="M387.6,55.2V88h-4.1V55.2h-8.9v-3.8h21.9v3.8H387.6z"/>
		<path class="st0" d="M406.1,66.2h18.8V51.3h4.1V88h-4.1V70.1h-18.8V88H402V51.3h4.1V66.2z"/>
		<path class="st0" d="M455.3,73.8c0,3.1,0,6.4,2.9,8.9c1.5,1.3,4,2.1,6,2.1c2,0,4.6-0.8,6-2.1c2.9-2.5,2.9-5.8,2.9-8.9V51.3h4.1
			v23.6c0,3.1-0.3,6-2.3,8.8c-2.2,3-6,4.9-10.7,4.9c-4.7,0-8.5-1.9-10.7-4.9c-2-2.8-2.3-5.7-2.3-8.8V51.3h4.1V73.8z"/>
		<path class="st0" d="M503.2,58.6c-0.5-1-1.3-2.1-2.1-2.8c-0.7-0.5-2-1.3-4.1-1.3c-3.6,0-6.2,2.3-6.2,5.7c0,1.4,0.4,2.3,1.4,3.2
			c1.1,1.1,2.5,1.7,3.8,2.3l3.5,1.5c2.1,0.9,4.1,1.9,5.7,3.5c1.9,1.9,2.6,4,2.6,6.7c0,6.8-5,11.3-11.6,11.3c-2.4,0-5.4-0.5-8-3
			c-1.8-1.8-2.9-4.3-3.4-6.5l4-1.1c0.3,1.9,1.2,3.6,2.2,4.7c1.6,1.6,3.4,2,5.3,2c5,0,7.4-3.6,7.4-7.3c0-1.7-0.5-3.1-1.8-4.3
			c-1-1-2.5-1.6-4.4-2.5l-3.3-1.5c-1.4-0.7-3.2-1.4-4.9-3c-1.6-1.5-2.5-3.2-2.5-6c0-5.7,4.3-9.5,10.3-9.5c2.3,0,4.1,0.4,5.9,1.7
			c1.5,1,2.7,2.5,3.6,4.1L503.2,58.6z"/>
		<path class="st0" d="M518.3,83c1.5,0,2.7,1.3,2.7,2.8c0,1.5-1.3,2.7-2.7,2.7s-2.7-1.3-2.7-2.7C515.5,84.3,516.8,83,518.3,83z
			 M516.3,80.6V51.3h4v29.3H516.3z"/>
	</g>
	<g>
		<path class="st4" d="M451.5,184.1l-35,63.4c-1.7,3.1-5,4.7-8.5,4.7h-13.6c-2.2,0-3.7-2.4-2.6-4.4l35.3-63.8c1.7-3.1,1.7-7,0-10.1
			l-35.1-63.6c-1.1-2,0.3-4.4,2.6-4.4h13.6c3.6,0,6.8,2.2,8.5,5.3l34.9,63.2C453.1,177.5,453.1,181.2,451.5,184.1z"/>
		<path class="st0" d="M414.1,183.5l-35,63.7c-1.7,3.1-5,5-8.5,5H222.6c-5.4,0-9.7-4.4-9.7-9.7V115.8c0-5.4,4.4-9.7,9.7-9.7h148
			c3.5,0,6.8,1.9,8.5,5l34.9,63C415.7,177,415.7,180.6,414.1,183.5z"/>
	</g>
</g>
</svg>
