<svg width="200" height="200" xmlns="http://www.w3.org/2000/svg" xmlns:xlink="http://www.w3.org/1999/xlink">
 <style type="text/css">.st0{fill:#0E2850;}
	.st1{filter:url(#Adobe_OpacityMaskFilter);}
	.st2{mask:url(#SVGID_1_);fill:#FFFFFF;}
	.st3{fill:#A2C9E6;}
	.st4{fill:#97BBD5;}
	.st5{fill:#8EB0C9;}
	.st6{fill:#FFFFFF;}
	.st7{fill:#466073;}
	.st8{fill:none;stroke:#C0392B;stroke-width:6;stroke-miterlimit:10;}
	.st9{fill:none;stroke:#C0392B;stroke-width:5;stroke-linecap:round;stroke-linejoin:round;}
	.st10{fill:none;stroke:#C0392B;stroke-width:5;stroke-linecap:round;stroke-linejoin:round;stroke-dasharray:0.9858,7.8862;}
	.st11{fill:none;stroke:#C0392B;stroke-width:5;stroke-miterlimit:10;}
	.st12{clip-path:url(#SVGID_3_);}
	.st13{clip-path:url(#SVGID_5_);}
	.st14{clip-path:url(#SVGID_7_);}
	.st15{fill:none;}
	.st16{clip-path:url(#SVGID_9_);}
	.st17{clip-path:url(#SVGID_11_);}
	.st18{fill:#E74C3C;}
	.st19{clip-path:url(#SVGID_13_);fill:#E74C3C;}
	.st20{fill:#C0392B;}
	.st21{clip-path:url(#SVGID_15_);}
	.st22{clip-path:url(#SVGID_17_);fill:#E74C3C;}
	.st23{clip-path:url(#SVGID_19_);}
	.st24{clip-path:url(#SVGID_21_);fill:#C0392B;}
	.st25{clip-path:url(#SVGID_23_);}
	.st26{fill:#E67E22;}
	.st27{clip-path:url(#SVGID_25_);fill:#E67E22;}
	.st28{fill:#D35400;}
	.st29{clip-path:url(#SVGID_27_);}
	.st30{clip-path:url(#SVGID_29_);fill:#D35400;}
	.st31{clip-path:url(#SVGID_31_);}
	.st32{fill:#3498DB;}
	.st33{clip-path:url(#SVGID_33_);fill:#3498DB;}
	.st34{fill:#2980B9;}
	.st35{clip-path:url(#SVGID_35_);}
	.st36{clip-path:url(#SVGID_37_);fill:#2980B9;}
	.st37{clip-path:url(#SVGID_39_);}
	
		.st38{fill:none;stroke:#C0392B;stroke-width:5;stroke-linecap:round;stroke-linejoin:round;stroke-miterlimit:10;stroke-dasharray:1,8;}
	.st39{fill:#ED1C24;}
	.st40{fill:#FF00FF;}
	.st41{fill:#FBB03B;}
	.st42{fill:none;stroke:#0E2850;stroke-width:4.6392;stroke-miterlimit:10;}
	.st43{fill:none;stroke:#A2C9E6;stroke-miterlimit:10;}
	.st44{fill:#F2F2F2;}
	.st45{fill:none;stroke:#0E2850;stroke-width:2;stroke-miterlimit:10;}
	.st46{fill:none;stroke:#0E2850;stroke-width:1.5;stroke-miterlimit:10;}
	.st47{fill:#0E2850;stroke:#0E2850;stroke-width:0.5;stroke-miterlimit:10;}
	.st48{fill:#D9E021;}
	.st49{fill:#A3A819;}
	.st50{fill:#333333;}
	.st51{fill:#BC842C;}
	.st52{display:none;fill:#97BBD5;}
	.st53{clip-path:url(#SVGID_41_);fill:#FFFFFF;}
	.st54{filter:url(#Adobe_OpacityMaskFilter_1_);}
	.st55{mask:url(#SVGID_42_);}
	.st56{clip-path:url(#SVGID_44_);fill:#FFFFFF;}
	.st57{filter:url(#Adobe_OpacityMaskFilter_2_);}
	.st58{mask:url(#SVGID_45_);fill:#0E2850;}
	.st59{clip-path:url(#SVGID_47_);fill:#A2C9E6;}
	.st60{clip-path:url(#SVGID_47_);fill:#97BBD5;}
	.st61{clip-path:url(#SVGID_47_);}
	.st62{clip-path:url(#SVGID_47_);fill:#0E2850;}
	.st63{clip-path:url(#SVGID_49_);fill:#A2C9E6;}
	.st64{clip-path:url(#SVGID_49_);fill:#97BBD5;}
	.st65{clip-path:url(#SVGID_49_);fill:#0E2850;}
	.st66{clip-path:url(#SVGID_49_);}
	.st67{clip-path:url(#SVGID_51_);fill:#A2C9E6;}
	.st68{clip-path:url(#SVGID_51_);fill:#8EB0C9;}
	.st69{clip-path:url(#SVGID_51_);fill:#466073;}
	.st70{clip-path:url(#SVGID_51_);fill:#97BBD5;}
	.st71{clip-path:url(#SVGID_51_);fill:#0E2850;}
	.st72{clip-path:url(#SVGID_51_);fill:none;stroke:#0E2850;stroke-width:2;stroke-miterlimit:10;}
	.st73{clip-path:url(#SVGID_51_);fill:none;stroke:#0E2850;stroke-width:1.5;stroke-miterlimit:10;}
	.st74{clip-path:url(#SVGID_51_);fill:#FFFFFF;}
	.st75{clip-path:url(#SVGID_53_);fill:#A2C9E6;}
	.st76{clip-path:url(#SVGID_53_);}
	.st77{clip-path:url(#SVGID_55_);fill:#FFFFFF;}
	.st78{filter:url(#Adobe_OpacityMaskFilter_3_);}
	.st79{mask:url(#SVGID_56_);fill:#0E2850;}
	.st80{clip-path:url(#SVGID_58_);fill:#A2C9E6;}
	.st81{clip-path:url(#SVGID_58_);fill:#97BBD5;}
	.st82{clip-path:url(#SVGID_58_);}
	.st83{fill:none;stroke:#0E2850;stroke-width:6.2062;stroke-miterlimit:10;}
	.st84{clip-path:url(#SVGID_60_);fill:#A2C9E6;}
	.st85{clip-path:url(#SVGID_60_);fill:#97BBD5;}
	.st86{clip-path:url(#SVGID_60_);fill:#0E2850;}
	.st87{clip-path:url(#SVGID_60_);}
	.st88{clip-path:url(#SVGID_62_);fill:#A2C9E6;}
	.st89{clip-path:url(#SVGID_62_);fill:#FFFFFF;}
	.st90{clip-path:url(#SVGID_62_);fill:#97BBD5;}
	.st91{clip-path:url(#SVGID_62_);}
	.st92{fill:none;stroke:#97BBD5;stroke-width:4;stroke-linejoin:round;stroke-miterlimit:10;}
	.st93{clip-path:url(#SVGID_64_);fill:#A2C9E6;}
	.st94{clip-path:url(#SVGID_64_);}
	.st95{filter:url(#Adobe_OpacityMaskFilter_4_);}
	.st96{mask:url(#SVGID_65_);fill:#97BBD5;}
	.st97{clip-path:url(#SVGID_67_);fill:#A2C9E6;}
	.st98{clip-path:url(#SVGID_67_);fill:#97BBD5;}
	.st99{clip-path:url(#SVGID_67_);fill:#0E2850;}
	.st100{clip-path:url(#SVGID_67_);fill:#FFFFFF;}
	.st101{clip-path:url(#SVGID_69_);fill:#A2C9E6;}
	.st102{clip-path:url(#SVGID_69_);fill:#97BBD5;}
	.st103{clip-path:url(#SVGID_69_);fill:none;stroke:#0E2850;stroke-width:3.7897;stroke-miterlimit:10;}
	.st104{clip-path:url(#SVGID_69_);}</style>
 <g>
  <title>background</title>
  <rect fill="none" id="canvas_background" height="402" width="582" y="-1" x="-1"/>
 </g>
 <g>
  <title>Layer 1</title>
  <g id="svg_1">
   <defs>
    <rect height="200" width="200" id="SVGID_46_"/>
   </defs>
   <rect id="svg_3" clip-path="url(#SVGID_1_)" fill="#A2C9E6" height="211" width="210" y="-5.7" x="-2.5"/>
   <path id="svg_32" clip-path="url(#SVGID_1_)" fill="#97BBD5" d="m159,155.3l-26.8,15.4c-0.5,0.3 -1,0.3 -1.5,0l-26.7,-15.5c-0.5,-0.3 -0.8,-0.8 -0.8,-1.3l0.1,-30.9c0,-0.5 0.3,-1 0.8,-1.3l26.8,-15.4c0.5,-0.3 1,-0.3 1.5,0l26.6,15.5c0.5,0.3 0.8,0.8 0.8,1.3l-0.1,30.9c0,0.5 -0.3,1 -0.7,1.3z"/>
   <polygon stroke="null" id="svg_28" clip-path="url(#SVGID_1_)" fill="#97BBD5" points="89.30000305175781,286.0083312988281 175.40383911132812,453.6000061035156 309.5,233.1958465576172 159.17111206054688,81.80000305175781 "/>
   <clipPath id="SVGID_1_">
    <use id="svg_2" xlink:href="#SVGID_46_"/>
   </clipPath>
   <polygon stroke="null" id="svg_4" clip-path="url(#SVGID_1_)" fill="#97BBD5" points="133.3000030517578,95.80000305175781 145.5,119.5999984741211 164.5,88.30000305175781 143.1999969482422,66.80000305175781 "/>
   <polygon id="svg_6" clip-path="url(#SVGID_1_)" fill="#97BBD5" points="96.20000076293945,75 116.30000305175781,106.69999694824219 135.3000030517578,75.4000015258789 106.0999984741211,46 "/>
   <path id="svg_16" clip-path="url(#SVGID_1_)" fill="#0E2850" d="m127.9,115.9l-26.8,15.4c-0.5,0.3 -1,0.3 -1.5,0l-26.7,-15.5c-0.5,-0.3 -0.8,-0.8 -0.8,-1.3l0.1,-30.9c0,-0.5 0.3,-1 0.8,-1.3l26.8,-15.4c0.5,-0.3 1,-0.3 1.5,0l26.7,15.5c0.5,0.3 0.8,0.8 0.8,1.3l-0.1,30.9c0,0.5 -0.3,1 -0.8,1.3z"/>
   <line stroke-linecap="null" stroke-linejoin="null" id="svg_26" y2="189.5" x2="258.5" y1="88.5" x1="163.5" fill-opacity="null" stroke-opacity="null" stroke-width="null" stroke="null" fill="none"/>
   <line stroke-linecap="null" stroke-linejoin="null" id="svg_27" y2="106.5" x2="196.5" y1="135.5" x1="204.5" fill-opacity="null" stroke-opacity="null" stroke-width="null" stroke="null" fill="none"/>
   <polygon transform="rotate(-55.41754150390625 228.89999389648435,193.69999694824222) " stroke="null" id="svg_29" clip-path="url(#SVGID_1_)" fill="#97BBD5" points="113.30000305175781,212.00833129882812 203.7051239013672,379.6000061035156 344.5,159.1958465576172 186.6614990234375,7.8000030517578125 "/>
   <polygon transform="rotate(-55.41754150390625 254.89999389648438,178.69999694824213) " stroke="null" id="svg_30" clip-path="url(#SVGID_1_)" fill="#97BBD5" points="139.3000030517578,197.00833129882812 229.7051239013672,364.6000061035156 370.5,144.1958465576172 212.6614990234375,-7.1999969482421875 "/>
   <g id="svg_8" clip-path="url(#SVGID_1_)">
    <path id="svg_9" d="m97.1,140.6l-31.4,-18.2c-2,-1.2 -3.2,-3.3 -3.2,-5.7l0,-36.4c0,-2.4 1.2,-4.5 3.2,-5.7l31.5,-18.2c2,-1.2 4.5,-1.2 6.6,0l31.5,18.2c2,1.2 3.3,3.3 3.3,5.7l0,36.4c0,2.4 -1.3,4.5 -3.3,5.7l-31.5,18.2c-2.2,1.1 -4.7,1.1 -6.7,0z" class="st0"/>
    <path id="svg_10" d="m64.6,93.4c-0.7,-0.2 0.6,-0.5 1.2,-1.4c0.8,-1.2 1.6,-2.4 2.3,-3.7c1.4,-2.4 2.8,-4.8 4.3,-7.1c1.7,-2.5 3.2,-5.2 4.8,-7.9c-0.2,-1.1 -0.4,-2.2 -0.8,-2.7c0,0 -0.1,-0.1 -0.1,-0.1c-0.1,0.1 -0.1,0.1 -0.2,0.2c-4.7,-1.1 -9.6,-2.3 -14.5,-3.4c-1.4,-0.3 -2.8,-0.4 -4.2,-0.6l-7.2,12.6c4.3,4.5 8.5,9 12.8,13.5c0,0.2 -0.1,0.3 -0.1,0.5c0.5,-0.1 1.1,0 1.7,0.1z" class="st0"/>
    <path id="svg_11" d="m86.7,65.2c-0.2,-0.7 0.7,0.2 1.8,0.3c1.5,0.1 2.9,0.2 4.4,0.2c2.8,0 5.6,0 8.4,0.2c3,0.2 6.1,0.2 9.2,0.2c0.8,-0.7 1.7,-1.4 2,-2c0,0 0,-0.1 0.1,-0.1c-0.1,0 -0.2,-0.1 -0.2,-0.1c-1.4,-4.6 -2.8,-9.3 -4.3,-14.1c-0.4,-1.3 -1,-2.8 -1.6,-3.8l-14.8,0c-1.8,6 -3.5,11.7 -5.3,17.6c-0.2,0.1 -0.3,0 -0.5,0.1c0.3,0.4 0.6,0.9 0.8,1.5z" class="st0"/>
    <path id="svg_12" d="m124,72c0.5,-0.5 0.1,0.7 0.6,1.7c0.6,1.3 1.3,2.6 2,3.9c1.4,2.4 2.8,4.8 4,7.3c1.3,2.7 2.9,5.3 4.4,8.1c1,0.4 2.1,0.8 2.8,0.7c0,0 0.1,0 0.1,0c0,-0.1 0,-0.2 -0.1,-0.2c3.3,-3.5 6.8,-7.2 10.2,-10.9c1,-1 1.8,-2.2 2.6,-3.3l-7.3,-12.7c-6,1.4 -12.1,2.9 -18.1,4.3c-0.1,-0.1 -0.2,-0.2 -0.4,-0.3c0,0.5 -0.4,1 -0.8,1.4z" class="st0"/>
    <path id="svg_13" d="m136.3,105.9c0.7,0.2 -0.6,0.5 -1.2,1.4c-0.8,1.2 -1.6,2.4 -2.3,3.7c-1.4,2.4 -2.8,4.8 -4.3,7.1c-1.7,2.5 -3.2,5.2 -4.8,7.9c0.2,1.1 0.4,2.2 0.8,2.7c0,0 0.1,0.1 0.1,0.1c0.1,-0.1 0.1,-0.1 0.2,-0.2c4.7,1.1 9.6,2.3 14.5,3.4c1.4,0.3 2.8,0.4 4.2,0.6l7.3,-12.7c-4.3,-4.5 -8.5,-9 -12.8,-13.5c0,-0.2 0.1,-0.3 0.1,-0.5c-0.6,0.2 -1.2,0.1 -1.8,0z" class="st0"/>
    <path id="svg_14" d="m77.8,126.8c-0.5,0.5 -0.1,-0.7 -0.6,-1.7c-0.6,-1.3 -1.3,-2.6 -2,-3.9c-1.4,-2.4 -2.8,-4.8 -4,-7.3c-1.3,-2.7 -2.9,-5.3 -4.4,-8.1c-1,-0.4 -2.1,-0.8 -2.8,-0.7c0,0 -0.1,0 -0.1,0c0,0.1 0,0.2 0.1,0.2c-3.3,3.5 -6.8,7.2 -10.2,10.9c-1,1 -1.8,2.2 -2.6,3.3l7.3,12.7c6,-1.4 12.1,-2.9 18.1,-4.3c0.1,0.1 0.2,0.2 0.4,0.3c0,-0.5 0.3,-0.9 0.8,-1.4z" class="st0"/>
    <path id="svg_15" d="m113,132.8c0.2,0.7 -0.7,-0.2 -1.8,-0.3c-1.5,-0.1 -2.9,-0.2 -4.4,-0.2c-2.8,0 -5.6,0 -8.4,-0.2c-3,-0.2 -6.1,-0.2 -9.2,-0.2c-0.8,0.7 -1.7,1.4 -2,2c0,0 0,0.1 -0.1,0.1c0.1,0 0.2,0.1 0.2,0.1c1.4,4.6 2.8,9.3 4.3,14.1c0.4,1.3 1,2.8 1.6,3.8l14.8,0c1.8,-6 3.5,-11.7 5.3,-17.6c0.2,-0.1 0.3,0 0.5,-0.1c-0.4,-0.4 -0.6,-0.9 -0.8,-1.5z" class="st0"/>
   </g>
   <path id="svg_25" clip-path="url(#SVGID_1_)" fill="#97BBD5" d="m128,115.3l-26.8,15.4c-0.5,0.3 -1,0.3 -1.5,0l-26.7,-15.5c-0.5,-0.3 -0.8,-0.8 -0.8,-1.3l0.1,-30.9c0,-0.5 0.3,-1 0.8,-1.3l26.8,-15.4c0.5,-0.3 1,-0.3 1.5,0l26.6,15.5c0.5,0.3 0.8,0.8 0.8,1.3l-0.1,30.9c0,0.5 -0.3,1 -0.7,1.3z"/>
  </g>
 </g>
</svg>