<?xml version="1.0" encoding="utf-8"?>
<!-- Generator: Adobe Illustrator 19.1.0, SVG Export Plug-In . SVG Version: 6.00 Build 0)  -->
<svg version="1.1" id="Layer_1" xmlns="http://www.w3.org/2000/svg" xmlns:xlink="http://www.w3.org/1999/xlink" x="0px" y="0px"
	 viewBox="0 0 200 200" style="enable-background:new 0 0 200 200;" xml:space="preserve">
<style type="text/css">
	.st0{fill:#0E2850;}
	.st1{filter:url(#Adobe_OpacityMaskFilter);}
	.st2{mask:url(#SVGID_1_);fill:#FFFFFF;}
	.st3{fill:#A2C9E6;}
	.st4{fill:#97BBD5;}
	.st5{fill:#8EB0C9;}
	.st6{fill:#FFFFFF;}
	.st7{fill:#466073;}
	.st8{fill:none;stroke:#C0392B;stroke-width:6;stroke-miterlimit:10;}
	.st9{fill:none;stroke:#C0392B;stroke-width:5;stroke-linecap:round;stroke-linejoin:round;}
	.st10{fill:none;stroke:#C0392B;stroke-width:5;stroke-linecap:round;stroke-linejoin:round;stroke-dasharray:0.9858,7.8862;}
	.st11{fill:none;stroke:#C0392B;stroke-width:5;stroke-miterlimit:10;}
	.st12{clip-path:url(#SVGID_3_);}
	.st13{clip-path:url(#SVGID_5_);}
	.st14{clip-path:url(#SVGID_7_);}
	.st15{fill:none;}
	.st16{clip-path:url(#SVGID_9_);}
	.st17{clip-path:url(#SVGID_11_);}
	.st18{fill:#E74C3C;}
	.st19{clip-path:url(#SVGID_13_);fill:#E74C3C;}
	.st20{fill:#C0392B;}
	.st21{clip-path:url(#SVGID_15_);}
	.st22{clip-path:url(#SVGID_17_);fill:#E74C3C;}
	.st23{clip-path:url(#SVGID_19_);}
	.st24{clip-path:url(#SVGID_21_);fill:#C0392B;}
	.st25{clip-path:url(#SVGID_23_);}
	.st26{fill:#E67E22;}
	.st27{clip-path:url(#SVGID_25_);fill:#E67E22;}
	.st28{fill:#D35400;}
	.st29{clip-path:url(#SVGID_27_);}
	.st30{clip-path:url(#SVGID_29_);fill:#D35400;}
	.st31{clip-path:url(#SVGID_31_);}
	.st32{fill:#3498DB;}
	.st33{clip-path:url(#SVGID_33_);fill:#3498DB;}
	.st34{fill:#2980B9;}
	.st35{clip-path:url(#SVGID_35_);}
	.st36{clip-path:url(#SVGID_37_);fill:#2980B9;}
	.st37{clip-path:url(#SVGID_39_);}
	
		.st38{fill:none;stroke:#C0392B;stroke-width:5;stroke-linecap:round;stroke-linejoin:round;stroke-miterlimit:10;stroke-dasharray:1,8;}
	.st39{fill:#ED1C24;}
	.st40{fill:#FF00FF;}
	.st41{fill:#FBB03B;}
	.st42{fill:none;stroke:#0E2850;stroke-width:4.6392;stroke-miterlimit:10;}
	.st43{fill:none;stroke:#A2C9E6;stroke-miterlimit:10;}
	.st44{fill:#F2F2F2;}
	.st45{fill:none;stroke:#0E2850;stroke-width:2;stroke-miterlimit:10;}
	.st46{fill:none;stroke:#0E2850;stroke-width:1.5;stroke-miterlimit:10;}
	.st47{fill:#0E2850;stroke:#0E2850;stroke-width:0.5;stroke-miterlimit:10;}
	.st48{fill:#D9E021;}
	.st49{fill:#A3A819;}
	.st50{fill:#333333;}
	.st51{fill:#BC842C;}
	.st52{display:none;fill:#97BBD5;}
	.st53{clip-path:url(#SVGID_41_);fill:#FFFFFF;}
	.st54{filter:url(#Adobe_OpacityMaskFilter_1_);}
	.st55{mask:url(#SVGID_42_);}
	.st56{clip-path:url(#SVGID_44_);fill:#FFFFFF;}
	.st57{filter:url(#Adobe_OpacityMaskFilter_2_);}
	.st58{mask:url(#SVGID_45_);fill:#0E2850;}
	.st59{clip-path:url(#SVGID_47_);fill:#A2C9E6;}
	.st60{clip-path:url(#SVGID_47_);fill:#97BBD5;}
	.st61{clip-path:url(#SVGID_47_);}
	.st62{clip-path:url(#SVGID_47_);fill:#0E2850;}
	.st63{clip-path:url(#SVGID_49_);fill:#A2C9E6;}
	.st64{clip-path:url(#SVGID_49_);fill:#97BBD5;}
	.st65{clip-path:url(#SVGID_49_);fill:#0E2850;}
	.st66{clip-path:url(#SVGID_49_);}
	.st67{clip-path:url(#SVGID_51_);fill:#A2C9E6;}
	.st68{clip-path:url(#SVGID_51_);fill:#8EB0C9;}
	.st69{clip-path:url(#SVGID_51_);fill:#466073;}
	.st70{clip-path:url(#SVGID_51_);fill:#97BBD5;}
	.st71{clip-path:url(#SVGID_51_);fill:#0E2850;}
	.st72{clip-path:url(#SVGID_51_);fill:none;stroke:#0E2850;stroke-width:2;stroke-miterlimit:10;}
	.st73{clip-path:url(#SVGID_51_);fill:none;stroke:#0E2850;stroke-width:1.5;stroke-miterlimit:10;}
	.st74{clip-path:url(#SVGID_51_);fill:#FFFFFF;}
	.st75{clip-path:url(#SVGID_53_);fill:#A2C9E6;}
	.st76{clip-path:url(#SVGID_53_);}
	.st77{clip-path:url(#SVGID_55_);fill:#FFFFFF;}
	.st78{filter:url(#Adobe_OpacityMaskFilter_3_);}
	.st79{mask:url(#SVGID_56_);fill:#0E2850;}
	.st80{clip-path:url(#SVGID_58_);fill:#A2C9E6;}
	.st81{clip-path:url(#SVGID_58_);fill:#97BBD5;}
	.st82{clip-path:url(#SVGID_58_);}
	.st83{fill:none;stroke:#0E2850;stroke-width:6.2062;stroke-miterlimit:10;}
	.st84{clip-path:url(#SVGID_60_);fill:#A2C9E6;}
	.st85{clip-path:url(#SVGID_60_);fill:#97BBD5;}
	.st86{clip-path:url(#SVGID_60_);fill:#0E2850;}
	.st87{clip-path:url(#SVGID_60_);}
	.st88{clip-path:url(#SVGID_62_);fill:#A2C9E6;}
	.st89{clip-path:url(#SVGID_62_);fill:#FFFFFF;}
	.st90{clip-path:url(#SVGID_62_);fill:#97BBD5;}
	.st91{clip-path:url(#SVGID_62_);}
	.st92{fill:none;stroke:#97BBD5;stroke-width:4;stroke-linejoin:round;stroke-miterlimit:10;}
	.st93{clip-path:url(#SVGID_64_);fill:#A2C9E6;}
	.st94{clip-path:url(#SVGID_64_);}
	.st95{filter:url(#Adobe_OpacityMaskFilter_4_);}
	.st96{mask:url(#SVGID_65_);fill:#97BBD5;}
	.st97{clip-path:url(#SVGID_67_);fill:#A2C9E6;}
	.st98{clip-path:url(#SVGID_67_);fill:#97BBD5;}
	.st99{clip-path:url(#SVGID_67_);fill:#0E2850;}
	.st100{clip-path:url(#SVGID_67_);fill:#FFFFFF;}
	.st101{clip-path:url(#SVGID_69_);fill:#A2C9E6;}
	.st102{clip-path:url(#SVGID_69_);fill:#97BBD5;}
	.st103{clip-path:url(#SVGID_69_);fill:none;stroke:#0E2850;stroke-width:3.7897;stroke-miterlimit:10;}
	.st104{clip-path:url(#SVGID_69_);}
</style>
<polygon class="st5" points="84.1,167.8 77.1,160.7 81,158.8 "/>
<ellipse class="st0" cx="98.4" cy="168.9" rx="11.7" ry="6.5"/>
<path class="st0" d="M110,164h8.8c0.8,0,1.2-0.5,1.2-1.3v-0.1c0-1.4-0.9-2.6-2.3-2.6H110V164z"/>
<ellipse class="st0" cx="98.5" cy="168.9" rx="11.7" ry="6.5"/>
<path class="st0" d="M110,164h8.9c0.8,0,1.1-0.5,1.1-1.3v-0.1c0-1.4-0.8-2.6-2.2-2.6H110V164z"/>
<g>
	<defs>
		<rect id="SVGID_50_" y="0" width="200" height="200"/>
	</defs>
	<clipPath id="SVGID_1_">
		<use xlink:href="#SVGID_50_"  style="overflow:visible;"/>
	</clipPath>
	<rect style="clip-path:url(#SVGID_1_);fill:#A2C9E6;" width="200" height="200"/>
	<polygon style="clip-path:url(#SVGID_1_);fill:#8EB0C9;" points="83.9,160.7 76.9,153.5 80.8,151.7 	"/>
	<polygon style="clip-path:url(#SVGID_1_);fill:#8EB0C9;" points="83.9,153.6 76.9,146.5 80.8,144.6 	"/>
	<polygon style="clip-path:url(#SVGID_1_);fill:#8EB0C9;" points="85.4,145.5 78.4,138.4 82.3,136.5 	"/>
	<polygon style="clip-path:url(#SVGID_1_);fill:#466073;" points="85.4,145.5 78.4,138.4 82.3,136.5 	"/>
	<polygon style="clip-path:url(#SVGID_1_);fill:#97BBD5;" points="177.4,257.1 82.1,166.7 131.6,47.9 228.3,139.7 	"/>
	<path style="clip-path:url(#SVGID_1_);fill:#0E2850;" d="M98.3,171.6c-11.9,0-19.3-5.4-19.3-10.9V138h39v22.7
		C118,166.2,110.2,171.6,98.3,171.6z"/>
	<path style="clip-path:url(#SVGID_1_);fill:#0E2850;" d="M110,150h8.8c0.8,0,1.2-0.5,1.2-1.3v0.1c0-1.4-0.9-2.8-2.3-2.8H110V150z"
		/>
	<path style="clip-path:url(#SVGID_1_);fill:#0E2850;" d="M110,157h8.8c0.8,0,1.2-0.4,1.2-1.2v-0.1c0-1.4-0.9-2.6-2.3-2.6H110V157z"
		/>
	<path style="clip-path:url(#SVGID_1_);fill:#0E2850;" d="M110,144h8.8c0.8,0,1.2-0.8,1.2-1.6v0c0-1.4-0.9-2.5-2.3-2.5H110V144z"/>
	<path style="clip-path:url(#SVGID_1_);fill:#0E2850;" d="M87,154h-9.1c-0.8,0-1.9-0.7-1.9-1.5v0c0-1.4,1.6-2.5,3-2.5h8V154z"/>
	<path style="clip-path:url(#SVGID_1_);fill:#0E2850;" d="M87,161h-9.1c-0.8,0-1.9-0.6-1.9-1.4v0c0-1.4,1.6-2.5,3-2.5h8V161z"/>
	<path style="clip-path:url(#SVGID_1_);fill:#0E2850;" d="M87,147h-9.1c-0.8,0-1.9-0.8-1.9-1.6v0c0-1.4,1.6-2.5,3-2.5h8V147z"/>
	<path style="clip-path:url(#SVGID_1_);fill:#A2C9E6;" d="M134.4,108L134.4,108c6.1-8,9.8-17.7,9.8-28.4c0-25.3-20.5-45.8-45.7-45.8
		S52.7,54.4,52.7,79.6c0,10.7,3.7,20.4,9.8,28.4h0c0,0,0,0,0.1,0c0.7,0.9,1.5,1.7,2.3,2.6c2.6,3.1,6.6,8.4,8.5,13
		c2.9,7,3.6,12.8,4.9,14.7c1.3,1.9,12.4,3.7,20.2,3.7s18.9-1.8,20.2-3.7c1.3-1.9,2-7.7,4.9-14.7c2.1-5.1,6.9-11.2,9.4-14.1
		c0.3-0.3,0.6-0.6,0.9-0.9C134.2,108.2,134.4,108,134.4,108z"/>
	<rect x="92" y="122" style="clip-path:url(#SVGID_1_);fill:#0E2850;" width="13" height="29"/>
	
		<line style="clip-path:url(#SVGID_1_);fill:none;stroke:#0E2850;stroke-width:2;stroke-miterlimit:10;" x1="93.1" y1="122.7" x2="81.9" y2="87.9"/>
	
		<line style="clip-path:url(#SVGID_1_);fill:none;stroke:#0E2850;stroke-width:2;stroke-miterlimit:10;" x1="104" y1="122.7" x2="115.2" y2="87.9"/>
	<path style="clip-path:url(#SVGID_1_);fill:none;stroke:#0E2850;stroke-width:1.5;stroke-miterlimit:10;" d="M81.9,89.2
		c0,0,2.3,0.4,3.1,0c0.8-0.4,2.3-1.8,3.1-1.8c0.8,0,3,2.7,3.6,2.7s2.7-2.7,3.5-2.7s3.2,2.7,3.9,2.7c0.7,0,2.8-2.7,3.6-2.7
		c0.7,0,2.9,2.7,3.4,2.7c0.5,0,3-2.7,3.6-2.7s1.8,1.4,2.5,1.8s3.1,0,3.1,0"/>
	<path style="clip-path:url(#SVGID_1_);fill:#0E2850;" d="M98.3,171.6c-11.9,0-19.3-5.4-19.3-10.9V138h39v22.7
		C118,166.2,110.2,171.6,98.3,171.6z"/>
	<path style="clip-path:url(#SVGID_1_);fill:#0E2850;" d="M110,157h8.9c0.8,0,1.1-0.4,1.1-1.2v-0.1c0-1.4-0.8-2.6-2.2-2.6H110V157z"
		/>
	<path style="clip-path:url(#SVGID_1_);fill:#0E2850;" d="M110,144h8.9c0.8,0,1.1-0.8,1.1-1.6v0c0-1.4-0.8-2.5-2.2-2.5H110V144z"/>
	<path style="clip-path:url(#SVGID_1_);fill:#0E2850;" d="M87,154h-9c-0.8,0-1-0.7-1-1.5v0c0-1.4,0.7-2.5,2.1-2.5H87V154z"/>
	<path style="clip-path:url(#SVGID_1_);fill:#0E2850;" d="M87,161h-9c-0.8,0-1-0.6-1-1.4v0c0-1.4,0.7-2.5,2.1-2.5H87V161z"/>
	<path style="clip-path:url(#SVGID_1_);fill:#0E2850;" d="M87,147h-9c-0.8,0-1-0.8-1-1.6v0c0-1.4,0.7-2.5,2.1-2.5H87V147z"/>
	<path style="clip-path:url(#SVGID_1_);fill:#FFFFFF;" d="M134.5,108L134.5,108c6.1-8,9.8-17.7,9.8-28.4c0-25.3-20.5-45.8-45.7-45.8
		S52.7,54.4,52.7,79.6c0,10.7,3.7,20.4,9.8,28.4h0c0,0,0,0,0.1,0c0.7,0.9,1.5,1.7,2.3,2.6c2.6,3.1,6.6,8.4,8.5,13
		c2.9,7,3.6,12.8,4.9,14.7s12.4,3.7,20.2,3.7s18.9-1.8,20.2-3.7c1.3-1.9,2-7.7,4.9-14.7c2.1-5.1,6.9-11.2,9.4-14.1
		c0.3-0.3,0.6-0.6,0.9-0.9C134.2,108.2,134.5,108,134.5,108z"/>
	<rect x="92" y="122" style="clip-path:url(#SVGID_1_);fill:#0E2850;" width="13" height="29"/>
	
		<line style="clip-path:url(#SVGID_1_);fill:none;stroke:#0E2850;stroke-width:2;stroke-miterlimit:10;" x1="93.1" y1="122.7" x2="81.9" y2="87.9"/>
	
		<line style="clip-path:url(#SVGID_1_);fill:none;stroke:#0E2850;stroke-width:2;stroke-miterlimit:10;" x1="104.1" y1="122.7" x2="115.3" y2="87.9"/>
	<path style="clip-path:url(#SVGID_1_);fill:none;stroke:#0E2850;stroke-width:1.5;stroke-miterlimit:10;" d="M81.9,89.2
		c0,0,2.3,0.4,3.1,0c0.8-0.4,2.3-1.8,3.1-1.8c0.8,0,3,2.7,3.6,2.7s2.7-2.7,3.5-2.7c0.7,0,3.2,2.7,3.9,2.7s2.8-2.7,3.6-2.7
		c0.7,0,2.9,2.7,3.4,2.7s3-2.7,3.6-2.7s1.8,1.4,2.5,1.8s3.1,0,3.1,0"/>
</g>
</svg>
