<?xml version="1.0" encoding="utf-8"?>
<!-- Generator: Adobe Illustrator 19.1.0, SVG Export Plug-In . SVG Version: 6.00 Build 0)  -->
<svg version="1.1" id="Layer_1" xmlns="http://www.w3.org/2000/svg" xmlns:xlink="http://www.w3.org/1999/xlink" x="0px" y="0px"
	 viewBox="0 0 1499 316.3" style="enable-background:new 0 0 1499 316.3;" xml:space="preserve">
<style type="text/css">
	.st0{fill:#0F294D;}
	.st1{fill:#A4C7E2;}
	.st2{fill:#FFFFFF;}
</style>
<g>
	<path class="st0" d="M281.2,265.8c-5.2,2-9.7,3.6-13.4,4.9c-3.7,1.3-7.3,2.4-10.7,3.5c-3.4,1-8.4,2.4-14.9,4c-11,2.6-22,4.5-33,5.8
		s-22.5,2-34.7,2c-24.5,0-47.1-4.5-67.9-13.4c-20.8-8.9-37.4-22.8-49.9-41.6C44.3,212.2,38,189.1,38,161.7c0-17.6,3.2-35,9.7-52
		c6.4-17,16.3-30.6,29.5-40.8c10.9-8.5,22-14.9,33.2-19.4c11.2-4.5,22.1-7.5,32.8-9c10.7-1.5,22.5-2.3,35.3-2.3
		c21.2,0,38.8,1.6,52.6,4.8c13.8,3.2,29,7.4,45.4,12.6v57.1c-10.9-6.4-22.5-11.7-34.6-16c-12.2-4.3-27.4-6.4-45.6-6.4
		c-21,0-37.8,4-50.4,11.9c-12.6,8-21.4,17.4-26.3,28.5c-4.9,11-7.4,21.7-7.4,32c0,12.2,2.8,23.4,8.5,33.7
		c5.7,10.3,14.3,18.5,25.8,24.7c11.5,6.2,25.4,9.3,41.6,9.3c9.3,0,19.1-1.2,29.6-3.7v-28.4H185v-48.6h96.3V265.8z"/>
	<path class="st0" d="M627.3,212.7c0,15.1-3.9,28.1-11.6,39.2c-7.7,11-18.5,19.5-32.3,25.3c-13.8,5.9-29.7,8.8-47.5,8.8
		c-5,0-11.1-0.3-18.4-1c-7.3-0.6-16.9-2.4-28.9-5.3c-12-2.9-24.5-7.2-37.5-12.9v-59.2c12.2,7.5,24.2,13.8,35.9,18.8
		c11.8,5,24.4,7.5,37.9,7.5c12.4,0,20.5-2.1,24.1-6.2c3.7-4.1,5.5-8,5.5-11.6c0-6.5-3.1-12-9.4-16.5c-6.3-4.5-15.4-9.1-27.3-13.8
		c-13.2-5.6-24.8-11.6-34.8-18.2c-10-6.6-18.1-14.8-24.5-24.6c-6.3-9.9-9.5-21.5-9.5-35c0-13,3.2-24.7,9.6-35.3
		c6.4-10.5,16.1-18.9,29.2-25.2c13.1-6.3,29.1-9.4,48-9.4c13.5,0,25.9,1.3,37.3,3.9c11.4,2.6,20.9,5.5,28.3,8.8
		c7.4,3.3,12.5,5.8,15.3,7.7v56.6c-9.9-7.1-20.9-13.4-33-19c-12.1-5.6-25.1-8.4-38.9-8.4c-9.1,0-15.6,1.7-19.7,5.2
		c-4.1,3.5-6.1,7.8-6.1,12.9c0,4.8,2,8.9,6.1,12.4c4.1,3.5,11.3,7.7,21.8,12.7c18.6,8.7,33.4,16.5,44.6,23.5
		c11.1,7,19.9,15,26.2,24.1C624.1,187.8,627.3,199.1,627.3,212.7z"/>
	<path class="st0" d="M910.4,282.8h-78.2l-19-42.8c-7-15.7-13.2-27.1-18.8-34.4c-5.6-7.3-11-11.9-16.3-13.9c-5.3-2-12.1-3-20.5-3
		h-8.2v94.2h-72.8V41.6h123.8c20,0,36.3,4.1,49.1,12.2c12.8,8.1,22,18,27.6,29.6c5.6,11.6,8.4,22.6,8.4,33.1c0,12.2-2.3,22.5-7,30.9
		c-4.7,8.4-9.7,14.5-14.9,18.4c-5.2,3.8-11.1,7.5-17.6,11c7.8,4.5,14.2,9.9,19.2,16.1c5,6.2,11.9,18.8,20.6,37.7L910.4,282.8z
		 M811.5,117.8c0-11.1-3.7-18.9-11-23.3c-7.3-4.4-19.2-6.6-35.7-6.6h-15.3V146h15.7c17.8,0,29.9-1.9,36.5-5.8
		C808.2,136.3,811.5,128.8,811.5,117.8z"/>
	<path class="st0" d="M1112.1,212.7c0,15.1-3.9,28.1-11.6,39.2c-7.7,11-18.5,19.5-32.3,25.3c-13.8,5.9-29.7,8.8-47.5,8.8
		c-5,0-11.1-0.3-18.4-1c-7.3-0.6-16.9-2.4-28.9-5.3c-12-2.9-24.5-7.2-37.5-12.9v-59.2c12.2,7.5,24.2,13.8,35.9,18.8
		c11.8,5,24.4,7.5,37.9,7.5c12.4,0,20.5-2.1,24.1-6.2c3.7-4.1,5.5-8,5.5-11.6c0-6.5-3.1-12-9.4-16.5c-6.3-4.5-15.4-9.1-27.3-13.8
		c-13.2-5.6-24.8-11.6-34.8-18.2c-10-6.6-18.1-14.8-24.5-24.6c-6.3-9.9-9.5-21.5-9.5-35c0-13,3.2-24.7,9.6-35.3
		c6.4-10.5,16.1-18.9,29.2-25.2c13.1-6.3,29.1-9.4,48-9.4c13.5,0,25.9,1.3,37.3,3.9c11.4,2.6,20.9,5.5,28.3,8.8
		c7.4,3.3,12.5,5.8,15.3,7.7v56.6c-9.9-7.1-20.9-13.4-33-19c-12.1-5.6-25.1-8.4-38.9-8.4c-9.1,0-15.6,1.7-19.7,5.2
		c-4.1,3.5-6.1,7.8-6.1,12.9c0,4.8,2,8.9,6.1,12.4c4.1,3.5,11.3,7.7,21.8,12.7c18.6,8.7,33.4,16.5,44.6,23.5
		c11.1,7,19.9,15,26.2,24.1C1109,187.8,1112.1,199.1,1112.1,212.7z"/>
</g>
<polygon class="st0" points="369.2,150.1 359.7,150.1 314.2,150.1 314.2,192.2 359.7,192.2 369.2,192.2 414.7,192.2 414.7,150.1 "/>
<g>
	<path class="st0" d="M1482,158.5c0-78.2-63.4-141.5-141.6-141.5c-78.2,0-141.6,63.4-141.6,141.5H1482"/>
	<path class="st1" d="M1198.9,158.4c0,78.2,63.4,141.6,141.6,141.6c78.2,0,141.6-63.4,141.6-141.6H1198.9"/>
	<path class="st1" d="M1252,158.4v-44.2c0,0,0-35.4,26.5-35.4s26.5,35.4,26.5,35.4v44.2H1252"/>
	<path class="st2" d="M1305.1,158.4v44.2c0,0,0,35.4-26.5,35.4c-26.5,0-26.5-35.4-26.5-35.4v-44.2H1305.1"/>
	<path class="st1" d="M1313.9,158.4v-44.2c0,0,0-35.4,26.5-35.4s26.5,35.4,26.5,35.4v44.2H1313.9"/>
	<path class="st2" d="M1367,158.4v44.2c0,0,0,35.4-26.5,35.4c-26.5,0-26.5-35.4-26.5-35.4v-44.2H1367"/>
	<path class="st1" d="M1375.8,158.4v-44.2c0,0,0-35.4,26.5-35.4s26.5,35.4,26.5,35.4v44.2H1375.8"/>
	<path class="st2" d="M1428.9,158.4v44.2c0,0,0,35.4-26.5,35.4c-26.5,0-26.5-35.4-26.5-35.4v-44.2H1428.9"/>
</g>
</svg>
