<?xml version="1.0" encoding="UTF-8" standalone="no"?>
<!-- Created with Inkscape (http://www.inkscape.org/) -->
<svg xmlns:dc="http://purl.org/dc/elements/1.1/" xmlns:cc="http://creativecommons.org/ns#" xmlns:rdf="http://www.w3.org/1999/02/22-rdf-syntax-ns#" xmlns:svg="http://www.w3.org/2000/svg" xmlns="http://www.w3.org/2000/svg" xmlns:sodipodi="http://sodipodi.sourceforge.net/DTD/sodipodi-0.dtd" xmlns:inkscape="http://www.inkscape.org/namespaces/inkscape" width="283.29999" height="283" id="svg2" version="1.1" inkscape:version="0.48.4 r9939" sodipodi:docname="New document 1">
  <defs id="defs4"/>
  <sodipodi:namedview id="base" pagecolor="#000000" bordercolor="#666666" borderopacity="1.0" inkscape:pageopacity="0" inkscape:pageshadow="2" inkscape:zoom="1.979899" inkscape:cx="-25.371708" inkscape:cy="128.59553" inkscape:document-units="px" inkscape:current-layer="g3044" showgrid="false" fit-margin-top="0" fit-margin-left="0" fit-margin-right="0" fit-margin-bottom="0" inkscape:window-width="1855" inkscape:window-height="1056" inkscape:window-x="65" inkscape:window-y="24" inkscape:window-maximized="1"/>
  <metadata id="metadata7">
    <rdf:RDF>
      <cc:Work rdf:about="">
        <dc:format>image/svg+xml</dc:format>
        <dc:type rdf:resource="http://purl.org/dc/dcmitype/StillImage"/>
        <dc:title/>
      </cc:Work>
    </rdf:RDF>
  </metadata>
  <g inkscape:label="Layer 1" inkscape:groupmode="layer" id="layer1" transform="translate(-158.74999,-222.29075)">
    <g id="g3044" transform="translate(-1165.7643,-14.70925)">
      <g id="g3019" transform="translate(125.71429,220)">
        <path id="path3021" d="M 1482,158.5 C 1482,80.3 1418.6,17 1340.4,17 1262.2,17 1198.8,80.4 1198.8,158.5 H 1482" class="st0" inkscape:connector-curvature="0" style="fill:#0f294d"/>
        <path id="path3023" d="m 1198.9,158.4 c 0,78.2 63.4,141.6 141.6,141.6 78.2,0 141.6,-63.4 141.6,-141.6 h -283.2" class="st1" inkscape:connector-curvature="0" style="fill:#a4c7e2"/>
        <path id="path3025" d="m 1252,158.4 v -44.2 c 0,0 0,-35.4 26.5,-35.4 26.5,0 26.5,35.4 26.5,35.4 v 44.2 h -53" class="st1" inkscape:connector-curvature="0" style="fill:#a4c7e2"/>
        <path id="path3027" d="m 1305.1,158.4 v 44.2 c 0,0 0,35.4 -26.5,35.4 -26.5,0 -26.5,-35.4 -26.5,-35.4 v -44.2 h 53" class="st2" inkscape:connector-curvature="0" style="fill:#ffffff"/>
        <path id="path3029" d="m 1313.9,158.4 v -44.2 c 0,0 0,-35.4 26.5,-35.4 26.5,0 26.5,35.4 26.5,35.4 v 44.2 h -53" class="st1" inkscape:connector-curvature="0" style="fill:#a4c7e2"/>
        <path id="path3031" d="m 1367,158.4 v 44.2 c 0,0 0,35.4 -26.5,35.4 -26.5,0 -26.5,-35.4 -26.5,-35.4 v -44.2 h 53" class="st2" inkscape:connector-curvature="0" style="fill:#ffffff"/>
        <path id="path3033" d="m 1375.8,158.4 v -44.2 c 0,0 0,-35.4 26.5,-35.4 26.5,0 26.5,35.4 26.5,35.4 v 44.2 h -53" class="st1" inkscape:connector-curvature="0" style="fill:#a4c7e2"/>
        <path id="path3035" d="m 1428.9,158.4 v 44.2 c 0,0 0,35.4 -26.5,35.4 -26.5,0 -26.5,-35.4 -26.5,-35.4 v -44.2 h 53" class="st2" inkscape:connector-curvature="0" style="fill:#ffffff"/>
      </g>
    </g>
  </g>
  <style id="style3005" type="text/css">
	.st0{fill:#0F294D;}
	.st1{fill:#A4C7E2;}
	.st2{fill:#FFFFFF;}
</style>
</svg>