<?xml version="1.0" encoding="UTF-8" standalone="no"?>
<svg
   xmlns:dc="http://purl.org/dc/elements/1.1/"
   xmlns:cc="http://creativecommons.org/ns#"
   xmlns:rdf="http://www.w3.org/1999/02/22-rdf-syntax-ns#"
   xmlns:svg="http://www.w3.org/2000/svg"
   xmlns="http://www.w3.org/2000/svg"
   xmlns:sodipodi="http://sodipodi.sourceforge.net/DTD/sodipodi-0.dtd"
   xmlns:inkscape="http://www.inkscape.org/namespaces/inkscape"
   version="1.1"
   id="Layer_1"
   x="0px"
   y="0px"
   viewBox="0 0 1370 316.3"
   xml:space="preserve"
   sodipodi:docname="gsrs-logo.svg"
   width="1370"
   height="316.29999"
   inkscape:version="1.0.1 (0767f8302a, 2020-10-17)"><metadata
   id="metadata39"><rdf:RDF><cc:Work
       rdf:about=""><dc:format>image/svg+xml</dc:format><dc:type
         rdf:resource="http://purl.org/dc/dcmitype/StillImage" /><dc:title></dc:title></cc:Work></rdf:RDF></metadata><defs
   id="defs37">
	
	
	
	
</defs><sodipodi:namedview
   pagecolor="#ffffff"
   bordercolor="#666666"
   borderopacity="1"
   objecttolerance="10"
   gridtolerance="10"
   guidetolerance="10"
   inkscape:pageopacity="0"
   inkscape:pageshadow="2"
   inkscape:window-width="1855"
   inkscape:window-height="1056"
   id="namedview35"
   showgrid="false"
   inkscape:zoom="0.83855904"
   inkscape:cx="646.57771"
   inkscape:cy="374.0425"
   inkscape:window-x="65"
   inkscape:window-y="24"
   inkscape:window-maximized="1"
   inkscape:current-layer="Layer_1" />
<style
   type="text/css"
   id="style2">
	.st0{fill:#0F294D;}
	.st1{fill:#A4C7E2;}
	.st2{fill:#FFFFFF;}
</style>
<path
   class="st0"
   d="m 262.71591,266.36012 c -5.2,2 -9.7,3.6 -13.4,4.9 -3.7,1.3 -7.3,2.4 -10.7,3.5 -3.4,1 -8.4,2.4 -14.9,4 -11,2.6 -22,4.5 -33,5.8 -11,1.3 -22.5,2 -34.7,2 -24.5,0 -47.1,-4.5 -67.9,-13.4 -20.8,-8.9 -37.4,-22.8 -49.9,-41.6 -12.4,-18.8 -18.7,-41.9 -18.7,-69.3 0,-17.6 3.2,-35 9.7,-52 6.4,-16.999997 16.3,-30.599997 29.5,-40.799997 10.9,-8.5 22,-14.9 33.2,-19.4 11.2,-4.5 22.1,-7.5 32.8,-9 10.7,-1.5 22.5,-2.3 35.3,-2.3 21.2,0 38.8,1.6 52.6,4.8 13.8,3.2 29,7.4 45.4,12.6 v 57.099997 c -10.9,-6.4 -22.5,-11.7 -34.6,-15.999997 -12.2,-4.3 -27.4,-6.4 -45.6,-6.4 -21,0 -37.8,4 -50.4,11.899997 -12.6,8 -21.4,17.4 -26.3,28.5 -4.9,11 -7.4,21.7 -7.4,32 0,12.2 2.8,23.4 8.5,33.7 5.7,10.3 14.3,18.5 25.8,24.7 11.5,6.2 25.4,9.3 41.6,9.3 9.3,0 19.1,-1.2 29.6,-3.7 v -28.4 h -32.7 v -48.6 h 96.3 v 116.1 z"
   id="path4" /><path
   class="st0"
   d="m 487.77494,210.45951 c 0,15.1 -3.9,28.1 -11.6,39.2 -7.7,11 -18.5,19.5 -32.3,25.3 -13.8,5.9 -29.7,8.8 -47.5,8.8 -5,0 -11.1,-0.3 -18.4,-1 -7.3,-0.6 -16.9,-2.4 -28.9,-5.3 -12,-2.9 -24.5,-7.2 -37.5,-12.9 v -59.2 c 12.2,7.5 24.2,13.8 35.9,18.8 11.8,5 24.4,7.5 37.9,7.5 12.4,0 20.5,-2.1 24.1,-6.2 3.7,-4.1 5.5,-8 5.5,-11.6 0,-6.5 -3.1,-12 -9.4,-16.5 -6.3,-4.5 -15.4,-9.1 -27.3,-13.8 -13.2,-5.6 -24.8,-11.6 -34.8,-18.2 -10,-6.6 -18.1,-14.8 -24.5,-24.6 -6.3,-9.9 -9.5,-21.5 -9.5,-35 0,-13.000001 3.2,-24.700001 9.6,-35.300001 6.4,-10.5 16.1,-18.9 29.2,-25.2 13.1,-6.3 29.1,-9.4 48,-9.4 13.5,0 25.9,1.3 37.3,3.9 11.4,2.6 20.9,5.5 28.3,8.8 7.4,3.3 12.5,5.8 15.3,7.7 v 56.600001 c -9.9,-7.1 -20.9,-13.400001 -33,-19.000001 -12.1,-5.6 -25.1,-8.4 -38.9,-8.4 -9.1,0 -15.6,1.7 -19.7,5.2 -4.1,3.5 -6.1,7.8 -6.1,12.900001 0,4.8 2,8.9 6.1,12.4 4.1,3.5 11.3,7.7 21.8,12.7 18.6,8.7 33.4,16.5 44.6,23.5 11.1,7 19.9,15 26.2,24.1 6.4,9.3 9.6,20.6 9.6,34.2 z"
   id="path6" /><path
   class="st0"
   d="m 770.87494,280.55951 h -78.2 l -19,-42.8 c -7,-15.7 -13.2,-27.1 -18.8,-34.4 -5.6,-7.3 -11,-11.9 -16.3,-13.9 -5.3,-2 -12.1,-3 -20.5,-3 h -8.2 v 94.2 h -72.8 V 39.359509 h 123.8 c 20,0 36.3,4.1 49.1,12.2 12.8,8.1 22,18 27.6,29.6 5.6,11.6 8.4,22.600001 8.4,33.100001 0,12.2 -2.3,22.5 -7,30.9 -4.7,8.4 -9.7,14.5 -14.9,18.4 -5.2,3.8 -11.1,7.5 -17.6,11 7.8,4.5 14.2,9.9 19.2,16.1 5,6.2 11.9,18.8 20.6,37.7 z m -98.9,-165 c 0,-11.1 -3.7,-18.900001 -11,-23.300001 -7.3,-4.4 -19.2,-6.6 -35.7,-6.6 h -15.3 v 58.100001 h 15.7 c 17.8,0 29.9,-1.9 36.5,-5.8 6.5,-3.9 9.8,-11.4 9.8,-22.4 z"
   id="path8" /><path
   class="st0"
   d="m 972.57494,210.45951 c 0,15.1 -3.9,28.1 -11.6,39.2 -7.7,11 -18.5,19.5 -32.3,25.3 -13.8,5.9 -29.7,8.8 -47.5,8.8 -5,0 -11.1,-0.3 -18.4,-1 -7.3,-0.6 -16.9,-2.4 -28.9,-5.3 -12,-2.9 -24.5,-7.2 -37.5,-12.9 v -59.2 c 12.2,7.5 24.2,13.8 35.9,18.8 11.8,5 24.4,7.5 37.9,7.5 12.4,0 20.5,-2.1 24.1,-6.2 3.7,-4.1 5.5,-8 5.5,-11.6 0,-6.5 -3.1,-12 -9.4,-16.5 -6.3,-4.5 -15.4,-9.1 -27.3,-13.8 -13.2,-5.6 -24.8,-11.6 -34.8,-18.2 -10,-6.6 -18.1,-14.8 -24.5,-24.6 -6.3,-9.9 -9.5,-21.5 -9.5,-35 0,-13.000001 3.2,-24.700001 9.6,-35.300001 6.4,-10.5 16.1,-18.9 29.2,-25.2 13.1,-6.3 29.1,-9.4 48,-9.4 13.5,0 25.9,1.3 37.3,3.9 11.4,2.6 20.9,5.5 28.3,8.8 7.4,3.3 12.5,5.8 15.3,7.7 v 56.600001 c -9.9,-7.1 -20.9,-13.400001 -33,-19.000001 -12.1,-5.6 -25.1,-8.4 -38.9,-8.4 -9.1,0 -15.6,1.7 -19.7,5.2 -4.1,3.5 -6.1,7.8 -6.1,12.900001 0,4.8 2,8.9 6.1,12.4 4.1,3.5 11.3,7.7 21.8,12.7 18.6,8.7 33.4,16.5 44.6,23.5 11.1,7 19.9,15 26.2,24.1 6.5,9.3 9.6,20.6 9.6,34.2 z"
   id="path10" />

<g
   id="g32"
   transform="translate(-139.52506,-2.2404912)">
	<path
   class="st0"
   d="M 1482,158.5 C 1482,80.3 1418.6,17 1340.4,17 1262.2,17 1198.8,80.4 1198.8,158.5 H 1482"
   id="path16" />
	<path
   class="st1"
   d="m 1198.9,158.4 c 0,78.2 63.4,141.6 141.6,141.6 78.2,0 141.6,-63.4 141.6,-141.6 h -283.2"
   id="path18" />
	<path
   class="st1"
   d="m 1252,158.4 v -44.2 c 0,0 0,-35.4 26.5,-35.4 26.5,0 26.5,35.4 26.5,35.4 v 44.2 h -53"
   id="path20" />
	<path
   class="st2"
   d="m 1305.1,158.4 v 44.2 c 0,0 0,35.4 -26.5,35.4 -26.5,0 -26.5,-35.4 -26.5,-35.4 v -44.2 h 53"
   id="path22" />
	<path
   class="st1"
   d="m 1313.9,158.4 v -44.2 c 0,0 0,-35.4 26.5,-35.4 26.5,0 26.5,35.4 26.5,35.4 v 44.2 h -53"
   id="path24" />
	<path
   class="st2"
   d="m 1367,158.4 v 44.2 c 0,0 0,35.4 -26.5,35.4 -26.5,0 -26.5,-35.4 -26.5,-35.4 v -44.2 h 53"
   id="path26" />
	<path
   class="st1"
   d="m 1375.8,158.4 v -44.2 c 0,0 0,-35.4 26.5,-35.4 26.5,0 26.5,35.4 26.5,35.4 v 44.2 h -53"
   id="path28" />
	<path
   class="st2"
   d="m 1428.9,158.4 v 44.2 c 0,0 0,35.4 -26.5,35.4 -26.5,0 -26.5,-35.4 -26.5,-35.4 v -44.2 h 53"
   id="path30" />
</g>
</svg>
