<?xml version="1.0" encoding="utf-8"?>
<!-- Generator: Adobe Illustrator 19.1.0, SVG Export Plug-In . SVG Version: 6.00 Build 0)  -->
<svg version="1.1" id="Layer_1" xmlns="http://www.w3.org/2000/svg" xmlns:xlink="http://www.w3.org/1999/xlink" x="0px" y="0px"
	 viewBox="0 0 200 200" style="enable-background:new 0 0 200 200;" xml:space="preserve">
<style type="text/css">
	.st0{fill:#0E2850;}
	.st1{filter:url(#Adobe_OpacityMaskFilter);}
	.st2{mask:url(#SVGID_1_);fill:#FFFFFF;}
	.st3{fill:#A2C9E6;}
	.st4{fill:#97BBD5;}
	.st5{fill:#8EB0C9;}
	.st6{fill:#FFFFFF;}
	.st7{fill:#466073;}
	.st8{fill:none;stroke:#C0392B;stroke-width:6;stroke-miterlimit:10;}
	.st9{fill:none;stroke:#C0392B;stroke-width:5;stroke-linecap:round;stroke-linejoin:round;}
	.st10{fill:none;stroke:#C0392B;stroke-width:5;stroke-linecap:round;stroke-linejoin:round;stroke-dasharray:0.9858,7.8862;}
	.st11{fill:none;stroke:#C0392B;stroke-width:5;stroke-miterlimit:10;}
	.st12{clip-path:url(#SVGID_3_);}
	.st13{clip-path:url(#SVGID_5_);}
	.st14{clip-path:url(#SVGID_7_);}
	.st15{fill:none;}
	.st16{clip-path:url(#SVGID_9_);}
	.st17{clip-path:url(#SVGID_11_);}
	.st18{fill:#E74C3C;}
	.st19{clip-path:url(#SVGID_13_);fill:#E74C3C;}
	.st20{fill:#C0392B;}
	.st21{clip-path:url(#SVGID_15_);}
	.st22{clip-path:url(#SVGID_17_);fill:#E74C3C;}
	.st23{clip-path:url(#SVGID_19_);}
	.st24{clip-path:url(#SVGID_21_);fill:#C0392B;}
	.st25{clip-path:url(#SVGID_23_);}
	.st26{fill:#E67E22;}
	.st27{clip-path:url(#SVGID_25_);fill:#E67E22;}
	.st28{fill:#D35400;}
	.st29{clip-path:url(#SVGID_27_);}
	.st30{clip-path:url(#SVGID_29_);fill:#D35400;}
	.st31{clip-path:url(#SVGID_31_);}
	.st32{fill:#3498DB;}
	.st33{clip-path:url(#SVGID_33_);fill:#3498DB;}
	.st34{fill:#2980B9;}
	.st35{clip-path:url(#SVGID_35_);}
	.st36{clip-path:url(#SVGID_37_);fill:#2980B9;}
	.st37{clip-path:url(#SVGID_39_);}
	
		.st38{fill:none;stroke:#C0392B;stroke-width:5;stroke-linecap:round;stroke-linejoin:round;stroke-miterlimit:10;stroke-dasharray:1,8;}
	.st39{fill:#ED1C24;}
	.st40{fill:#FF00FF;}
	.st41{fill:#FBB03B;}
	.st42{fill:none;stroke:#0E2850;stroke-width:4.6392;stroke-miterlimit:10;}
	.st43{fill:none;stroke:#A2C9E6;stroke-miterlimit:10;}
	.st44{fill:#F2F2F2;}
	.st45{fill:none;stroke:#0E2850;stroke-width:2;stroke-miterlimit:10;}
	.st46{fill:none;stroke:#0E2850;stroke-width:1.5;stroke-miterlimit:10;}
	.st47{fill:#0E2850;stroke:#0E2850;stroke-width:0.5;stroke-miterlimit:10;}
	.st48{fill:#D9E021;}
	.st49{fill:#A3A819;}
	.st50{fill:#333333;}
	.st51{fill:#BC842C;}
	.st52{display:none;fill:#97BBD5;}
	.st53{clip-path:url(#SVGID_41_);fill:#FFFFFF;}
	.st54{filter:url(#Adobe_OpacityMaskFilter_1_);}
	.st55{mask:url(#SVGID_42_);}
	.st56{clip-path:url(#SVGID_44_);fill:#FFFFFF;}
	.st57{filter:url(#Adobe_OpacityMaskFilter_2_);}
	.st58{mask:url(#SVGID_45_);fill:#0E2850;}
	.st59{clip-path:url(#SVGID_47_);fill:#A2C9E6;}
	.st60{clip-path:url(#SVGID_47_);fill:#97BBD5;}
	.st61{clip-path:url(#SVGID_47_);}
	.st62{clip-path:url(#SVGID_47_);fill:#0E2850;}
	.st63{clip-path:url(#SVGID_49_);fill:#A2C9E6;}
	.st64{clip-path:url(#SVGID_49_);fill:#97BBD5;}
	.st65{clip-path:url(#SVGID_49_);fill:#0E2850;}
	.st66{clip-path:url(#SVGID_49_);}
	.st67{clip-path:url(#SVGID_51_);fill:#A2C9E6;}
	.st68{clip-path:url(#SVGID_51_);fill:#8EB0C9;}
	.st69{clip-path:url(#SVGID_51_);fill:#466073;}
	.st70{clip-path:url(#SVGID_51_);fill:#97BBD5;}
	.st71{clip-path:url(#SVGID_51_);fill:#0E2850;}
	.st72{clip-path:url(#SVGID_51_);fill:none;stroke:#0E2850;stroke-width:2;stroke-miterlimit:10;}
	.st73{clip-path:url(#SVGID_51_);fill:none;stroke:#0E2850;stroke-width:1.5;stroke-miterlimit:10;}
	.st74{clip-path:url(#SVGID_51_);fill:#FFFFFF;}
	.st75{clip-path:url(#SVGID_53_);fill:#A2C9E6;}
	.st76{clip-path:url(#SVGID_53_);}
	.st77{clip-path:url(#SVGID_55_);fill:#FFFFFF;}
	.st78{filter:url(#Adobe_OpacityMaskFilter_3_);}
	.st79{mask:url(#SVGID_56_);fill:#0E2850;}
	.st80{clip-path:url(#SVGID_58_);fill:#A2C9E6;}
	.st81{clip-path:url(#SVGID_58_);fill:#97BBD5;}
	.st82{clip-path:url(#SVGID_58_);}
	.st83{fill:none;stroke:#0E2850;stroke-width:6.2062;stroke-miterlimit:10;}
	.st84{clip-path:url(#SVGID_60_);fill:#A2C9E6;}
	.st85{clip-path:url(#SVGID_60_);fill:#97BBD5;}
	.st86{clip-path:url(#SVGID_60_);fill:#0E2850;}
	.st87{clip-path:url(#SVGID_60_);}
	.st88{clip-path:url(#SVGID_62_);fill:#A2C9E6;}
	.st89{clip-path:url(#SVGID_62_);fill:#FFFFFF;}
	.st90{clip-path:url(#SVGID_62_);fill:#97BBD5;}
	.st91{clip-path:url(#SVGID_62_);}
	.st92{fill:none;stroke:#97BBD5;stroke-width:4;stroke-linejoin:round;stroke-miterlimit:10;}
	.st93{clip-path:url(#SVGID_64_);fill:#A2C9E6;}
	.st94{clip-path:url(#SVGID_64_);}
	.st95{filter:url(#Adobe_OpacityMaskFilter_4_);}
	.st96{mask:url(#SVGID_65_);fill:#97BBD5;}
	.st97{clip-path:url(#SVGID_67_);fill:#A2C9E6;}
	.st98{clip-path:url(#SVGID_67_);fill:#97BBD5;}
	.st99{clip-path:url(#SVGID_67_);fill:#0E2850;}
	.st100{clip-path:url(#SVGID_67_);fill:#FFFFFF;}
	.st101{clip-path:url(#SVGID_69_);fill:#A2C9E6;}
	.st102{clip-path:url(#SVGID_69_);fill:#97BBD5;}
	.st103{clip-path:url(#SVGID_69_);fill:none;stroke:#0E2850;stroke-width:3.7897;stroke-miterlimit:10;}
	.st104{clip-path:url(#SVGID_69_);}
</style>
<g>
	<defs>
		<rect id="SVGID_46_" width="200" height="200"/>
	</defs>
	<clipPath id="SVGID_1_">
		<use xlink:href="#SVGID_46_"  style="overflow:visible;"/>
	</clipPath>
	<rect x="-2.5" y="-4.7" style="clip-path:url(#SVGID_1_);fill:#A2C9E6;" width="210" height="211"/>
	<polygon style="clip-path:url(#SVGID_1_);fill:#97BBD5;" points="91.3,96.8 103.5,120.6 122.5,89.3 101.2,67.8 	"/>
	<polygon style="clip-path:url(#SVGID_1_);fill:#97BBD5;" points="131.5,83.1 143.7,106.9 162.7,75.6 141.4,54.1 	"/>
	<polygon style="clip-path:url(#SVGID_1_);fill:#97BBD5;" points="54.2,76 74.3,107.7 93.3,76.4 64.1,47 	"/>
	<polygon style="clip-path:url(#SVGID_1_);fill:#97BBD5;" points="16.4,133.1 89,205.7 205.6,204.8 204.3,88.2 183,66.7 	"/>
	<g style="clip-path:url(#SVGID_1_);">
		<path class="st0" d="M55.1,141.6l-31.4-18.2c-2-1.2-3.2-3.3-3.2-5.7V81.3c0-2.4,1.2-4.5,3.2-5.7l31.5-18.2c2-1.2,4.5-1.2,6.6,0
			l31.5,18.2c2,1.2,3.3,3.3,3.3,5.7v36.4c0,2.4-1.3,4.5-3.3,5.7l-31.5,18.2C59.6,142.7,57.1,142.7,55.1,141.6z"/>
		<path class="st0" d="M22.6,94.4c-0.7-0.2,0.6-0.5,1.2-1.4c0.8-1.2,1.6-2.4,2.3-3.7c1.4-2.4,2.8-4.8,4.3-7.1
			c1.7-2.5,3.2-5.2,4.8-7.9c-0.2-1.1-0.4-2.2-0.8-2.7c0,0-0.1-0.1-0.1-0.1c-0.1,0.1-0.1,0.1-0.2,0.2c-4.7-1.1-9.6-2.3-14.5-3.4
			c-1.4-0.3-2.8-0.4-4.2-0.6L8.2,80.3c4.3,4.5,8.5,9,12.8,13.5c0,0.2-0.1,0.3-0.1,0.5C21.4,94.2,22,94.3,22.6,94.4z"/>
		<path class="st0" d="M44.7,66.2c-0.2-0.7,0.7,0.2,1.8,0.3c1.5,0.1,2.9,0.2,4.4,0.2c2.8,0,5.6,0,8.4,0.2c3,0.2,6.1,0.2,9.2,0.2
			c0.8-0.7,1.7-1.4,2-2c0,0,0-0.1,0.1-0.1c-0.1,0-0.2-0.1-0.2-0.1c-1.4-4.6-2.8-9.3-4.3-14.1c-0.4-1.3-1-2.8-1.6-3.8H49.7
			c-1.8,6-3.5,11.7-5.3,17.6c-0.2,0.1-0.3,0-0.5,0.1C44.2,65.1,44.5,65.6,44.7,66.2z"/>
		<path class="st0" d="M82,73c0.5-0.5,0.1,0.7,0.6,1.7c0.6,1.3,1.3,2.6,2,3.9c1.4,2.4,2.8,4.8,4,7.3c1.3,2.7,2.9,5.3,4.4,8.1
			c1,0.4,2.1,0.8,2.8,0.7c0,0,0.1,0,0.1,0c0-0.1,0-0.2-0.1-0.2c3.3-3.5,6.8-7.2,10.2-10.9c1-1,1.8-2.2,2.6-3.3l-7.3-12.7
			c-6,1.4-12.1,2.9-18.1,4.3c-0.1-0.1-0.2-0.2-0.4-0.3C82.8,72.1,82.4,72.6,82,73z"/>
		<path class="st0" d="M94.3,106.9c0.7,0.2-0.6,0.5-1.2,1.4c-0.8,1.2-1.6,2.4-2.3,3.7c-1.4,2.4-2.8,4.8-4.3,7.1
			c-1.7,2.5-3.2,5.2-4.8,7.9c0.2,1.1,0.4,2.2,0.8,2.7c0,0,0.1,0.1,0.1,0.1c0.1-0.1,0.1-0.1,0.2-0.2c4.7,1.1,9.6,2.3,14.5,3.4
			c1.4,0.3,2.8,0.4,4.2,0.6l7.3-12.7c-4.3-4.5-8.5-9-12.8-13.5c0-0.2,0.1-0.3,0.1-0.5C95.5,107.1,94.9,107,94.3,106.9z"/>
		<path class="st0" d="M35.8,127.8c-0.5,0.5-0.1-0.7-0.6-1.7c-0.6-1.3-1.3-2.6-2-3.9c-1.4-2.4-2.8-4.8-4-7.3
			c-1.3-2.7-2.9-5.3-4.4-8.1c-1-0.4-2.1-0.8-2.8-0.7c0,0-0.1,0-0.1,0c0,0.1,0,0.2,0.1,0.2c-3.3,3.5-6.8,7.2-10.2,10.9
			c-1,1-1.8,2.2-2.6,3.3l7.3,12.7c6-1.4,12.1-2.9,18.1-4.3c0.1,0.1,0.2,0.2,0.4,0.3C35,128.7,35.3,128.3,35.8,127.8z"/>
		<path class="st0" d="M71,133.8c0.2,0.7-0.7-0.2-1.8-0.3c-1.5-0.1-2.9-0.2-4.4-0.2c-2.8,0-5.6,0-8.4-0.2c-3-0.2-6.1-0.2-9.2-0.2
			c-0.8,0.7-1.7,1.4-2,2c0,0,0,0.1-0.1,0.1c0.1,0,0.2,0.1,0.2,0.1c1.4,4.6,2.8,9.3,4.3,14.1c0.4,1.3,1,2.8,1.6,3.8H66
			c1.8-6,3.5-11.7,5.3-17.6c0.2-0.1,0.3,0,0.5-0.1C71.4,134.9,71.2,134.4,71,133.8z"/>
	</g>
	<path style="clip-path:url(#SVGID_1_);fill:#0E2850;" d="M85.9,116.9l-26.8,15.4c-0.5,0.3-1,0.3-1.5,0l-26.7-15.5
		c-0.5-0.3-0.8-0.8-0.8-1.3l0.1-30.9c0-0.5,0.3-1,0.8-1.3l26.8-15.4c0.5-0.3,1-0.3,1.5,0L86,83.4c0.5,0.3,0.8,0.8,0.8,1.3l-0.1,30.9
		C86.7,116.1,86.4,116.6,85.9,116.9z"/>
	<g style="clip-path:url(#SVGID_1_);">
		<path class="st6" d="M111.9,97.7l22.6-31.2c1.3-1.9,3.7-2.6,5.9-1.9l36.7,11.8c2.2,0.7,3.7,2.7,3.7,5l0.1,38.6
			c0,2.3-1.5,4.3-3.7,5l-36.7,12c-2.2,0.7-4.6-0.1-5.9-1.9L111.9,104C110.6,102.1,110.6,99.6,111.9,97.7z"/>
		<path class="st6" d="M164.3,74.2c0.4-0.6,0.2,0.7,0.8,1.7c0.8,1.2,1.6,2.5,2.4,3.6c1.7,2.2,3.3,4.5,4.8,6.8c1.6,2.5,3.5,5,5.3,7.5
			c1.1,0.3,2.2,0.5,2.8,0.4c0,0,0.1,0,0.1,0c0-0.1-0.1-0.2-0.1-0.2c2.9-3.9,6-7.9,8.9-11.9c0.8-1.1,1.5-2.4,2.2-3.6L183,66.7
			c-5.8,2.1-11.7,4.2-17.5,6.3c-0.1-0.1-0.3-0.2-0.4-0.3C164.9,73.1,164.6,73.7,164.3,74.2z"/>
		<path class="st6" d="M178.9,106.9c0.7,0.2-0.6,0.4-1.3,1.3c-1,1.1-1.9,2.2-2.7,3.4c-1.6,2.3-3.2,4.5-5,6.7
			c-1.9,2.3-3.7,4.8-5.6,7.3c0.1,1.1,0.2,2.2,0.5,2.8c0,0,0,0.1,0.1,0.1c0.1-0.1,0.1-0.1,0.2-0.2c4.6,1.6,9.3,3.2,14.1,4.8
			c1.3,0.4,2.7,0.7,4.1,1l8.5-11.9c-3.8-4.9-7.6-9.8-11.4-14.7c0.1-0.2,0.1-0.3,0.2-0.5C180,107.2,179.5,107.1,178.9,106.9z"/>
		<path class="st6" d="M152.4,131.2c0,0.7-0.6-0.4-1.6-0.9c-1.3-0.6-2.7-1.1-4.1-1.5c-2.7-0.8-5.3-1.7-7.9-2.7c-2.8-1.1-5.7-2-8.7-3
			c-1,0.4-2.1,0.8-2.5,1.3c0,0-0.1,0.1-0.1,0.1c0.1,0.1,0.1,0.1,0.2,0.1c-0.1,4.9-0.2,9.9-0.2,14.9c0,1.4,0.2,2.8,0.3,4.2l13.9,4.5
			c3.5-5.1,7-10.2,10.5-15.3c0.2,0,0.3,0,0.5,0C152.5,132.4,152.4,131.8,152.4,131.2z"/>
		<path class="st6" d="M121.3,113.4c-0.7,0.2,0.2-0.7,0.3-1.8c0.1-1.5,0.2-2.9,0.2-4.4c0-2.8,0-5.6,0.1-8.4c0.2-3,0.1-6.1,0.2-9.2
			c-0.7-0.8-1.4-1.7-2-2c0,0-0.1,0-0.1-0.1c0,0.1-0.1,0.2-0.1,0.2c-4.6,1.4-9.4,2.9-14.2,4.4c-1.3,0.4-2.6,1.1-3.9,1.6l0.1,14.6
			c6,1.7,11.9,3.5,17.8,5.2c0.1,0.2,0.1,0.3,0.2,0.5C120.2,113.8,120.7,113.6,121.3,113.4z"/>
		<path class="st6" d="M128.5,78.5c-0.4-0.6,0.7,0,1.8-0.2c1.4-0.3,2.8-0.7,4.2-1.2c2.6-0.9,5.3-1.7,8-2.4c2.9-0.7,5.8-1.7,8.8-2.7
			c0.6-0.9,1.2-1.9,1.3-2.6c0,0,0-0.1,0-0.1c-0.1,0-0.2,0-0.3,0c-2.8-4-5.7-8.1-8.6-12.2c-0.8-1.1-1.8-2.2-2.7-3.2l-13.9,4.6
			c0.2,6.2,0.4,12.4,0.5,18.6c-0.1,0.1-0.3,0.2-0.4,0.3C127.8,77.5,128.2,77.9,128.5,78.5z"/>
	</g>
	<path style="clip-path:url(#SVGID_1_);fill:#97BBD5;" d="M171.2,119l-30.8,8.7c-0.6,0.2-1.3-0.1-1.7-0.6l-17.8-26.6
		c-0.4-0.5-0.3-1.3,0.1-1.8l19.8-25.2c0.4-0.5,1.1-0.7,1.7-0.5l30.1,11c0.6,0.2,1,0.8,1,1.5l-1.2,32
		C172.3,118.3,171.9,118.8,171.2,119z"/>
	<path style="clip-path:url(#SVGID_1_);fill:#97BBD5;" d="M86,116.3l-26.8,15.4c-0.5,0.3-1,0.3-1.5,0l-26.7-15.5
		c-0.5-0.3-0.8-0.8-0.8-1.3L30.3,84c0-0.5,0.3-1,0.8-1.3l26.8-15.4c0.5-0.3,1-0.3,1.5,0L86,82.8c0.5,0.3,0.8,0.8,0.8,1.3L86.7,115
		C86.7,115.5,86.4,116,86,116.3z"/>
</g>
</svg>
