<?xml version="1.0" encoding="utf-8"?>
<!-- Generator: Adobe Illustrator 19.1.0, SVG Export Plug-In . SVG Version: 6.00 Build 0)  -->
<svg version="1.1" id="Layer_1" xmlns="http://www.w3.org/2000/svg" xmlns:xlink="http://www.w3.org/1999/xlink" x="0px" y="0px"
	 viewBox="0 0 200 200" style="enable-background:new 0 0 200 200;" xml:space="preserve">
<style type="text/css">
	.st0{fill:#0E2850;}
	.st1{filter:url(#Adobe_OpacityMaskFilter);}
	.st2{mask:url(#SVGID_1_);fill:#FFFFFF;}
	.st3{fill:#A2C9E6;}
	.st4{fill:#97BBD5;}
	.st5{fill:#8EB0C9;}
	.st6{fill:#FFFFFF;}
	.st7{fill:#466073;}
	.st8{fill:none;stroke:#C0392B;stroke-width:6;stroke-miterlimit:10;}
	.st9{fill:none;stroke:#C0392B;stroke-width:5;stroke-linecap:round;stroke-linejoin:round;}
	.st10{fill:none;stroke:#C0392B;stroke-width:5;stroke-linecap:round;stroke-linejoin:round;stroke-dasharray:0.9858,7.8862;}
	.st11{fill:none;stroke:#C0392B;stroke-width:5;stroke-miterlimit:10;}
	.st12{clip-path:url(#SVGID_3_);}
	.st13{clip-path:url(#SVGID_5_);}
	.st14{clip-path:url(#SVGID_7_);}
	.st15{fill:none;}
	.st16{clip-path:url(#SVGID_9_);}
	.st17{clip-path:url(#SVGID_11_);}
	.st18{fill:#E74C3C;}
	.st19{clip-path:url(#SVGID_13_);fill:#E74C3C;}
	.st20{fill:#C0392B;}
	.st21{clip-path:url(#SVGID_15_);}
	.st22{clip-path:url(#SVGID_17_);fill:#E74C3C;}
	.st23{clip-path:url(#SVGID_19_);}
	.st24{clip-path:url(#SVGID_21_);fill:#C0392B;}
	.st25{clip-path:url(#SVGID_23_);}
	.st26{fill:#E67E22;}
	.st27{clip-path:url(#SVGID_25_);fill:#E67E22;}
	.st28{fill:#D35400;}
	.st29{clip-path:url(#SVGID_27_);}
	.st30{clip-path:url(#SVGID_29_);fill:#D35400;}
	.st31{clip-path:url(#SVGID_31_);}
	.st32{fill:#3498DB;}
	.st33{clip-path:url(#SVGID_33_);fill:#3498DB;}
	.st34{fill:#2980B9;}
	.st35{clip-path:url(#SVGID_35_);}
	.st36{clip-path:url(#SVGID_37_);fill:#2980B9;}
	.st37{clip-path:url(#SVGID_39_);}
	
		.st38{fill:none;stroke:#C0392B;stroke-width:5;stroke-linecap:round;stroke-linejoin:round;stroke-miterlimit:10;stroke-dasharray:1,8;}
	.st39{fill:#ED1C24;}
	.st40{fill:#FF00FF;}
	.st41{fill:#FBB03B;}
	.st42{fill:none;stroke:#0E2850;stroke-width:4.6392;stroke-miterlimit:10;}
	.st43{fill:none;stroke:#A2C9E6;stroke-miterlimit:10;}
	.st44{fill:#F2F2F2;}
	.st45{fill:none;stroke:#0E2850;stroke-width:2;stroke-miterlimit:10;}
	.st46{fill:none;stroke:#0E2850;stroke-width:1.5;stroke-miterlimit:10;}
	.st47{fill:#0E2850;stroke:#0E2850;stroke-width:0.5;stroke-miterlimit:10;}
	.st48{fill:#D9E021;}
	.st49{fill:#A3A819;}
	.st50{fill:#333333;}
	.st51{fill:#BC842C;}
	.st52{display:none;fill:#97BBD5;}
	.st53{clip-path:url(#SVGID_41_);fill:#FFFFFF;}
	.st54{filter:url(#Adobe_OpacityMaskFilter_1_);}
	.st55{mask:url(#SVGID_42_);}
	.st56{clip-path:url(#SVGID_44_);fill:#FFFFFF;}
	.st57{filter:url(#Adobe_OpacityMaskFilter_2_);}
	.st58{mask:url(#SVGID_45_);fill:#0E2850;}
	.st59{clip-path:url(#SVGID_47_);fill:#A2C9E6;}
	.st60{clip-path:url(#SVGID_47_);fill:#97BBD5;}
	.st61{clip-path:url(#SVGID_47_);}
	.st62{clip-path:url(#SVGID_47_);fill:#0E2850;}
	.st63{clip-path:url(#SVGID_49_);fill:#A2C9E6;}
	.st64{clip-path:url(#SVGID_49_);fill:#97BBD5;}
	.st65{clip-path:url(#SVGID_49_);fill:#0E2850;}
	.st66{clip-path:url(#SVGID_49_);}
	.st67{clip-path:url(#SVGID_51_);fill:#A2C9E6;}
	.st68{clip-path:url(#SVGID_51_);fill:#8EB0C9;}
	.st69{clip-path:url(#SVGID_51_);fill:#466073;}
	.st70{clip-path:url(#SVGID_51_);fill:#97BBD5;}
	.st71{clip-path:url(#SVGID_51_);fill:#0E2850;}
	.st72{clip-path:url(#SVGID_51_);fill:none;stroke:#0E2850;stroke-width:2;stroke-miterlimit:10;}
	.st73{clip-path:url(#SVGID_51_);fill:none;stroke:#0E2850;stroke-width:1.5;stroke-miterlimit:10;}
	.st74{clip-path:url(#SVGID_51_);fill:#FFFFFF;}
	.st75{clip-path:url(#SVGID_53_);fill:#A2C9E6;}
	.st76{clip-path:url(#SVGID_53_);}
	.st77{clip-path:url(#SVGID_55_);fill:#FFFFFF;}
	.st78{filter:url(#Adobe_OpacityMaskFilter_3_);}
	.st79{mask:url(#SVGID_56_);fill:#0E2850;}
	.st80{clip-path:url(#SVGID_58_);fill:#A2C9E6;}
	.st81{clip-path:url(#SVGID_58_);fill:#97BBD5;}
	.st82{clip-path:url(#SVGID_58_);}
	.st83{fill:none;stroke:#0E2850;stroke-width:6.2062;stroke-miterlimit:10;}
	.st84{clip-path:url(#SVGID_60_);fill:#A2C9E6;}
	.st85{clip-path:url(#SVGID_60_);fill:#97BBD5;}
	.st86{clip-path:url(#SVGID_60_);fill:#0E2850;}
	.st87{clip-path:url(#SVGID_60_);}
	.st88{clip-path:url(#SVGID_62_);fill:#A2C9E6;}
	.st89{clip-path:url(#SVGID_62_);fill:#FFFFFF;}
	.st90{clip-path:url(#SVGID_62_);fill:#97BBD5;}
	.st91{clip-path:url(#SVGID_62_);}
	.st92{fill:none;stroke:#97BBD5;stroke-width:4;stroke-linejoin:round;stroke-miterlimit:10;}
	.st93{clip-path:url(#SVGID_64_);fill:#A2C9E6;}
	.st94{clip-path:url(#SVGID_64_);}
	.st95{filter:url(#Adobe_OpacityMaskFilter_4_);}
	.st96{mask:url(#SVGID_65_);fill:#97BBD5;}
	.st97{clip-path:url(#SVGID_67_);fill:#A2C9E6;}
	.st98{clip-path:url(#SVGID_67_);fill:#97BBD5;}
	.st99{clip-path:url(#SVGID_67_);fill:#0E2850;}
	.st100{clip-path:url(#SVGID_67_);fill:#FFFFFF;}
	.st101{clip-path:url(#SVGID_69_);fill:#A2C9E6;}
	.st102{clip-path:url(#SVGID_69_);fill:#97BBD5;}
	.st103{clip-path:url(#SVGID_69_);fill:none;stroke:#0E2850;stroke-width:3.7897;stroke-miterlimit:10;}
	.st104{clip-path:url(#SVGID_69_);}
</style>
<g>
	<defs>
		<rect id="SVGID_52_" x="0" width="200" height="200"/>
	</defs>
	<clipPath id="SVGID_1_">
		<use xlink:href="#SVGID_52_"  style="overflow:visible;"/>
	</clipPath>
	<rect x="-6" y="-4" style="clip-path:url(#SVGID_1_);fill:#A2C9E6;" width="210" height="210"/>
	<g style="clip-path:url(#SVGID_1_);">
		<path class="st3" d="M76.5,15.9h-2.9h-6.9h-3l-0.2,2.6c-1.5,19.2,11.2,31,22.3,39.3c3.9,2.9,7.9,5.1,11.9,7.3
			c4.8,2.7,9.3,5.3,13.4,8.8c8.4,7.1,12.8,15.3,12.7,23.9c-0.1,8.7-4.8,17.1-13.5,24.2c-4,3.3-8.4,6.5-12.7,9.6
			c-4.2,3-8.5,6.2-12.5,9.4c-12.8,10.2-21.1,21.3-20.3,41.8l0.1,3.3h3.1h7.6h3.1l0.2-3.2c1.3-19.3,14.4-29.9,27.1-37.7
			c3-1.8,5.7-4.3,8.4-6.6c1.8-1.6,3.5-3.1,5.2-4.3c12.7-9.4,19.8-23.2,19.4-37.9c-0.4-14.8-8.5-28.4-22.2-37.3
			c-1.9-1.2-3.8-2.2-5.6-3.1c-1.5-0.7-2.9-1.4-4.2-2.3C90.7,43.7,79,35.8,76.8,18.4L76.5,15.9L76.5,15.9z"/>
		<path class="st3" d="M124.4,15.9l-0.4,2.4c-2.2,17.4-13.9,25.3-30.1,35.2c-1.4,0.8-2.8,1.5-4.2,2.3c-1.8,0.9-3.7,1.8-5.6,3.1
			c-13.7,9-21.8,22.6-22.2,37.3c-0.4,14.7,6.7,28.5,19.4,37.9c1.7,1.3,3.4,2.8,5.2,4.3c2.7,2.3,5.5,4.8,8.4,6.6
			c12.7,7.8,25.8,18.5,27.1,37.7l0.2,3.2h3.1h7.6h3.1l0.1-3.3c0.8-20.4-7.5-31.5-20.3-41.8c-4-3.2-8.3-6.4-12.5-9.4
			c-4.3-3.1-8.7-6.3-12.7-9.6c-8.8-7.1-13.4-15.4-13.5-24.2c-0.1-8.6,4.3-16.8,12.7-23.9c4.1-3.5,8.6-6,13.4-8.8
			c3.9-2.2,8-4.5,11.9-7.3c11.2-8.3,23.8-20,22.3-39.3l-0.2-2.6l-3,0h-6.9H124.4L124.4,15.9z"/>
		<path class="st4" d="M67.8,181.9l26.7,26.9l117.2,0l-0.5-113.6L134.1,18c0,0-5.7,16.7-12.5,24.7c-6.8,8-20.9,16.2-20.9,16.2
			S77.5,72,72.6,81.8c-4.8,9.8-3.3,24.3-0.4,29.8c2.9,5.4,27.6,26,27.6,26l-14.9,14.6L67.8,181.9z"/>
		<polygon class="st4" points="107.1,52.1 73.1,17.9 76.4,36.9 95.8,56.2 		"/>
		<g>
			<path class="st6" d="M86.7,68.5l36.1,5.4l-3.3-4.4l-5-3.4l-20-3C91,65.5,87.5,68,86.7,68.5z"/>
			<path class="st6" d="M81.6,74.3c-1.6,2-3.3,4.1-4.7,5.9l52.9,7.9l-1.7-6.9L81.6,74.3z"/>
			<polygon class="st6" points="72.6,92.9 130.7,101.6 131.8,96.5 131.5,95 73.5,86.4 			"/>
			<path class="st6" d="M72.3,99.5l1.8,6.9l51.9,7.7c1.6-2.9,2.9-5.2,2.9-5.2l0.2-1L72.3,99.5z"/>
			<path class="st6" d="M76.4,113.4l3.8,7.2l38.1,5.7c0.9-0.8,1.6-1.3,1.6-1.5c0.1-0.2,1.2-2.1,2.6-4.6L76.4,113.4z"/>
			<path class="st4" d="M111.4,131.9l-23.8-3.5l5.7,5.2l4.5,3l6.6,1C106.2,136,108.8,133.9,111.4,131.9z"/>
		</g>
		<g>
			<defs>
				<polygon id="SVGID_54_" points="67.5,13 80,39.8 100,62.6 129,37.8 133.1,18.6 				"/>
			</defs>
			<clipPath id="SVGID_3_">
				<use xlink:href="#SVGID_54_"  style="overflow:visible;"/>
			</clipPath>
			<polygon style="clip-path:url(#SVGID_3_);fill:#FFFFFF;" points="64.9,18.6 64.9,25.3 135.9,36 135.9,29.4 			"/>
			<polygon style="clip-path:url(#SVGID_3_);fill:#FFFFFF;" points="64.9,31.9 64.9,38.5 135.9,49.3 135.9,42.6 			"/>
		</g>
		<polygon class="st4" points="76.8,125.2 104.7,153.2 102,137.6 86.1,121.8 		"/>
		<g>
			<path class="st6" d="M94.7,142.6l-7.9,5.5l34.2,5.1c-2.2-2.5-5.1-5.6-7-7.7L94.7,142.6z"/>
			<path class="st6" d="M81.8,154l-3.5,6.1l51.1,7.6c-1-2.4-2.2-5-3.2-7.1L81.8,154z"/>
			<path class="st6" d="M132.6,181.5c-0.3-2.9-0.5-5.3-0.6-6.7l-57.2-8.5l-0.8,1.4l-0.5,5L132.6,181.5z"/>
		</g>
		<path class="st0" d="M128,17.9h6.2c1.3,17-8.3,27.3-21,36.8c-8.3,6.2-17.6,9.9-25.5,16.6c-18.8,15.9-18.4,37.5,0.9,53.1
			c8.1,6.5,17.1,12.4,25.2,18.9c11.5,9.2,19.8,19.7,19,38.7h-7.6c-1.3-19-13.7-30.8-28.6-40c-4.6-2.9-9.1-7.3-13.4-10.5
			C59.1,113.6,58.6,79.5,86,61.6c3.2-2.1,6.6-3.3,9.8-5.3c15.5-9.4,29.4-18.4,31.8-38.1"/>
		<defs>
			<filter id="Adobe_OpacityMaskFilter" filterUnits="userSpaceOnUse" x="66.5" y="17.9" width="69.1" height="164">
				
					<feColorMatrix  type="matrix" values="-1 0 0 0 1  0 -1 0 0 1  0 0 -1 0 1  0 0 0 1 0" color-interpolation-filters="sRGB" result="source"/>
				<feFlood  style="flood-color:white;flood-opacity:1" result="back"/>
				<feBlend  in="source" in2="back" mode="normal"/>
			</filter>
		</defs>
		<mask maskUnits="userSpaceOnUse" x="66.5" y="17.9" width="69.1" height="164" id="SVGID_5_">
			<g class="st1">
				<polygon points="99.6,128.7 115,140.1 103.5,150.8 85.8,137.8 				"/>
			</g>
		</mask>
		<path style="mask:url(#SVGID_5_);fill:#0E2850;" d="M73.2,18.1c2.5,19.7,16.4,28.7,31.8,38.1c3.3,2,6.6,3.2,9.8,5.3
			c27.4,18,26.9,52,2.7,69.8c-4.4,3.2-8.8,7.6-13.4,10.5c-14.9,9.2-27.3,21-28.6,40h-7.6c-0.8-19,7.5-29.5,19-38.7
			c8.1-6.5,17.2-12.4,25.2-18.9c19.3-15.6,19.8-37.2,0.9-53.1c-7.9-6.6-17.1-10.4-25.5-16.6c-12.7-9.4-22.3-19.8-21-36.8h6.2"/>
	</g>
</g>
</svg>
