<?xml version="1.0" encoding="utf-8"?>
<!-- Generator: Adobe Illustrator 19.1.0, SVG Export Plug-In . SVG Version: 6.00 Build 0)  -->
<svg version="1.1" id="Layer_1" xmlns="http://www.w3.org/2000/svg" xmlns:xlink="http://www.w3.org/1999/xlink" x="0px" y="0px"
	 viewBox="0 0 200 200" style="enable-background:new 0 0 200 200;" xml:space="preserve">
<style type="text/css">
	.st0{fill:#0E2850;}
	.st1{filter:url(#Adobe_OpacityMaskFilter);}
	.st2{mask:url(#SVGID_1_);fill:#FFFFFF;}
	.st3{fill:#A2C9E6;}
	.st4{fill:#97BBD5;}
	.st5{fill:#8EB0C9;}
	.st6{fill:#FFFFFF;}
	.st7{fill:#466073;}
	.st8{fill:none;stroke:#C0392B;stroke-width:6;stroke-miterlimit:10;}
	.st9{fill:none;stroke:#C0392B;stroke-width:5;stroke-linecap:round;stroke-linejoin:round;}
	.st10{fill:none;stroke:#C0392B;stroke-width:5;stroke-linecap:round;stroke-linejoin:round;stroke-dasharray:0.9858,7.8862;}
	.st11{fill:none;stroke:#C0392B;stroke-width:5;stroke-miterlimit:10;}
	.st12{clip-path:url(#SVGID_3_);}
	.st13{clip-path:url(#SVGID_5_);}
	.st14{clip-path:url(#SVGID_7_);}
	.st15{fill:none;}
	.st16{clip-path:url(#SVGID_9_);}
	.st17{clip-path:url(#SVGID_11_);}
	.st18{fill:#E74C3C;}
	.st19{clip-path:url(#SVGID_13_);fill:#E74C3C;}
	.st20{fill:#C0392B;}
	.st21{clip-path:url(#SVGID_15_);}
	.st22{clip-path:url(#SVGID_17_);fill:#E74C3C;}
	.st23{clip-path:url(#SVGID_19_);}
	.st24{clip-path:url(#SVGID_21_);fill:#C0392B;}
	.st25{clip-path:url(#SVGID_23_);}
	.st26{fill:#E67E22;}
	.st27{clip-path:url(#SVGID_25_);fill:#E67E22;}
	.st28{fill:#D35400;}
	.st29{clip-path:url(#SVGID_27_);}
	.st30{clip-path:url(#SVGID_29_);fill:#D35400;}
	.st31{clip-path:url(#SVGID_31_);}
	.st32{fill:#3498DB;}
	.st33{clip-path:url(#SVGID_33_);fill:#3498DB;}
	.st34{fill:#2980B9;}
	.st35{clip-path:url(#SVGID_35_);}
	.st36{clip-path:url(#SVGID_37_);fill:#2980B9;}
	.st37{clip-path:url(#SVGID_39_);}
	
		.st38{fill:none;stroke:#C0392B;stroke-width:5;stroke-linecap:round;stroke-linejoin:round;stroke-miterlimit:10;stroke-dasharray:1,8;}
	.st39{fill:#ED1C24;}
	.st40{fill:#FF00FF;}
	.st41{fill:#FBB03B;}
	.st42{fill:none;stroke:#0E2850;stroke-width:4.6392;stroke-miterlimit:10;}
	.st43{fill:none;stroke:#A2C9E6;stroke-miterlimit:10;}
	.st44{fill:#F2F2F2;}
	.st45{fill:none;stroke:#0E2850;stroke-width:2;stroke-miterlimit:10;}
	.st46{fill:none;stroke:#0E2850;stroke-width:1.5;stroke-miterlimit:10;}
	.st47{fill:#0E2850;stroke:#0E2850;stroke-width:0.5;stroke-miterlimit:10;}
	.st48{fill:#D9E021;}
	.st49{fill:#A3A819;}
	.st50{fill:#333333;}
	.st51{fill:#BC842C;}
	.st52{display:none;fill:#97BBD5;}
	.st53{clip-path:url(#SVGID_41_);fill:#FFFFFF;}
	.st54{filter:url(#Adobe_OpacityMaskFilter_1_);}
	.st55{mask:url(#SVGID_42_);}
	.st56{clip-path:url(#SVGID_44_);fill:#FFFFFF;}
	.st57{filter:url(#Adobe_OpacityMaskFilter_2_);}
	.st58{mask:url(#SVGID_45_);fill:#0E2850;}
	.st59{clip-path:url(#SVGID_47_);fill:#A2C9E6;}
	.st60{clip-path:url(#SVGID_47_);fill:#97BBD5;}
	.st61{clip-path:url(#SVGID_47_);}
	.st62{clip-path:url(#SVGID_47_);fill:#0E2850;}
	.st63{clip-path:url(#SVGID_49_);fill:#A2C9E6;}
	.st64{clip-path:url(#SVGID_49_);fill:#97BBD5;}
	.st65{clip-path:url(#SVGID_49_);fill:#0E2850;}
	.st66{clip-path:url(#SVGID_49_);}
	.st67{clip-path:url(#SVGID_51_);fill:#A2C9E6;}
	.st68{clip-path:url(#SVGID_51_);fill:#8EB0C9;}
	.st69{clip-path:url(#SVGID_51_);fill:#466073;}
	.st70{clip-path:url(#SVGID_51_);fill:#97BBD5;}
	.st71{clip-path:url(#SVGID_51_);fill:#0E2850;}
	.st72{clip-path:url(#SVGID_51_);fill:none;stroke:#0E2850;stroke-width:2;stroke-miterlimit:10;}
	.st73{clip-path:url(#SVGID_51_);fill:none;stroke:#0E2850;stroke-width:1.5;stroke-miterlimit:10;}
	.st74{clip-path:url(#SVGID_51_);fill:#FFFFFF;}
	.st75{clip-path:url(#SVGID_53_);fill:#A2C9E6;}
	.st76{clip-path:url(#SVGID_53_);}
	.st77{clip-path:url(#SVGID_55_);fill:#FFFFFF;}
	.st78{filter:url(#Adobe_OpacityMaskFilter_3_);}
	.st79{mask:url(#SVGID_56_);fill:#0E2850;}
	.st80{clip-path:url(#SVGID_58_);fill:#A2C9E6;}
	.st81{clip-path:url(#SVGID_58_);fill:#97BBD5;}
	.st82{clip-path:url(#SVGID_58_);}
	.st83{fill:none;stroke:#0E2850;stroke-width:6.2062;stroke-miterlimit:10;}
	.st84{clip-path:url(#SVGID_60_);fill:#A2C9E6;}
	.st85{clip-path:url(#SVGID_60_);fill:#97BBD5;}
	.st86{clip-path:url(#SVGID_60_);fill:#0E2850;}
	.st87{clip-path:url(#SVGID_60_);}
	.st88{clip-path:url(#SVGID_62_);fill:#A2C9E6;}
	.st89{clip-path:url(#SVGID_62_);fill:#FFFFFF;}
	.st90{clip-path:url(#SVGID_62_);fill:#97BBD5;}
	.st91{clip-path:url(#SVGID_62_);}
	.st92{fill:none;stroke:#97BBD5;stroke-width:4;stroke-linejoin:round;stroke-miterlimit:10;}
	.st93{clip-path:url(#SVGID_64_);fill:#A2C9E6;}
	.st94{clip-path:url(#SVGID_64_);}
	.st95{filter:url(#Adobe_OpacityMaskFilter_4_);}
	.st96{mask:url(#SVGID_65_);fill:#97BBD5;}
	.st97{clip-path:url(#SVGID_67_);fill:#A2C9E6;}
	.st98{clip-path:url(#SVGID_67_);fill:#97BBD5;}
	.st99{clip-path:url(#SVGID_67_);fill:#0E2850;}
	.st100{clip-path:url(#SVGID_67_);fill:#FFFFFF;}
	.st101{clip-path:url(#SVGID_69_);fill:#A2C9E6;}
	.st102{clip-path:url(#SVGID_69_);fill:#97BBD5;}
	.st103{clip-path:url(#SVGID_69_);fill:none;stroke:#0E2850;stroke-width:3.7897;stroke-miterlimit:10;}
	.st104{clip-path:url(#SVGID_69_);}
</style>
<g>
	<defs>
		<rect id="SVGID_68_" width="200" height="200"/>
	</defs>
	<clipPath id="SVGID_1_">
		<use xlink:href="#SVGID_68_"  style="overflow:visible;"/>
	</clipPath>
	<rect x="-7" y="-4" style="clip-path:url(#SVGID_1_);fill:#A2C9E6;" width="211" height="211"/>
	<polygon style="clip-path:url(#SVGID_1_);fill:#97BBD5;" points="66.7,169.6 107.7,210.7 204,202.1 202.5,117 126.6,40.8 
		109.1,38.2 97.1,47.3 87.2,74 85.8,153.8 	"/>
	<polygon style="clip-path:url(#SVGID_1_);fill:#97BBD5;" points="63.2,131.9 104.2,173.1 117.5,139.9 74.5,107.7 	"/>
	<polygon style="clip-path:url(#SVGID_1_);fill:#97BBD5;" points="63.8,96.7 104.8,137.8 118.1,104.7 75.1,72.5 	"/>
	<path style="clip-path:url(#SVGID_1_);fill:none;stroke:#0E2850;stroke-width:3.7897;stroke-miterlimit:10;" d="M92.1,62.2
		c0-0.8,1.2-11.2,6.7-17.1c5.5-5.9,11.9-7.5,17.7-6.8c5.8,0.8,8.9,2.9,11.9,6.8c3,3.8,3.6,14.2,3.6,14.2"/>
	<g style="clip-path:url(#SVGID_1_);">
		<g>
			<g id="XMLID_16_">
				<path class="st0" d="M129.8,57.4c-0.2,0.5-12.5,26-12.5,26s2.5,2.2,3.8,3.2c-0.6,11-0.1,17.3-4.8,38.5c-4.6,21.2-9,32.1-9,32.1
					l17.2,8.6c0,0,2.5,1.2,9.5-35.5c7-36.7,5.1-35,5.7-40.6c1.5-1,4-2.5,4-2.5s-8.4-25.5-9.6-28.6C132.8,54.8,130,56.9,129.8,57.4z"
					/>
			</g>
		</g>
		<g>
			<g id="XMLID_15_">
				<path class="st6" d="M95.4,129.7c0.9,2.7,1.9,5.6,2.2,8.4c0.4,5.3,0.1,10.6,0.5,15.8c0.4,5.6-2.5,9.3-6.5,12.4
					c-6.4,4.8-13.5,5.5-21.1,4c-3.1-0.6-4.7-2.4-5.2-5.3c-0.3-1.7-1.4-10.6,0.1-13.2c4.4,2.6,8.4,3.2,13.7,2.4
					c5.3-0.8,11.7-5.7,13.8-10.6c-3.2-3.5-3.4-4.3-11.8-7s-18-4.9-18-4.9s-0.6-3.1-0.1-9.5c0.6-6.3,3.1-11.4,6.7-12.7
					c4.5-1.5,9-3.1,13.5-4.8c0.8-0.3,1.5-0.8,2.9-1.4c-7-3.4-22.2-6.8-22.3-6.9s-0.8-3-1.2-7.1c-0.4-4.2,0.1-12,0.6-12.6
					c0.5-0.6,5-1.4,5.3-1.5c7.2-2.3,17.2-8.5,19.4-10.8c2.2-2.3,2.9-5.3,3-5.2c0.7-0.6,1.2-1,2-1.7c0.5,1.8,0.9,3.2,1.1,4.6
					c0.5,3.4,0.8,6.9,1.4,10.3c0.8,4.1-0.9,6.9-3.9,9.3c-1.3,1.1-2.7,2.1-4.2,3.3c1.7,1,1.9,1,4.6,2.7s4.5,3.7,5.1,6.6
					c1.2,5.2,1,10.5,0.2,15.8c-0.6,4.5-3.1,7.4-7,9.5c-1.2,0.6-2.5,1.3-4.2,2.2c1,0.5,1.5,0.6,1.9,0.9
					C90.9,124.6,94.2,126.2,95.4,129.7z"/>
			</g>
		</g>
	</g>
</g>
</svg>
