<?xml version="1.0" encoding="utf-8"?>
<!-- Generator: Adobe Illustrator 19.1.0, SVG Export Plug-In . SVG Version: 6.00 Build 0)  -->
<svg version="1.1" id="Layer_1" xmlns="http://www.w3.org/2000/svg" xmlns:xlink="http://www.w3.org/1999/xlink" x="0px" y="0px"
	 viewBox="0 0 200 200" style="enable-background:new 0 0 200 200;" xml:space="preserve">
<style type="text/css">
	.st0{fill:#0E2850;}
	.st1{filter:url(#Adobe_OpacityMaskFilter);}
	.st2{mask:url(#SVGID_1_);fill:#FFFFFF;}
	.st3{fill:#A2C9E6;}
	.st4{fill:#97BBD5;}
	.st5{fill:#8EB0C9;}
	.st6{fill:#FFFFFF;}
	.st7{fill:#466073;}
	.st8{fill:none;stroke:#C0392B;stroke-width:6;stroke-miterlimit:10;}
	.st9{fill:none;stroke:#C0392B;stroke-width:5;stroke-linecap:round;stroke-linejoin:round;}
	.st10{fill:none;stroke:#C0392B;stroke-width:5;stroke-linecap:round;stroke-linejoin:round;stroke-dasharray:0.9858,7.8862;}
	.st11{fill:none;stroke:#C0392B;stroke-width:5;stroke-miterlimit:10;}
	.st12{clip-path:url(#SVGID_3_);}
	.st13{clip-path:url(#SVGID_5_);}
	.st14{clip-path:url(#SVGID_7_);}
	.st15{fill:none;}
	.st16{clip-path:url(#SVGID_9_);}
	.st17{clip-path:url(#SVGID_11_);}
	.st18{fill:#E74C3C;}
	.st19{clip-path:url(#SVGID_13_);fill:#E74C3C;}
	.st20{fill:#C0392B;}
	.st21{clip-path:url(#SVGID_15_);}
	.st22{clip-path:url(#SVGID_17_);fill:#E74C3C;}
	.st23{clip-path:url(#SVGID_19_);}
	.st24{clip-path:url(#SVGID_21_);fill:#C0392B;}
	.st25{clip-path:url(#SVGID_23_);}
	.st26{fill:#E67E22;}
	.st27{clip-path:url(#SVGID_25_);fill:#E67E22;}
	.st28{fill:#D35400;}
	.st29{clip-path:url(#SVGID_27_);}
	.st30{clip-path:url(#SVGID_29_);fill:#D35400;}
	.st31{clip-path:url(#SVGID_31_);}
	.st32{fill:#3498DB;}
	.st33{clip-path:url(#SVGID_33_);fill:#3498DB;}
	.st34{fill:#2980B9;}
	.st35{clip-path:url(#SVGID_35_);}
	.st36{clip-path:url(#SVGID_37_);fill:#2980B9;}
	.st37{clip-path:url(#SVGID_39_);}
	
		.st38{fill:none;stroke:#C0392B;stroke-width:5;stroke-linecap:round;stroke-linejoin:round;stroke-miterlimit:10;stroke-dasharray:1,8;}
	.st39{fill:#ED1C24;}
	.st40{fill:#FF00FF;}
	.st41{fill:#FBB03B;}
	.st42{fill:none;stroke:#0E2850;stroke-width:4.6392;stroke-miterlimit:10;}
	.st43{fill:none;stroke:#A2C9E6;stroke-miterlimit:10;}
	.st44{fill:#F2F2F2;}
	.st45{fill:none;stroke:#0E2850;stroke-width:2;stroke-miterlimit:10;}
	.st46{fill:none;stroke:#0E2850;stroke-width:1.5;stroke-miterlimit:10;}
	.st47{fill:#0E2850;stroke:#0E2850;stroke-width:0.5;stroke-miterlimit:10;}
	.st48{fill:#D9E021;}
	.st49{fill:#A3A819;}
	.st50{fill:#333333;}
	.st51{fill:#BC842C;}
	.st52{clip-path:url(#SVGID_41_);fill:#FFFFFF;}
	.st53{filter:url(#Adobe_OpacityMaskFilter_1_);}
	.st54{mask:url(#SVGID_42_);}
	.st55{clip-path:url(#SVGID_44_);fill:#FFFFFF;}
	.st56{filter:url(#Adobe_OpacityMaskFilter_2_);}
	.st57{mask:url(#SVGID_45_);fill:#0E2850;}
	.st58{clip-path:url(#SVGID_47_);fill:#A2C9E6;}
	.st59{clip-path:url(#SVGID_47_);fill:#97BBD5;}
	.st60{clip-path:url(#SVGID_47_);}
	.st61{clip-path:url(#SVGID_47_);fill:#0E2850;}
	.st62{clip-path:url(#SVGID_49_);fill:#A2C9E6;}
	.st63{clip-path:url(#SVGID_49_);fill:#97BBD5;}
	.st64{clip-path:url(#SVGID_49_);fill:#0E2850;}
	.st65{clip-path:url(#SVGID_49_);}
	.st66{clip-path:url(#SVGID_51_);fill:#A2C9E6;}
	.st67{clip-path:url(#SVGID_51_);fill:#8EB0C9;}
	.st68{clip-path:url(#SVGID_51_);fill:#466073;}
	.st69{clip-path:url(#SVGID_51_);fill:#97BBD5;}
	.st70{clip-path:url(#SVGID_51_);fill:#0E2850;}
	.st71{clip-path:url(#SVGID_51_);fill:none;stroke:#0E2850;stroke-width:2;stroke-miterlimit:10;}
	.st72{clip-path:url(#SVGID_51_);fill:none;stroke:#0E2850;stroke-width:1.5;stroke-miterlimit:10;}
	.st73{clip-path:url(#SVGID_51_);fill:#FFFFFF;}
	.st74{clip-path:url(#SVGID_53_);fill:#A2C9E6;}
	.st75{clip-path:url(#SVGID_53_);}
	.st76{clip-path:url(#SVGID_55_);fill:#FFFFFF;}
	.st77{filter:url(#Adobe_OpacityMaskFilter_3_);}
	.st78{mask:url(#SVGID_56_);fill:#0E2850;}
	.st79{clip-path:url(#SVGID_58_);fill:#A2C9E6;}
	.st80{clip-path:url(#SVGID_58_);fill:#97BBD5;}
	.st81{clip-path:url(#SVGID_58_);}
	.st82{fill:none;stroke:#0E2850;stroke-width:6.2062;stroke-miterlimit:10;}
	.st83{clip-path:url(#SVGID_60_);fill:#A2C9E6;}
	.st84{clip-path:url(#SVGID_60_);fill:#97BBD5;}
	.st85{clip-path:url(#SVGID_60_);fill:#0E2850;}
	.st86{clip-path:url(#SVGID_60_);}
	.st87{display:none;fill:#97BBD5;}
	.st88{clip-path:url(#SVGID_62_);fill:#A2C9E6;}
	.st89{clip-path:url(#SVGID_62_);fill:#97BBD5;}
	.st90{clip-path:url(#SVGID_62_);}
	.st91{fill:none;stroke:#97BBD5;stroke-width:4;stroke-linejoin:round;stroke-miterlimit:10;}
	.st92{filter:url(#Adobe_OpacityMaskFilter_4_);}
	.st93{mask:url(#SVGID_63_);fill:#97BBD5;}
	.st94{clip-path:url(#SVGID_65_);fill:#A2C9E6;}
	.st95{clip-path:url(#SVGID_65_);fill:#97BBD5;}
	.st96{clip-path:url(#SVGID_65_);fill:#0E2850;}
	.st97{clip-path:url(#SVGID_65_);fill:#FFFFFF;}
	.st98{clip-path:url(#SVGID_67_);fill:#A2C9E6;}
	.st99{clip-path:url(#SVGID_67_);fill:#97BBD5;}
	.st100{clip-path:url(#SVGID_67_);fill:none;stroke:#0E2850;stroke-width:3.7897;stroke-miterlimit:10;}
	.st101{clip-path:url(#SVGID_67_);}
	.st102{clip-path:url(#SVGID_69_);fill:#A2C9E6;}
	.st103{clip-path:url(#SVGID_69_);fill:#FFFFFF;}
	.st104{clip-path:url(#SVGID_69_);}
</style>
<path class="st87" d="M63.7,108l94.3,94h60.3l-9.7-97.7L135,31c0,0,17.9,19.9,14.1,45.6c-3.8,25.7-17.6,29.8-25.9,36.6
	C93.1,127.7,63.7,108,63.7,108z"/>
<g>
	<defs>
		<rect id="SVGID_68_" x="0" width="200" height="200"/>
	</defs>
	<clipPath id="SVGID_1_">
		<use xlink:href="#SVGID_68_"  style="overflow:visible;"/>
	</clipPath>
	<rect x="-5.5" y="-3" style="clip-path:url(#SVGID_1_);fill:#A2C9E6;" width="210" height="210"/>
	<circle style="clip-path:url(#SVGID_1_);fill:#FFFFFF;" cx="98.4" cy="68.9" r="50.7"/>
	<g style="clip-path:url(#SVGID_1_);">
		<g>
			<path class="st0" d="M142.7,103.6c0,2-0.8,4-2.4,5.4l-6.6,5.9c-2.8,2.5-7.1,2.4-9.8-0.2c-0.1-0.1-0.3-0.3-0.4-0.4
				c-0.7-0.8-1.2-1.8-1.5-2.8c3.2-1.7,6.2-3.8,8.9-6.3c2.8-2.5,5.3-5.3,7.5-8.3c1,0.4,1.9,1,2.6,1.9c0.1,0.1,0.2,0.2,0.3,0.4
				C142.2,100.4,142.7,102,142.7,103.6z"/>
			<path class="st0" d="M182.2,158.9l-3.9,3.5c-2.3,2-5.8,1.8-7.8-0.5L128.8,115c-2-2.3-1.8-5.8,0.5-7.8l3.9-3.5
				c2.3-2,5.8-1.8,7.8,0.5l41.6,46.9C184.7,153.3,184.5,156.9,182.2,158.9z"/>
		</g>
		<g>
			<path class="st0" d="M137.7,33.9c-10-11.2-24.3-17.6-39.3-17.6c-12.8,0-25.2,4.7-34.8,13.2C41.9,48.7,40,81.9,59.2,103.6
				c9.9,11.2,24.3,17.6,39.3,17.6c9,0,17.7-2.3,25.4-6.6c3.4-1.9,6.5-4.1,9.4-6.7c3-2.7,5.7-5.7,7.9-8.8
				C155.1,79.7,154.2,52.5,137.7,33.9z M138.3,96.9c-2.1,3-4.6,5.8-7.5,8.3c-2.7,2.4-5.7,4.5-8.9,6.3c-7.1,3.9-15.2,6-23.5,6
				c-14,0-27.3-6-36.5-16.4c-17.9-20.1-16-51,4.1-68.9c8.9-7.9,20.4-12.3,32.4-12.3c14,0,27.3,6,36.5,16.4
				c8.7,9.8,13,22.3,12.2,35.3C146.6,80.9,143.5,89.5,138.3,96.9z"/>
		</g>
	</g>
	<g style="clip-path:url(#SVGID_1_);">
		<polygon class="st91" points="121.5,77.8 108,85.7 94.5,77.8 94.5,62 108,54.1 121.5,62 		"/>
		<polygon class="st91" points="94.5,77.8 81,82.7 72.5,69.9 80.6,57.1 94.5,62 		"/>
	</g>
	<g style="clip-path:url(#SVGID_1_);">
		<rect x="9.2" y="151.6" class="st15" width="181.6" height="43.9"/>
		<path d="M59.8,153.1c0.9,0,2.5,0.1,3.7,1c0.5,0.4,1.4,1.4,1.4,3.3c0,0.8-0.2,2.2-1.6,3.1c2.2,0.6,3,2.5,3,4s-0.8,2.8-1.6,3.5
			c-1.3,1-2.7,1.1-3.8,1.1h-4v-16H59.8z M58.7,160.1H60c0.9,0,3.1-0.2,3.1-2.7c0-2.6-2.6-2.7-3.1-2.7h-1.4V160.1z M58.7,167.4h2
			c1,0,2-0.1,2.8-0.7c0.6-0.5,1.1-1.2,1.1-2.2c0-1.3-0.7-2-1.4-2.4c-0.6-0.3-1.4-0.5-2.7-0.5h-1.8V167.4z"/>
		<path d="M72.2,153.1c1.1,0,2.7,0.1,3.9,0.9c0.9,0.6,1.8,1.8,1.8,3.6c0,2.4-1.6,4.2-4,4.4l5.1,7.2h-2.2l-4.9-7h-0.5v7h-1.8v-16
			H72.2z M71.4,160.5h1.1c2.2,0,3.5-1.1,3.5-2.9c0-0.9-0.3-1.8-1.3-2.4c-0.7-0.4-1.5-0.5-2.3-0.5h-1.1V160.5z"/>
		<path d="M80.8,161.1c0-4.8,3.7-8.3,8.3-8.3c4.6,0,8.3,3.5,8.3,8.3c0,4.8-3.7,8.3-8.3,8.3C84.5,169.4,80.8,165.9,80.8,161.1z
			 M82.6,161.1c0,3.7,2.9,6.6,6.5,6.6c3.6,0,6.5-2.9,6.5-6.6c0-3.7-2.9-6.6-6.5-6.6C85.5,154.5,82.6,157.4,82.6,161.1z"/>
		<path d="M100.3,153.1l4.2,12l5-12.8l4.8,12.8l4.7-12h2l-6.7,16.8l-4.7-12.8l-5,12.8l-6.1-16.8H100.3z"/>
		<path d="M130.4,156.3c-0.2-0.4-0.6-0.9-0.9-1.2c-0.3-0.2-0.9-0.6-1.8-0.6c-1.6,0-2.7,1-2.7,2.5c0,0.6,0.2,1,0.6,1.4
			c0.5,0.5,1.1,0.7,1.7,1l1.5,0.7c0.9,0.4,1.8,0.8,2.5,1.5c0.8,0.8,1.2,1.8,1.2,2.9c0,3-2.2,4.9-5.1,4.9c-1.1,0-2.4-0.2-3.5-1.3
			c-0.8-0.8-1.3-1.9-1.5-2.8l1.7-0.5c0.1,0.8,0.5,1.6,1,2c0.7,0.7,1.5,0.9,2.3,0.9c2.2,0,3.2-1.6,3.2-3.2c0-0.7-0.2-1.3-0.8-1.9
			c-0.5-0.4-1.1-0.7-1.9-1.1l-1.4-0.7c-0.6-0.3-1.4-0.6-2.1-1.3c-0.7-0.7-1.1-1.4-1.1-2.6c0-2.5,1.9-4.1,4.5-4.1
			c1,0,1.8,0.2,2.6,0.7c0.6,0.4,1.2,1.1,1.6,1.8L130.4,156.3z"/>
		<path d="M144,154.8h-6.5v4.8h6.3v1.7h-6.3v6.2h6.5v1.7h-8.3v-16h8.3V154.8z"/>
		<path d="M42.2,178.9c-0.2-0.4-0.6-0.9-0.9-1.2c-0.3-0.2-0.9-0.6-1.8-0.6c-1.6,0-2.7,1-2.7,2.5c0,0.6,0.2,1,0.6,1.4
			c0.5,0.5,1.1,0.7,1.7,1l1.5,0.7c0.9,0.4,1.8,0.8,2.5,1.5c0.8,0.8,1.2,1.8,1.2,2.9c0,3-2.2,4.9-5.1,4.9c-1.1,0-2.4-0.2-3.5-1.3
			c-0.8-0.8-1.3-1.9-1.5-2.8l1.7-0.5c0.1,0.8,0.5,1.6,1,2c0.7,0.7,1.5,0.9,2.3,0.9c2.2,0,3.2-1.6,3.2-3.2c0-0.7-0.2-1.3-0.8-1.9
			c-0.5-0.4-1.1-0.7-1.9-1.1l-1.4-0.7c-0.6-0.3-1.4-0.6-2.1-1.3c-0.7-0.7-1.1-1.4-1.1-2.6c0-2.5,1.9-4.1,4.5-4.1
			c1,0,1.8,0.2,2.6,0.7c0.6,0.4,1.2,1.1,1.6,1.8L42.2,178.9z"/>
		<path d="M49.3,185.5c0,1.3,0,2.8,1.3,3.9c0.6,0.6,1.8,0.9,2.6,0.9s2-0.4,2.6-0.9c1.3-1.1,1.3-2.5,1.3-3.9v-9.8h1.8V186
			c0,1.3-0.1,2.6-1,3.8c-1,1.3-2.6,2.2-4.7,2.2s-3.7-0.8-4.7-2.2c-0.9-1.2-1-2.5-1-3.8v-10.3h1.8V185.5z"/>
		<path d="M65.9,175.7c0.9,0,2.5,0.1,3.7,1c0.5,0.4,1.4,1.4,1.4,3.3c0,0.8-0.2,2.2-1.6,3.1c2.2,0.6,3,2.5,3,4s-0.8,2.8-1.6,3.5
			c-1.3,1-2.7,1.1-3.8,1.1h-4v-16H65.9z M64.8,182.7h1.3c0.9,0,3.1-0.2,3.1-2.7c0-2.6-2.6-2.7-3.1-2.7h-1.4V182.7z M64.8,190h2
			c1,0,2-0.1,2.8-0.7c0.6-0.5,1.1-1.2,1.1-2.2c0-1.3-0.7-2-1.4-2.4c-0.6-0.3-1.4-0.5-2.7-0.5h-1.8V190z"/>
		<path d="M82.9,178.9c-0.2-0.4-0.6-0.9-0.9-1.2c-0.3-0.2-0.9-0.6-1.8-0.6c-1.6,0-2.7,1-2.7,2.5c0,0.6,0.2,1,0.6,1.4
			c0.5,0.5,1.1,0.7,1.7,1l1.5,0.7c0.9,0.4,1.8,0.8,2.5,1.5c0.8,0.8,1.2,1.8,1.2,2.9c0,3-2.2,4.9-5.1,4.9c-1.1,0-2.4-0.2-3.5-1.3
			c-0.8-0.8-1.3-1.9-1.5-2.8l1.7-0.5c0.1,0.8,0.5,1.6,1,2c0.7,0.7,1.5,0.9,2.3,0.9c2.2,0,3.2-1.6,3.2-3.2c0-0.7-0.2-1.3-0.8-1.9
			c-0.5-0.4-1.1-0.7-1.9-1.1l-1.4-0.7c-0.6-0.3-1.4-0.6-2.1-1.3c-0.7-0.7-1.1-1.4-1.1-2.6c0-2.5,1.9-4.1,4.5-4.1
			c1,0,1.8,0.2,2.6,0.7c0.6,0.4,1.2,1.1,1.6,1.8L82.9,178.9z"/>
		<path d="M91.1,177.4v14.3h-1.8v-14.3h-3.9v-1.7h9.6v1.7H91.1z"/>
		<path d="M105.1,187.2h-6.8l-1.9,4.5h-2l7.4-16.8l7.2,16.8h-2L105.1,187.2z M104.4,185.5l-2.7-6.4l-2.7,6.4H104.4z"/>
		<path d="M111.2,191.7V175l12.5,13.1v-12.4h1.8v16.7L113,179.3v12.4H111.2z"/>
		<path d="M141.8,179.2c-0.5-0.5-1.3-1.1-2.1-1.5c-0.8-0.4-1.8-0.6-2.8-0.6c-3.7,0-6.4,3-6.4,6.7c0,4.3,3.5,6.5,6.5,6.5
			c1.1,0,2.1-0.3,3-0.7c0.9-0.5,1.6-1.1,1.8-1.3v2.2c-1.8,1.3-3.6,1.6-4.8,1.6c-4.8,0-8.3-3.6-8.3-8.2c0-4.8,3.6-8.3,8.4-8.3
			c1,0,2.8,0.1,4.7,1.6V179.2z"/>
		<path d="M153.4,177.4h-6.5v4.8h6.3v1.7h-6.3v6.2h6.5v1.7h-8.3v-16h8.3V177.4z"/>
		<path d="M163.8,178.9c-0.2-0.4-0.6-0.9-0.9-1.2c-0.3-0.2-0.9-0.6-1.8-0.6c-1.6,0-2.7,1-2.7,2.5c0,0.6,0.2,1,0.6,1.4
			c0.5,0.5,1.1,0.7,1.7,1l1.5,0.7c0.9,0.4,1.8,0.8,2.5,1.5c0.8,0.8,1.2,1.8,1.2,2.9c0,3-2.2,4.9-5.1,4.9c-1.1,0-2.4-0.2-3.5-1.3
			c-0.8-0.8-1.3-1.9-1.5-2.8l1.7-0.5c0.1,0.8,0.5,1.6,1,2c0.7,0.7,1.5,0.9,2.3,0.9c2.2,0,3.2-1.6,3.2-3.2c0-0.7-0.2-1.3-0.8-1.9
			c-0.5-0.4-1.1-0.7-1.9-1.1l-1.4-0.7c-0.6-0.3-1.4-0.6-2.1-1.3c-0.7-0.7-1.1-1.4-1.1-2.6c0-2.5,1.9-4.1,4.5-4.1
			c1,0,1.8,0.2,2.6,0.7c0.6,0.4,1.2,1.1,1.6,1.8L163.8,178.9z"/>
	</g>
</g>
</svg>
