<?xml version="1.0" encoding="utf-8"?>
<!-- Generator: Adobe Illustrator 19.1.0, SVG Export Plug-In . SVG Version: 6.00 Build 0)  -->
<svg version="1.1" id="Layer_1" xmlns="http://www.w3.org/2000/svg" xmlns:xlink="http://www.w3.org/1999/xlink" x="0px" y="0px"
	 viewBox="0 0 200 200" style="enable-background:new 0 0 200 200;" xml:space="preserve">
<style type="text/css">
	.st0{fill:#0E2850;}
	.st1{filter:url(#Adobe_OpacityMaskFilter);}
	.st2{mask:url(#SVGID_1_);fill:#FFFFFF;}
	.st3{fill:#A2C9E6;}
	.st4{fill:#97BBD5;}
	.st5{fill:#8EB0C9;}
	.st6{fill:#FFFFFF;}
	.st7{fill:#466073;}
	.st8{fill:none;stroke:#C0392B;stroke-width:6;stroke-miterlimit:10;}
	.st9{fill:none;stroke:#C0392B;stroke-width:5;stroke-linecap:round;stroke-linejoin:round;}
	.st10{fill:none;stroke:#C0392B;stroke-width:5;stroke-linecap:round;stroke-linejoin:round;stroke-dasharray:0.9858,7.8862;}
	.st11{fill:none;stroke:#C0392B;stroke-width:5;stroke-miterlimit:10;}
	.st12{clip-path:url(#SVGID_3_);}
	.st13{clip-path:url(#SVGID_5_);}
	.st14{clip-path:url(#SVGID_7_);}
	.st15{fill:none;}
	.st16{clip-path:url(#SVGID_9_);}
	.st17{clip-path:url(#SVGID_11_);}
	.st18{fill:#E74C3C;}
	.st19{clip-path:url(#SVGID_13_);fill:#E74C3C;}
	.st20{fill:#C0392B;}
	.st21{clip-path:url(#SVGID_15_);}
	.st22{clip-path:url(#SVGID_17_);fill:#E74C3C;}
	.st23{clip-path:url(#SVGID_19_);}
	.st24{clip-path:url(#SVGID_21_);fill:#C0392B;}
	.st25{clip-path:url(#SVGID_23_);}
	.st26{fill:#E67E22;}
	.st27{clip-path:url(#SVGID_25_);fill:#E67E22;}
	.st28{fill:#D35400;}
	.st29{clip-path:url(#SVGID_27_);}
	.st30{clip-path:url(#SVGID_29_);fill:#D35400;}
	.st31{clip-path:url(#SVGID_31_);}
	.st32{fill:#3498DB;}
	.st33{clip-path:url(#SVGID_33_);fill:#3498DB;}
	.st34{fill:#2980B9;}
	.st35{clip-path:url(#SVGID_35_);}
	.st36{clip-path:url(#SVGID_37_);fill:#2980B9;}
	.st37{clip-path:url(#SVGID_39_);}
	
		.st38{fill:none;stroke:#C0392B;stroke-width:5;stroke-linecap:round;stroke-linejoin:round;stroke-miterlimit:10;stroke-dasharray:1,8;}
	.st39{fill:#ED1C24;}
	.st40{fill:#FF00FF;}
	.st41{fill:#FBB03B;}
	.st42{fill:none;stroke:#0E2850;stroke-width:4.6392;stroke-miterlimit:10;}
	.st43{fill:none;stroke:#A2C9E6;stroke-miterlimit:10;}
	.st44{fill:#F2F2F2;}
	.st45{fill:none;stroke:#0E2850;stroke-width:2;stroke-miterlimit:10;}
	.st46{fill:none;stroke:#0E2850;stroke-width:1.5;stroke-miterlimit:10;}
	.st47{fill:#0E2850;stroke:#0E2850;stroke-width:0.5;stroke-miterlimit:10;}
	.st48{fill:#D9E021;}
	.st49{fill:#A3A819;}
	.st50{fill:#333333;}
	.st51{fill:#BC842C;}
	.st52{clip-path:url(#SVGID_41_);fill:#FFFFFF;}
	.st53{filter:url(#Adobe_OpacityMaskFilter_1_);}
	.st54{mask:url(#SVGID_42_);}
	.st55{clip-path:url(#SVGID_44_);fill:#FFFFFF;}
	.st56{filter:url(#Adobe_OpacityMaskFilter_2_);}
	.st57{mask:url(#SVGID_45_);fill:#0E2850;}
	.st58{clip-path:url(#SVGID_47_);fill:#A2C9E6;}
	.st59{clip-path:url(#SVGID_47_);fill:#97BBD5;}
	.st60{clip-path:url(#SVGID_47_);}
	.st61{clip-path:url(#SVGID_47_);fill:#0E2850;}
	.st62{clip-path:url(#SVGID_49_);fill:#A2C9E6;}
	.st63{clip-path:url(#SVGID_49_);fill:#97BBD5;}
	.st64{clip-path:url(#SVGID_49_);fill:#0E2850;}
	.st65{clip-path:url(#SVGID_49_);}
	.st66{clip-path:url(#SVGID_51_);fill:#A2C9E6;}
	.st67{clip-path:url(#SVGID_51_);fill:#8EB0C9;}
	.st68{clip-path:url(#SVGID_51_);fill:#466073;}
	.st69{clip-path:url(#SVGID_51_);fill:#97BBD5;}
	.st70{clip-path:url(#SVGID_51_);fill:#0E2850;}
	.st71{clip-path:url(#SVGID_51_);fill:none;stroke:#0E2850;stroke-width:2;stroke-miterlimit:10;}
	.st72{clip-path:url(#SVGID_51_);fill:none;stroke:#0E2850;stroke-width:1.5;stroke-miterlimit:10;}
	.st73{clip-path:url(#SVGID_51_);fill:#FFFFFF;}
	.st74{clip-path:url(#SVGID_53_);fill:#A2C9E6;}
	.st75{clip-path:url(#SVGID_53_);}
	.st76{clip-path:url(#SVGID_55_);fill:#FFFFFF;}
	.st77{filter:url(#Adobe_OpacityMaskFilter_3_);}
	.st78{mask:url(#SVGID_56_);fill:#0E2850;}
	.st79{clip-path:url(#SVGID_58_);fill:#A2C9E6;}
	.st80{clip-path:url(#SVGID_58_);fill:#97BBD5;}
	.st81{clip-path:url(#SVGID_58_);}
	.st82{fill:none;stroke:#0E2850;stroke-width:6.2062;stroke-miterlimit:10;}
	.st83{clip-path:url(#SVGID_60_);fill:#A2C9E6;}
	.st84{clip-path:url(#SVGID_60_);fill:#97BBD5;}
	.st85{clip-path:url(#SVGID_60_);fill:#0E2850;}
	.st86{clip-path:url(#SVGID_60_);}
	.st87{display:none;fill:#97BBD5;}
	.st88{clip-path:url(#SVGID_62_);fill:#A2C9E6;}
	.st89{clip-path:url(#SVGID_62_);fill:#97BBD5;}
	.st90{clip-path:url(#SVGID_62_);}
	.st91{fill:none;stroke:#97BBD5;stroke-width:4;stroke-linejoin:round;stroke-miterlimit:10;}
	.st92{filter:url(#Adobe_OpacityMaskFilter_4_);}
	.st93{mask:url(#SVGID_63_);fill:#97BBD5;}
	.st94{clip-path:url(#SVGID_65_);fill:#A2C9E6;}
	.st95{clip-path:url(#SVGID_65_);fill:#97BBD5;}
	.st96{clip-path:url(#SVGID_65_);fill:#0E2850;}
	.st97{clip-path:url(#SVGID_65_);fill:#FFFFFF;}
	.st98{clip-path:url(#SVGID_67_);fill:#A2C9E6;}
	.st99{clip-path:url(#SVGID_67_);fill:#97BBD5;}
	.st100{clip-path:url(#SVGID_67_);fill:none;stroke:#0E2850;stroke-width:3.7897;stroke-miterlimit:10;}
	.st101{clip-path:url(#SVGID_67_);}
	.st102{clip-path:url(#SVGID_69_);fill:#A2C9E6;}
	.st103{clip-path:url(#SVGID_69_);fill:#FFFFFF;}
	.st104{clip-path:url(#SVGID_69_);}
</style>
<g>
	<defs>
		<rect id="SVGID_61_" x="0" width="200" height="200"/>
	</defs>
	<clipPath id="SVGID_1_">
		<use xlink:href="#SVGID_61_"  style="overflow:visible;"/>
	</clipPath>
	<rect x="-5.5" y="-3" style="clip-path:url(#SVGID_1_);fill:#A2C9E6;" width="210" height="210"/>
	<polygon style="clip-path:url(#SVGID_1_);fill:#97BBD5;" points="52.9,121.8 147.1,215.8 218.3,202 219.7,88.8 146.2,15.5 
		120.1,76.6 86,97.8 	"/>
	<g style="clip-path:url(#SVGID_1_);">
		<rect x="9.2" y="151.6" class="st15" width="181.6" height="43.9"/>
		<path d="M47.9,153.1c1.1,0,2.7,0.1,3.9,0.9c0.9,0.6,1.8,1.8,1.8,3.6c0,2.4-1.6,4.2-4,4.4l5.1,7.2h-2.2l-4.9-7h-0.5v7h-1.8v-16
			H47.9z M47.1,160.5h1.1c2.2,0,3.5-1.1,3.5-2.9c0-0.9-0.3-1.8-1.3-2.4c-0.7-0.4-1.5-0.5-2.3-0.5h-1.1V160.5z"/>
		<path d="M65.7,154.8h-6.5v4.8h6.3v1.7h-6.3v6.2h6.5v1.7h-8.3v-16h8.3V154.8z"/>
		<path d="M77.2,161.1h6.7v0.4c0,1.8-0.5,3.7-1.5,5.1c-0.5,0.6-2.3,2.9-6,2.9c-4.8,0-8.3-3.6-8.3-8.3s3.6-8.3,8.4-8.3
			c1.5,0,3.3,0.4,4.9,1.6c0.7,0.6,1.4,1.3,1.8,1.9l-1.3,1.2c-0.5-0.6-1-1.2-1.5-1.7c-0.8-0.6-2-1.3-3.9-1.3c-3.9,0-6.6,2.9-6.6,6.6
			c0,4.4,3.5,6.6,6.5,6.6c2.1,0,4-1.1,4.9-2.7c0.3-0.5,0.6-1.3,0.6-2.3h-4.8V161.1z"/>
		<path d="M88.9,153.1v16h-1.8v-16H88.9z"/>
		<path d="M100.2,156.3c-0.2-0.4-0.6-0.9-0.9-1.2c-0.3-0.2-0.9-0.6-1.8-0.6c-1.6,0-2.7,1-2.7,2.5c0,0.6,0.2,1,0.6,1.4
			c0.5,0.5,1.1,0.7,1.7,1l1.5,0.7c0.9,0.4,1.8,0.8,2.5,1.5c0.8,0.8,1.2,1.8,1.2,2.9c0,3-2.2,4.9-5.1,4.9c-1.1,0-2.4-0.2-3.5-1.3
			c-0.8-0.8-1.3-1.9-1.5-2.8l1.7-0.5c0.1,0.8,0.5,1.6,1,2c0.7,0.7,1.5,0.9,2.3,0.9c2.2,0,3.2-1.6,3.2-3.2c0-0.7-0.2-1.3-0.8-1.9
			c-0.5-0.4-1.1-0.7-1.9-1.1l-1.4-0.7c-0.6-0.3-1.4-0.6-2.1-1.3c-0.7-0.7-1.1-1.4-1.1-2.6c0-2.5,1.9-4.1,4.5-4.1
			c1,0,1.8,0.2,2.6,0.7c0.6,0.4,1.2,1.1,1.6,1.8L100.2,156.3z"/>
		<path d="M108.4,154.8v14.3h-1.8v-14.3h-3.9v-1.7h9.6v1.7H108.4z"/>
		<path d="M123,154.8h-6.5v4.8h6.3v1.7h-6.3v6.2h6.5v1.7h-8.3v-16h8.3V154.8z"/>
		<path d="M128.8,153.1c1.1,0,2.7,0.1,3.9,0.9c0.9,0.6,1.8,1.8,1.8,3.6c0,2.4-1.6,4.2-4,4.4l5.1,7.2h-2.2l-4.9-7H128v7h-1.8v-16
			H128.8z M128,160.5h1.1c2.2,0,3.5-1.1,3.5-2.9c0-0.9-0.3-1.8-1.3-2.4c-0.7-0.4-1.5-0.5-2.3-0.5H128V160.5z"/>
		<path d="M152.7,164.6h-6.8l-1.9,4.5h-2l7.4-16.8l7.2,16.8h-2L152.7,164.6z M152,162.9l-2.7-6.4l-2.7,6.4H152z"/>
		<path d="M48.4,178.9c-0.2-0.4-0.6-0.9-0.9-1.2c-0.3-0.2-0.9-0.6-1.8-0.6c-1.6,0-2.7,1-2.7,2.5c0,0.6,0.2,1,0.6,1.4
			c0.5,0.5,1.1,0.7,1.7,1l1.5,0.7c0.9,0.4,1.8,0.8,2.5,1.5c0.8,0.8,1.2,1.8,1.2,2.9c0,3-2.2,4.9-5.1,4.9c-1.1,0-2.4-0.2-3.5-1.3
			c-0.8-0.8-1.3-1.9-1.5-2.8l1.7-0.5c0.1,0.8,0.5,1.6,1,2c0.7,0.7,1.5,0.9,2.3,0.9c2.2,0,3.2-1.6,3.2-3.2c0-0.7-0.2-1.3-0.8-1.9
			c-0.5-0.4-1.1-0.7-1.9-1.1l-1.4-0.7c-0.6-0.3-1.4-0.6-2.1-1.3c-0.7-0.7-1.1-1.4-1.1-2.6c0-2.5,1.9-4.1,4.5-4.1
			c1,0,1.8,0.2,2.6,0.7c0.6,0.4,1.2,1.1,1.6,1.8L48.4,178.9z"/>
		<path d="M55.5,185.5c0,1.3,0,2.8,1.3,3.9c0.6,0.6,1.8,0.9,2.6,0.9c0.9,0,2-0.4,2.6-0.9c1.3-1.1,1.3-2.5,1.3-3.9v-9.8h1.8V186
			c0,1.3-0.1,2.6-1,3.8c-1,1.3-2.6,2.2-4.7,2.2c-2,0-3.7-0.8-4.7-2.2c-0.9-1.2-1-2.5-1-3.8v-10.3h1.8V185.5z"/>
		<path d="M72.1,175.7c0.9,0,2.5,0.1,3.7,1c0.5,0.4,1.4,1.4,1.4,3.3c0,0.8-0.2,2.2-1.6,3.1c2.2,0.6,3,2.5,3,4s-0.8,2.8-1.6,3.5
			c-1.3,1-2.7,1.1-3.8,1.1h-4v-16H72.1z M71,182.7h1.3c0.9,0,3.1-0.2,3.1-2.7c0-2.6-2.6-2.7-3.1-2.7H71V182.7z M71,190h2
			c1,0,2-0.1,2.8-0.7c0.6-0.5,1.1-1.2,1.1-2.2c0-1.3-0.7-2-1.4-2.4c-0.6-0.3-1.4-0.5-2.7-0.5H71V190z"/>
		<path d="M89.1,178.9c-0.2-0.4-0.6-0.9-0.9-1.2c-0.3-0.2-0.9-0.6-1.8-0.6c-1.6,0-2.7,1-2.7,2.5c0,0.6,0.2,1,0.6,1.4
			c0.5,0.5,1.1,0.7,1.7,1l1.5,0.7c0.9,0.4,1.8,0.8,2.5,1.5c0.8,0.8,1.2,1.8,1.2,2.9c0,3-2.2,4.9-5.1,4.9c-1.1,0-2.4-0.2-3.5-1.3
			c-0.8-0.8-1.3-1.9-1.5-2.8l1.7-0.5c0.1,0.8,0.5,1.6,1,2c0.7,0.7,1.5,0.9,2.3,0.9c2.2,0,3.2-1.6,3.2-3.2c0-0.7-0.2-1.3-0.8-1.9
			c-0.5-0.4-1.1-0.7-1.9-1.1l-1.4-0.7c-0.6-0.3-1.4-0.6-2.1-1.3c-0.7-0.7-1.1-1.4-1.1-2.6c0-2.5,1.9-4.1,4.5-4.1
			c1,0,1.8,0.2,2.6,0.7c0.6,0.4,1.2,1.1,1.6,1.8L89.1,178.9z"/>
		<path d="M97.3,177.4v14.3h-1.8v-14.3h-3.9v-1.7h9.6v1.7H97.3z"/>
		<path d="M111.3,187.2h-6.8l-1.9,4.5h-2l7.4-16.8l7.2,16.8h-2L111.3,187.2z M110.6,185.5l-2.7-6.4l-2.7,6.4H110.6z"/>
		<path d="M117.4,191.7V175l12.5,13.1v-12.4h1.8v16.7l-12.5-13.1v12.4H117.4z"/>
		<path d="M148,179.2c-0.5-0.5-1.3-1.1-2.1-1.5c-0.8-0.4-1.8-0.6-2.8-0.6c-3.7,0-6.4,3-6.4,6.7c0,4.3,3.5,6.5,6.5,6.5
			c1.1,0,2.1-0.3,3-0.7c0.9-0.5,1.6-1.1,1.8-1.3v2.2c-1.8,1.3-3.6,1.6-4.8,1.6c-4.8,0-8.3-3.6-8.3-8.2c0-4.8,3.6-8.3,8.4-8.3
			c1,0,2.8,0.1,4.7,1.6V179.2z"/>
		<path d="M159.6,177.4h-6.5v4.8h6.3v1.7h-6.3v6.2h6.5v1.7h-8.3v-16h8.3V177.4z"/>
	</g>
	<g style="clip-path:url(#SVGID_1_);">
		<g>
			<rect x="54" y="16.9" class="st6" width="90.9" height="103.7"/>
			<g>
				<path class="st0" d="M143.5,18.4v100.7H55.5V18.4H143.5 M146.5,15.4h-3H55.5h-3v3v100.7v3h3h87.9h3v-3V18.4V15.4L146.5,15.4z"/>
			</g>
		</g>
		<g>
			<polygon class="st91" points="124,76.6 110.5,84.5 97,76.6 97,60.8 110.5,52.9 124,60.8 			"/>
			<polygon class="st91" points="97,76.6 83.5,81.5 75,68.7 83.1,55.9 97,60.8 			"/>
		</g>
	</g>
	<g style="clip-path:url(#SVGID_1_);">
		<path class="st0" d="M185.9,147.3c0.8,0.9,1,2.1,0.5,3.2c-1,2.1-2.9,5.7-6.1,8.6c-3.2,3-6.9,4.7-9.1,5.5c-1.1,0.4-2.3,0.1-3.1-0.8
			l-46.8-50.3c-0.4-0.5-0.8-1-0.9-1.7L114,89.4c-0.3-1,0.7-1.9,1.7-1.6l21.9,8.1c0.6,0.2,1.2,0.6,1.6,1.1L185.9,147.3z"/>
		<defs>
			<filter id="Adobe_OpacityMaskFilter" filterUnits="userSpaceOnUse" x="113.9" y="87.7" width="73" height="77.2">
				<feFlood  style="flood-color:white;flood-opacity:1" result="back"/>
				<feBlend  in="SourceGraphic" in2="back" mode="normal"/>
			</filter>
		</defs>
		<mask maskUnits="userSpaceOnUse" x="113.9" y="87.7" width="73" height="77.2" id="SVGID_3_">
			<g class="st1">
				<rect x="134.2" y="100" transform="matrix(0.7325 -0.6807 0.6807 0.7325 -49.9957 144.1647)" width="48.5" height="71.3"/>
				<g>
					<ellipse transform="matrix(0.7325 -0.6807 0.6807 0.7325 -42.9502 121.0527)" cx="132.6" cy="115.2" rx="3.8" ry="7.8"/>
					<ellipse transform="matrix(0.7325 -0.6807 0.6807 0.7325 -40.0667 123.6543)" cx="137.3" cy="112.8" rx="3.8" ry="7.8"/>
					<ellipse transform="matrix(0.7325 -0.6807 0.6807 0.7325 -36.2335 124.278)" cx="140" cy="108.2" rx="3.8" ry="7.8"/>
					<ellipse transform="matrix(0.7325 -0.6807 0.6807 0.7325 -32.1034 124.2835)" cx="142.1" cy="103" rx="3" ry="7.8"/>
					<ellipse transform="matrix(0.7325 -0.6807 0.6807 0.7325 -45.5369 117.833)" cx="127.2" cy="116.9" rx="3" ry="7.8"/>
				</g>
				<ellipse transform="matrix(0.7325 -0.6807 0.6807 0.7325 -30.0546 102.8036)" cx="115.8" cy="89.6" rx="3.6" ry="4.7"/>
			</g>
		</mask>
		<path style="mask:url(#SVGID_3_);fill:#97BBD5;" d="M186.6,148c0.4,0.4,0.5,1,0.3,1.5c-0.7,1.8-2.7,6.1-6.5,9.6
			c-3.8,3.5-8.2,5.2-10,5.8c-0.5,0.2-1.1,0-1.5-0.4l-47.4-51c-0.4-0.5-0.8-1-0.9-1.7L114,89.4c-0.3-1,0.7-1.9,1.7-1.6l21.9,8.1
			c0.6,0.2,1.2,0.6,1.6,1.1L186.6,148z"/>
	</g>
</g>
</svg>
